<svg version="1.1" xmlns="http://www.w3.org/2000/svg" xmlns:xlink="http://www.w3.org/1999/xlink" width="385.78811" height="359.13169" viewBox="0,0,385.78811,359.13169"><g transform="translate(-47.10595,-0.43416)"><g fill-rule="evenodd" stroke="none" stroke-miterlimit="10"><path d="M80.15111,0.43416c106.61279,0 213.22527,0 319.83807,0c8.32169,1.72034 13.50718,6.73998 15.54995,15.05891c0.36665,3.15248 0.58598,6.31701 0.65474,9.49365c4.39982,5.42396 6.91073,11.64381 7.52946,18.65995c0.10803,3.16466 0.21934,6.329 0.32736,9.49365c2.213,1.86665 4.77956,2.90309 7.69314,3.10999c1.41422,1.15463 1.52553,2.35508 0.32736,3.60105c-2.86119,0.23734 -5.53578,1.05576 -8.0205,2.45525c-0.10803,88.82561 -0.21934,177.65155 -0.32736,266.47716c-2.66805,16.41748 -12.10933,26.51349 -28.31729,30.28149c-48.55188,0.37975 -97.11259,0.54343 -145.67855,0.49106c-47.5773,-0.05565 -95.15494,-0.10803 -142.73224,-0.16368c-6.87668,-0.71366 -12.98765,-3.2213 -18.33258,-7.52946c-5.68637,0.49106 -11.03326,-0.60235 -16.04101,-3.27367c-4.7393,-3.30969 -7.52192,-7.84045 -8.34787,-13.58576c-0.10901,-13.31305 -0.21835,-26.62578 -0.32736,-39.93884c0.04944,-5.42906 -1.15103,-10.55793 -3.60105,-15.38627c-2.87068,-4.41226 -6.96278,-6.86751 -12.27628,-7.36577c-1.00535,-0.92415 -1.2237,-2.01527 -0.65474,-3.27367c6.896,-1.22009 11.64282,-5.09384 14.24049,-11.62155c0.96312,-2.54299 1.61785,-5.16193 1.96421,-7.85682c0.43278,-77.58119 0.65114,-155.1673 0.65474,-232.75831c1.71082,-8.96699 7.00338,-14.42312 15.87733,-16.36837z" fill="#232020" opacity="0.984"/><path d="M79.82373,4.36256c106.39444,-0.05457 212.78889,0 319.18333,0.16368c7.19553,1.19441 11.50697,5.3956 12.93102,12.60365c0.34374,7.43949 0.12767,14.8598 -0.65474,22.26099c-0.89699,5.67229 -3.46355,10.41913 -7.69314,14.24049c-2.54692,1.54648 -5.27389,2.6376 -8.18419,3.27367c-0.4354,0.87309 -0.4354,1.74586 0,2.61894c8.30532,1.32158 13.49082,6.06841 15.54995,14.24049c0.65474,3.23701 0.9821,6.51069 0.9821,9.82103c0.21934,83.69708 0.21934,167.39382 0,251.09089c-1.44042,7.00567 -5.64054,11.3171 -12.60365,12.93102c-106.28543,0.21934 -212.57054,0.21934 -318.85597,0c-6.85377,-1.50589 -10.94586,-5.70929 -12.27628,-12.60365c-0.31591,-15.28642 -0.20657,-30.56369 0.32736,-45.83146c0.65015,-4.902 2.50502,-9.26712 5.56525,-13.0947c2.579,-2.53383 5.689,-3.78863 9.32997,-3.76473c1.60869,-1.03808 1.7177,-2.23821 0.32736,-3.60105c-4.46103,-0.45602 -8.00774,-2.47489 -10.63945,-6.0563c-2.80488,-4.2669 -4.44173,-8.95907 -4.91051,-14.0768c-0.21835,-77.47709 -0.21835,-154.95385 0,-232.43095c1.75404,-6.06419 5.6281,-9.9926 11.62155,-11.78523z" fill="#2ab7a1"/><path d="M413.73861,44.62878c1.57791,4.08129 3.86949,7.737 6.87472,10.96681c1.09013,0.76375 2.18354,1.52783 3.27367,2.29157c-2.43889,1.19194 -4.45875,2.88313 -6.0563,5.0742c-1.57137,2.37571 -2.88083,4.88563 -3.92841,7.52946c-1.84963,-5.50206 -5.28698,-9.64883 -10.31207,-12.43996c5.048,-3.22064 8.42971,-7.69445 10.14839,-13.42206z" fill="#fbfbfb"/><path d="M240.88856,114.35805c13.20371,0 26.40775,0 39.61147,0c-0.10901,24.17118 0.00033,48.28736 0.32736,72.34822c4.58315,0 9.16629,0 13.74944,0c0,13.74944 0,27.49887 0,41.24831c-4.58315,0 -9.16629,0 -13.74944,0c0,7.96584 0,15.93199 0,23.89783c-15.49528,0 -30.9909,0 -46.48619,0c0,-7.96584 0,-15.93199 0,-23.89783c-16.36837,0 -32.73676,0 -49.10513,0c-0.05467,-10.58542 0,-21.1702 0.16368,-31.75465c18.56862,-27.24156 37.06488,-54.52241 55.48879,-81.84189z" fill="#232020"/><path d="M240.88856,114.35805c13.25741,-0.32704 26.57014,-0.43606 39.93884,-0.32736c0,24.2252 0,48.45039 0,72.67559c-0.32704,-24.06086 -0.43638,-48.17704 -0.32736,-72.34822c-13.20371,0 -26.40775,0 -39.61147,0z" fill="#264640"/><path d="M269.36953,125.48855c0,24.2252 0,48.45039 0,72.67559c4.58315,0 9.16629,0 13.74944,0c0,6.11097 0,12.22161 0,18.33258c-4.58315,0 -9.16629,0 -13.74944,0c0,7.96584 0,15.93199 0,23.89783c-7.85682,0 -15.71364,0 -23.57047,0c0,-7.85682 0,-15.71364 0,-23.57047c-16.31305,-0.32704 -32.68142,-0.43606 -49.10513,-0.32736c0,-5.56525 0,-11.13049 0,-16.69575c16.68723,-24.65569 33.38297,-49.31759 50.08723,-73.98506c7.52618,-0.32736 15.05564,-0.43638 22.58835,-0.32736z" fill="#fefefe"/><path d="M245.79907,197.83677c-9.2226,0.10836 -18.38889,-0.00065 -27.49887,-0.32736c7.14415,-10.79363 14.29156,-21.59676 21.44257,-32.40938c2.29386,-3.71365 4.42175,-7.53305 6.38366,-11.45786c0.29725,3.70907 0.2429,7.41913 -0.16368,11.13049c-0.16368,11.02083 -0.21835,22.04231 -0.16368,33.06412z" fill="#242121"/><path d="M218.3002,197.5094c9.10998,0.32671 18.27627,0.43572 27.49887,0.32736c-9.22194,0.43507 -18.49725,0.43507 -27.82624,0c0.04059,-0.19871 0.14961,-0.30772 0.32736,-0.32736z" fill="#c8c7c7"/><path d="M269.36953,125.48855c0.32704,24.06086 0.43638,48.17704 0.32736,72.34822c4.58315,0 9.16629,0 13.74944,0c0,6.329 0,12.65832 0,18.98732c-4.58315,0 -9.16629,0 -13.74944,0c0,7.96584 0,15.93199 0,23.89783c-8.02247,0.10836 -15.9883,-0.00065 -23.89783,-0.32736c7.85682,0 15.71364,0 23.57047,0c0,-7.96584 0,-15.93199 0,-23.89783c4.58315,0 9.16629,0 13.74944,0c0,-6.11097 0,-12.22161 0,-18.33258c-4.58315,0 -9.16629,0 -13.74944,0c0,-24.2252 0,-48.45039 0,-72.67559z" fill="#9d9c9c"/><path d="M196.69395,199.80097c0,5.56525 0,11.13049 0,16.69575c16.42371,-0.10868 32.79208,0.00033 49.10513,0.32736c-16.47739,0 -32.95511,0 -49.43249,0c-0.10803,-5.73155 0.00099,-11.40581 0.32736,-17.02311z" fill="#bab8b8"/><path d="M65.74693,257.09029c1.53011,3.16204 3.33063,6.21769 5.40156,9.16629c1.54256,1.38084 3.12505,2.69031 4.74683,3.92841c-4.78938,3.01505 -8.00839,7.27083 -9.65735,12.76734c-1.91346,-5.62024 -5.45983,-9.82135 -10.63945,-12.60365c5.08041,-3.12308 8.4631,-7.54255 10.14839,-13.25838z" fill="#fbfbfb"/></g></g></svg>