<svg version="1.1" xmlns="http://www.w3.org/2000/svg" xmlns:xlink="http://www.w3.org/1999/xlink" width="337.53906" height="77.75912" viewBox="0,0,337.53906,77.75912"><g transform="translate(-71.23047,-141.12044)"><g fill-rule="evenodd" stroke="none" stroke-miterlimit="10"><path d="M397.25,153.2181c-0.23958,15.33854 -0.38542,30.69792 -0.43229,46.07813c-1.26563,4.4375 -4.19792,6.88542 -8.78646,7.34375c-99.07292,0.19271 -198.14063,0.19271 -297.21354,0c-4.49479,-0.94271 -7.13542,-3.67708 -7.92188,-8.20833c-0.14063,-2.875 -0.19271,-5.75521 -0.14063,-8.64063c5.04688,-0.68229 7.20833,-3.5625 6.47917,-8.64062c-1.17188,-2.91146 -3.33333,-4.44792 -6.47917,-4.60417c0,-1.72917 0,-3.45833 0,-5.1875c4.15104,-0.16667 6.35938,-2.32813 6.61979,-6.47917c-0.39583,-4.57292 -2.89062,-6.73437 -7.48437,-6.47917c0.20313,-0.26042 0.48958,-0.35417 0.86458,-0.28646c0,-1.63542 0,-3.26563 0,-4.89583c-0.66146,-4.41146 0.77604,-7.91667 4.31771,-10.51563c1.32292,-0.82292 2.76562,-1.30208 4.31771,-1.4375c99.07292,-0.19271 198.14583,-0.19271 297.21875,0c6.33854,1.40104 9.21875,5.38542 8.64062,11.95313zM397.25,153.2181" fill-opacity="0.994" fill="#fedfb2"/><path d="M82.75521,153.2181c0,1.63021 0,3.26042 0,4.89583c-0.375,-0.06771 -0.66146,0.02604 -0.86458,0.28646c-4.47396,1.15625 -6.25,4.03646 -5.32813,8.64062c1.15625,2.76042 3.21875,4.19792 6.19271,4.31771c0,1.72917 0,3.45833 0,5.1875c-5.23437,0.95833 -7.20312,4.03125 -5.90625,9.21354c1.14583,2.54167 3.11458,3.88542 5.90625,4.03125c-0.05208,2.88542 0,5.76563 0.14063,8.64063c0.78646,4.53125 3.42708,7.26563 7.92188,8.20833c99.07292,0.19271 198.14062,0.19271 297.21354,0c4.58854,-0.45833 7.52083,-2.90625 8.78646,-7.34375c0.04687,-15.38021 0.19271,-30.73958 0.43229,-46.07813c5.89063,-0.38542 9.68229,2.20313 11.375,7.77604c0.19271,16.79687 0.19271,33.59896 0,50.40104c-1.13542,3.91667 -3.68229,6.36458 -7.63021,7.34375c-107.32813,0.1875 -214.65625,0.1875 -321.98437,0c-3.95313,-0.97917 -6.5,-3.42708 -7.63542,-7.34375c-0.19271,-16.90104 -0.19271,-33.79688 0,-50.69271c1.82292,-5.40104 5.61458,-7.89583 11.38021,-7.48437zM82.75521,153.2181" fill-opacity="0.983" fill="#ff3131"/><path d="M81.89062,158.40039c4.59375,-0.25521 7.08854,1.90625 7.48437,6.47917c-0.26042,4.15104 -2.46875,6.3125 -6.61979,6.47917c-2.97396,-0.11979 -5.03646,-1.55729 -6.19271,-4.31771c-0.92187,-4.60417 0.85417,-7.48437 5.32813,-8.64062zM81.89062,158.40039" fill="#fffdfd"/><path d="M176.92708,163.00977c3.67708,0.01042 7.41667,0.01042 11.23437,0c0,8.92708 0,17.85417 0,26.78125c-9.50521,0 -19.01042,0 -28.51042,0c0.04687,-0.86979 -0.00521,-1.72917 -0.14583,-2.58854c-3.36979,2.78125 -7.16146,3.50521 -11.375,2.15625c-3.36979,-1.59375 -5.38542,-4.23438 -6.04687,-7.91667c-0.1875,-0.85417 -0.32813,-1.71875 -0.43229,-2.59375c-0.14583,3.64583 -0.19271,7.29688 -0.14583,10.94271c-3.55208,0 -7.10417,0 -10.65625,0c0.04687,-2.97396 0,-5.95312 -0.14583,-8.92708c-0.20313,0.15625 -0.34896,0.34896 -0.43229,0.57813c-1.50521,0.875 -3.13542,1.35417 -4.89583,1.4375c0,2.30729 0,4.60937 0,6.91146c-3.64583,0 -7.29167,0 -10.94271,0c0,-8.54167 0,-17.08854 0,-25.63021c4.13021,-0.04687 8.25521,0 12.38542,0.14583c2.59896,0.43229 4.61458,1.72917 6.04687,3.88542c3.07292,0.34896 6.14583,0.34896 9.21875,0c1.86458,0.15104 3.64063,0.53646 5.32292,1.15104c3.92187,-1.71875 7.71354,-1.43229 11.38021,0.86458c0.35937,-0.15625 0.69271,-0.34896 1.00521,-0.57292c0.79687,-4.78125 3.63021,-7.08333 8.49479,-6.91667c2.89063,0.19271 5.77083,0.28646 8.64063,0.29167zM176.92708,163.00977" fill="#030303"/><path d="M188.16146,163.00977c-3.81771,0.01042 -7.55729,0.01042 -11.23437,0c3.77604,-0.38021 7.51563,-0.38021 11.23437,0zM188.16146,163.00977" fill="#473f31"/><path d="M298.17708,163.00977c3.59896,-0.28646 7.24479,-0.38542 10.94271,-0.29167c0,1.82813 0,3.65104 0,5.47396c-0.28646,-1.67187 -0.38021,-3.40104 -0.28646,-5.18229c-3.55208,0 -7.10417,0 -10.65625,0zM298.17708,163.00977" fill="#4e4436"/><path d="M298.17708,163.00977c3.55208,0 7.10417,0 10.65625,0c-0.09375,1.78125 0,3.51042 0.28646,5.18229c2.43229,0.05729 4.59375,0.82813 6.47917,2.30208c4.86458,-2.80208 9.8125,-2.98958 14.83333,-0.57292c0.27604,-0.44792 0.36979,-0.92708 0.28646,-1.44271c4.61458,-0.00521 9.22396,-0.05729 13.82812,-0.14063c1.85417,0.40104 3.39063,1.3125 4.60417,2.73437c1.44271,-1.4375 3.17187,-2.34896 5.1875,-2.73437c4.41146,0.05208 8.82813,0.09896 13.24479,0.14063c0.09896,2.69792 0,5.38542 -0.28646,8.06771c-0.44792,0.16146 -0.88021,0.35417 -1.29687,0.57292c-0.14583,1.49479 -0.57813,2.88542 -1.29687,4.17708c0.41667,0.70312 0.94792,1.32812 1.58333,1.86979c2.41146,7.31771 -0.22396,11.58854 -7.91667,12.81771c-3.41146,0.61979 -6.57813,0.04167 -9.50521,-1.72917c-1.42187,-1.17188 -2.28125,-2.66146 -2.59375,-4.46354c-8.83333,-0.01042 -17.66667,0.03646 -26.49479,0.14583c-1.57292,-0.45313 -2.91667,-1.26563 -4.03125,-2.44792c-1.64063,1.55729 -3.60937,2.42187 -5.90625,2.59375c-12.73958,-0.09375 -25.45833,-0.38542 -38.15625,-0.86458c-3.65104,1.32292 -7.20313,1.13021 -10.65625,-0.57813c-0.94271,3.96875 -3.44271,6.31771 -7.48958,7.05729c-3.70313,0.86979 -7.25521,0.48958 -10.65625,-1.15104c-1.72917,-1.10937 -2.6875,-2.69271 -2.88021,-4.75521c-5.40625,0.17708 -10.78125,-0.01562 -16.125,-0.57292c-5.20833,1.9375 -9.76562,0.97396 -13.68229,-2.88021c-1.02604,-1.375 -1.64583,-2.91146 -1.86979,-4.60937c-1.57813,0.60417 -3.20833,0.98958 -4.89583,1.15104c0,2.30729 0,4.60937 0,6.91146c-3.55208,0 -7.10417,0 -10.65625,0c0,-8.54167 0,-17.08854 0,-25.63021c3.55208,0 7.10417,0 10.65625,0c4.03125,0.19792 6.91146,2.11458 8.63542,5.76042c4.19271,-2.34896 8.27604,-2.25 12.24479,0.28646c0.14063,-0.56771 0.1875,-1.14583 0.14063,-1.72917c4.51562,0 9.03125,-0.05208 13.53646,-0.14063c1.85937,0.42187 3.44271,1.33854 4.75,2.73437c1.44792,-1.32292 3.13021,-2.23437 5.04167,-2.73437c2.97396,-0.04167 5.95312,0.00521 8.92708,0.14063c1.68229,0.01562 3.31771,0.20833 4.89583,0.57812c3.74479,-1.49479 7.25,-1.11458 10.51563,1.15104c0.14062,-0.56771 0.1875,-1.14583 0.14062,-1.72917c3.84375,0.05208 7.6875,-0.04688 11.52083,-0.28646c0.77083,0.04687 1.53646,0.09896 2.30729,0.14583c0.67708,0.35417 1.40104,0.59375 2.15625,0.71875c3.4375,-1.38021 6.69792,-1.08854 9.79167,0.86458c0.14583,-2.30208 0.19271,-4.60417 0.14583,-6.91146zM298.17708,163.00977" fill="#040404"/><path d="M165.98438,166.17643c1.44271,-0.04687 2.88542,0 4.32292,0.14583c0.60937,0.02604 1.08854,0.26563 1.4375,0.71875c-0.24479,0.97917 -0.67708,1.84375 -1.29687,2.59375c-2.42187,-0.99479 -3.52604,-0.22396 -3.3125,2.30208c1.15104,0 2.30729,0 3.45833,0c0,0.95833 0,1.92187 0,2.88021c-1.15104,0 -2.30729,0 -3.45833,0c0,3.83854 0,7.67708 0,11.52083c-1.34375,0 -2.6875,0 -4.03125,0c0,-3.84375 0,-7.68229 0,-11.52083c-0.67187,0 -1.34375,0 -2.01563,0c-0.08854,-0.69792 0.00521,-1.36979 0.28646,-2.01563c0.55208,-0.25 1.08333,-0.54167 1.58333,-0.86458c-0.26562,-2.63542 0.74479,-4.55729 3.02604,-5.76042zM165.98438,166.17643" fill="#f9f9f9"/><path d="M173.76042,166.17643c2.22396,-0.22396 3.22917,0.73437 3.02604,2.88021c-1.23958,1.42188 -2.58333,1.52083 -4.03125,0.28646c-0.42708,-1.35937 -0.09375,-2.41667 1.00521,-3.16667zM173.76042,166.17643" fill="#efefef"/><path d="M184.70312,166.46289c-1.24479,0 -2.49479,0 -3.74479,0c0,6.625 0,13.25 0,19.875c-0.28646,-6.67188 -0.38021,-13.39063 -0.28646,-20.16146c1.40104,-0.09375 2.74479,0.00521 4.03125,0.28646zM184.70312,166.46289" fill="#a5a5a5"/><path d="M184.70312,166.46289c0,6.625 0,13.25 0,19.875c-1.24479,0 -2.49479,0 -3.74479,0c0,-6.625 0,-13.25 0,-19.875c1.25,0 2.5,0 3.74479,0zM184.70312,166.46289" fill="#fefffe"/><path d="M301.63021,166.46289c1.25,0 2.5,0 3.74479,0c0,1.92187 0,3.84375 0,5.76042c-0.04687,0.48958 0.00521,0.96875 0.14583,1.44271c2.32292,-2.40104 4.86458,-2.64583 7.63021,-0.72396c2.14062,3.17708 2.57292,6.58333 1.29687,10.22396c-1.27083,2.82292 -3.43229,3.92708 -6.47917,3.3125c-0.95833,-0.38021 -1.82292,-0.91146 -2.59375,-1.58333c-0.41667,0.39062 -0.60937,0.86979 -0.57292,1.44271c-1.05729,0 -2.11458,0 -3.17188,0c0,-6.625 0,-13.25 0,-19.875zM301.63021,166.46289" fill="#f9f9f9"/><path d="M301.63021,166.46289c1.29167,-0.28125 2.63542,-0.38021 4.03646,-0.28646c0.08854,2.06771 -0.00521,4.08854 -0.29167,6.04687c0,-1.91667 0,-3.83854 0,-5.76042c-1.24479,0 -2.49479,0 -3.74479,0zM301.63021,166.46289" fill="#9e9e9e"/><path d="M117.89062,167.32747c2.98958,-0.09375 5.96354,0.04687 8.92708,0.43229c3.57812,1.31771 4.875,3.85937 3.88542,7.63542c-0.88542,2.32292 -2.56771,3.71875 -5.03646,4.17187c-1.24479,0.14583 -2.49479,0.19271 -3.74479,0.14583c0,2.20833 0,4.41667 0,6.625c-1.34375,0 -2.6875,0 -4.03125,0c0,-6.33854 0,-12.67188 0,-19.01042zM117.89062,167.32747" fill="#f9f9f9"/><path d="M203.13542,167.61914c-2.30208,0 -4.60417,0 -6.91146,0c0,6.23958 0,12.47917 0,18.71875c-0.28646,-6.28646 -0.38021,-12.625 -0.28646,-19.01042c2.45313,-0.09375 4.85417,0.00521 7.19792,0.29167zM203.13542,167.61914" fill="#bababa"/><path d="M203.13542,167.61914c4.91146,0.49479 6.78125,3.18229 5.61979,8.0625c-0.70833,1.81771 -2,3.02083 -3.89062,3.59896c-1.60938,0.36979 -3.23958,0.51563 -4.89583,0.43229c0,2.20833 0,4.41667 0,6.625c-1.25,0 -2.49479,0 -3.74479,0c0,-6.23958 0,-12.47917 0,-18.71875c2.30729,0 4.60937,0 6.91146,0zM203.13542,167.61914" fill="#fbfbfb"/><path d="M121.92187,170.78581c1.05729,-0.04687 2.11458,0 3.16667,0.14063c2.09896,1.35937 2.29167,2.98958 0.57813,4.89583c-1.21875,0.375 -2.46875,0.51563 -3.74479,0.43229c0,-1.82292 0,-3.64583 0,-5.46875zM121.92187,170.78581" fill="#030303"/><path d="M199.96875,170.78581c1.52083,-0.16667 2.95833,0.07292 4.31771,0.71875c0.92187,1.61458 0.72917,3.05208 -0.57292,4.31771c-1.21875,0.375 -2.46875,0.51563 -3.74479,0.43229c0,-1.82292 0,-3.64583 0,-5.46875zM199.96875,170.78581" fill="#060606"/><path d="M321.50521,171.65039c1.94271,-0.09896 3.85938,0.04687 5.76042,0.43229c1.29687,0.52604 2.20833,1.4375 2.73437,2.73438c0.14583,3.83854 0.19271,7.67708 0.14583,11.52083c-0.95833,0 -1.92187,0 -2.88021,0c0,-0.67708 -0.24479,-1.25 -0.71875,-1.72917c-2.40104,2.25 -5.04167,2.58854 -7.92187,1.01042c-1.08854,-1.60937 -1.42187,-3.38542 -1.01042,-5.32813c0.88542,-1.67187 2.28125,-2.58333 4.17708,-2.73958c1.53125,-0.14063 3.07292,-0.19271 4.60938,-0.14063c0.14583,-1.86979 -0.71875,-2.83333 -2.59375,-2.88021c-1.19271,0.14063 -2.34375,0.42708 -3.45313,0.86458c-0.89583,-0.64063 -1.32812,-1.50521 -1.29687,-2.59375c0.82813,-0.41667 1.64583,-0.80208 2.44792,-1.15104zM321.50521,171.65039" fill="#fafafa"/><path d="M140.92708,171.65039c0.86458,0 1.72917,0 2.59375,0c0,1.24479 0,2.49479 0,3.74479c-2.44792,-0.42188 -4.22396,0.44271 -5.32812,2.58854c-0.14583,2.78125 -0.19271,5.56771 -0.14583,8.35417c-1.24479,0 -2.49479,0 -3.73958,0c0,-4.80208 0,-9.59896 0,-14.40104c0.96354,-0.04688 1.92187,0 2.875,0.14583c0.26563,0.70313 0.50521,1.42188 0.72396,2.15625c0.81771,-1.09896 1.82292,-1.96354 3.02083,-2.58854zM140.92708,171.65039" fill="#fbfbfb"/><path d="M150.14583,171.65039c5.66146,-0.63021 8.73437,1.86458 9.21354,7.48437c-0.39063,5.57292 -3.36458,8.02604 -8.92708,7.34375c-3.65104,-1.26042 -5.38021,-3.84896 -5.18229,-7.77604c0.03646,-3.49479 1.67187,-5.84375 4.89583,-7.05208zM150.14583,171.65039" fill="#f7f7f7"/><path d="M172.60938,171.93685c1.34375,0 2.6875,0 4.03125,0c0,4.80208 0,9.59896 0,14.40104c-1.34375,0 -2.6875,0 -4.03125,0c0,-4.80208 0,-9.59896 0,-14.40104zM172.60938,171.93685" fill="#f8f8f8"/><path d="M224.44792,176.54622c0,1.15104 0,2.30208 0,3.45312c-3.07292,0 -6.14063,0 -9.21354,0c-0.06771,0.375 0.02604,0.66146 0.28646,0.86458c0.75521,2.39583 2.39063,3.30729 4.89583,2.73437c1.10938,-0.16667 2.16667,-0.50521 3.16667,-1.00521c0.28646,1.03646 0.38021,2.09375 0.29167,3.16667c-2.33854,0.80208 -4.73437,1.04167 -7.20313,0.71875c-2.51562,-0.69271 -4.19792,-2.27604 -5.04167,-4.75c-0.76042,-3.33333 -0.04167,-6.26042 2.16146,-8.78646c2.71354,-1.625 5.5,-1.71875 8.35417,-0.28646c1.40104,0.9375 2.17188,2.23437 2.30208,3.89063zM224.44792,176.54622" fill="#f9f9f9"/><path d="M234.23958,171.65039c3.08854,-0.625 5.34896,0.43229 6.77083,3.16667c0.14063,3.83854 0.19271,7.67708 0.14063,11.52083c-1.34375,0 -2.6875,0 -4.03125,0c0.04687,-3.45833 0,-6.91667 -0.14063,-10.36979c-2.01042,-1.74479 -3.64583,-1.45313 -4.89583,0.86458c-0.14583,3.16667 -0.19271,6.33333 -0.14583,9.50521c-1.34375,0 -2.6875,0 -4.03125,0c0,-4.80208 0,-9.59896 0,-14.40104c1.05208,0 2.10937,0 3.16667,0c0.05208,0.59375 0.19792,1.17187 0.43229,1.72917c0.80208,-0.85417 1.71354,-1.52604 2.73438,-2.01562zM234.23958,171.65039" fill="#f9f9f9"/><path d="M248.0625,171.65039c3.26563,0.13542 6.53125,0.22917 9.79167,0.28646c0,0.67187 0,1.34375 0,2.01562c-0.82812,0.0625 -1.59896,0.30208 -2.30208,0.71875c1.26042,3.14583 0.30208,5.35417 -2.88021,6.625c-1.34375,0.09375 -2.6875,0.19271 -4.03125,0.28646c-0.8125,0.72917 -0.71875,1.30208 0.28646,1.72917c2.01563,0.09896 4.03125,0.19271 6.05208,0.28646c2.3125,0.9375 3.13021,2.61458 2.44792,5.04167c-0.9375,2.22396 -2.61458,3.52083 -5.04167,3.89063c-1.82292,0.1875 -3.65104,0.1875 -5.47396,0c-3.32292,-0.82292 -4.32813,-2.79167 -3.02083,-5.90625c0.68229,-0.6875 1.5,-1.11979 2.44792,-1.29687c-1.96354,-1.65625 -1.86979,-3.19271 0.28646,-4.60937c-2.01562,-1.33854 -2.73437,-3.20833 -2.16146,-5.61458c0.625,-1.77083 1.82813,-2.92188 3.59896,-3.45313zM248.0625,171.65039" fill="#f8f8f8"/><path d="M264.19271,171.65039c6.14583,-0.57813 8.92708,2.20833 8.35417,8.34896c-3.07292,0 -6.14583,0 -9.21875,0c-0.04687,1.45313 0.53125,2.55729 1.72917,3.3125c2.18229,0.60937 4.29687,0.36979 6.33333,-0.71875c0.38542,1.05729 0.38542,2.10937 0,3.16667c-3.23437,1.27083 -6.40104,1.125 -9.5,-0.43229c-1.93229,-1.65625 -2.79687,-3.77083 -2.59375,-6.33333c-0.11458,-3.66667 1.51563,-6.11458 4.89583,-7.34375zM264.19271,171.65039" fill="#f8f8f8"/><path d="M282.04687,171.65039c2.44271,-0.5 4.45833,0.17187 6.05208,2.01562c2.42187,-2.27083 5.11458,-2.60417 8.0625,-1.01042c0.54167,0.65104 0.97396,1.36979 1.29687,2.16146c0.14063,3.83854 0.19271,7.67708 0.14063,11.52083c-1.34375,0 -2.6875,0 -4.03125,0c0.04687,-3.36458 0,-6.72396 -0.14063,-10.08333c-0.86979,-1.44792 -2.06771,-1.78646 -3.60417,-1.00521c-0.44271,0.45313 -0.77604,0.98438 -1.00521,1.58333c-0.14583,3.16667 -0.19271,6.33333 -0.14583,9.50521c-1.34375,0 -2.6875,0 -4.03125,0c0.04687,-3.36458 0,-6.72396 -0.14583,-10.08333c-0.86458,-1.44792 -2.06771,-1.78646 -3.59896,-1.00521c-0.44271,0.45313 -0.78125,0.98438 -1.00521,1.58333c-0.14583,3.16667 -0.19271,6.33333 -0.14583,9.50521c-1.34375,0 -2.6875,0 -4.03125,0c0,-4.80208 0,-9.59896 0,-14.40104c1.05729,0 2.10938,0 3.16667,0c0.05208,0.59375 0.19792,1.17187 0.43229,1.72917c0.8125,-0.85937 1.72396,-1.53125 2.73437,-2.01562zM282.04687,171.65039" fill="#f9f9f9"/><path d="M340.80208,171.65039c1.84896,-0.23438 3.57812,0.10417 5.18229,1.00521c0.60937,0.5 1.04167,1.125 1.29687,1.875c0.41667,3.91146 0.5625,7.84896 0.43229,11.80729c-1.34375,0 -2.6875,0 -4.03125,0c0.04687,-3.26563 0,-6.53125 -0.14583,-9.79167c-0.83854,-1.6875 -2.13542,-2.11979 -3.88542,-1.29688c-0.69271,0.5625 -1.125,1.28125 -1.29688,2.16146c-0.14583,2.97396 -0.19271,5.94792 -0.14583,8.92708c-1.34375,0 -2.6875,0 -4.03125,0c0,-4.80208 0,-9.59896 0,-14.40104c1.05729,-0.04688 2.11458,0 3.16667,0.14583c0.17708,0.55729 0.41667,1.08854 0.71875,1.58333c0.72917,-0.97396 1.64583,-1.64583 2.73958,-2.01562zM340.80208,171.65039" fill="#f7f7f7"/><path d="M354.625,171.65039c3.16667,0.125 6.33333,0.22396 9.50521,0.28646c0.04688,0.67708 0,1.34896 -0.14583,2.01562c-0.67188,0.18229 -1.29688,0.46875 -1.86979,0.86458c1.02604,2.72917 0.25521,4.79167 -2.30729,6.19271c-1.625,0.27604 -3.25521,0.51563 -4.89583,0.71875c-0.46354,0.76562 -0.27083,1.29167 0.57813,1.58333c2.23437,0.02083 4.44792,0.21354 6.625,0.57812c2.375,1.98958 2.61458,4.24479 0.71875,6.76563c-2.9375,1.90625 -6.15104,2.53125 -9.65104,1.875c-2.88542,-0.67708 -3.98437,-2.45313 -3.30729,-5.32813c0.70833,-0.95313 1.61979,-1.625 2.73438,-2.01562c-1.68229,-1.72396 -1.48958,-3.21354 0.57292,-4.46875c-0.70833,-0.41667 -1.33333,-0.94792 -1.86979,-1.58333c-1.45833,-3.69792 -0.35417,-6.19271 3.3125,-7.48437zM354.625,171.65039" fill="#f8f8f8"/><path d="M249.50521,173.95247c2.34375,-0.00521 3.25521,1.14583 2.73438,3.45833c-0.41667,1.59896 -1.42708,2.125 -3.02083,1.58333c-1.06771,-0.97917 -1.40625,-2.18229 -1.01042,-3.59896c0.29687,-0.63021 0.72917,-1.11458 1.29687,-1.44271zM249.50521,173.95247" fill="#121211"/><path d="M355.77604,173.95247c2.64583,0.10938 3.55729,1.45313 2.73437,4.03125c-0.61979,1.04687 -1.53125,1.38021 -2.73437,1.01042c-0.52604,-0.14583 -0.86458,-0.47917 -1.00521,-1.01042c-0.43229,-1.57813 -0.09896,-2.92187 1.00521,-4.03125zM355.77604,173.95247" fill="#0f0e0d"/><path d="M216.95833,174.5306c2.40104,-0.4375 3.74479,0.52083 4.03646,2.88021c-1.82813,0 -3.65104,0 -5.47396,0c0.02083,-1.19792 0.5,-2.15625 1.4375,-2.88021zM216.95833,174.5306" fill="#090909"/><path d="M265.05729,174.5306c2.27083,-0.32292 3.51563,0.64063 3.74479,2.88021c-1.82292,0 -3.65104,0 -5.47396,0c0.14063,-1.25 0.71875,-2.20833 1.72917,-2.88021zM265.05729,174.5306" fill="#060606"/><path d="M307.10417,174.81706c1.64063,-0.30729 2.84375,0.27083 3.59896,1.72917c0.32292,2.07812 0.13021,4.09375 -0.57292,6.04687c-2.08333,1.45833 -3.52604,0.97917 -4.32292,-1.44271c-0.19271,-1.53125 -0.19271,-3.06771 0,-4.60417c0.38542,-0.625 0.81771,-1.19792 1.29687,-1.72917zM307.10417,174.81706" fill="#060606"/><path d="M151.29687,174.81706c1.60938,-0.21875 2.8125,0.35937 3.59896,1.72917c0.25,1.84896 0.15625,3.67187 -0.28646,5.46875c-0.98958,1.42188 -2.28125,1.76042 -3.89063,1.01042c-0.85417,-0.70833 -1.28646,-1.61979 -1.29167,-2.73438c-0.64583,-2.30729 -0.02083,-4.13542 1.86979,-5.47396zM151.29687,174.81706" fill="#060606"/><path d="M249.50521,175.68164c1,-0.08854 1.625,0.29688 1.86979,1.15104c-0.92708,0.82292 -1.74479,0.72396 -2.44792,-0.28646c0.32292,-0.22396 0.51563,-0.51042 0.57812,-0.86458zM249.50521,175.68164" fill="#e4c8a0"/><path d="M356.0625,175.68164c1.02083,-0.17708 1.54688,0.20833 1.58854,1.15104c-0.83854,0.8125 -1.55729,0.71354 -2.16146,-0.28646c0.19792,-0.29688 0.39062,-0.58333 0.57292,-0.86458zM356.0625,175.68164" fill="#f2d5aa"/><path d="M82.75521,176.54622c3.14583,0.15625 5.30729,1.69271 6.47917,4.60417c0.72917,5.07813 -1.43229,7.95833 -6.47917,8.64062c-2.79167,-0.14583 -4.76042,-1.48958 -5.90625,-4.03125c-1.29687,-5.18229 0.67187,-8.25521 5.90625,-9.21354zM82.75521,176.54622" fill="#fffdfd"/><path d="M142.08333,181.44206c-0.19271,2.78125 -0.38542,5.56771 -0.57813,8.34896c-0.04687,-3.64583 0,-7.29687 0.14583,-10.94271c0.10417,0.875 0.24479,1.73958 0.43229,2.59375zM142.08333,181.44206" fill="#a89476"/><path d="M323.23438,179.71289c1.05729,0 2.10937,0 3.16667,0c-0.02604,3.30208 -1.5625,4.45312 -4.60938,3.45312c-0.70833,-1.6875 -0.22917,-2.83854 1.44271,-3.45312zM323.23438,179.71289" fill="#0e0e0e"/><path d="M224.44792,176.54622c0.28646,1.1875 0.38021,2.4375 0.28646,3.74479c-3.18229,-0.1875 -6.25521,0.00521 -9.21354,0.57292c-0.26042,-0.20313 -0.35417,-0.48958 -0.28646,-0.86458c3.07292,0 6.14062,0 9.21354,0c0,-1.15104 0,-2.30208 0,-3.45312zM224.44792,176.54622" fill="#838383"/><path d="M130.84896,189.79102c-0.19271,-2.78125 -0.38542,-5.56771 -0.57813,-8.34896c0.08333,-0.22917 0.22917,-0.42187 0.43229,-0.57813c0.14583,2.97396 0.19271,5.95313 0.14583,8.92708zM130.84896,189.79102" fill="#9d8a6f"/><path d="M203.42708,164.16081c-3.55208,0 -7.10417,0 -10.65625,0c0,8.54167 0,17.08854 0,25.63021c-0.29167,-8.58854 -0.38542,-17.22917 -0.29167,-25.91667c3.70313,-0.09896 7.34896,0 10.94792,0.28646zM203.42708,164.16081" fill="#494033"/><path d="M247.77604,186.62435c1.72917,-0.04687 3.45833,0 5.18229,0.14583c1.06771,0.19792 1.40104,0.82292 1.01042,1.86979c-0.38021,0.57292 -0.90625,0.91146 -1.58333,1.01042c-1.42188,0.38021 -2.86458,0.47917 -4.32292,0.28646c-1.80729,-0.94792 -1.90104,-2.05208 -0.28646,-3.3125zM247.77604,186.62435" fill="#060606"/><path d="M354.33854,186.62435c1.72917,-0.04687 3.45833,0 5.18229,0.14583c0.82813,0.47917 1.06771,1.19792 0.71875,2.15625c-1.82292,1.08333 -3.79167,1.41667 -5.90104,1.01042c-1.06771,-0.48958 -1.40625,-1.30208 -1.01042,-2.44792c0.33333,-0.32813 0.66667,-0.61458 1.01042,-0.86458zM354.33854,186.62435" fill="#070707"/></g></g></svg>