<svg version="1.0" preserveAspectRatio="xMidYMid meet" height="360" viewBox="0 0 360 269.999989" zoomAndPan="magnify" width="480" xmlns:xlink="http://www.w3.org/1999/xlink" xmlns="http://www.w3.org/2000/svg"><defs><clipPath id="37971a7eee"><path clip-rule="nonzero" d="M 108 117 L 252 117 L 252 156.421875 L 108 156.421875 Z M 108 117"></path></clipPath><clipPath id="982e9cbf4c"><path clip-rule="nonzero" d="M 101 86.042969 L 259 86.042969 L 259 184.292969 L 101 184.292969 Z M 101 86.042969"></path></clipPath></defs><path fill-rule="nonzero" fill-opacity="1" d="M 224.230469 123.851562 C 196.398438 125.695312 120.648438 113.683594 113.851562 131.207031 C 110.730469 139.304688 113.917969 147.847656 121.714844 150.246094 C 125.902344 151.53125 137.644531 151.222656 142.386719 151.289062 C 168.628906 151.558594 194.140625 152.644531 216.773438 152.261719 C 237.324219 151.925781 247.445312 149.285156 247.785156 133.929688 C 248.242188 125.722656 235.921875 123 224.230469 123.851562" fill="#fee578"></path><g clip-path="url(#37971a7eee)"><path fill-rule="nonzero" fill-opacity="1" d="M 206.625 156.40625 C 195.34375 156.40625 183.519531 156.148438 171.15625 155.878906 C 161.777344 155.675781 152.078125 155.460938 142.335938 155.351562 L 142.320312 155.351562 C 141.441406 155.335938 140.320312 155.335938 139.011719 155.335938 C 131.066406 155.335938 124.1875 155.257812 120.511719 154.132812 C 116.027344 152.75 112.433594 149.691406 110.40625 145.492188 C 108.136719 140.808594 108 135.066406 110.054688 129.742188 C 111.648438 125.652344 115.605469 122.578125 121.835938 120.628906 C 126.621094 119.125 132.847656 118.191406 140.890625 117.757812 C 155.28125 116.972656 173.277344 117.976562 189.167969 118.871094 C 202.84375 119.628906 215.746094 120.34375 223.949219 119.804688 C 228.746094 119.453125 233.40625 119.683594 237.40625 120.453125 C 242.269531 121.402344 246 123.109375 248.472656 125.546875 C 250.839844 127.875 252 130.828125 251.835938 134.078125 C 251.621094 143 248.3125 148.972656 241.703125 152.34375 C 235.703125 155.40625 227.421875 156.148438 216.839844 156.324219 C 213.488281 156.378906 210.085938 156.40625 206.625 156.40625 Z M 142.429688 147.226562 C 152.210938 147.320312 161.941406 147.539062 171.34375 147.753906 C 187.398438 148.105469 202.570312 148.445312 216.707031 148.199219 C 224.894531 148.066406 233.136719 147.589844 238.015625 145.101562 C 239.921875 144.125 241.230469 142.90625 242.121094 141.265625 C 243.136719 139.425781 243.648438 136.988281 243.71875 133.832031 L 243.71875 133.699219 C 243.769531 132.75 243.488281 132.046875 242.757812 131.339844 C 240.070312 128.6875 232.730469 127.304688 224.503906 127.902344 L 224.476562 127.902344 C 215.789062 128.46875 202.625 127.738281 188.695312 126.96875 C 173.019531 126.101562 155.253906 125.097656 141.308594 125.855469 C 134.050781 126.25 128.308594 127.101562 124.242188 128.375 C 120.59375 129.527344 118.230469 131.042969 117.59375 132.667969 C 116.351562 135.890625 116.378906 139.261719 117.675781 141.929688 C 118.730469 144.097656 120.527344 145.628906 122.863281 146.347656 C 125.675781 147.210938 134.335938 147.199219 138.984375 147.199219 C 140.347656 147.210938 141.496094 147.210938 142.429688 147.226562 Z M 142.429688 147.226562" fill="#000000"></path></g><g clip-path="url(#982e9cbf4c)"><path fill-rule="nonzero" fill-opacity="1" d="M 206.910156 184.292969 L 199.160156 184.140625 L 191.855469 183.992188 L 188.425781 183.992188 C 180.378906 183.992188 172.925781 183.765625 165.097656 183.542969 C 157.273438 183.316406 149.074219 183.019531 140.132812 183.019531 L 126.570312 183.019531 C 115.390625 183.019531 105.105469 181.222656 104.804688 167.742188 C 104.507812 154.261719 102.71875 139.511719 101.898438 126.179688 C 100.484375 117.34375 108.085938 110.53125 114.792969 104.464844 C 116.785156 102.777344 118.671875 100.980469 120.457031 99.070312 L 120.679688 98.921875 C 122.097656 98.097656 124.035156 96.601562 126.269531 94.953125 C 131.414062 90.984375 137.898438 86.042969 142.816406 86.042969 L 143.785156 86.042969 C 151.984375 86.492188 160.179688 87.539062 168.082031 88.585938 C 178.140625 89.859375 188.5 91.207031 198.859375 91.207031 L 203.035156 91.207031 C 208.699219 91.207031 214.511719 90.757812 220.175781 90.308594 C 224.347656 90.011719 228.671875 89.710938 232.996094 89.5625 C 235.050781 89.050781 237.136719 88.800781 239.253906 88.8125 C 247.75 88.8125 257.8125 92.929688 258.035156 104.464844 C 258.257812 107.160156 258.183594 110.453125 258.109375 113.601562 C 257.984375 116.222656 258.007812 118.84375 258.183594 121.460938 C 258.035156 128.203125 258.257812 133.292969 258.484375 137.339844 C 259.152344 151.191406 259.300781 153.664062 241.117188 170.363281 C 240.597656 170.886719 240.597656 170.886719 231.355469 177.476562 L 231.28125 177.476562 L 228.671875 179.347656 L 225.914062 181.371094 L 225.765625 181.371094 C 220.101562 183.917969 212.722656 184.292969 206.910156 184.292969 Z M 206.910156 184.292969" fill="#ffffff"></path></g><path fill-rule="nonzero" fill-opacity="1" d="M 248.496094 121.164062 C 247.304688 107.609375 253.414062 95.851562 233.964844 99.222656 C 210.636719 101.242188 190.511719 102.140625 166.144531 98.171875 C 156.753906 97.875 148.40625 94.503906 140.429688 96.75 L 126.195312 106.859375 C 122.84375 110.078125 119.5625 113.449219 116.285156 116.820312 C 113.003906 120.191406 110.84375 120.9375 111.589844 125.132812 C 112.332031 138.535156 113.378906 152.691406 114.496094 167.144531 C 114.867188 172.160156 116.058594 173.285156 121.277344 173.285156 L 136.332031 173.285156 C 147.4375 173.132812 162.640625 173.582031 170.464844 174.257812 C 186.339844 173.507812 205.046875 175.753906 220.324219 173.359375 L 234.558594 163.25 L 244.992188 152.765625 C 247.453125 150.445312 249.167969 149.246094 248.71875 144.976562 C 248.644531 137.113281 248.570312 129.027344 248.496094 121.164062 Z M 248.496094 121.164062" fill="#ff053d"></path><path fill-rule="nonzero" fill-opacity="1" d="M 229.863281 151.492188 L 197.296875 151.492188 C 196.867188 151.476562 196.519531 151.300781 196.25 150.96875 C 195.945312 150.652344 195.574219 150.503906 195.132812 150.519531 L 148.03125 150.519531 C 142.890625 150.519531 141.625 149.394531 141.25 144.378906 C 140.132812 129.925781 139.164062 115.769531 138.34375 102.367188 C 138.046875 99.894531 138.792969 98.398438 139.535156 97.574219 C 140.070312 96.992188 140.703125 96.550781 141.433594 96.25 C 142.164062 95.949219 142.921875 95.816406 143.710938 95.851562 L 145.347656 96 C 151.460938 96.449219 158.617188 97.273438 166.144531 98.171875 C 178.367188 99.671875 190.960938 101.167969 201.171875 101.320312 C 206.910156 101.167969 212.722656 100.71875 218.3125 100.269531 C 223.902344 99.820312 228.746094 99.371094 233.964844 99.222656 C 235.085938 99.222656 236.203125 99.148438 237.316406 98.996094 C 238.507812 98.921875 239.777344 98.773438 241.042969 98.773438 C 242.308594 98.773438 245.214844 98.996094 246.855469 100.792969 C 248.496094 102.589844 248.496094 104.089844 248.273438 106.710938 L 248.496094 121.164062 C 248.570312 129.027344 248.644531 137.113281 248.71875 144.976562 C 248.792969 147.296875 248.71875 149.09375 247.601562 150.21875 C 246.484375 151.34375 244.769531 151.417969 242.234375 151.417969 Z M 229.863281 151.492188" fill="#ffe505"></path><path fill-rule="nonzero" fill-opacity="1" d="M 202.214844 172.984375 C 198.191406 172.984375 194.015625 172.910156 190.066406 172.757812 L 189.992188 172.757812 L 177.992188 172.609375 C 175.234375 172.609375 172.851562 172.609375 170.613281 172.757812 L 170.464844 172.757812 C 163.609375 172.234375 151.757812 171.859375 141.625 171.859375 L 122.542969 171.859375 C 122.230469 171.863281 121.941406 171.777344 121.683594 171.597656 C 121.421875 171.421875 121.238281 171.183594 121.128906 170.886719 C 121.011719 170.59375 120.996094 170.292969 121.078125 169.988281 C 121.160156 169.683594 121.328125 169.433594 121.574219 169.238281 L 141.699219 151.640625 C 141.957031 151.347656 142.277344 151.222656 142.667969 151.265625 L 143.261719 151.265625 C 144.800781 151.855469 146.390625 152.105469 148.03125 152.015625 L 179.335938 152.015625 L 193.496094 152.539062 L 193.644531 152.539062 L 203.929688 152.914062 L 239.105469 152.914062 C 239.402344 152.898438 239.675781 152.972656 239.925781 153.140625 C 240.175781 153.304688 240.347656 153.53125 240.445312 153.8125 C 240.570312 154.09375 240.601562 154.382812 240.546875 154.683594 C 240.492188 154.984375 240.359375 155.242188 240.148438 155.460938 L 233.664062 161.902344 C 233.589844 161.976562 233.515625 162.050781 233.515625 162.125 L 225.691406 167.667969 L 220.027344 171.636719 C 219.859375 171.796875 219.660156 171.871094 219.429688 171.859375 C 213.71875 172.679688 207.980469 173.054688 202.214844 172.984375 Z M 202.214844 172.984375" fill="#820022"></path><path fill-rule="nonzero" fill-opacity="1" d="M 202.214844 177.476562 C 198.113281 177.476562 193.941406 177.402344 189.917969 177.253906 L 189.769531 177.253906 L 177.992188 177.027344 C 175.308594 177.027344 172.851562 177.101562 170.613281 177.253906 L 170.242188 177.253906 C 163.535156 176.726562 151.832031 176.355469 141.773438 176.355469 L 121.203125 176.355469 C 114.570312 176.355469 112.035156 174.03125 111.515625 167.441406 C 110.394531 152.988281 109.425781 138.910156 108.605469 125.507812 C 107.863281 120.714844 110.695312 118.019531 112.855469 116.070312 C 113.300781 115.621094 113.75 115.246094 114.121094 114.796875 L 116.730469 112.175781 C 119.117188 109.707031 121.648438 107.160156 124.183594 104.761719 L 124.480469 104.539062 L 139.015625 94.054688 L 139.238281 94.054688 C 140.628906 93.277344 142.117188 92.902344 143.710938 92.929688 L 145.5 93.082031 L 146.46875 93.082031 C 149.945312 93.171875 153.398438 93.519531 156.828125 94.128906 L 157.199219 94.128906 L 166.441406 95.253906 C 173.59375 96.078125 180.972656 96.976562 187.90625 97.574219 C 192.226562 97.796875 196.550781 97.949219 201.023438 97.949219 C 205.492188 97.949219 208.996094 97.875 213.246094 97.648438 L 218.089844 97.273438 C 223.15625 96.824219 228.375 96.449219 233.664062 96.226562 C 235.710938 95.867188 237.773438 95.667969 239.851562 95.628906 C 240.902344 95.636719 241.945312 95.738281 242.980469 95.925781 C 244.136719 95.980469 245.234375 96.253906 246.28125 96.746094 C 247.328125 97.238281 248.238281 97.914062 249.019531 98.773438 C 249.78125 99.625 250.359375 100.585938 250.757812 101.660156 C 251.160156 102.734375 251.347656 103.84375 251.328125 104.988281 C 251.539062 107.480469 251.566406 109.976562 251.402344 112.476562 L 251.402344 113.824219 L 251.550781 121.164062 C 251.625 128.128906 251.699219 136.738281 251.773438 144.828125 C 251.917969 146.058594 251.867188 147.28125 251.625 148.496094 C 251.402344 149.964844 250.78125 151.238281 249.761719 152.316406 L 249.539062 152.539062 C 248.941406 153.214844 248.199219 153.886719 247.601562 154.488281 L 247.15625 154.9375 L 236.71875 165.34375 L 236.644531 165.34375 L 227.554688 171.859375 L 222.1875 175.679688 L 221.816406 175.980469 L 221.441406 176.128906 L 220.847656 176.128906 C 214.671875 177.078125 208.460938 177.527344 202.214844 177.476562 Z M 177.992188 171.113281 L 190.066406 171.261719 C 194.015625 171.410156 198.191406 171.484375 202.214844 171.484375 C 207.902344 171.566406 213.566406 171.242188 219.207031 170.511719 L 224.496094 166.769531 L 232.621094 160.925781 L 239.105469 154.488281 L 203.929688 154.488281 L 193.570312 154.113281 L 193.417969 154.113281 L 179.335938 153.589844 L 148.03125 153.589844 C 146.1875 153.625 144.398438 153.328125 142.667969 152.691406 L 122.542969 170.289062 L 141.625 170.289062 C 151.832031 170.289062 163.683594 170.664062 170.539062 171.261719 C 172.777344 171.113281 175.234375 171.113281 177.992188 171.113281 Z M 128.132812 109.179688 C 125.675781 111.503906 123.289062 113.972656 120.980469 116.296875 L 120.679688 116.59375 L 118.445312 118.917969 L 116.878906 120.414062 C 114.867188 122.285156 114.269531 123.035156 114.496094 124.609375 L 114.496094 124.90625 C 115.242188 138.3125 116.210938 152.390625 117.328125 166.769531 L 138.792969 148.046875 C 138.488281 146.917969 138.289062 145.769531 138.195312 144.601562 C 137.152344 130.597656 136.183594 116.96875 135.4375 103.9375 Z M 179.335938 147.523438 L 193.71875 148.046875 L 203.929688 148.421875 L 242.234375 148.421875 C 243.265625 148.492188 244.28125 148.417969 245.292969 148.195312 C 245.445312 147.9375 245.570312 147.660156 245.664062 147.375 C 245.730469 146.574219 245.757812 145.777344 245.738281 144.976562 L 245.738281 143.105469 C 245.738281 139.285156 245.664062 135.390625 245.589844 131.496094 C 245.515625 127.601562 245.515625 124.53125 245.515625 121.3125 C 245.320312 118.792969 245.269531 116.273438 245.367188 113.75 C 245.367188 111.429688 245.292969 109.105469 245.292969 106.785156 L 245.292969 106.410156 C 245.355469 106.089844 245.382812 105.765625 245.367188 105.4375 C 245.289062 104.375 244.890625 103.449219 244.171875 102.667969 C 243.554688 102.195312 242.859375 101.921875 242.085938 101.84375 L 241.042969 101.84375 L 237.613281 102.066406 C 236.453125 102.226562 235.285156 102.300781 234.113281 102.292969 C 228.148438 102.816406 220.921875 103.414062 213.542969 103.714844 C 209.890625 104.015625 205.566406 104.3125 201.246094 104.390625 C 196.921875 104.464844 192.898438 104.089844 187.605469 103.640625 C 180.308594 103.195312 173.054688 102.371094 165.84375 101.167969 C 162.664062 101.011719 159.507812 100.636719 156.378906 100.046875 L 145.425781 98.996094 C 144.210938 99.039062 143.019531 99.214844 141.847656 99.519531 L 141.773438 99.519531 C 141.253906 100.277344 141.105469 101.101562 141.324219 101.992188 L 141.324219 102.140625 C 142.144531 115.546875 143.113281 129.699219 144.230469 144.152344 C 144.53125 147.523438 144.53125 147.523438 148.03125 147.523438 Z M 179.335938 147.523438" fill="#000000"></path></svg>