<svg version="1.1" xmlns="http://www.w3.org/2000/svg" xmlns:xlink="http://www.w3.org/1999/xlink" width="394.30475" height="367.05988" viewBox="0,0,394.30475,367.05988"><g transform="translate(-42.84763,3.52994)"><g fill-rule="evenodd" stroke="none" stroke-miterlimit="10"><path d="M76.62227,-3.52994c108.96638,0 217.93243,0 326.89881,0c8.50539,1.75832 13.80537,6.88877 15.89324,15.39135c0.37475,3.22208 0.59892,6.45647 0.66919,9.70324c4.49695,5.54369 7.06329,11.90087 7.69567,19.07189c0.11042,3.23452 0.22417,6.46872 0.33459,9.70324c2.26186,1.90786 4.88507,2.96718 7.86297,3.17864c1.44545,1.18012 1.55922,2.40707 0.3346,3.68054c-2.92435,0.24258 -5.658,1.07906 -8.19757,2.50946c-0.11042,90.78652 -0.22417,181.57338 -0.33459,272.35991c-2.72694,16.77992 -12.37665,27.09881 -28.94243,30.94999c-49.6237,0.38812 -99.25645,0.55543 -148.89454,0.5019c-48.62762,-0.05688 -97.25557,-0.11042 -145.8832,-0.1673c-7.02848,-0.72941 -13.27436,-3.29241 -18.73729,-7.69568c-5.8119,0.5019 -11.27684,-0.61565 -16.39514,-3.34594c-4.84393,-3.38274 -7.68797,-8.01353 -8.53215,-13.88567c-0.11141,-13.60696 -0.22318,-27.21357 -0.3346,-40.82052c0.05052,-5.54892 -1.17643,-10.79101 -3.68054,-15.72594c-2.93406,-4.50966 -7.1165,-7.01912 -12.54729,-7.52837c-1.02754,-0.94456 -1.25071,-2.05977 -0.66919,-3.34595c7.04823,-1.24703 11.89985,-5.20629 14.55486,-11.87811c0.98438,-2.59912 1.65357,-5.27589 2.00757,-8.03026c0.44234,-79.29387 0.66552,-158.59275 0.66919,-237.89667c1.74859,-9.16494 7.15797,-14.74153 16.22783,-16.72973z" fill="#232020" opacity="0.984"/><path d="M76.22191,4.51524c108.7432,-0.05578 217.48641,0 326.22961,0.1673c7.37112,1.23572 11.77438,5.52968 13.21648,12.88189c0.35133,7.60373 0.13049,15.18785 -0.66919,22.75243c-0.91679,5.79753 -3.54001,10.64914 -7.86297,14.55486c-2.5998,1.57058 -5.38697,2.68612 -8.36486,3.34595c-0.44501,0.89236 -0.44501,1.78439 0,2.67675c8.48866,1.35076 13.78864,6.20238 15.89324,14.55486c0.66919,3.30847 1.00379,6.65442 1.00379,10.03783c0.22417,85.54477 0.22417,171.08919 0,256.63396c-1.5224,7.32093 -5.92568,11.72754 -13.21648,13.21648c-108.52004,0.22417 -217.04038,0.22417 -325.56042,0c-7.00507,-1.53914 -11.1875,-5.83533 -12.54729,-12.88188c-0.32289,-15.6239 -0.21113,-31.2384 0.3346,-46.84322c0.6645,-5.01021 2.56031,-9.4717 5.6881,-13.38378c2.63593,-2.58976 5.81458,-3.87226 9.53594,-3.84783c1.6442,-1.061 1.75562,-2.28761 0.33459,-3.68054c-6.87592,-1.29688 -11.50437,-5.25648 -13.88567,-11.87811c-1.08342,-2.8039 -1.75261,-5.7035 -2.00757,-8.69946c-0.22317,-79.18747 -0.22317,-158.37461 0,-237.56207c1.80179,-6.20683 5.76105,-10.22196 11.87811,-12.0454z" fill="#fdd14b"/><path d="M417.57404,41.64031c1.61275,4.17139 3.9549,7.9078 7.02648,11.20891c1.11419,0.78061 2.23175,1.56156 3.34595,2.34216c-2.49272,1.21826 -4.55718,2.94677 -6.19,5.18621c-1.60605,2.42815 -2.94443,4.99348 -4.01513,7.69567c-1.89045,-5.62353 -5.4037,-9.86183 -10.53972,-12.71459c5.15945,-3.29174 8.6158,-7.86431 10.37242,-13.71837z" fill="#fbfbfb"/><path d="M229.53195,111.23597c11.56927,-0.92081 22.83406,0.47311 33.79405,4.18243c20.89041,9.04609 28.75337,24.71616 23.58891,47.01052c-1.74592,5.94775 -4.70138,11.18951 -8.86675,15.72594c10.39183,8.4127 15.02061,19.34257 13.88567,32.79025c-1.24101,17.069 -9.43857,29.50454 -24.59269,37.30729c-11.04027,4.74956 -22.5838,7.0362 -34.63054,6.85919c-15.90093,0.12548 -30.95768,-3.33189 -45.17024,-10.37243c-0.1673,-15.72561 -0.22318,-31.45155 -0.1673,-47.17783c6.9947,3.38542 14.02119,6.78692 21.07946,10.20514c8.56997,3.59221 17.49259,5.04201 26.76756,4.34973c2.22071,-0.19273 4.33969,-0.75016 6.35729,-1.67297c0.27872,-0.27872 0.55776,-0.55777 0.83648,-0.83649c0.43163,-1.54248 0.54338,-3.10403 0.3346,-4.68432c-3.47577,-1.39192 -7.10043,-2.11698 -10.87432,-2.17486c-8.69878,-0.1673 -17.39824,-0.22317 -26.09837,-0.1673c0.05587,-12.71492 0,-25.42952 -0.1673,-38.14378c-7.37547,-11.01485 -14.79242,-22.00059 -22.25053,-32.95756c7.03016,-5.63624 14.61408,-10.43199 22.75242,-14.38756c7.60902,-2.91399 15.41611,-4.86568 23.42161,-5.85541z" fill="#242120"/><path d="M230.87032,122.61219c6.15454,-0.14053 12.28865,0.13818 18.40271,0.83648c7.50663,1.0871 14.19851,3.98703 20.07566,8.69946c7.1108,7.30486 9.39709,15.94845 6.85919,25.93107c-2.5272,8.65896 -7.82517,14.96073 -15.89324,18.90459c-2.86815,1.16038 -5.76808,2.22003 -8.69946,3.17864c5.67573,1.01817 11.14099,2.74668 16.39512,5.18621c9.89462,6.2442 13.96565,15.22239 12.2127,26.93487c-1.6181,12.77248 -8.36554,21.63923 -20.24297,26.60025c-4.85297,1.94299 -9.87187,3.28137 -15.05675,4.01513c-12.78084,1.41299 -25.38367,0.52063 -37.80917,-2.67675c-2.62958,-0.78362 -5.19492,-1.73152 -7.69568,-2.84405c-0.3346,-7.0228 -0.44602,-14.04929 -0.3346,-21.07945c6.83577,3.18935 13.97367,5.47563 21.41404,6.85919c6.92578,1.05597 13.84084,0.94456 20.74486,-0.33459c10.39084,-2.75338 14.68469,-9.5008 12.88189,-20.24296c-1.1055,-4.45178 -3.83814,-7.40726 -8.19757,-8.86676c-4.44944,-1.46251 -9.02201,-2.24346 -13.71837,-2.34216c-5.01758,-0.1673 -10.0365,-0.22317 -15.05675,-0.1673c0,-6.46872 0,-12.93776 0,-19.40648c5.2431,0.05587 10.48519,0 15.72594,-0.1673c5.38429,-0.25797 10.40321,-1.70777 15.05675,-4.34972c3.36033,-3.09868 4.92189,-6.94652 4.68432,-11.54352c0.03613,-4.78102 -1.97144,-8.40602 -6.0227,-10.87432c-8.69444,-3.09399 -17.28247,-2.7594 -25.76377,1.00379c-3.50722,1.58531 -6.85316,3.42558 -10.03783,5.52081c-3.87493,-5.63055 -7.66724,-11.31866 -11.37622,-17.06432c6.69758,-5.02026 14.17008,-8.42208 22.41784,-10.20514c3.07358,-0.41958 6.08493,-0.92147 9.03405,-1.50567z" fill="#fdfdfd"/><path d="M231.53952,154.39866c3.13214,-0.06257 6.25525,0.04885 9.36865,0.33459c0.05521,1.12089 -0.00067,2.2361 -0.1673,3.34595c-2.87617,1.44578 -5.9434,2.17084 -9.20134,2.17486c-4.46115,0.22317 -8.92263,0.22317 -13.38378,0c4.20853,-2.60783 8.66968,-4.55985 13.38378,-5.85539z" fill="#f8cd4a"/><path d="M61.90012,258.79213c1.56389,3.23184 3.40416,6.35495 5.52081,9.36864c1.57662,1.41132 3.19403,2.7497 4.85162,4.01514c-4.89511,3.08162 -8.18519,7.43134 -9.87054,13.04918c-1.9557,-5.74431 -5.58036,-10.03816 -10.87432,-12.88188c5.19258,-3.19202 8.64994,-7.70906 10.37243,-13.55108z" fill="#fbfbfb"/></g></g></svg>