<svg version="1.1" xmlns="http://www.w3.org/2000/svg" xmlns:xlink="http://www.w3.org/1999/xlink" width="387.44153" height="360.67088" viewBox="0,0,387.44153,360.67088"><g transform="translate(-46.27924,0.33544)"><g fill-rule="evenodd" stroke="none" stroke-miterlimit="10"><path d="M79.46603,-0.33544c107.06972,0 214.13911,0 321.20883,0c8.35735,1.72772 13.56507,6.76886 15.6166,15.12345c0.36822,3.166 0.5885,6.34409 0.65754,9.53435c4.41868,5.4472 6.94034,11.69372 7.56172,18.73992c0.1085,3.17822 0.22028,6.35612 0.32877,9.53435c2.22249,1.87465 4.80006,2.91553 7.72611,3.12333c1.42029,1.15957 1.53207,2.36517 0.32877,3.61647c-2.87345,0.23836 -5.5595,1.06028 -8.05488,2.46579c-0.1085,89.20631 -0.22028,178.41293 -0.32877,267.61923c-2.67947,16.48785 -12.16122,26.62712 -28.43866,30.41127c-48.75996,0.38137 -97.5288,0.54576 -146.3029,0.49316c-47.78121,-0.05589 -95.56276,-0.1085 -143.34396,-0.16438c-6.90615,-0.71672 -13.04331,-3.2351 -18.41116,-7.56172c-5.71075,0.49316 -11.08056,-0.60494 -16.10976,-3.28771c-4.75961,-3.32387 -7.55417,-7.87405 -8.38366,-13.64397c-0.10948,-13.37011 -0.21929,-26.73989 -0.32877,-40.11001c0.04964,-5.45233 -1.15596,-10.60319 -3.61647,-15.45222c-2.883,-4.43117 -6.99262,-6.89695 -12.32889,-7.39734c-1.00965,-0.92812 -1.22894,-2.02391 -0.65754,-3.28771c6.92554,-1.22533 11.69272,-5.11567 14.30152,-11.67135c0.96725,-2.55389 1.62478,-5.18405 1.97263,-7.8905c0.43463,-77.91369 0.65392,-155.83232 0.65754,-233.75587c1.71815,-9.00542 7.03339,-14.48494 15.94538,-16.43853z" fill="#232020" opacity="0.984"/><path d="M79.13726,3.6098c106.85043,-0.0548 213.70087,0 320.55129,0.16438c7.24281,1.21421 11.56944,5.43343 12.98643,12.65766c0.22028,5.26033 0.22028,10.52067 0,15.78099c-0.01645,6.62768 -1.88057,12.65504 -5.58909,18.08239c-2.92276,3.35181 -6.59186,5.37902 -11.0138,6.08225c-0.43726,0.87683 -0.43726,1.75334 0,2.63017c8.3409,1.32725 13.54864,6.09442 15.6166,14.30152c0.61808,3.25647 0.94686,6.54417 0.98631,9.86312c0.22028,84.05578 0.22028,168.11124 0,252.16702c-1.4959,7.1935 -5.82253,11.52341 -12.98643,12.98643c-106.63114,0.22028 -213.26262,0.22028 -319.89375,0c-6.88314,-1.51235 -10.99278,-5.73375 -12.32889,-12.65766c-0.31726,-15.35194 -0.20745,-30.69468 0.32877,-46.02788c0.65294,-4.923 2.51575,-9.30684 5.58909,-13.15082c2.59006,-2.54469 5.71338,-3.80486 9.36996,-3.78086c1.61558,-1.04253 1.72506,-2.2478 0.32877,-3.61647c-6.75624,-1.27432 -11.30412,-5.16499 -13.64397,-11.67135c-1.06456,-2.7551 -1.7221,-5.60422 -1.97263,-8.54804c-0.21929,-77.80914 -0.21929,-155.61796 0,-233.4271c1.77043,-6.09879 5.66077,-10.04404 11.67135,-11.83574z" fill="#5679f2"/><path d="M414.48323,44.04859c1.58468,4.09878 3.88606,7.77016 6.90418,11.0138c1.0948,0.76702 2.1929,1.53437 3.28771,2.30139c-2.44934,1.19706 -4.47785,2.89548 -6.08225,5.09594c-1.5781,2.38589 -2.89318,4.90658 -3.94524,7.56172c-1.85756,-5.52565 -5.30964,-9.69018 -10.35627,-12.49328c5.06964,-3.23445 8.46584,-7.72742 10.19189,-13.47959z" fill="#fbfbfb"/><path d="M234.31696,112.43286c9.93018,-0.59146 19.57434,0.77853 28.93181,4.10963c18.15537,7.65081 26.31973,21.29481 24.49341,40.93193c-1.22106,8.74399 -5.00191,16.14132 -11.34258,22.19201c15.47655,13.78238 19.2574,30.2755 11.34258,49.47997c-6.4679,11.17196 -15.94735,18.5693 -28.43866,22.19201c-15.07544,3.75061 -29.9796,3.20256 -44.7128,-1.64385c-19.05258,-7.90069 -27.87448,-22.20221 -26.46603,-42.90456c1.31607,-10.96318 6.08325,-20.05895 14.30152,-27.28796c-10.84548,-12.5587 -13.53056,-26.69584 -8.05488,-42.4114c4.76289,-9.69446 12.16023,-16.54374 22.19201,-20.54816c5.81167,-2.00156 11.72955,-3.37154 17.75362,-4.10963z" fill="#232021"/><path d="M233.65941,123.93984c10.35759,-1.02905 20.2207,0.66938 29.58935,5.09594c12.61131,7.84446 16.50165,18.85829 11.67135,33.04143c-2.80836,6.20686 -7.13728,11.08351 -12.98643,14.63029c-1.86315,1.04121 -3.72595,2.0821 -5.58909,3.12333c6.96928,3.56683 13.05153,8.27943 18.24676,14.13713c5.88696,7.84939 7.42134,16.50692 4.60279,25.97287c-3.42283,9.01193 -9.61457,15.31347 -18.57553,18.9043c-3.5882,1.49985 -7.31416,2.48616 -11.1782,2.95893c-8.96491,1.01657 -17.84172,0.57798 -26.63041,-1.31508c-19.66048,-6.30714 -26.94833,-19.51286 -21.86325,-39.61685c3.09702,-7.59065 8.19296,-13.45395 15.28783,-17.58923c1.64385,-0.93141 3.28771,-1.86315 4.93155,-2.79455c-3.88245,-2.5243 -7.44402,-5.48324 -10.68505,-8.8768c-7.36545,-8.77258 -9.33807,-18.63571 -5.91787,-29.58935c3.81999,-7.65444 9.79276,-12.85986 17.918,-15.6166c3.68025,-1.25032 7.40621,-2.07224 11.1782,-2.46579z" fill="#fefefe"/><path d="M236.28958,141.69344c6.14866,-0.8913 11.35408,0.86236 15.6166,5.26033c1.71947,2.94512 2.26754,6.12302 1.64385,9.53435c-1.07377,3.95149 -3.32025,7.07482 -6.73979,9.36996c-2.19586,1.42719 -4.49725,2.6877 -6.90418,3.78086c-4.93977,-2.15015 -9.04941,-5.32806 -12.32889,-9.53435c-3.85385,-9.45019 -0.94949,-15.58734 8.71242,-18.41116z" fill="#232020"/><path d="M237.93344,152.87164c1.21054,-0.05424 2.4158,0.00032 3.61647,0.16438c0.46357,0.12099 0.79234,0.39486 0.98631,0.82193c-1.70073,3.45736 -3.45406,3.45736 -5.26033,0c0.14531,-0.40734 0.3646,-0.73611 0.65754,-0.98631z" fill="#5373e3"/><path d="M238.26221,190.68026c6.90255,2.5996 12.65602,6.76413 17.26046,12.49328c2.86885,5.19556 2.75937,10.34608 -0.32877,15.45222c-2.65055,3.05198 -5.99316,4.86022 -10.02751,5.42471c-5.28926,0.99683 -10.44011,0.55858 -15.45222,-1.31508c-5.8988,-3.08387 -8.47439,-7.96086 -7.72611,-14.63029c0.91595,-4.95523 3.38174,-8.95538 7.39734,-12.00012c2.76068,-2.14687 5.71962,-3.95512 8.8768,-5.42471z" fill="#242121"/><path d="M238.26221,203.50231c2.85537,1.14905 5.32115,2.90271 7.39734,5.26033c1.43805,2.19521 0.83541,3.56486 -1.80824,4.10963c-2.73965,0.21929 -5.47962,0.21929 -8.21926,0c-0.78872,-0.24033 -1.50083,-0.624 -2.13701,-1.1507c-0.25216,-1.34598 -0.14268,-2.66106 0.32877,-3.94524c1.22828,-1.7221 2.70775,-3.14667 4.4384,-4.27401z" fill="#5678ee"/><path d="M65.00012,257.42068c1.53667,3.17559 3.34492,6.24434 5.42471,9.20558c1.54917,1.38676 3.13845,2.70184 4.76717,3.94524c-4.80991,3.02798 -8.04271,7.302 -9.69874,12.82205c-1.92166,-5.64433 -5.48324,-9.86345 -10.68505,-12.65766c5.10219,-3.13647 8.49938,-7.57486 10.19189,-13.31521z" fill="#fbfbfb"/></g></g></svg>