<svg version="1.1" xmlns="http://www.w3.org/2000/svg" xmlns:xlink="http://www.w3.org/1999/xlink" width="389.37664" height="362.47227" viewBox="0,0,389.37664,362.47227"><g transform="translate(-46.81316,-0.16163)"><g fill-rule="evenodd" stroke="none" stroke-miterlimit="10"><path d="M80.16574,0.16163c107.60448,0 215.20863,0 322.81311,0c8.39909,1.73635 13.63282,6.80267 15.69459,15.19898c0.37006,3.18181 0.59144,6.37577 0.66082,9.58197c4.44075,5.47441 6.97501,11.75212 7.59949,18.83353c0.10904,3.19409 0.22138,6.38787 0.33042,9.58197c2.2336,1.88401 4.82402,2.9301 7.76469,3.13892c1.42738,1.16536 1.53971,2.37699 0.33042,3.63454c-2.88781,0.23955 -5.58728,1.06558 -8.09511,2.4781c-0.10904,89.65185 -0.22138,179.30402 -0.33042,268.95587c-2.69286,16.57018 -12.22196,26.76011 -28.58069,30.56316c-49.00349,0.38328 -98.01591,0.54849 -147.03361,0.49561c-48.01986,-0.05617 -96.04005,-0.10904 -144.05991,-0.1652c-6.94064,-0.7203 -13.10847,-3.25125 -18.5031,-7.59949c-5.73926,0.49561 -11.1359,-0.60796 -16.19022,-3.30412c-4.78338,-3.34046 -7.5919,-7.91338 -8.42553,-13.71212c-0.11003,-13.43688 -0.22039,-26.87346 -0.33042,-40.31034c0.04989,-5.47957 -1.16173,-10.65614 -3.63454,-15.5294c-2.8974,-4.45331 -7.02755,-6.93141 -12.39048,-7.43429c-1.0147,-0.93275 -1.23509,-2.03403 -0.66082,-3.30412c6.96014,-1.23145 11.75112,-5.14122 14.37295,-11.72964c0.97208,-2.56664 1.63289,-5.20994 1.98248,-7.92991c0.43681,-78.30284 0.65719,-156.61062 0.66082,-234.92337c1.72674,-9.0504 7.06851,-14.55729 16.02502,-16.52062z" fill="#232020" opacity="0.984"/><path d="M78.26885,6.70851c107.38409,-0.05507 214.7682,0 322.1523,0.1652c7.279,1.22028 11.62721,5.46056 13.0513,12.72088c0.22138,5.2866 0.22138,10.57321 0,15.8598c-0.01653,6.66079 -1.88996,12.71824 -5.61701,18.17269c-2.93736,3.36856 -6.62477,5.40588 -11.06882,6.11262c-0.43944,0.88121 -0.43944,1.76209 0,2.64331c8.38256,1.33388 13.6163,6.12486 15.69459,14.37295c0.62118,3.27273 0.9516,6.57685 0.99124,9.91238c0.22138,84.4756 0.22138,168.95088 0,253.42647c-1.50337,7.22943 -5.8516,11.58096 -13.0513,13.0513c-107.16371,0.22138 -214.32776,0.22138 -321.49147,0c-6.91753,-1.5199 -11.04768,-5.76239 -12.39048,-12.72088c-0.31885,-15.42862 -0.20849,-30.84797 0.33042,-46.25776c0.65619,-4.9476 2.52832,-9.35333 5.61701,-13.21651c2.60299,-2.55739 5.74192,-3.82387 9.41676,-3.79974c1.62364,-1.04774 1.73367,-2.25902 0.33042,-3.63454c-6.78998,-1.28069 -11.36058,-5.19078 -13.71212,-11.72964c-1.06988,-2.76885 -1.7307,-5.63222 -1.98248,-8.59072c-0.22039,-78.19777 -0.22039,-156.39519 0,-234.59296c1.77926,-6.12926 5.68905,-10.0942 11.72964,-11.89486z" fill="#5679f2"/><path d="M416.8562,44.76733c1.59258,4.11925 3.90547,7.80897 6.93866,11.06882c1.10028,0.77086 2.20386,1.54203 3.30412,2.31289c-2.46157,1.20304 -4.50023,2.90994 -6.11262,5.1214c-1.58598,2.3978 -2.90763,4.93108 -3.96495,7.59949c-1.86684,-5.55324 -5.33615,-9.73858 -10.40799,-12.55567c5.09496,-3.2506 8.50813,-7.76601 10.24279,-13.54692z" fill="#fbfbfb"/><path d="M260.24061,209.97364c-0.2607,0.0935 -0.48109,0.25872 -0.66082,0.49561c11.45376,0.1652 22.90817,0.22039 34.36291,0.1652c0,14.42812 0,28.85593 0,43.28405c-34.5833,0 -69.16626,0 -103.74956,0c0,-11.124 0,-22.24767 0,-33.37167c11.32357,-11.48911 22.72281,-22.9432 34.1977,-34.36291c4.41662,-4.52632 8.71199,-9.15209 12.88609,-13.87734c2.1533,-2.48768 3.9154,-5.241 5.2866,-8.26032c0.83165,-2.33833 0.99686,-4.70641 0.49561,-7.10387c-3.71252,-0.59012 -7.23703,-0.03931 -10.57321,1.65206c-2.73119,1.52121 -5.37449,3.17327 -7.92991,4.95619c-3.80701,3.20136 -7.6616,6.34029 -11.56444,9.41676c-9.36587,-10.9089 -18.61743,-21.92255 -27.75465,-33.04127c7.11907,-6.63931 14.71855,-12.64192 22.79847,-18.00749c17.70286,-9.31896 36.09593,-10.97102 55.17891,-4.95619c19.56273,8.33498 28.64909,23.14838 27.25904,44.4405c-1.00974,8.97698 -3.98345,17.2373 -8.92113,24.78095c-6.33434,8.59336 -13.43821,16.52327 -21.3116,23.7897z" fill="#232020"/><path d="M232.15555,220.87725c-0.30861,0.35288 -0.41897,0.79333 -0.33042,1.32164c16.85104,0 33.70208,0 50.55312,0c0,6.71828 0,13.43688 0,20.15517c-26.9838,0 -53.96728,0 -80.95108,0c-0.05519,-5.72837 0,-11.45541 0.1652,-17.18146c15.45868,-15.01726 30.43727,-30.43628 44.93611,-46.25776c3.76274,-4.32973 6.40605,-9.28592 7.92991,-14.86857c2.36178,-12.14729 -2.5944,-18.42512 -14.86857,-18.83353c-3.38111,0.11565 -6.63005,0.83132 -9.74717,2.14768c-5.59619,2.54749 -10.7176,5.79643 -15.36418,9.74717c-4.58448,-5.13428 -9.04505,-10.36604 -13.38171,-15.69459c16.32933,-15.42433 35.38322,-20.16012 57.16138,-14.20773c16.64024,6.89735 23.4137,19.28783 20.32038,37.17143c-1.07747,5.21424 -3.05996,10.06008 -5.94743,14.53815c-2.49958,3.82222 -5.25322,7.45675 -8.26032,10.90361c-10.6036,10.54941 -21.34202,20.90224 -32.21522,31.05878z" fill="#fefefe"/><path d="M260.24061,209.97364c11.23403,0.22039 22.46805,0.44044 33.70208,0.66082c-11.45474,0.05519 -22.90915,0 -34.36291,-0.1652c0.17975,-0.2369 0.40013,-0.40211 0.66082,-0.49561z" fill="#4962bd"/><path d="M232.15555,220.87725c0,0.33042 0,0.66082 0,0.99124c16.85104,0 33.70208,0 50.55312,0c0,6.93866 0,13.87734 0,20.81599c-27.14934,0.11003 -54.24318,-0.00032 -81.28151,-0.33042c26.9838,0 53.96728,0 80.95108,0c0,-6.71828 0,-13.43688 0,-20.15517c-16.85104,0 -33.70208,0 -50.55312,0c-0.08854,-0.52833 0.02181,-0.96877 0.33042,-1.32164z" fill="#c8c7c7"/><path d="M190.19315,220.54683c0,11.124 0,22.24767 0,33.37167c34.5833,0 69.16626,0 103.74956,0c-34.63782,0.33009 -69.33115,0.44044 -104.07998,0.33042c-0.1097,-11.29053 0.00067,-22.52457 0.33042,-33.70208z" fill="#465cae"/><path d="M65.62759,259.20512c1.54435,3.19145 3.36163,6.27553 5.45181,9.25155c1.55691,1.39368 3.15413,2.71532 4.79098,3.96495c-4.83393,3.0431 -8.08289,7.33848 -9.74717,12.88609c-1.93126,-5.67252 -5.51062,-9.91272 -10.73842,-12.72088c5.12768,-3.15214 8.54183,-7.6127 10.24279,-13.38171z" fill="#fbfbfb"/></g></g></svg>