<svg version="1.1" xmlns="http://www.w3.org/2000/svg" xmlns:xlink="http://www.w3.org/1999/xlink" width="337.53906" height="77.75912" viewBox="0,0,337.53906,77.75912"><g transform="translate(-71.23047,-141.12044)"><g fill-rule="evenodd" stroke="none" stroke-miterlimit="10"><path d="M397.25,153.2181c-0.23958,15.33854 -0.38542,30.69792 -0.43229,46.07813c-1.26563,4.4375 -4.19792,6.88542 -8.78646,7.34375c-99.07292,0.19271 -198.14063,0.19271 -297.21354,0c-4.49479,-0.94271 -7.13542,-3.67708 -7.92188,-8.20833c-0.14063,-2.875 -0.19271,-5.75521 -0.14063,-8.64063c5.04688,-0.68229 7.20833,-3.5625 6.47917,-8.64062c-1.17188,-2.91146 -3.33333,-4.44792 -6.47917,-4.60417c0,-1.72917 0,-3.45833 0,-5.1875c4.15104,-0.16667 6.35938,-2.32813 6.61979,-6.47917c-0.39583,-4.57292 -2.89062,-6.73437 -7.48437,-6.47917c0.20313,-0.26042 0.48958,-0.35417 0.86458,-0.28646c0,-1.63542 0,-3.26563 0,-4.89583c-0.66146,-4.41146 0.77604,-7.91667 4.31771,-10.51563c1.32292,-0.82292 2.76562,-1.30208 4.31771,-1.4375c99.07292,-0.19271 198.14583,-0.19271 297.21875,0c6.33854,1.40104 9.21875,5.38542 8.64062,11.95313zM397.25,153.2181" fill-opacity="0.995" fill="#fedfb2"/><path d="M82.75521,153.2181c0,1.63021 0,3.26042 0,4.89583c-0.375,-0.06771 -0.66146,0.02604 -0.86458,0.28646c-4.47396,1.15625 -6.25,4.03646 -5.32813,8.64062c1.15625,2.76042 3.21875,4.19792 6.19271,4.31771c0,1.72917 0,3.45833 0,5.1875c-5.23437,0.95833 -7.20312,4.03125 -5.90625,9.21354c1.14583,2.54167 3.11458,3.88542 5.90625,4.03125c-0.05208,2.88542 0,5.76563 0.14063,8.64063c0.78646,4.53125 3.42708,7.26563 7.92188,8.20833c99.07292,0.19271 198.14062,0.19271 297.21354,0c4.58854,-0.45833 7.52083,-2.90625 8.78646,-7.34375c0.04687,-15.38021 0.19271,-30.73958 0.43229,-46.07813c5.89063,-0.38542 9.68229,2.20313 11.375,7.77604c0.19271,16.79687 0.19271,33.59896 0,50.40104c-1.13542,3.91667 -3.68229,6.36458 -7.63021,7.34375c-107.32813,0.1875 -214.65625,0.1875 -321.98437,0c-3.95313,-0.97917 -6.5,-3.42708 -7.63542,-7.34375c-0.19271,-16.90104 -0.19271,-33.79688 0,-50.69271c1.82292,-5.40104 5.61458,-7.89583 11.38021,-7.48437zM82.75521,153.2181" fill-opacity="0.983" fill="#ff3131"/><path d="M81.89062,158.40039c4.59375,-0.25521 7.08854,1.90625 7.48437,6.47917c-0.26042,4.15104 -2.46875,6.3125 -6.61979,6.47917c-2.97396,-0.11979 -5.03646,-1.55729 -6.19271,-4.31771c-0.92187,-4.60417 0.85417,-7.48437 5.32813,-8.64062zM81.89062,158.40039" fill="#fffdfd"/><path d="M199.10417,163.00977c3.80208,-0.375 7.64583,-0.375 11.52083,0c-3.77604,0.01563 -7.61458,0.01563 -11.52083,0zM199.10417,163.00977" fill="#453d31"/><path d="M177.79167,187.77539c-0.01562,-0.15625 -0.11458,-0.25 -0.28646,-0.28646c-0.28125,0.74479 -0.38021,1.51042 -0.28646,2.30208c-8.93229,0 -17.85937,0 -26.78646,0c0,-8.54167 0,-17.08854 0,-25.63021c3.74479,0 7.48958,0 11.23437,0c0.80208,2.04687 1.52083,4.16146 2.15625,6.33333c0.65625,-2.10417 1.28125,-4.21875 1.875,-6.33333c3.83854,0 7.67708,0 11.52083,0c-0.05208,2.20833 0,4.41667 0.14063,6.625c0.20833,-0.15625 0.35417,-0.34896 0.43229,-0.57813c4.97396,-3.05208 9.63021,-2.67187 13.96875,1.15104c1.89583,-2.28646 4.34375,-3.34375 7.34375,-3.16667c0,-1.72917 0,-3.45313 0,-5.18229c3.90625,0.01563 7.74479,0.01563 11.52083,0c2.15104,-0.56771 4.16667,-0.23437 6.04687,1.00521c1.29167,1.54167 1.77083,3.31771 1.44271,5.32813c4.4375,-1.74479 8.75521,-1.50521 12.95833,0.72396c1.31771,1.24479 2.22917,2.72917 2.73437,4.46354c0.14583,5.08333 0.19271,10.17187 0.14583,15.26042c-3.94271,-0.05729 -7.875,0.04167 -11.80729,0.29167c-1.34375,0.09896 -2.58854,-0.1875 -3.74479,-0.86458c-6.53646,0.48437 -13.10938,0.77604 -19.72917,0.86458c-1.00521,-0.14583 -2.01562,-0.29167 -3.02083,-0.43229c-1.02604,-0.48958 -2.03646,-1.02083 -3.02604,-1.58333c-4.13542,2.21354 -8.40625,2.55208 -12.81771,1.00521c-0.77604,-0.29167 -1.44792,-0.72396 -2.01563,-1.29687zM177.79167,187.77539" fill="#040303"/><path d="M261.89062,162.7181c2.09375,-0.26042 4.01042,0.17187 5.76042,1.29687c0.60937,0.5 1.04167,1.125 1.29167,1.875c2.76042,-0.56771 5.58854,-0.75521 8.5,-0.57812c0,1.05729 0,2.11458 0,3.16667c10.46354,0.02083 20.93229,-0.03125 31.39062,-0.14063c1.84375,0.39583 3.38542,1.30729 4.60938,2.73437c1.4375,-1.4375 3.16667,-2.34896 5.18229,-2.73437c4.41146,0.05208 8.82813,0.09896 13.25,0.14063c0.09375,2.69792 0,5.38542 -0.29167,8.06771c-0.45313,0.22917 -0.93229,0.32812 -1.4375,0.28646c0,1.58333 -0.38021,3.06771 -1.15104,4.46354c2.94271,3.26563 3.375,6.86458 1.29167,10.80208c-2.04167,2.24479 -4.58333,3.54167 -7.63021,3.88542c-4.34375,0.92187 -8.03646,-0.18229 -11.08854,-3.3125c-0.42188,-0.9375 -0.76042,-1.89583 -1.00521,-2.88021c-8.83854,-0.02083 -17.67187,0.02604 -26.5,0.14583c-1.11458,-0.30208 -2.17187,-0.73438 -3.16667,-1.29688c-2.96354,1.36979 -6.03646,1.70833 -9.21354,1.01042c-0.81771,-0.35938 -1.58333,-0.79167 -2.30729,-1.29687c-0.27083,0.44271 -0.36979,0.92187 -0.28646,1.4375c-6.43229,0 -12.86458,0 -19.29687,0c-0.19271,-10.75 -0.38021,-10.75 -0.57292,0c-3.65104,0 -7.29688,0 -10.94792,0c0,-8.54167 0,-17.08854 0,-25.63021c3.65104,0 7.29688,0 10.94792,0c0.19271,9.59896 0.38021,9.59896 0.57292,0c3.26563,0.04687 6.53125,0 9.79167,-0.14583c0.75,-0.51563 1.51563,-0.94792 2.30729,-1.29687zM261.89062,162.7181" fill="#040404"/><path d="M161.66667,164.16081c-3.74479,0 -7.48958,0 -11.23437,0c0,8.54167 0,17.08854 0,25.63021c-0.28646,-8.58854 -0.38542,-17.22917 -0.28646,-25.91667c3.89063,-0.09896 7.72917,0 11.52083,0.28646zM161.66667,164.16081" fill="#786a54"/><path d="M177.21875,164.16081c0.19271,2.01563 0.38021,4.03125 0.57292,6.04687c-0.07813,0.22917 -0.22396,0.42188 -0.43229,0.57813c-0.14063,-2.20833 -0.19271,-4.41667 -0.14063,-6.625zM177.21875,164.16081" fill="#88775f"/><path d="M202.5625,166.46289c1.24479,0 2.49479,0 3.74479,0c0,6.625 0,13.25 0,19.875c-0.97917,0.08854 -1.94271,-0.00521 -2.88021,-0.29167c-0.375,-1.59896 -0.94792,-1.74479 -1.72917,-0.42708c-4.375,2.09375 -7.20833,0.79687 -8.49479,-3.89062c-0.46354,-2.82813 -0.08333,-5.51563 1.15104,-8.0625c2.78125,-2.6875 5.56771,-2.6875 8.34896,0c-0.10417,-2.39062 -0.15104,-4.78646 -0.14063,-7.20312zM202.5625,166.46289" fill="#fbfbfb"/><path d="M202.5625,166.46289c1.28646,-0.28125 2.63021,-0.38021 4.03125,-0.28646c0.09375,6.77083 0,13.48958 -0.28646,20.16146c0,-6.625 0,-13.25 0,-19.875c-1.25,0 -2.5,0 -3.74479,0zM202.5625,166.46289" fill="#afafaf"/><path d="M211.48958,166.17643c2.96875,-0.25 3.83333,0.94792 2.59375,3.59896c-2.47396,0.97917 -3.67708,0.16146 -3.60417,-2.44792c0.39583,-0.34375 0.73437,-0.72917 1.01042,-1.15104zM211.48958,166.17643" fill="#efefef"/><path d="M262.75521,166.17643c2.83854,-0.08854 3.60938,1.10937 2.30208,3.59896c-2.66667,0.98437 -3.77083,0.07292 -3.3125,-2.73438c0.32813,-0.32812 0.66667,-0.61458 1.01042,-0.86458zM262.75521,166.17643" fill="#f3f3f3"/><path d="M159.35938,167.9056c-1.79688,-0.27604 -3.61979,-0.375 -5.46875,-0.28646c0,6.23958 0,12.47917 0,18.71875c-0.28646,-6.28646 -0.38542,-12.625 -0.29167,-19.01042c2.04167,-0.17708 3.96354,0.01042 5.76042,0.57813zM159.35938,167.9056" fill="#8d8d8d"/><path d="M159.35938,167.9056c1.38021,4.52083 2.82292,9.03646 4.32292,13.53646c1.59375,-4.58854 3.125,-9.19792 4.60417,-13.82292c1.82813,0 3.65104,0 5.47396,0c0,6.23958 0,12.47917 0,18.71875c-1.25,0 -2.49479,0 -3.74479,0c-0.01563,-4.80729 0.03125,-9.60937 0.14583,-14.40104c-1.55729,4.71354 -3.14063,9.41667 -4.75521,14.10937c-1.22917,0.28646 -2.47917,0.38542 -3.73958,0.29167c-1.34896,-4.51563 -2.69271,-9.03125 -4.03646,-13.53646c-0.16667,-0.36458 -0.3125,-0.75 -0.42708,-1.15104c-0.23958,1.68229 -0.19271,3.3125 0.14063,4.89583c0,3.26042 0,6.52604 0,9.79167c-1.15104,0 -2.30208,0 -3.45313,0c0,-6.23958 0,-12.47917 0,-18.71875c1.84896,-0.08854 3.67187,0.01042 5.46875,0.28646zM159.35938,167.9056" fill="#fafafa"/><path d="M168.28646,167.61914c1.86979,-0.28646 3.78646,-0.38542 5.76042,-0.29167c0.09896,6.38542 0,12.72396 -0.28646,19.01042c0,-6.23958 0,-12.47917 0,-18.71875c-1.82292,0 -3.64583,0 -5.47396,0zM168.28646,167.61914" fill="#7e7e7e"/><path d="M253.25,167.61914c1.24479,0 2.49479,0 3.74479,0c0,6.23958 0,12.47917 0,18.71875c-1.25,0 -2.5,0 -3.74479,0c0,-2.6875 0,-5.375 0,-8.06771c-2.49479,0 -4.99479,0 -7.48958,0c0,2.69271 0,5.38021 0,8.06771c-1.34375,0 -2.6875,0 -4.03125,0c0,-6.33854 0,-12.67188 0,-19.01042c1.34375,0 2.6875,0 4.03125,0c0,2.49479 0,4.99479 0,7.48958c2.49479,0 4.99479,0 7.48958,0c0,-2.40104 0,-4.80208 0,-7.19792zM253.25,167.61914" fill="#fcfcfc"/><path d="M253.25,167.61914c1.28646,-0.28646 2.63021,-0.38021 4.03125,-0.29167c0.09375,6.38542 0,12.72396 -0.28646,19.01042c0,-6.23958 0,-12.47917 0,-18.71875c-1.25,0 -2.5,0 -3.74479,0zM253.25,167.61914" fill="#9e9e9e"/><path d="M278.01562,174.81706c-1.34375,0 -2.6875,0 -4.03125,0c-0.09375,2.54687 0,5.04167 0.28646,7.48958c0.00521,0.43229 0.19792,0.77083 0.57813,1.00521c1.15625,0.10417 2.30729,0.05729 3.45833,-0.14583c0,0.96354 0,1.92188 0,2.88021c-1.78125,0.55729 -3.60417,0.69792 -5.47396,0.43229c-1.67708,-0.61458 -2.54167,-1.81771 -2.59375,-3.59896c0,-2.6875 0,-5.375 0,-8.0625c-0.67187,0 -1.34375,0 -2.01563,0c-0.04687,-0.58333 0,-1.16146 0.14583,-1.72917c1.91146,-0.78125 2.92187,-2.22396 3.02083,-4.31771c0.86458,0 1.72917,0 2.59375,0c0,1.05208 0,2.10937 0,3.16667c1.34375,0 2.6875,0 4.03125,0c0,0.95833 0,1.92187 0,2.88021zM278.01562,174.81706" fill="#fbfbfb"/><path d="M221.85417,171.65039c1.94271,-0.09896 3.86458,0.04687 5.76042,0.43229c1.29687,0.52604 2.20833,1.4375 2.73958,2.73438c0.14063,3.83854 0.19271,7.67708 0.14063,11.52083c-0.95833,0 -1.91667,0 -2.88021,0c0,-0.67708 -0.23958,-1.25 -0.71875,-1.72917c-2.39583,2.25 -5.03646,2.58854 -7.91667,1.01042c-1.08854,-1.60937 -1.42187,-3.38542 -1.01042,-5.32813c0.88542,-1.67187 2.27604,-2.58333 4.17708,-2.73958c1.53125,-0.14063 3.06771,-0.19271 4.60937,-0.14063c0.14583,-1.86979 -0.71875,-2.83333 -2.59375,-2.88021c-1.19271,0.14063 -2.34375,0.42708 -3.45833,0.86458c-0.89063,-0.64063 -1.32292,-1.50521 -1.29687,-2.59375c0.83333,-0.41667 1.64583,-0.80208 2.44792,-1.15104zM221.85417,171.65039" fill="#fafafa"/><path d="M190.46354,176.54622c0,1.15104 0,2.30208 0,3.45312c-3.07292,0 -6.14062,0 -9.21354,0c-0.06771,0.375 0.02604,0.66146 0.28646,0.86458c0.75521,2.39583 2.39063,3.30729 4.89583,2.73437c1.10937,-0.16667 2.16667,-0.50521 3.16667,-1.00521c0.28646,1.03646 0.38542,2.09375 0.29167,3.16667c-2.33854,0.80208 -4.73437,1.04167 -7.20313,0.71875c-2.51563,-0.69271 -4.19271,-2.27604 -5.03646,-4.75c-0.76563,-3.33333 -0.04688,-6.26042 2.15625,-8.78646c2.71354,-1.625 5.5,-1.71875 8.35417,-0.28646c1.40104,0.9375 2.17187,2.23437 2.30208,3.89063zM190.46354,176.54622" fill="#f9f9f9"/><path d="M210.625,171.93685c1.34375,0 2.6875,0 4.03125,0c0,4.80208 0,9.59896 0,14.40104c-1.34375,0 -2.6875,0 -4.03125,0c0,-4.80208 0,-9.59896 0,-14.40104zM210.625,171.93685" fill="#f8f8f8"/><path d="M261.59896,171.93685c1.34375,0 2.6875,0 4.03125,0c0,4.80208 0,9.59896 0,14.40104c-1.34375,0 -2.6875,0 -4.03125,0c0,-4.80208 0,-9.59896 0,-14.40104zM261.59896,171.93685" fill="#fafafa"/><path d="M281.18229,171.93685c1.25,0 2.5,0 3.74479,0c-0.11979,3.47396 0.02604,6.92708 0.43229,10.36979c1.74479,1.64063 3.28125,1.44792 4.60937,-0.57812c0.39583,-3.25 0.54167,-6.51042 0.43229,-9.79167c1.34375,0 2.6875,0 4.03125,0c0,4.80208 0,9.59896 0,14.40104c-1.07292,0.09375 -2.13021,-0.00521 -3.16667,-0.29167c-0.15104,-0.49479 -0.34375,-0.97396 -0.57813,-1.4375c-1.72396,1.86458 -3.83333,2.48958 -6.33333,1.86979c-1.71354,-0.45833 -2.71875,-1.5625 -3.02604,-3.3125c-0.14583,-3.73958 -0.19271,-7.48437 -0.14583,-11.22917zM281.18229,171.93685" fill="#fafafa"/><path d="M305.08854,171.65039c1.83854,-0.20833 3.56771,0.13021 5.18229,1.00521c0.375,0.40625 0.70833,0.83854 1.01042,1.29687c0.41667,4.10938 0.5625,8.23438 0.43229,12.38542c-1.25,0 -2.5,0 -3.74479,0c0.04687,-3.26563 0,-6.53125 -0.14583,-9.79167c-0.85417,-1.69271 -2.15104,-2.125 -3.88542,-1.29688c-0.66667,0.46875 -1.09896,1.09375 -1.29687,1.86979c-0.14583,3.07292 -0.19271,6.14583 -0.14583,9.21875c-1.34375,0 -2.6875,0 -4.03125,0c0,-4.80208 0,-9.59896 0,-14.40104c1.07292,-0.09375 2.13021,0.00521 3.16667,0.28646c0.15104,0.5 0.34375,0.97917 0.57813,1.44271c0.8125,-0.91146 1.77083,-1.58333 2.88021,-2.01562zM305.08854,171.65039" fill="#fbfbfb"/><path d="M318.625,171.65039c3.26042,0.15104 6.52604,0.25 9.79167,0.28646c0,0.67187 0,1.34375 0,2.01562c-0.66667,0.14063 -1.33854,0.23958 -2.01562,0.28646c0.80729,5.47917 -1.58854,7.92708 -7.19792,7.34375c-0.41667,0.65625 -0.31771,1.22917 0.28646,1.72917c2.01562,0.09896 4.03125,0.19271 6.04687,0.28646c2.60417,1.34375 3.32292,3.41146 2.16146,6.19271c-1.21875,1.54688 -2.80208,2.45833 -4.75521,2.73958c-1.82292,0.1875 -3.64583,0.1875 -5.46875,0c-3.40104,-0.99479 -4.31771,-3.05729 -2.73958,-6.19271c0.58854,-0.44271 1.21354,-0.82813 1.875,-1.15104c-1.66667,-1.70833 -1.47396,-3.19271 0.57292,-4.46875c-2.70313,-2.25521 -2.99479,-4.79687 -0.85937,-7.63021c0.69792,-0.63542 1.46354,-1.11458 2.30208,-1.4375zM318.625,171.65039" fill="#f9f9f9"/><path d="M320.0625,173.95247c2.50521,0.05729 3.41667,1.30729 2.73958,3.74479c-0.03125,0.67708 -0.36979,1.10937 -1.01042,1.29687c-2.61458,0.25521 -3.625,-0.94271 -3.02083,-3.59896c0.39063,-0.53646 0.82292,-1.02083 1.29167,-1.44271zM320.0625,173.95247" fill="#141413"/><path d="M182.97917,174.5306c2.39583,-0.4375 3.73958,0.52083 4.03125,2.88021c-1.82813,0 -3.65104,0 -5.47396,0c0.02083,-1.19792 0.5,-2.15625 1.44271,-2.88021zM182.97917,174.5306" fill="#090909"/><path d="M198.81771,174.81706c1.93229,-0.27083 3.22396,0.49479 3.88542,2.30208c0.39063,2.06771 0.05729,3.98958 -1.00521,5.76042c-2.20313,1.18229 -3.6875,0.60417 -4.46354,-1.72917c-0.59375,-2.4375 -0.06771,-4.54687 1.58333,-6.33333zM198.81771,174.81706" fill="#070707"/><path d="M268.22396,174.81706c0.67187,0 1.34375,0 2.01563,0c0,2.6875 0,5.375 0,8.0625c-0.28646,-2.53646 -0.38021,-5.13021 -0.28646,-7.77604c-0.64583,0.08854 -1.21875,-0.01042 -1.72917,-0.28646zM268.22396,174.81706" fill="#656565"/><path d="M278.01562,174.81706c-1.1875,0.28125 -2.4375,0.38021 -3.74479,0.28646c0,2.40104 0,4.80208 0,7.20312c-0.28646,-2.44792 -0.38021,-4.94271 -0.28646,-7.48958c1.34375,0 2.6875,0 4.03125,0zM278.01562,174.81706" fill="#555555"/><path d="M320.35417,175.68164c1.01563,-0.17708 1.54167,0.20833 1.58333,1.15104c-0.82292,0.8125 -1.54167,0.76563 -2.16146,-0.14583c0.14062,-0.375 0.32812,-0.70833 0.57812,-1.00521zM320.35417,175.68164" fill="#ebcfa5"/><path d="M157.63021,172.80143c-0.28125,1.1875 -0.375,2.4375 -0.28646,3.74479c-0.33333,-1.58333 -0.38021,-3.21354 -0.14063,-4.89583c0.11458,0.40104 0.26042,0.78646 0.42708,1.15104zM157.63021,172.80143" fill="#a0a0a0"/><path d="M82.75521,176.54622c3.14583,0.15625 5.30729,1.69271 6.47917,4.60417c0.72917,5.07813 -1.43229,7.95833 -6.47917,8.64062c-2.79167,-0.14583 -4.76042,-1.48958 -5.90625,-4.03125c-1.29687,-5.18229 0.67187,-8.25521 5.90625,-9.21354zM82.75521,176.54622" fill="#fffdfd"/><path d="M223.58333,179.71289c1.05729,0 2.11458,0 3.17187,0c-0.03125,3.30208 -1.56771,4.45312 -4.60937,3.45312c-0.71354,-1.6875 -0.23437,-2.83854 1.4375,-3.45312zM223.58333,179.71289" fill="#0e0e0e"/><path d="M190.46354,176.54622c0.28646,1.1875 0.38021,2.4375 0.29167,3.74479c-3.1875,-0.1875 -6.25521,0.00521 -9.21875,0.57292c-0.26042,-0.20313 -0.35417,-0.48958 -0.28646,-0.86458c3.07292,0 6.14063,0 9.21354,0c0,-1.15104 0,-2.30208 0,-3.45312zM190.46354,176.54622" fill="#838383"/><path d="M318.625,186.62435c1.94792,-0.10937 3.86458,0.03646 5.76042,0.43229c0.36979,1.75 -0.39583,2.71354 -2.30208,2.88021c-1.15625,0.19271 -2.30729,0.19271 -3.45833,0c-1.06771,-0.48958 -1.40625,-1.30208 -1.01042,-2.44792c0.33333,-0.32813 0.66667,-0.61458 1.01042,-0.86458zM318.625,186.62435" fill="#050505"/><path d="M177.79167,187.77539c-0.19271,0.67187 -0.38021,1.34375 -0.57292,2.01562c-0.09375,-0.79167 0.00521,-1.55729 0.28646,-2.30208c0.17188,0.03646 0.27083,0.13021 0.28646,0.28646zM177.79167,187.77539" fill="#81715a"/></g></g></svg>