<svg version="1.1" xmlns="http://www.w3.org/2000/svg" xmlns:xlink="http://www.w3.org/1999/xlink" width="337.53906" height="77.75912" viewBox="0,0,337.53906,77.75912"><g transform="translate(-71.23047,-141.12044)"><g fill-rule="evenodd" stroke="none" stroke-miterlimit="10"><path d="M397.25,153.2181c-0.23958,15.33854 -0.38542,30.69792 -0.43229,46.07813c-1.26563,4.4375 -4.19792,6.88542 -8.78646,7.34375c-99.07292,0.19271 -198.14063,0.19271 -297.21354,0c-4.49479,-0.94271 -7.13542,-3.67708 -7.92188,-8.20833c-0.14063,-2.875 -0.19271,-5.75521 -0.14063,-8.64063c5.04688,-0.68229 7.20833,-3.5625 6.47917,-8.64062c-1.17188,-2.91146 -3.33333,-4.44792 -6.47917,-4.60417c0,-1.72917 0,-3.45833 0,-5.1875c4.15104,-0.16667 6.35938,-2.32813 6.61979,-6.47917c-0.39583,-4.57292 -2.89062,-6.73437 -7.48437,-6.47917c0.20313,-0.26042 0.48958,-0.35417 0.86458,-0.28646c0,-1.63542 0,-3.26563 0,-4.89583c-0.66146,-4.41146 0.77604,-7.91667 4.31771,-10.51563c1.32292,-0.82292 2.76562,-1.30208 4.31771,-1.4375c99.07292,-0.19271 198.14583,-0.19271 297.21875,0c6.33854,1.40104 9.21875,5.38542 8.64062,11.95313zM397.25,153.2181" fill-opacity="0.995" fill="#fedfb2"/><path d="M82.75521,153.2181c0,1.63021 0,3.26042 0,4.89583c-0.375,-0.06771 -0.66146,0.02604 -0.86458,0.28646c-4.47396,1.15625 -6.25,4.03646 -5.32813,8.64062c1.15625,2.76042 3.21875,4.19792 6.19271,4.31771c0,1.72917 0,3.45833 0,5.1875c-5.23437,0.95833 -7.20312,4.03125 -5.90625,9.21354c1.14583,2.54167 3.11458,3.88542 5.90625,4.03125c-0.05208,2.88542 0,5.76563 0.14063,8.64063c0.78646,4.53125 3.42708,7.26563 7.92188,8.20833c99.07292,0.19271 198.14062,0.19271 297.21354,0c4.58854,-0.45833 7.52083,-2.90625 8.78646,-7.34375c0.04687,-15.38021 0.19271,-30.73958 0.43229,-46.07813c5.89063,-0.38542 9.68229,2.20313 11.375,7.77604c0.19271,16.79687 0.19271,33.59896 0,50.40104c-1.13542,3.91667 -3.68229,6.36458 -7.63021,7.34375c-107.32813,0.1875 -214.65625,0.1875 -321.98437,0c-3.95313,-0.97917 -6.5,-3.42708 -7.63542,-7.34375c-0.19271,-16.90104 -0.19271,-33.79688 0,-50.69271c1.82292,-5.40104 5.61458,-7.89583 11.38021,-7.48437zM82.75521,153.2181" fill-opacity="0.983" fill="#ff3131"/><path d="M81.89062,158.40039c4.59375,-0.25521 7.08854,1.90625 7.48437,6.47917c-0.26042,4.15104 -2.46875,6.3125 -6.61979,6.47917c-2.97396,-0.11979 -5.03646,-1.55729 -6.19271,-4.31771c-0.92187,-4.60417 0.85417,-7.48437 5.32813,-8.64062zM81.89062,158.40039" fill="#fffdfd"/><path d="M210.625,164.16081c3.74479,0 7.48958,0 11.22917,0c-0.08854,1.88021 0.00521,3.70313 0.29167,5.47396c4.60937,-2.08333 9.11979,-1.89583 13.53646,0.57292c0.35937,-0.15625 0.69271,-0.34896 1.00521,-0.57292c0.61458,-1.31771 1.14583,-2.66146 1.58333,-4.03646c2.78646,0 5.56771,0 8.35417,0c-0.08854,1.02083 0.00521,1.98437 0.28646,2.88021c1.34375,0 2.6875,0 4.03125,0c-0.0625,0.33854 0.03646,0.63021 0.29167,0.86458c3.76042,-1.69271 7.41146,-1.50521 10.94271,0.57813c0.27604,-0.44792 0.36979,-0.92708 0.28646,-1.44271c3.94271,0.05729 7.88021,-0.03646 11.80729,-0.28646c0.47396,-4.27604 2.875,-6.05208 7.20313,-5.32813c1.96875,0.33333 3.26563,1.4375 3.88542,3.3125c0.14583,7.86979 0.19271,15.74479 0.14583,23.61458c-3.65104,0 -7.29687,0 -10.94271,0c0,-3.64583 0,-7.29687 0,-10.94271c-0.38542,0 -0.77083,0 -1.15625,0c0,3.64583 0,7.29688 0,10.94271c-3.82813,0.17708 -7.61979,-0.01562 -11.375,-0.57292c-3.94792,1.20833 -7.79167,0.92187 -11.52083,-0.86458c-3.0625,1.59375 -6.27604,2.02083 -9.64583,1.29687c-0.9375,-0.34896 -1.75521,-0.88021 -2.44792,-1.58333c-0.14062,0.56771 -0.19271,1.14062 -0.14583,1.72396c-3.9375,-0.05729 -7.875,0.04167 -11.80729,0.29167c-1.53125,0.10938 -2.92187,-0.27083 -4.17708,-1.15625c-0.13542,0.27604 -0.18229,0.5625 -0.14063,0.86458c-9.02604,0 -18.04687,0 -27.07292,0c0,-8.54167 0,-17.08854 0,-25.63021c3.84375,-0.09375 7.68229,0 11.52083,0.28646c0.65104,2.00521 1.27604,4.02083 1.86979,6.04687c0.69271,-2.13021 1.41667,-4.23958 2.16146,-6.33333zM210.625,164.16081" fill="#050505"/><path d="M210.625,164.16081c3.78646,-0.28646 7.63021,-0.38542 11.52083,-0.28646c0,1.91667 0,3.83854 0,5.76042c-0.28646,-1.77083 -0.38021,-3.59375 -0.29167,-5.47396c-3.73958,0 -7.48437,0 -11.22917,0zM210.625,164.16081" fill="#756651"/><path d="M238.27083,165.59831c2.82813,-0.28646 5.70833,-0.38021 8.64063,-0.28646c0,1.05729 0,2.11458 0,3.16667c-0.28125,-0.89583 -0.375,-1.85938 -0.28646,-2.88021c-2.78646,0 -5.56771,0 -8.35417,0zM238.27083,165.59831" fill="#4f4638"/><path d="M278.88021,166.17643c2.96875,-0.25 3.83333,0.94792 2.59375,3.59896c-2.47396,0.97917 -3.67187,0.16146 -3.59896,-2.44792c0.39583,-0.34375 0.72917,-0.72917 1.00521,-1.15104zM278.88021,166.17643" fill="#efefef"/><path d="M213.21875,167.61914c1.72396,0 3.45312,0 5.18229,0c0,6.23958 0,12.47917 0,18.71875c-1.15104,0 -2.30208,0 -3.45833,0c0.05208,-4.70833 0,-9.41146 -0.14063,-14.11458c-1.65104,4.56771 -3.1875,9.17708 -4.60937,13.82292c-1.26563,0.28125 -2.5625,0.375 -3.88542,0.29167c-1.28646,-4.625 -2.63021,-9.23437 -4.03646,-13.82292c-0.14063,-0.28125 -0.28125,-0.57292 -0.43229,-0.86458c-0.22917,0.82292 -0.18229,1.59375 0.14583,2.30208c0,4.13021 0,8.25521 0,12.38542c-1.15104,0 -2.30208,0 -3.45313,0c0,-6.33854 0,-12.67188 0,-19.01042c1.82292,0 3.64583,0 5.46875,0c1.40104,4.82292 2.89063,9.625 4.46354,14.40104c1.45313,-4.78125 3.03646,-9.48438 4.75521,-14.10938zM213.21875,167.61914" fill="#fbfbfb"/><path d="M213.21875,167.61914c1.76563,-0.28646 3.59375,-0.38542 5.46875,-0.29167c0.09896,6.38542 0,12.72396 -0.28646,19.01042c0,-6.23958 0,-12.47917 0,-18.71875c-1.72917,0 -3.45833,0 -5.18229,0zM213.21875,167.61914" fill="#afafaf"/><path d="M240.86458,169.05664c0.77083,0 1.53646,0 2.30208,0c-0.08854,1.02083 0.01042,1.97917 0.29167,2.88021c1.24479,0 2.49479,0 3.74479,0c0,0.95833 0,1.92187 0,2.88021c-1.34896,0 -2.69271,0 -4.03646,0c-0.09375,2.54687 0.00521,5.04167 0.29167,7.48958c0,0.43229 0.19271,0.77083 0.57292,1.00521c1.15104,0.05208 2.30208,0 3.45833,-0.14583c0.09375,0.97917 -0.00521,1.94271 -0.28646,2.88021c-2.375,0.91667 -4.63542,0.72396 -6.77083,-0.57292c-0.70833,-0.93229 -1.04687,-1.98958 -1.00521,-3.16667c0,-2.5 0,-4.99479 0,-7.48958c-0.67188,0 -1.34896,0 -2.02083,0c-0.08333,-0.60417 0.01042,-1.18229 0.29167,-1.72917c0.59896,-0.42188 1.22396,-0.80208 1.86979,-1.15104c0.35417,-1.02604 0.78646,-1.98438 1.29687,-2.88021zM240.86458,169.05664" fill="#fbfbfb"/><path d="M240.86458,169.05664c0.80208,-0.28125 1.66667,-0.375 2.59375,-0.28646c0,1.05208 0,2.10937 0,3.16667c-0.28125,-0.90104 -0.38021,-1.85938 -0.29167,-2.88021c-0.76562,0 -1.53125,0 -2.30208,0zM240.86458,169.05664" fill="#9e9e9e"/><path d="M226.17708,171.65039c1.94271,-0.09896 3.85937,0.04687 5.76042,0.43229c1.29688,0.52604 2.20833,1.4375 2.73437,2.73438c0.14583,3.83854 0.19271,7.67708 0.14583,11.52083c-0.95833,0 -1.92188,0 -2.88021,0c0,-0.67708 -0.23958,-1.25 -0.71875,-1.72917c-2.40104,2.25 -5.04167,2.58854 -7.92188,1.01042c-1.08333,-1.60937 -1.42187,-3.38542 -1.01042,-5.32813c0.88542,-1.67187 2.28125,-2.58333 4.17708,-2.73958c1.53646,-0.14063 3.06771,-0.19271 4.60938,-0.14063c0.14583,-1.86979 -0.71875,-2.83333 -2.59375,-2.88021c-1.19271,0.14063 -2.34375,0.42708 -3.45312,0.86458c-0.89583,-0.64063 -1.32813,-1.50521 -1.29688,-2.59375c0.82813,-0.41667 1.64583,-0.80208 2.44792,-1.15104zM226.17708,171.65039" fill="#fafafa"/><path d="M261.3125,182.87956c0.54167,0.71875 0.73437,1.58333 0.57813,2.59375c-1.42187,0.91667 -3.00521,1.30208 -4.75521,1.15104c-3.90104,0.06771 -6.39583,-1.75521 -7.48437,-5.47396c-0.83854,-6.54687 1.98958,-9.66667 8.49479,-9.35938c3.86458,1.34375 5.40104,4.08333 4.60937,8.20833c-3.07292,0 -6.14583,0 -9.21875,0c0.375,2.88021 2.01042,4.07813 4.89583,3.59896c0.96354,-0.23958 1.92708,-0.47917 2.88021,-0.71875zM261.3125,182.87956" fill="#f8f8f8"/><path d="M272.54687,171.65039c0.95833,0 1.91667,0 2.88021,0c-0.17188,1.23958 -0.26563,2.48958 -0.29167,3.74479c-1.42188,-0.15625 -2.76563,0.08333 -4.03125,0.71875c-0.34375,0.26042 -0.58333,0.59375 -0.71875,1.00521c-0.41146,3.05208 -0.55729,6.125 -0.43229,9.21875c-1.34375,0 -2.6875,0 -4.03125,0c0,-4.80208 0,-9.59896 0,-14.40104c1.05729,0 2.10938,0 3.16667,0c0.08333,0.79167 0.27604,1.5625 0.57813,2.30208c0.79167,-1.08333 1.75,-1.94792 2.88021,-2.58854zM272.54687,171.65039" fill="#f9f9f9"/><path d="M278.01562,171.93685c1.34375,0 2.6875,0 4.03125,0c0,4.80208 0,9.59896 0,14.40104c-1.34375,0 -2.6875,0 -4.03125,0c0,-4.80208 0,-9.59896 0,-14.40104zM278.01562,171.93685" fill="#f8f8f8"/><path d="M202.27083,172.51497c-0.27083,0.40625 -0.36979,0.88542 -0.28646,1.4375c-0.32813,-0.70833 -0.375,-1.47917 -0.14583,-2.30208c0.15104,0.29167 0.29167,0.58333 0.43229,0.86458zM202.27083,172.51497" fill="#9b9b9b"/><path d="M255.26562,174.5306c2.32292,-0.33854 3.56771,0.61979 3.74479,2.88021c-1.72917,0 -3.45833,0 -5.1875,0c-0.11979,-1.29167 0.35937,-2.25521 1.44271,-2.88021zM255.26562,174.5306" fill="#060606"/><path d="M237.40625,174.81706c0.67187,0 1.34896,0 2.02083,0c0,2.49479 0,4.98958 0,7.48958c-0.28646,-2.34896 -0.38542,-4.75 -0.29167,-7.20312c-0.64063,0.08854 -1.21875,-0.01042 -1.72917,-0.28646zM237.40625,174.81706" fill="#2c2c2c"/><path d="M247.20312,171.93685c0.28125,0.99479 0.375,2.05208 0.28646,3.16667c-1.34375,0 -2.6875,0 -4.03125,0c0,2.40104 0,4.80208 0,7.20312c-0.28646,-2.44792 -0.38542,-4.94271 -0.29167,-7.48958c1.34375,0 2.6875,0 4.03646,0c0,-0.95833 0,-1.92187 0,-2.88021zM247.20312,171.93685" fill="#848484"/><path d="M82.75521,176.54622c3.14583,0.15625 5.30729,1.69271 6.47917,4.60417c0.72917,5.07813 -1.43229,7.95833 -6.47917,8.64062c-2.79167,-0.14583 -4.76042,-1.48958 -5.90625,-4.03125c-1.29687,-5.18229 0.67187,-8.25521 5.90625,-9.21354zM82.75521,176.54622" fill="#fffdfd"/><path d="M227.90625,179.71289c1.05208,0 2.10937,0 3.16667,0c-0.02604,3.30208 -1.5625,4.45312 -4.60938,3.45312c-0.70833,-1.6875 -0.22917,-2.83854 1.44271,-3.45312zM227.90625,179.71289" fill="#0e0e0e"/><path d="M261.3125,182.87956c0.20313,-0.26042 0.49479,-0.35417 0.86458,-0.28646c0.08854,1.02083 -0.00521,1.97917 -0.28646,2.88021c0.15625,-1.01042 -0.03646,-1.875 -0.57813,-2.59375zM261.3125,182.87956" fill="#7c7c7c"/></g></g></svg>