<svg version="1.1" xmlns="http://www.w3.org/2000/svg" xmlns:xlink="http://www.w3.org/1999/xlink" width="394.56201" height="367.29937" viewBox="0,0,394.56201,367.29937"><g transform="translate(-42.719,3.64969)"><g fill-rule="evenodd" stroke="none" stroke-miterlimit="10"><path d="M76.51568,-3.64967c109.03746,0 218.07461,0 327.11208,0c8.51094,1.75948 13.81438,6.89326 15.9036,15.40139c0.37498,3.22419 0.59932,6.46068 0.66963,9.70956c4.49989,5.54731 7.0679,11.90862 7.70069,19.08433c0.11049,3.23664 0.22433,6.47294 0.33482,9.70956c2.26333,1.90911 4.88826,2.96912 7.8681,3.18073c1.44639,1.18089 1.56023,2.40864 0.33482,3.68294c-2.92626,0.24274 -5.66168,1.07977 -8.20291,2.5111c-0.11049,90.84575 -0.22433,181.69185 -0.33482,272.53761c-2.72872,16.79086 -12.38472,27.11649 -28.9613,30.97019c-49.65608,0.38838 -99.32121,0.55579 -148.99168,0.50222c-48.65936,-0.05692 -97.31903,-0.11049 -145.97836,-0.16741c-7.03308,-0.72989 -13.28303,-3.29455 -18.74952,-7.70069c-5.81569,0.50222 -11.2842,-0.61605 -16.40583,-3.34814c-4.84709,-3.38495 -7.69299,-8.01877 -8.53773,-13.89473c-0.11149,-13.61584 -0.22332,-27.23133 -0.33482,-40.84716c0.05056,-5.55254 -1.1772,-10.79806 -3.68294,-15.73619c-2.93596,-4.5126 -7.12114,-7.0237 -12.55548,-7.53328c-1.02821,-0.94517 -1.25153,-2.0611 -0.66963,-3.34814c7.05283,-1.24785 11.90762,-5.20969 14.56436,-11.88585c0.98502,-2.60083 1.65465,-5.27933 2.00887,-8.03551c0.44263,-79.34561 0.66594,-158.69624 0.66963,-238.05188c1.74974,-9.17093 7.16265,-14.75115 16.23842,-16.74064z" fill="#232020" opacity="0.984"/><path d="M76.18087,0.36809c108.81416,-0.05581 217.62831,0 326.44246,0.16741c7.37592,1.23653 11.78207,5.53328 13.22511,12.89029c0.22433,5.357 0.22433,10.71401 0,16.07101c-0.01674,6.74949 -1.91512,12.8876 -5.69182,18.4147c-2.97648,3.41341 -6.71299,5.47787 -11.21623,6.19404c-0.44531,0.89295 -0.44531,1.78556 0,2.67851c8.49419,1.35164 13.79763,6.20643 15.9036,14.56436c0.62944,3.31632 0.96426,6.66445 1.00445,10.04438c0.22433,85.60058 0.22433,171.20081 0,256.8014c-1.5234,7.3257 -5.92953,11.73519 -13.22511,13.22511c-108.59084,0.22433 -217.18201,0.22433 -325.77283,0c-7.00964,-1.54014 -11.1948,-5.83914 -12.55548,-12.89029c-0.32309,-15.63407 -0.21127,-31.25879 0.33482,-46.8738c0.66493,-5.01349 2.56199,-9.47788 5.69182,-13.39252c2.63765,-2.59146 5.81838,-3.87479 9.54216,-3.85035c1.64527,-1.0617 1.75677,-2.28912 0.33482,-3.68294c-6.8804,-1.29774 -11.51187,-5.2599 -13.89473,-11.88585c-1.08412,-2.80572 -1.75375,-5.70721 -2.00887,-8.70514c-0.22332,-79.23913 -0.22332,-158.47793 0,-237.71707c1.80296,-6.21088 5.7648,-10.22863 11.88585,-12.05326z" fill="#5679f2"/><path d="M417.68989,41.55006c1.61379,4.17412 3.95748,7.91297 7.03107,11.21623c1.11493,0.78111 2.2332,1.56258 3.34814,2.34369c-2.49435,1.21906 -4.56015,2.9487 -6.19404,5.18959c-1.60709,2.42973 -2.94636,4.99674 -4.01776,7.70069c-1.89169,-5.62721 -5.40723,-9.86828 -10.5466,-12.72288c5.16281,-3.29389 8.62143,-7.86943 10.37919,-13.72732z" fill="#fbfbfb"/><path d="M234.88213,110.85629c25.73773,-1.23076 43.09207,10.15286 52.06339,34.15089c3.94209,12.06732 5.78356,24.45539 5.52441,37.16421c0.47544,14.33333 -1.58902,28.28363 -6.19404,41.8516c-7.01533,18.2185 -20.24045,28.54179 -39.67531,30.97019c-11.33006,1.15644 -22.04408,-0.85243 -32.14202,-6.02663c-9.91247,-6.11971 -16.88761,-14.65743 -20.9258,-25.61319c-4.55513,-13.11394 -6.61993,-26.61796 -6.19404,-40.51234c-0.36828,-11.22126 0.80355,-22.27007 3.51553,-33.14647c2.73073,-11.10206 8.25514,-20.53273 16.57323,-28.29168c8.06229,-6.38822 17.21373,-9.90377 27.45465,-10.5466z" fill="#232021"/><path d="M233.20805,122.57475c19.26245,-2.34235 33.04536,5.13502 41.34938,22.43246c3.82891,9.54584 5.94963,19.47874 6.36145,29.79834c0.60167,11.70371 -0.17979,23.31033 -2.34369,34.82053c-5.81001,26.26572 -22.04843,37.25863 -48.71525,32.97906c-12.20393,-3.27414 -20.63016,-10.80742 -25.27837,-22.59986c-3.35515,-9.41026 -5.25254,-19.11982 -5.69182,-29.12871c-0.6137,-10.78131 -0.05592,-21.49532 1.67406,-32.14202c1.36068,-7.65515 4.03919,-14.79772 8.03551,-21.42802c6.13009,-8.39342 14.333,-13.30379 24.60874,-14.73177z" fill="#fefefe"/><path d="M236.891,142.66351c7.72145,-0.79987 12.91104,2.43677 15.5688,9.70956c2.22249,7.07226 3.44991,14.32664 3.68294,21.76284c0.65489,12.39644 -0.23805,24.67303 -2.67851,36.8294c-1.08345,4.20492 -3.25973,7.72044 -6.52885,10.5466c-10.51077,4.4269 -17.37444,1.13468 -20.59098,-9.87697c-1.69984,-6.01927 -2.59278,-12.15738 -2.67851,-18.4147c-0.22332,-7.25439 -0.22332,-14.50844 0,-21.76284c0.48247,-5.75609 1.37508,-11.44792 2.67851,-17.07546c1.38881,-5.90476 4.90434,-9.81102 10.5466,-11.71846z" fill="#242121"/><path d="M239.23468,154.04715c1.29974,0.23805 2.13678,1.01917 2.5111,2.34369c2.32728,8.2605 3.2758,16.68674 2.84591,25.27837c0.15837,7.11879 -0.23203,14.20577 -1.17184,21.26061c-0.48883,3.02905 -1.38177,5.93054 -2.67851,8.70514c-0.66963,0.44631 -1.33925,0.44631 -2.00887,0c-0.80222,-1.73734 -1.47183,-3.52323 -2.00887,-5.357c-2.187,-14.25197 -2.40998,-28.53743 -0.66963,-42.85603c0.36897,-3.39566 1.42931,-6.52081 3.18073,-9.37477z" fill="#5678ef"/><path d="M61.78391,258.84355c1.56491,3.23397 3.40638,6.35909 5.52441,9.37477c1.57764,1.41223 3.19612,2.75149 4.85479,4.01776c-4.89831,3.08362 -8.19053,7.43618 -9.87697,13.0577c-1.95698,-5.74807 -5.584,-10.04472 -10.88142,-12.89029c5.19595,-3.19412 8.65559,-7.71408 10.37919,-13.55991z" fill="#fbfbfb"/></g></g></svg>