<svg version="1.1" xmlns="http://www.w3.org/2000/svg" xmlns:xlink="http://www.w3.org/1999/xlink" width="387.72544" height="360.93517" viewBox="0,0,387.72544,360.93517"><g transform="translate(-46.13728,0.46758)"><g fill-rule="evenodd" stroke="none" stroke-miterlimit="10"><path d="M79.34837,-0.46758c107.14818,0 214.29604,0 321.44422,0c8.36347,1.72898 13.57501,6.77382 15.62805,15.13453c0.36849,3.16831 0.58893,6.34874 0.65802,9.54133c4.42191,5.45119 6.94543,11.70228 7.56726,18.75365c0.10857,3.18055 0.22044,6.36078 0.32901,9.54133c2.22412,1.87602 4.80357,2.91767 7.73177,3.12561c1.42133,1.16042 1.53319,2.36691 0.32901,3.61913c-2.87556,0.23853 -5.56358,1.06106 -8.06078,2.46759c-0.10857,89.27167 -0.22044,178.54368 -0.32901,267.81535c-2.68144,16.49993 -12.17013,26.64664 -28.45949,30.43356c-48.79569,0.38165 -97.60027,0.54616 -146.41011,0.49352c-47.81623,-0.05593 -95.63278,-0.10857 -143.44901,-0.16451c-6.91122,-0.71725 -13.05287,-3.23747 -18.42464,-7.56726c-5.71493,0.49352 -11.08867,-0.60538 -16.12156,-3.29011c-4.7631,-3.32631 -7.5597,-7.87983 -8.38979,-13.65398c-0.10956,-13.37991 -0.21945,-26.75949 -0.32901,-40.1394c0.04968,-5.45633 -1.1568,-10.61095 -3.61913,-15.46354c-2.8851,-4.43442 -6.99775,-6.902 -12.33793,-7.40276c-1.01039,-0.9288 -1.22984,-2.02539 -0.65802,-3.29011c6.93063,-1.22623 11.70129,-5.11942 14.312,-11.67991c0.96795,-2.55576 1.62597,-5.18785 1.97407,-7.89628c0.43495,-77.97079 0.6544,-155.94651 0.65802,-233.92717c1.71941,-9.01202 7.03854,-14.49556 15.95706,-16.45057z" fill="#232020" opacity="0.984"/><path d="M79.01936,3.48055c106.92873,-0.05485 213.85746,0 320.7862,0.16451c7.24812,1.21511 11.57791,5.43741 12.99595,12.66694c0.22044,5.26418 0.22044,10.52837 0,15.79255c-0.01645,6.63254 -1.88195,12.66431 -5.5932,18.09563c-2.92491,3.35427 -6.59668,5.38296 -11.02188,6.08671c-0.43759,0.87747 -0.43759,1.75462 0,2.63209c8.34702,1.32822 13.55856,6.09889 15.62805,14.312c0.61854,3.25886 0.94755,6.54897 0.98703,9.87034c0.22044,84.11738 0.22044,168.23443 0,252.35181c-1.497,7.19877 -5.82679,11.53185 -12.99595,12.99595c-106.70928,0.22044 -213.41889,0.22044 -320.12817,0c-6.88818,-1.51345 -11.00083,-5.73796 -12.33793,-12.66694c-0.3175,-15.36319 -0.20761,-30.71717 0.32901,-46.06161c0.65342,-4.92662 2.5176,-9.31366 5.5932,-13.16046c2.59195,-2.54655 5.71756,-3.80765 9.37683,-3.78363c1.61676,-1.0433 1.72632,-2.24945 0.32901,-3.61913c-6.76119,-1.27525 -11.3124,-5.16877 -13.65398,-11.67991c-1.06534,-2.75712 -1.72336,-5.60833 -1.97407,-8.5543c-0.21945,-77.86616 -0.21945,-155.73199 0,-233.59815c1.77173,-6.10326 5.66492,-10.0514 11.67991,-11.84441z" fill="#5679f2"/><path d="M414.61107,43.94897c1.58584,4.10179 3.88892,7.77586 6.90924,11.02188c1.09561,0.76758 2.19451,1.5355 3.29011,2.30308c-2.45114,1.19793 -4.48114,2.8976 -6.08671,5.09968c-1.57926,2.38764 -2.8953,4.91017 -3.94814,7.56726c-1.85891,-5.5297 -5.31354,-9.69728 -10.36386,-12.50244c5.07336,-3.23681 8.47205,-7.73309 10.19936,-13.48947z" fill="#fbfbfb"/><path d="M197.46349,114.02841c28.18543,0 56.37052,0 84.55595,0c0,14.36694 0,28.73356 0,43.1005c-8.4454,-0.05494 -16.8898,0 -25.33388,0.16451c0.46095,0.13489 0.89952,0.2994 1.31605,0.49352c17.19019,5.40072 27.66361,16.91613 31.4206,34.54621c1.52892,10.9143 0.43232,21.55256 -3.29011,31.91411c-4.99012,11.13145 -13.0509,19.19223 -24.18234,24.18234c-11.43019,4.46271 -23.2746,6.21766 -35.53324,5.26418c-12.96009,-0.40765 -25.02363,-3.86227 -36.19126,-10.36386c-0.10923,-15.62903 0.00033,-31.20213 0.32901,-46.71963c6.18476,3.14732 12.32609,6.38249 18.42464,9.70584c8.40591,3.63722 17.17966,5.28228 26.32092,4.93517c6.94741,-0.56656 9.19587,-4.13107 6.74474,-10.69287c-2.24912,-1.39929 -4.71671,-2.11192 -7.40276,-2.13857c-7.62912,-0.58367 -15.03188,0.45798 -22.20828,3.12561c-6.84673,-3.53293 -13.64608,-7.15205 -20.39871,-10.85738c1.7408,-25.55037 3.55036,-51.10338 5.42869,-76.65968z" fill="#232020"/><path d="M197.46349,114.02841c28.23971,-0.32868 56.5347,-0.43857 84.88496,-0.32901c0,14.47651 0,28.95301 0,43.42952c-0.10956,0 -0.21945,0 -0.32901,0c0,-14.36694 0,-28.73356 0,-43.1005c-28.18543,0 -56.37052,0 -84.55595,0z" fill="#374372"/><path d="M227.73255,166.01223c-0.32013,0.80542 -0.42969,1.68289 -0.32901,2.63209c0.52609,0.08818 0.96466,-0.02171 1.31605,-0.32901c7.18298,-1.42725 14.42123,-1.70165 21.71476,-0.82253c16.20645,3.15489 25.58327,12.86073 28.13048,29.11752c1.70889,27.57314 -11.17751,42.76228 -38.65885,45.56809c-9.54331,0.72547 -18.97508,0.06745 -28.29499,-1.97407c-3.40231,-0.9696 -6.69242,-2.2307 -9.87034,-3.78363c-0.38363,-7.12606 -0.43857,-14.25475 -0.16451,-21.38575c11.21436,5.67315 23.11371,8.14073 35.69775,7.40276c12.43005,-1.68224 17.96863,-8.75598 16.61508,-21.22124c-0.74324,-5.70605 -3.75896,-9.7088 -9.04782,-12.00892c-4.60978,-1.69145 -9.38045,-2.51398 -14.312,-2.46759c-5.73434,0.33855 -11.38248,1.2157 -16.94409,2.63209c-3.22004,-1.55524 -6.40059,-3.20029 -9.54133,-4.93517c-0.10956,-0.38396 -0.21945,-0.76758 -0.32901,-1.15154c1.41837,-19.35838 2.8443,-38.71511 4.27715,-58.07053c20.94717,0 41.89402,0 62.84119,0c0,6.90924 0,13.81848 0,20.72772c-13.81848,0 -27.63696,0 -41.45545,0c-0.44943,6.699 -0.99789,13.38879 -1.64506,20.0697z" fill="#fefefe"/><path d="M282.01945,157.12892c0.10956,0 0.21945,0 0.32901,0c-8.11573,0.21945 -16.23112,0.43857 -24.34685,0.65802c-0.41653,-0.19412 -0.8551,-0.35862 -1.31605,-0.49352c8.44408,-0.16451 16.88849,-0.21945 25.33388,-0.16451z" fill="#3d4c88"/><path d="M227.73255,166.01223c0,0.76758 0,1.5355 0,2.30308c0.32901,0 0.65802,0 0.98703,0c-0.35138,0.3073 -0.78996,0.41719 -1.31605,0.32901c-0.10068,-0.9492 0.00888,-1.82667 0.32901,-2.63209z" fill="#7b7979"/><path d="M190.55425,196.61029c-0.32868,15.5175 -0.43824,31.0906 -0.32901,46.71963c-0.43791,-15.6287 -0.43791,-31.31136 0,-47.04864c0.19971,0.0408 0.30927,0.15036 0.32901,0.32901z" fill="#475fb5"/><path d="M64.87187,257.47742c1.5378,3.17792 3.34736,6.24892 5.42869,9.21232c1.5503,1.38777 3.14074,2.70382 4.77067,3.94814c-4.81344,3.0302 -8.04861,7.30735 -9.70584,12.83145c-1.92307,-5.64847 -5.48725,-9.87067 -10.69287,-12.66694c5.10593,-3.13877 8.5056,-7.58042 10.19936,-13.32497z" fill="#fbfbfb"/></g></g></svg>