<svg version="1.1" xmlns="http://www.w3.org/2000/svg" xmlns:xlink="http://www.w3.org/1999/xlink" width="390.73455" height="363.73635" viewBox="0,0,390.73455,363.73635"><g transform="translate(-44.63272,1.86818)"><g fill-rule="evenodd" stroke="none" stroke-miterlimit="10"><path d="M78.10158,-1.86818c107.97975,0 215.95917,0 323.93892,0c8.42838,1.74241 13.68037,6.82639 15.74933,15.25199c0.37135,3.19291 0.59351,6.39801 0.66313,9.61538c4.45623,5.4935 6.99934,11.7931 7.62599,18.8992c0.10942,3.20524 0.22215,6.41014 0.33156,9.61538c2.24138,1.89058 4.84085,2.94032 7.79178,3.14987c1.43236,1.16943 1.54509,2.38527 0.33156,3.64722c-2.89788,0.24038 -5.60676,1.0693 -8.12334,2.48673c-0.10942,89.9645 -0.22215,179.92934 -0.33156,269.89384c-2.70226,16.62798 -12.26459,26.85344 -28.68037,30.66976c-49.1744,0.38461 -98.35774,0.5504 -147.54639,0.49734c-48.18733,-0.05637 -96.37498,-0.10942 -144.56231,-0.16578c-6.96486,-0.72281 -13.15418,-3.2626 -18.56764,-7.62599c-5.75929,0.49734 -11.17473,-0.61008 -16.24668,-3.31565c-4.80007,-3.35212 -7.61836,-7.94098 -8.4549,-13.75994c-0.11041,-13.48375 -0.22115,-26.96717 -0.33156,-40.45092c0.05007,-5.49867 -1.16578,-10.6933 -3.64722,-15.58355c-2.90749,-4.46883 -7.05206,-6.95557 -12.43368,-7.46021c-1.01824,-0.93601 -1.23939,-2.04111 -0.66313,-3.31565c6.98442,-1.23574 11.7921,-5.15915 14.42307,-11.77055c0.97546,-2.57559 1.6386,-5.22812 1.98939,-7.95756c0.43832,-78.57591 0.65949,-157.1568 0.66313,-235.74266c1.73276,-9.08196 7.09317,-14.60805 16.0809,-16.57825z" fill="#232020" opacity="0.984"/><path d="M77.77001,2.1106c107.7586,-0.05527 215.51719,0 323.2758,0.16578c7.30437,1.22454 11.66777,5.4796 13.09682,12.76525c0.22215,5.30504 0.22215,10.61007 0,15.91511c-0.01658,6.68401 -1.89655,12.76259 -5.6366,18.23607c-2.94761,3.3803 -6.64787,5.42473 -11.10743,6.13395c-0.44098,0.88429 -0.44098,1.76824 0,2.65252c8.4118,1.33852 13.66379,6.14622 15.74933,14.42307c0.62335,3.28415 0.95491,6.5998 0.9947,9.94695c0.22215,84.77021 0.22215,169.54008 0,254.31029c-1.50862,7.25464 -5.87202,11.62135 -13.09682,13.09682c-107.53744,0.22215 -215.07522,0.22215 -322.61266,0c-6.94165,-1.52519 -11.08621,-5.7825 -12.43368,-12.76525c-0.31996,-15.48242 -0.20922,-30.95556 0.33156,-46.41909c0.65849,-4.96486 2.53713,-9.38594 5.6366,-13.2626c2.61207,-2.56631 5.76194,-3.8372 9.4496,-3.813c1.62931,-1.05139 1.73972,-2.26691 0.33156,-3.64722c-6.81366,-1.28514 -11.4002,-5.20888 -13.75994,-11.77055c-1.07361,-2.77852 -1.73674,-5.65185 -1.98939,-8.62068c-0.22115,-78.47048 -0.22115,-156.94062 0,-235.41109c1.78548,-6.15063 5.70889,-10.1294 11.77055,-11.93634z" fill="#5679f2"/><path d="M415.96622,42.89308c1.59815,4.13362 3.9191,7.83621 6.96287,11.10743c1.10411,0.77354 2.21154,1.54741 3.31565,2.32095c-2.47015,1.20723 -4.51591,2.92009 -6.13395,5.13926c-1.59152,2.40616 -2.91777,4.94828 -3.97878,7.62599c-1.87334,-5.57261 -5.35477,-9.77254 -10.44429,-12.59946c5.11273,-3.26193 8.53779,-7.79311 10.27851,-13.59416z" fill="#fbfbfb"/><path d="M229.62674,111.85859c11.4612,-0.9128 22.624,0.46883 33.48805,4.14456c19.14622,7.83886 27.26955,22.04077 24.37003,42.60609c-1.44529,7.45756 -4.70591,13.97845 -9.78116,19.56233c10.29774,8.33654 14.88461,19.16744 13.75994,32.49336c-1.19695,16.937 -9.32029,29.26027 -24.37003,36.96949c-10.93899,4.70657 -22.37798,6.97215 -34.31697,6.79709c-15.7543,0.12533 -30.67473,-3.30073 -44.76126,-10.27851c-0.16578,-15.58322 -0.22115,-31.16677 -0.16578,-46.75065c6.94165,3.36008 13.9045,6.73077 20.88859,10.11273c9.24602,4.00564 18.8614,5.33189 28.84615,3.97878c4.42672,-0.27818 6.08455,-2.54376 4.97348,-6.79709c-3.38826,-1.38992 -6.92507,-2.10842 -10.61007,-2.15517c-8.62002,-0.16578 -17.24072,-0.22115 -25.86206,-0.16578c0.05537,-12.5998 0,-25.19926 -0.16578,-37.79841c-7.30868,-10.91512 -14.65848,-21.80139 -22.04906,-32.65915c6.96651,-5.58521 14.48176,-10.33753 22.54642,-14.25729c7.5421,-2.88793 15.27885,-4.82195 23.20954,-5.80239z" fill="#232021"/><path d="M230.953,123.1318c6.09881,-0.13926 12.17739,0.13693 18.23607,0.82891c7.43866,1.07725 14.06996,3.95093 19.89389,8.62068c7.04642,7.23873 9.312,15.80404 6.79709,25.69628c-2.50431,8.58057 -7.7543,14.82526 -15.74933,18.73342c-2.84218,1.14987 -5.71585,2.19993 -8.62068,3.14987c5.62433,1.00895 11.04012,2.72182 16.24668,5.13926c9.80503,6.18766 13.83918,15.08455 12.10212,26.69098c-1.60345,12.65683 -8.28979,21.4433 -20.05967,26.35941c-4.80902,1.9254 -9.78249,3.25166 -14.92042,3.97878c-12.66511,1.40019 -25.15384,0.51591 -37.46683,-2.65252c-2.60577,-0.77653 -5.14788,-1.71585 -7.62599,-2.8183c-0.33156,-6.95922 -0.44197,-13.92207 -0.33156,-20.88859c6.77388,3.16048 13.84714,5.42606 21.22016,6.79709c6.86307,1.04642 13.71551,0.93601 20.55703,-0.33156c10.29675,-2.72845 14.55172,-9.41478 12.76525,-20.05967c-1.09549,-4.41147 -3.80338,-7.34018 -8.12334,-8.78647c-4.40915,-1.44927 -8.94032,-2.22314 -13.59416,-2.32095c-4.97215,-0.16578 -9.94563,-0.22115 -14.92042,-0.16578c0,-6.41014 0,-12.82062 0,-19.23077c5.19562,0.05537 10.39025,0 15.58355,-0.16578c5.33554,-0.25563 10.30902,-1.69231 14.92042,-4.31034c3.3299,-3.07062 4.87732,-6.88362 4.6419,-11.43899c0.03581,-4.73774 -1.95358,-8.3299 -5.96817,-10.77586c-8.61571,-3.06598 -17.126,-2.73442 -25.5305,0.9947c-3.47546,1.57096 -6.79112,3.39456 -9.94695,5.47082c-3.83986,-5.57957 -7.59781,-11.21618 -11.27321,-16.90981c6.63693,-4.9748 14.04178,-8.34582 22.21484,-10.11273c3.04576,-0.41578 6.02984,-0.91313 8.95226,-1.49204z" fill="#fdfdfd"/><path d="M231.61613,154.63046c3.10378,-0.062 6.19861,0.04841 9.28382,0.33156c0.05471,1.11074 -0.00066,2.21585 -0.16578,3.31565c-2.95623,1.47579 -6.1061,2.1943 -9.4496,2.15517c-4.31034,0.22115 -8.62068,0.22115 -12.93104,0c4.17042,-2.58421 8.59118,-4.51856 13.2626,-5.80239z" fill="#5577ee"/><path d="M63.51271,258.07871c1.54973,3.20258 3.37334,6.29741 5.47082,9.28382c1.56234,1.39854 3.16512,2.7248 4.80769,3.97878c-4.8508,3.05371 -8.11107,7.36406 -9.78116,12.93104c-1.938,-5.69231 -5.52984,-9.94728 -10.77586,-12.76525c5.14556,-3.16313 8.57161,-7.63925 10.27851,-13.42838z" fill="#fbfbfb"/></g></g></svg>