<svg version="1.1" xmlns="http://www.w3.org/2000/svg" xmlns:xlink="http://www.w3.org/1999/xlink" width="391.50858" height="364.45691" viewBox="0,0,391.50858,364.45691"><g transform="translate(-44.24571,2.22846)"><g fill-rule="evenodd" stroke="none" stroke-miterlimit="10"><path d="M77.78085,-2.22846c108.19366,0 216.38698,0 324.58064,0c8.44508,1.74586 13.70747,6.83991 15.78053,15.2822c0.37209,3.19923 0.59468,6.41068 0.66444,9.63443c4.46506,5.50438 7.0132,11.81646 7.6411,18.93664c0.10963,3.21159 0.22259,6.42284 0.33222,9.63443c2.24582,1.89433 4.85044,2.94614 7.80721,3.15611c1.4352,1.17175 1.54815,2.39 0.33222,3.65444c-2.90362,0.24086 -5.61787,1.07142 -8.13943,2.49166c-0.10963,90.14272 -0.22259,180.28577 -0.33222,270.42849c-2.70761,16.66092 -12.28888,26.90664 -28.73718,30.73051c-49.27181,0.38538 -98.55258,0.55149 -147.83867,0.49833c-48.28278,-0.05648 -96.5659,-0.10963 -144.84868,-0.16611c-6.97865,-0.72424 -13.18023,-3.26906 -18.60442,-7.6411c-5.77069,0.49833 -11.19687,-0.61129 -16.27887,-3.32222c-4.80957,-3.35876 -7.63346,-7.95671 -8.47165,-13.7872c-0.11063,-13.51046 -0.22159,-27.02059 -0.33222,-40.53105c0.05017,-5.50957 -1.16809,-10.71448 -3.65444,-15.61442c-2.91325,-4.47768 -7.06602,-6.96935 -12.45832,-7.47499c-1.02025,-0.93786 -1.24184,-2.04516 -0.66444,-3.32222c6.99825,-1.23819 11.81547,-5.16937 14.45165,-11.79387c0.9774,-2.5807 1.64184,-5.23847 1.99333,-7.97332c0.4392,-78.73157 0.66079,-157.46812 0.66444,-236.20966c1.73619,-9.09995 7.10722,-14.63699 16.11275,-16.61109z" fill="#232020" opacity="0.984"/><path d="M77.44863,1.75821c107.97206,-0.05538 215.94413,0 323.91619,0.16611c7.31884,1.22696 11.69088,5.49046 13.12276,12.79054c0.22259,5.31555 0.22259,10.6311 0,15.94664c-0.01661,6.69726 -1.90031,12.78788 -5.64777,18.2722c-2.95345,3.387 -6.66105,5.43548 -11.12943,6.1461c-0.44185,0.88604 -0.44185,1.77174 0,2.65777c8.42847,1.34118 13.69086,6.15839 15.78053,14.45165c0.62458,3.29066 0.9568,6.61287 0.99667,9.96665c0.22259,84.93814 0.22259,169.87594 0,254.81407c-1.51161,7.26901 -5.88365,11.64437 -13.12276,13.12276c-107.75047,0.22259 -215.50128,0.22259 -323.25175,0c-6.95539,-1.52822 -11.10817,-5.79395 -12.45832,-12.79054c-0.32059,-15.51309 -0.20963,-31.01689 0.33222,-46.51104c0.65979,-4.97469 2.54216,-9.40453 5.64777,-13.28887c2.61724,-2.5714 5.77335,-3.8448 9.46832,-3.82055c1.63254,-1.05348 1.74317,-2.2714 0.33222,-3.65444c-6.82716,-1.28769 -11.42278,-5.2192 -13.7872,-11.79387c-1.07573,-2.78402 -1.74018,-5.66305 -1.99333,-8.63777c-0.22159,-78.62592 -0.22159,-157.25151 0,-235.87743c1.78901,-6.16281 5.72019,-10.14947 11.79387,-11.95998z" fill="#5679f2"/><path d="M416.3148,42.62148c1.60131,4.14181 3.92686,7.85173 6.97666,11.12943c1.1063,0.77507 2.21592,1.55048 3.32222,2.32555c-2.47505,1.20962 -4.52486,2.92588 -6.1461,5.14944c-1.59466,2.41093 -2.92355,4.95808 -3.98666,7.6411c-1.87705,-5.58365 -5.36538,-9.7919 -10.46498,-12.62443c5.12286,-3.2684 8.55471,-7.80854 10.29887,-13.62109z" fill="#fbfbfb"/><path d="M258.8417,208.73235c-0.26212,0.09402 -0.48371,0.26013 -0.66444,0.49833c11.51647,0.16611 23.0336,0.22159 34.55106,0.16611c0,14.50713 0,29.01392 0,43.52105c-34.77265,0 -69.54497,0 -104.31763,0c0,-11.18491 0,-22.36949 0,-33.5544c11.38557,-11.55201 22.84722,-23.06881 34.38495,-34.55106c4.44081,-4.55111 8.75969,-9.20221 12.95665,-13.95331c2.16509,-2.5013 3.93683,-5.2697 5.31555,-8.30554c0.8362,-2.35113 1.00231,-4.73217 0.49833,-7.14277c-3.73284,-0.59335 -7.27665,-0.03953 -10.6311,1.66111c-2.74614,1.52955 -5.40392,3.19066 -7.97332,4.98333c-3.82786,3.2189 -7.70356,6.375 -11.62776,9.46832c-9.41716,-10.96863 -18.71937,-22.04258 -27.90663,-33.22217c7.15805,-6.67566 14.79915,-12.71114 22.9233,-18.10608c17.79978,-9.36998 36.29356,-11.03109 55.48103,-4.98333c19.66985,8.38063 28.80595,23.27512 27.40829,44.68382c-1.01527,9.02613 -4.00527,17.33168 -8.96999,24.91663c-6.36902,8.64042 -13.51179,16.61374 -21.4283,23.91997z" fill="#232020"/><path d="M230.60285,219.69567c-0.3103,0.35481 -0.42126,0.79766 -0.33222,1.32889c16.94331,0 33.88662,0 50.82993,0c0,6.75506 0,13.51046 0,20.26553c-27.13155,0 -54.26277,0 -81.39433,0c-0.05548,-5.75973 0,-11.51813 0.16611,-17.27553c15.54333,-15.09948 30.60393,-30.60294 45.18216,-46.51104c3.78334,-4.35343 6.44112,-9.33676 7.97332,-14.94998c2.37472,-12.2138 -2.60861,-18.52601 -14.94998,-18.93664c-3.39963,0.11628 -6.66636,0.83587 -9.80054,2.15944c-5.62684,2.56143 -10.77628,5.82817 -15.44831,9.80054c-4.60958,-5.16239 -9.09457,-10.42279 -13.45498,-15.78053c16.41873,-15.50878 35.57696,-20.27051 57.47436,-14.28553c16.73135,6.93513 23.5419,19.39344 20.43164,37.37495c-1.08338,5.24279 -3.07671,10.11516 -5.97999,14.61776c-2.51326,3.84314 -5.28199,7.49758 -8.30554,10.96332c-10.66166,10.60718 -21.45887,21.01668 -32.39162,31.22884z" fill="#fefefe"/><path d="M258.8417,208.73235c11.29554,0.22159 22.59108,0.44285 33.88662,0.66444c-11.51746,0.05548 -23.03459,0 -34.55106,-0.16611c0.18073,-0.2382 0.40232,-0.40431 0.66444,-0.49833z" fill="#4962bd"/><path d="M230.60285,219.69567c0,0.33222 0,0.66444 0,0.99667c16.94331,0 33.88662,0 50.82993,0c0,6.97666 0,13.95331 0,20.92997c-27.298,0.11063 -54.54018,-0.00033 -81.72655,-0.33222c27.13155,0 54.26277,0 81.39433,0c0,-6.75506 0,-13.51046 0,-20.26553c-16.94331,0 -33.88662,0 -50.82993,0c-0.08904,-0.53122 0.02193,-0.97407 0.33222,-1.32889z" fill="#c8c7c7"/><path d="M188.41069,219.36344c0,11.18491 0,22.36949 0,33.5544c34.77265,0 69.54497,0 104.31763,0c-34.82747,0.33189 -69.71075,0.44285 -104.64985,0.33222c-0.1103,-11.35235 0.00066,-22.64789 0.33222,-33.88662z" fill="#465cae"/><path d="M63.16309,258.23339c1.5528,3.20893 3.38002,6.30989 5.48166,9.30221c1.56543,1.40131 3.17139,2.7302 4.81722,3.98666c-4.8604,3.05976 -8.12714,7.37864 -9.80054,12.95665c-1.94184,-5.70358 -5.54079,-9.96698 -10.79721,-12.79054c5.15575,-3.1694 8.5886,-7.65439 10.29887,-13.45498z" fill="#fbfbfb"/></g></g></svg>