<svg version="1.1" xmlns="http://www.w3.org/2000/svg" xmlns:xlink="http://www.w3.org/1999/xlink" width="374.3159" height="165.36035" viewBox="0,0,374.3159,165.36035"><g transform="translate(-52.84205,-97.31983)"><g fill-rule="evenodd" stroke="none" stroke-miterlimit="10"><path d="M343.07046,193.62571c17.74063,-3.18117 35.42122,-6.68393 53.04176,-10.50827c-17.29361,-3.67089 -34.75069,-6.39503 -52.37457,-8.1731c-69.16412,-8.00464 -138.32957,-8.00464 -207.49669,0c-17.51312,1.71702 -34.86011,4.4415 -52.04097,8.1731c17.55449,3.76663 35.12365,7.38048 52.70816,10.84187c-28.6192,4.01349 -56.53017,10.90792 -83.73259,20.68295c-0.44468,-23.01812 -0.44468,-46.03624 0,-69.05436c5.66313,-1.72136 11.33426,-3.38934 17.01339,-5.00394c-2.76885,-8.02865 -5.43761,-16.09067 -8.0063,-24.18571c0.39431,-0.57879 0.95041,-0.91238 1.66798,-1.00079c26.96056,-6.15485 54.20434,-10.60301 81.73101,-13.34384c79.0052,-7.98228 157.73385,-5.86962 236.18594,6.33832c12.21295,2.09765 24.33249,4.59962 36.36196,7.50591c-2.56535,8.25583 -5.23412,16.48464 -8.0063,24.6861c5.62776,1.71235 11.2989,3.26924 17.01339,4.67034c0.05671,23.12954 0,46.25875 -0.1668,69.38796c-27.31484,-9.76135 -55.28019,-16.76687 -83.89939,-21.01655z" fill="#fe3131" opacity="0.994"/><path d="M181.61001,119.56741c4.35209,-0.12577 8.68884,0.04103 13.01024,0.50039c5.44362,2.87626 6.83338,7.1573 4.16995,12.84344c-2.57069,2.96934 -5.85094,4.30372 -9.84108,4.00315c0,2.77986 0,5.56004 0,8.3399c-2.44626,0 -4.89285,0 -7.33911,0c0,-8.56241 0,-17.12448 0,-25.68689z" fill="#181211"/><path d="M201.95937,119.56741c2.44626,0 4.89285,0 7.33911,0c0,8.56241 0,17.12448 0,25.68689c-2.44626,0 -4.89285,0 -7.33911,0c0,-8.56241 0,-17.12448 0,-25.68689z" fill="#1c1919"/><path d="M212.96804,119.56741c2.67811,-0.11042 5.34688,0.00067 8.0063,0.3336c2.45026,4.23467 4.89652,8.46033 7.33911,12.67665c0.09441,0.26321 0.26121,0.48572 0.50039,0.66719c0.1668,-4.55792 0.22251,-9.11684 0.1668,-13.67743c2.22408,0 4.44784,0 6.67192,0c0,8.56241 0,17.12448 0,25.68689c-2.6711,0.05538 -5.33987,0 -8.0063,-0.1668c-2.60372,-4.37411 -5.16106,-8.76657 -7.67271,-13.17704c-0.09441,-0.26321 -0.26121,-0.48572 -0.50039,-0.66719c-0.1668,4.55792 -0.22251,9.11684 -0.1668,13.67743c-2.11266,0 -4.22566,0 -6.33832,0c0,-8.45099 0,-16.90231 0,-25.35329z" fill="#0c0807"/><path d="M256.66911,125.90573c-2.11266,0 -4.22566,0 -6.33832,0c0,6.33832 0,12.67665 0,19.01497c-2.33517,0 -4.67034,0 -7.00552,0c0,-6.33832 0,-12.67665 0,-19.01497c-2.11266,0 -4.22566,0 -6.33832,0c0,-2.11266 0,-4.22566 0,-6.33832c6.56083,0 13.12133,0 19.68216,0c0,2.11266 0,4.22566 0,6.33832z" fill="#000000"/><path d="M279.68722,143.91991c0.24486,0.40298 0.35595,0.84767 0.3336,1.33438c-2.55768,0 -5.11503,0 -7.67271,0c-0.46403,-1.78274 -0.96443,-3.5618 -1.50118,-5.33754c-2.33517,-0.44468 -4.67034,-0.44468 -7.00552,0c-0.53676,1.77573 -1.03715,3.5548 -1.50118,5.33754c-2.55768,0 -5.11503,0 -7.67271,0c2.6651,-8.3846 5.50066,-16.7245 8.5067,-25.0197c1.30403,-0.43234 2.69379,-0.65485 4.16995,-0.66719c1.33438,0.11109 2.66877,0.22251 4.00315,0.3336c2.9153,7.96794 5.69515,15.97424 8.3399,24.01891z" fill="#140806"/><path d="M280.35442,119.56741c0,8.45099 0,16.90231 0,25.35329c0,0.11109 0,0.22251 0,0.3336c-0.11109,0 -0.22251,0 -0.3336,0c0.02235,-0.48672 -0.08874,-0.9314 -0.3336,-1.33438c0.22251,-8.11739 0.44468,-16.23511 0.66719,-24.35251z" fill="#931c1c"/><path d="M280.35442,119.56741c3.67122,-0.05571 7.34078,0 11.00867,0.1668c5.31819,0.97944 7.70874,4.1486 7.17231,9.50749c-0.5481,2.15536 -1.71568,3.87872 -3.50276,5.17074c2.18405,3.42403 4.4078,6.8157 6.67192,10.17468c-2.60739,0.33093 -5.27615,0.44235 -8.0063,0.3336c-1.72002,-2.77051 -3.44338,-5.5507 -5.17074,-8.3399c-0.22384,-0.25086 -0.50173,-0.36229 -0.83399,-0.3336c-0.33126,2.83023 -0.44235,5.7215 -0.3336,8.6735c-2.33517,0 -4.67034,0 -7.00552,0c0,-8.45099 0,-16.90231 0,-25.35329z" fill="#0f0a09"/><path d="M237.98773,120.90179c5.83526,-0.3326 11.7289,-0.44368 17.68059,-0.3336c0.10608,1.51186 -0.005,2.95766 -0.3336,4.33675c0,-1.33438 0,-2.66877 0,-4.00315c-5.78222,0 -11.56477,0 -17.34699,0z" fill="#6b6b6b"/><path d="M191.2843,135.58001c-1.2233,0 -2.44626,0 -3.66956,0c0,2.77986 0,5.56004 0,8.3399c-1.55689,0 -3.11345,0 -4.67034,0c0,-7.67271 0,-15.34541 0,-23.01812c3.56014,-0.05571 7.1186,0 10.67507,0.1668c5.19142,2.22475 6.58151,5.94968 4.16995,11.17546c-1.58391,2.21007 -3.75229,3.32195 -6.50512,3.33596z" fill="#fafafa"/><path d="M203.29375,120.90179c1.55689,0 3.11345,0 4.67034,0c0,7.67271 0,15.34541 0,23.01812c-1.55689,0 -3.11345,0 -4.67034,0c0,-7.67271 0,-15.34541 0,-23.01812z" fill="#fefffe"/><path d="M229.64783,137.24799c0.09441,0.26321 0.26121,0.48572 0.50039,0.66719c0.26955,-1.17659 0.21384,-2.28847 -0.1668,-3.33596c0,-4.55926 0,-9.11818 0,-13.67743c1.44547,0 2.89128,0 4.33675,0c0,7.67271 0,15.34541 0,23.01812c-2.12434,0.11009 -4.23734,-0.00133 -6.33832,-0.3336c-3.12279,-5.45429 -6.23624,-10.90325 -9.34069,-16.3462c-0.09441,-0.26321 -0.26121,-0.48572 -0.50039,-0.66719c-0.26721,0.95642 -0.2115,1.84612 0.1668,2.66877c0,4.89285 0,9.78537 0,14.67822c-1.44547,0 -2.89128,0 -4.33675,0c0,-7.67271 0,-15.34541 0,-23.01812c2.1984,-0.10375 4.36677,0.00734 6.50512,0.3336c3.1338,5.30017 6.19187,10.63771 9.17389,16.01261z" fill="#fcfcfc"/><path d="M229.98143,120.90179c1.49117,-0.32893 3.04807,-0.44001 4.67034,-0.3336c0.11042,7.84151 -0.00067,15.6253 -0.3336,23.35172c0,-7.67271 0,-15.34541 0,-23.01812c-1.44547,0 -2.89128,0 -4.33675,0z" fill="#818181"/><path d="M237.98773,120.90179c5.78222,0 11.56477,0 17.34699,0c0,1.33438 0,2.66877 0,4.00315c-2.00158,0 -4.00315,0 -6.00473,0c0,6.33832 0,12.67665 0,19.01497c-1.66798,0 -3.33596,0 -5.00394,0c0,-6.33832 0,-12.67665 0,-19.01497c-2.11266,0 -4.22566,0 -6.33832,0c0,-1.33438 0,-2.66877 0,-4.00315z" fill="#fbfbfb"/><path d="M264.34181,120.56819c2.08764,-0.10341 4.1446,0.00801 6.17153,0.3336c2.78152,7.62233 5.39491,15.29504 7.83951,23.01812c-1.77907,0 -3.55847,0 -5.33754,0c-0.35928,-1.68166 -0.80397,-3.34964 -1.33438,-5.00394c-2.89128,-0.44468 -5.78222,-0.44468 -8.6735,0c-0.53042,1.6543 -0.9751,3.32228 -1.33438,5.00394c-1.77907,0 -3.55847,0 -5.33754,0c2.46861,-7.85051 5.13738,-15.63464 8.0063,-23.35172z" fill="#f8f8f8"/><path d="M281.3552,120.90179c3.44905,-0.05538 6.8961,0 10.34147,0.1668c5.57839,1.71735 7.07957,5.22011 4.50355,10.50827c-0.92473,0.87569 -1.87014,1.70968 -2.83557,2.50197c2.0693,3.19218 4.18229,6.36134 6.33832,9.50749c-1.76873,0.38797 -3.54813,0.44335 -5.33754,0.1668c-1.77907,-2.77986 -3.55847,-5.56004 -5.33754,-8.3399c-0.88269,-0.1658 -1.7724,-0.22151 -2.66877,-0.1668c0,2.89128 0,5.78222 0,8.6735c-1.66798,0 -3.33596,0 -5.00394,0c0,-7.67271 0,-15.34541 0,-23.01812z" fill="#f9f9f9"/><path d="M187.94834,124.90494c1.59025,-0.10308 3.14714,0.06372 4.67034,0.50039c1.84545,1.98957 1.73403,3.88005 -0.3336,5.67113c-1.4011,0.45603 -2.84657,0.62282 -4.33675,0.50039c0,-2.22408 0,-4.44784 0,-6.67192z" fill="#0d0c0b"/><path d="M286.35914,124.90494c1.94386,-0.17947 3.77864,0.15412 5.50433,1.00079c0.75459,1.55556 0.5878,3.00103 -0.50039,4.33675c-1.61227,0.58146 -3.28025,0.80397 -5.00394,0.66719c0,-2.00158 0,-4.00315 0,-6.00473z" fill="#0a0605"/><path d="M267.01058,125.23854c0.41699,0.02569 0.69488,0.2482 0.83399,0.66719c0.80096,2.68078 1.63495,5.34954 2.50197,8.0063c-2.00158,0.44468 -4.00315,0.44468 -6.00473,0c0.99378,-2.86459 1.88348,-5.75553 2.66877,-8.6735z" fill="#131212"/><path d="M188.94913,125.90573c3.63386,-0.21684 4.52323,1.17326 2.66877,4.16995c-0.83866,0.41766 -1.72803,0.58446 -2.66877,0.50039c0,-1.55689 0,-3.11345 0,-4.67034z" fill="#f22e2e"/><path d="M236.98695,125.90573c2.11266,0 4.22566,0 6.33832,0c0,6.33832 0,12.67665 0,19.01497c2.33517,0 4.67034,0 7.00552,0c0,0.11109 0,0.22251 0,0.3336c-2.44626,0 -4.89285,0 -7.33911,0c0,-6.33832 0,-12.67665 0,-19.01497c-2.06496,0.10775 -4.06653,-0.00334 -6.00473,-0.3336z" fill="#611213"/><path d="M256.66911,125.90573c-1.93819,0.33026 -3.93977,0.44135 -6.00473,0.3336c0.11009,6.39637 -0.001,12.73469 -0.3336,19.01497c0,-0.11109 0,-0.22251 0,-0.3336c0,-6.33832 0,-12.67665 0,-19.01497c2.11266,0 4.22566,0 6.33832,0z" fill="#9c1e1e"/><path d="M289.6951,126.23933c-0.66719,0 -1.33438,0 -2.00158,0c0,1.11188 0,2.22408 0,3.33596c0.77828,0 1.55689,0 2.33517,0c-0.81664,0.32459 -1.70634,0.43568 -2.66877,0.3336c0,-1.33438 0,-2.66877 0,-4.00315c0.85367,-0.10075 1.63229,0.01068 2.33517,0.3336z" fill="#7d1818"/><path d="M289.6951,126.23933c2.06362,0.91572 2.17471,2.02793 0.3336,3.33596c-0.77828,0 -1.55689,0 -2.33517,0c0,-1.11188 0,-2.22408 0,-3.33596c0.66719,0 1.33438,0 2.00158,0z" fill="#f82f2f"/><path d="M228.98064,119.56741c0.05571,4.56059 0,9.11951 -0.1668,13.67743c-0.23919,-0.18148 -0.40599,-0.40398 -0.50039,-0.66719c0.22251,-4.33675 0.44468,-8.6735 0.66719,-13.01024z" fill="#9b1d1d"/><path d="M218.63917,127.24011c-0.32059,0.5888 -0.43201,1.25599 -0.3336,2.00158c-0.3783,-0.82265 -0.43401,-1.71235 -0.1668,-2.66877c0.23919,0.18148 0.40599,0.40398 0.50039,0.66719z" fill="#959595"/><path d="M267.01058,128.90809c0.3326,-0.01001 0.5551,0.15679 0.66719,0.50039c0.46503,1.24932 0.79863,2.52799 1.00079,3.83635c-0.8897,0 -1.77907,0 -2.66877,0c0.38564,-1.43213 0.71923,-2.8776 1.00079,-4.33675z" fill="#d82929"/><path d="M212.96804,119.56741c0,8.45099 0,16.90231 0,25.35329c2.11266,0 4.22566,0 6.33832,0c-0.05571,-4.56059 0,-9.11951 0.1668,-13.67743c0.23919,0.18148 0.40599,0.40398 0.50039,0.66719c-0.33226,4.38879 -0.44335,8.83696 -0.3336,13.34384c-2.33517,0 -4.67034,0 -7.00552,0c-0.11042,-8.61979 0.00067,-17.18186 0.3336,-25.68689z" fill="#4c0e0e"/><path d="M191.2843,135.58001c-1.04249,0.32659 -2.15436,0.43801 -3.33596,0.3336c0.10875,2.73015 -0.00267,5.39892 -0.3336,8.0063c0,-2.77986 0,-5.56004 0,-8.3399c1.2233,0 2.44626,0 3.66956,0z" fill="#777777"/><path d="M229.98143,134.57923c0.38063,1.04749 0.43634,2.15937 0.1668,3.33596c-0.23919,-0.18148 -0.40599,-0.40398 -0.50039,-0.66719c0.32459,-0.81664 0.43568,-1.70634 0.3336,-2.66877z" fill="#5a5a5a"/><path d="M287.69353,136.2472c0,3.00236 0,6.00473 0,9.00709c-2.44626,0 -4.89285,0 -7.33911,0c0,-0.11109 0,-0.22251 0,-0.3336c2.33517,0 4.67034,0 7.00552,0c-0.10875,-2.95199 0.00234,-5.84327 0.3336,-8.6735z" fill="#541011"/><path d="M301.70456,144.5871c0.18114,0.02002 0.29223,0.1311 0.3336,0.3336c-2.83256,0.44068 -5.61242,0.44068 -8.3399,0c2.73015,0.10875 5.39892,-0.00267 8.0063,-0.3336z" fill="#440d0d"/><path d="M136.24096,174.94434c0.39631,5.53636 0.72991,11.09607 1.00079,16.6798c-0.001,0.84233 -0.11242,1.62094 -0.3336,2.33517c-17.58451,-3.46139 -35.15368,-7.07524 -52.70816,-10.84187c17.18086,-3.7316 34.52785,-6.45608 52.04097,-8.1731z" fill="#ffdeb1" opacity="0.994"/><path d="M343.73765,174.94434c17.62387,1.77807 35.08095,4.50221 52.37457,8.1731c-17.62054,3.82434 -35.30113,7.3271 -53.04176,10.50827c0.30357,-6.2239 0.52708,-12.45114 0.66719,-18.68137z" fill="#ffdeb2" opacity="0.994"/><path d="M79.19604,217.97822c105.97243,-0.05571 211.94486,0 317.91696,0.1668c8.31988,1.75939 13.26711,6.8187 14.84502,15.17862c0.22351,4.67034 0.22351,9.34069 0,14.01103c-1.76472,8.5474 -6.93546,13.60705 -15.51221,15.17862c-105.63883,0.22251 -211.27733,0.22251 -316.91617,0c-7.54127,-1.29469 -12.4895,-5.57606 -14.84502,-12.84344c-0.53142,-5.65612 -0.64284,-11.32725 -0.3336,-17.01339c1.83478,-8.11806 6.78301,-13.01058 14.84502,-14.67822z" fill="#ffd9ae"/><path d="M78.86245,222.31496c106.08352,-0.05571 212.16703,0 318.25055,0.1668c6.08479,1.65864 9.58755,5.60608 10.50827,11.84266c0.22351,4.44784 0.22351,8.896 0,13.34384c-1.84145,6.28461 -6.0114,9.78737 -12.50985,10.50827c-104.86022,0.22251 -209.72078,0.22251 -314.581,0c-6.0918,-0.86335 -10.03924,-4.25502 -11.84266,-10.17468c-0.22251,-5.11503 -0.22251,-10.23039 0,-15.34541c1.67365,-5.17608 5.06532,-8.62346 10.17468,-10.34147z" fill="#fd3030"/><path d="M122.56353,240.66274c0,0.8897 0,1.77907 0,2.66877c-0.62983,3.71459 -2.68712,4.82647 -6.17153,3.33596c-0.9354,0.61515 -1.99157,0.83766 -3.16916,0.66719c0,-4.55926 0,-9.11818 0,-13.67743c1.2233,0 2.44626,0 3.66956,0c-0.05504,1.2283 0.00033,2.45126 0.1668,3.66956c3.09744,-0.95208 4.93222,0.16013 5.50433,3.33596z" fill="#1a100e"/><path d="M116.22521,234.32442c-0.77828,0 -1.55689,0 -2.33517,0c0,4.11424 0,8.22881 0,12.34305c-0.33193,-4.16628 -0.44335,-8.39194 -0.3336,-12.67665c0.96242,-0.10208 1.85212,0.00901 2.66877,0.3336z" fill="#777777"/><path d="M116.22521,234.32442c-0.05538,1.44981 0.00033,2.89528 0.1668,4.33675c2.53867,-1.7417 4.42915,-1.1856 5.67113,1.66798c0.59547,2.43725 -0.01601,4.4942 -1.83478,6.17153c-1.40144,0.30758 -2.73582,0.14078 -4.00315,-0.50039c-0.67486,0.55811 -1.45314,0.78061 -2.33517,0.66719c0,-4.11424 0,-8.22881 0,-12.34305c0.77828,0 1.55689,0 2.33517,0z" fill="#f7f7f7"/><path d="M172.93652,234.32442c1.2233,0 2.44626,0 3.66956,0c0,4.33675 0,8.6735 0,13.01024c-1.2233,0 -2.44626,0 -3.66956,0c0,-4.33675 0,-8.6735 0,-13.01024z" fill="#221e1d"/><path d="M259.00427,247.00107c1.11188,0 2.22408,0 3.33596,0c0.10909,-3.28525 -0.002,-6.50979 -0.3336,-9.67428c1.04249,-0.32659 2.15436,-0.43801 3.33596,-0.3336c0,-0.66719 0,-1.33438 0,-2.00158c-3.00236,0 -6.00473,0 -9.00709,0c-0.32292,0.70289 -0.43434,1.4815 -0.3336,2.33517c1.07184,-0.10341 2.07263,0.00767 3.00236,0.3336c-1.11188,0 -2.22408,0 -3.33596,0c0,-1.11188 0,-2.22408 0,-3.33596c3.33596,0 6.67192,0 10.00788,0c0,1.11188 0,2.22408 0,3.33596c-1.00079,0 -2.00158,0 -3.00236,0c0,3.22487 0,6.44941 0,9.67428c-1.29135,0.10508 -2.51465,-0.006 -3.66956,-0.3336z" fill="#241312"/><path d="M77.19447,234.32442c2.35986,-0.11309 4.69503,0.05371 7.00552,0.50039c2.45794,1.69066 2.95833,3.85904 1.50118,6.50512c-1.33505,1.31637 -2.94765,1.87214 -4.83714,1.66798c0,1.44547 0,2.89128 0,4.33675c-1.2233,0 -2.44626,0 -3.66956,0c0,-4.33675 0,-8.6735 0,-13.01024z" fill="#281e1d"/><path d="M82.532,242.33072c-0.77828,0 -1.55689,0 -2.33517,0c0,1.44547 0,2.89128 0,4.33675c-0.77828,0 -1.55689,0 -2.33517,0c0,-3.89206 0,-7.78379 0,-11.67586c1.89349,-0.05538 3.78398,0.00033 5.67113,0.1668c2.36019,1.1826 2.97167,3.01738 1.83478,5.50433c-0.67687,1.03281 -1.62194,1.58858 -2.83557,1.66798z" fill="#fafafa"/><path d="M173.60371,234.99161c0.77828,0 1.55689,0 2.33517,0c0,3.89206 0,7.78379 0,11.67586c-0.77828,0 -1.55689,0 -2.33517,0c0,-3.89206 0,-7.78379 0,-11.67586z" fill="#fefffe"/><path d="M256.3355,234.99161c3.00236,0 6.00473,0 9.00709,0c0,0.66719 0,1.33438 0,2.00158c-1.1816,-0.10442 -2.29347,0.00701 -3.33596,0.3336c0,3.11345 0,6.22724 0,9.34069c-0.8897,0 -1.77907,0 -2.66877,0c0,-3.22487 0,-6.44941 0,-9.67428c-1.00079,0 -2.00158,0 -3.00236,0c0,-0.66719 0,-1.33438 0,-2.00158z" fill="#f4f4f4"/><path d="M297.70141,235.32521c0.81664,-0.32459 1.70634,-0.43568 2.66877,-0.3336c0,0.66719 0,1.33438 0,2.00158c-0.31725,-0.47337 -0.42834,-1.02914 -0.3336,-1.66798c-0.77828,0 -1.55689,0 -2.33517,0z" fill="#801818"/><path d="M195.28745,236.99319c0,1.00079 0,2.00158 0,3.00236c-0.85367,-0.10075 -1.63229,0.01068 -2.33517,0.3336c0,1.33438 0,2.66877 0,4.00315c0.68888,-0.00567 1.35607,-0.11676 2.00158,-0.3336c0.32592,0.92973 0.43701,1.93052 0.3336,3.00236c-1.78607,0.5541 -3.50976,0.44302 -5.17074,-0.3336c-0.56945,-0.80363 -0.84733,-1.693 -0.83399,-2.66877c0,-1.33438 0,-2.66877 0,-4.00315c-0.3336,0 -0.66719,0 -1.00079,0c0,-0.66719 0,-1.33438 0,-2.00158c1.09686,-0.46036 1.76406,-1.29435 2.00158,-2.50197c0.88269,-0.1658 1.7724,-0.22151 2.66877,-0.1668c0,0.5561 0,1.11188 0,1.66798c0.77828,0 1.55689,0 2.33517,0z" fill="#180c0b"/><path d="M379.43242,236.99319c0.70389,0.32292 1.48117,0.43434 2.33517,0.3336c0,0.8897 0,1.77907 0,2.66877c-0.85401,-0.10075 -1.63128,0.01068 -2.33517,0.3336c0,1.33438 0,2.66877 0,4.00315c0.8907,-0.11109 1.77807,-0.22251 2.66877,-0.3336c0,1.00079 0,2.00158 0,3.00236c-1.4378,0.28956 -2.88227,0.34494 -4.33675,0.1668c-0.83399,-0.38931 -1.44447,-1.00079 -1.83478,-1.83478c-0.1668,-1.66431 -0.22351,-3.33229 -0.1668,-5.00394c-0.23685,-0.30157 -0.57045,-0.41266 -1.00079,-0.3336c0,-0.66719 0,-1.33438 0,-2.00158c1.04749,-0.41566 1.71468,-1.19427 2.00158,-2.33517c0.86401,-0.32692 1.75138,-0.43801 2.66877,-0.3336c0,0.5561 0,1.11188 0,1.66798z" fill="#191615"/><path d="M399.44818,243.9987c0.32692,0.92973 0.43701,1.93052 0.3336,3.00236c-1.78474,0.5541 -3.50943,0.44302 -5.17074,-0.3336c-0.57045,-0.80363 -0.84733,-1.693 -0.83399,-2.66877c0,-1.33438 0,-2.66877 0,-4.00315c-0.3336,0 -0.66719,0 -1.00079,0c0,-0.66719 0,-1.33438 0,-2.00158c1.09753,-0.46036 1.76472,-1.29435 2.00158,-2.50197c0.88403,-0.1658 1.77139,-0.22151 2.66877,-0.1668c0,0.5561 0,1.11188 0,1.66798c0.77728,0 1.55789,0 2.33517,0c0,1.00079 0,2.00158 0,3.00236c-0.77728,0 -1.55789,0 -2.33517,0c0,1.44547 0,2.89128 0,4.33675c0.68721,-0.00567 1.3544,-0.11676 2.00158,-0.3336z" fill="#180c0b"/><path d="M189.94991,244.66589c0,-1.77907 0,-3.55847 0,-5.33754c-0.44468,0 -0.8897,0 -1.33438,0c0.77394,-1.00779 1.44113,-2.12 2.00158,-3.33596c0.51541,-0.31758 1.07151,-0.42867 1.66798,-0.3336c0,0.66719 0,1.33438 0,2.00158c0.8897,0 1.77907,0 2.66877,0c0,0.66719 0,1.33438 0,2.00158c-0.8897,0 -1.77907,0 -2.66877,0c-0.05538,1.5609 0.00033,3.11745 0.1668,4.67034c0.79429,0.31191 1.62828,0.423 2.50197,0.3336c0.30724,1.74971 -0.41566,2.4169 -2.16837,2.00158c-1.6563,0.28489 -2.60138,-0.3823 -2.83557,-2.00158z" fill="#f4f4f4"/><path d="M377.09725,235.6588c0.55711,0 1.11087,0 1.66798,0c0,0.66719 0,1.33438 0,2.00158c0.8907,0 1.77807,0 2.66877,0c0,0.66719 0,1.33438 0,2.00158c-0.8907,0 -1.77807,0 -2.66877,0c-0.05671,1.5609 0,3.11745 0.1668,4.67034c0.79396,0.31191 1.62795,0.423 2.50197,0.3336c0,0.66719 0,1.33438 0,2.00158c-1.33772,0.05538 -2.6721,-0.00033 -4.00315,-0.1668c-0.1668,-0.1668 -0.3336,-0.3336 -0.50039,-0.50039c-0.47371,-2.0733 -0.6405,-4.18596 -0.50039,-6.33832c-0.44368,0 -0.8907,0 -1.33438,0c-0.08673,-0.49305 0.02335,-0.93774 0.3336,-1.33438c1.12755,-0.52508 1.68466,-1.41445 1.66798,-2.66877z" fill="#f3f3f3"/><path d="M394.44424,244.66589c0,-1.77907 0,-3.55847 0,-5.33754c-0.44368,0 -0.8907,0 -1.33438,0c0.77394,-1.00779 1.44113,-2.12 2.00158,-3.33596c0.51707,-0.31758 1.07084,-0.42867 1.66798,-0.3336c0,0.66719 0,1.33438 0,2.00158c0.8907,0 1.77807,0 2.66877,0c0,0.66719 0,1.33438 0,2.00158c-0.8907,0 -1.77807,0 -2.66877,0c-0.05671,1.5609 0,3.11745 0.1668,4.67034c0.79396,0.31191 1.62795,0.423 2.50197,0.3336c0.30691,1.74971 -0.41699,2.4169 -2.16837,2.00158c-1.65464,0.28489 -2.60205,-0.3823 -2.83557,-2.00158z" fill="#f4f4f4"/><path d="M145.91525,236.65959c-0.18114,0.02002 -0.29223,0.1311 -0.3336,0.3336c0.64751,3.27191 0.86968,6.60787 0.66719,10.00788c-1.11188,0 -2.22408,0 -3.33596,0c-0.20249,-3.40001 0.01968,-6.73597 0.66719,-10.00788c-0.04137,-0.20249 -0.15245,-0.31358 -0.3336,-0.3336c-0.86301,-0.83733 -0.86301,-1.72703 0,-2.66877c2.38388,-0.847 3.44004,-0.06872 3.16916,2.33517c-0.12777,0.18548 -0.29457,0.29657 -0.50039,0.3336z" fill="#0f0807"/><path d="M143.58006,234.32442c2.23176,-0.38997 2.78786,0.3326 1.66798,2.16837c-1.74738,0.19816 -2.30348,-0.52475 -1.66798,-2.16837z" fill="#f0f0f0"/><path d="M243.65886,236.65959c-0.18114,0.02002 -0.29223,0.1311 -0.3336,0.3336c0.64751,3.27191 0.86968,6.60787 0.66719,10.00788c-1.11188,0 -2.22408,0 -3.33596,0c0.00667,-4.28037 0.06238,-8.5057 0.1668,-12.67665c0.83299,-0.65985 1.7784,-0.82665 2.83557,-0.50039c0.88236,0.98411 0.88236,1.92919 0,2.83557z" fill="#1c1919"/><path d="M241.32369,234.32442c1.95487,-0.47571 2.62206,0.19148 2.00158,2.00158c-1.9005,0.54576 -2.56769,-0.12143 -2.00158,-2.00158z" fill="#eaeaea"/><path d="M80.19684,236.99319c2.85491,-0.32426 3.63319,0.73191 2.33517,3.16916c-0.77061,0.1658 -1.54889,0.22117 -2.33517,0.1668c0,-1.11188 0,-2.22408 0,-3.33596z" fill="#1a1312"/><path d="M99.879,237.32678c-0.8897,0 -1.77907,0 -2.66877,0c0,3.22487 0,6.44941 0,9.67428c1.11188,0 2.22408,0 3.33596,0c-1.15491,0.32759 -2.37821,0.43868 -3.66956,0.3336c0,-3.44705 0,-6.89443 0,-10.34147c1.07184,-0.10341 2.07263,0.00767 3.00236,0.3336z" fill="#440d0d"/><path d="M111.55486,239.32836c0,2.55768 0,5.11503 0,7.67271c-1.11188,0 -2.22408,0 -3.33596,0c0.05538,-2.22675 0,-4.45084 -0.1668,-6.67192c-0.64651,-0.45369 -1.20228,-0.3426 -1.66798,0.3336c-0.1668,2.22108 -0.22217,4.44517 -0.1668,6.67192c-1.2233,0 -2.44626,0 -3.66956,0c0.05538,-2.33784 0,-4.67301 -0.1668,-7.00552c-0.81864,-0.50473 -1.37475,-0.28222 -1.66798,0.66719c-0.16646,1.99857 -0.22217,4.00015 -0.1668,6.00473c-1.11188,0 -2.22408,0 -3.33596,0c0,-3.22487 0,-6.44941 0,-9.67428c0.8897,0 1.77907,0 2.66877,0c0.02002,0.18114 0.1311,0.29223 0.3336,0.3336c1.80475,-0.94841 3.52844,-0.83699 5.17074,0.3336c1.62094,-1.22263 3.34463,-1.33405 5.17074,-0.3336c0.48438,0.48038 0.81798,1.03615 1.00079,1.66798z" fill="#1a1717"/><path d="M143.24648,236.65959c0.18114,0.02002 0.29223,0.1311 0.3336,0.3336c-0.64751,3.27191 -0.86968,6.60787 -0.66719,10.00788c1.11188,0 2.22408,0 3.33596,0c0.20249,-3.40001 -0.01968,-6.73597 -0.66719,-10.00788c0.04137,-0.20249 0.15245,-0.31358 0.3336,-0.3336c0.64718,3.47273 0.86968,7.0312 0.66719,10.67507c-1.33438,0 -2.66877,0 -4.00315,0c0.21083,-2.69312 -0.01168,-5.2508 -0.66719,-7.67271c0.28989,-0.73958 0.40098,-1.51786 0.3336,-2.33517c-1.40177,0.10575 -2.73615,-0.00567 -4.00315,-0.3336c1.73303,0.10708 3.40101,-0.00434 5.00394,-0.3336z" fill="#6e1515"/><path d="M160.59347,237.32678c-0.8897,0 -1.77907,0 -2.66877,0c0,3.22487 0,6.44941 0,9.67428c1.11188,0 2.22408,0 3.33596,0c-1.15491,0.32759 -2.37821,0.43868 -3.66956,0.3336c0,-3.44705 0,-6.89443 0,-10.34147c1.07184,-0.10341 2.07263,0.00767 3.00236,0.3336z" fill="#440d0d"/><path d="M166.93178,239.32836c0,2.55768 0,5.11503 0,7.67271c-1.11188,0 -2.22408,0 -3.33596,0c0.05538,-2.11567 0,-4.22833 -0.1668,-6.33832c-0.81231,-0.91005 -1.4795,-0.79863 -2.00158,0.3336c-0.16646,1.99857 -0.22217,4.00015 -0.1668,6.00473c-1.11188,0 -2.22408,0 -3.33596,0c0,-3.22487 0,-6.44941 0,-9.67428c0.8897,0 1.77907,0 2.66877,0c0.40732,0.32192 0.852,0.26621 1.33438,-0.1668c2.30448,-0.58946 3.97246,0.13344 5.00394,2.16837z" fill="#0a0707"/><path d="M208.63129,237.32678c-0.8897,0 -1.77907,0 -2.66877,0c0,3.22487 0,6.44941 0,9.67428c1.11188,0 2.22408,0 3.33596,0c-0.10742,-1.95421 0.00367,-3.84469 0.3336,-5.67113c0,2.00158 0,4.00315 0,6.00473c-1.33438,0 -2.66877,0 -4.00315,0c0,-3.44705 0,-6.89443 0,-10.34147c1.07184,-0.10341 2.07263,0.00767 3.00236,0.3336z" fill="#701516"/><path d="M209.63208,241.32993c-0.32993,1.82644 -0.44101,3.71693 -0.3336,5.67113c-1.11188,0 -2.22408,0 -3.33596,0c0,-3.22487 0,-6.44941 0,-9.67428c0.8897,0 1.77907,0 2.66877,0c0.24086,0.13944 0.40765,0.36162 0.50039,0.66719c0.99545,-0.86735 2.16304,-1.20095 3.50276,-1.00079c0.10775,1.24298 -0.00367,2.46627 -0.3336,3.66956c-1.12522,-0.57679 -2.01492,-0.35461 -2.66877,0.66719z" fill="#050202"/><path d="M229.31424,237.32678c1.8161,0.20283 3.48408,-0.01935 5.00394,-0.66719c0.01301,-0.36128 0.12443,-0.69488 0.3336,-1.00079c0.86268,-0.32692 1.75238,-0.43801 2.66877,-0.3336c0,0.5561 0,1.11188 0,1.66798c0.70289,0.32292 1.4815,0.43434 2.33517,0.3336c0,0.8897 0,1.77907 0,2.66877c-0.85367,-0.10075 -1.63229,0.01068 -2.33517,0.3336c0,1.33438 0,2.66877 0,4.00315c0.8897,-0.11109 1.77907,-0.22251 2.66877,-0.3336c0,1.00079 0,2.00158 0,3.00236c-1.43713,0.28956 -2.8826,0.34494 -4.33675,0.1668c-0.83399,-0.38931 -1.44547,-1.00079 -1.83478,-1.83478c-0.16646,-1.77573 -0.22217,-3.5548 -0.1668,-5.33754c-0.3336,0 -0.66719,0 -1.00079,0c0.05237,-0.45803 -0.00334,-0.90304 -0.1668,-1.33438c-1.09286,0.86835 -1.92685,1.92485 -2.50197,3.16916c1.32971,1.77573 2.6641,3.5548 4.00315,5.33754c-1.44547,0.22251 -2.89128,0.22251 -4.33675,0c-0.83399,-1.0565 -1.66798,-2.11266 -2.50197,-3.16916c-0.16613,1.10654 -0.22184,2.21841 -0.1668,3.33596c-1.2233,0 -2.44626,0 -3.66956,0c0,-4.55926 0,-9.11818 0,-13.67743c1.2233,0 2.44626,0 3.66956,0c-0.05538,2.00458 0.00033,4.00615 0.1668,6.00473c0.80063,-0.74359 1.52353,-1.5222 2.16837,-2.33517z" fill="#1a110f"/><path d="M234.31818,236.65959c-1.51986,0.64784 -3.18784,0.87002 -5.00394,0.66719c1.63395,-0.23785 3.30193,-0.46003 5.00394,-0.66719z" fill="#490f0f"/><path d="M234.98537,235.6588c0.5561,0 1.11188,0 1.66798,0c0,0.66719 0,1.33438 0,2.00158c0.8897,0 1.77907,0 2.66877,0c0,0.66719 0,1.33438 0,2.00158c-0.8897,0 -1.77907,0 -2.66877,0c-0.05538,1.5609 0.00033,3.11745 0.1668,4.67034c0.79429,0.31191 1.62828,0.423 2.50197,0.3336c0,0.66719 0,1.33438 0,2.00158c-1.33905,0.05538 -2.67344,-0.00033 -4.00315,-0.1668c-0.1668,-0.1668 -0.3336,-0.3336 -0.50039,-0.50039c-0.47237,-2.0733 -0.63917,-4.18596 -0.50039,-6.33832c-0.44468,0 -0.8897,0 -1.33438,0c-0.06905,-1.08252 0.43134,-1.74971 1.50118,-2.00158c0.27121,-0.64584 0.43801,-1.31303 0.50039,-2.00158z" fill="#f3f3f3"/><path d="M226.31187,234.32442c-0.05538,2.33784 0,4.67301 0.1668,7.00552c0.93307,-1.26733 1.98957,-2.43492 3.16916,-3.50276c0.90972,-0.27288 1.79942,-0.2175 2.66877,0.1668c-1.11188,1.2233 -2.22408,2.44626 -3.33596,3.66956c1.28735,1.5649 2.51031,3.1775 3.66956,4.83714c-1.0188,0.27388 -2.01959,0.21851 -3.00236,-0.1668c-0.66986,-1.16759 -1.50385,-2.16837 -2.50197,-3.00236c-0.25754,0.04837 -0.48004,0.15946 -0.66719,0.3336c-0.16613,0.99478 -0.22184,1.99557 -0.1668,3.00236c-0.77828,0 -1.55689,0 -2.33517,0c0,-4.11424 0,-8.22881 0,-12.34305c0.77828,0 1.55689,0 2.33517,0z" fill="#f8f8f8"/><path d="M226.31187,234.32442c-0.77828,0 -1.55689,0 -2.33517,0c0,4.11424 0,8.22881 0,12.34305c-0.33193,-4.16628 -0.44335,-8.39194 -0.3336,-12.67665c0.96242,-0.10208 1.85212,0.00901 2.66877,0.3336z" fill="#777777"/><path d="M237.32054,236.99319c0.8897,0 1.77907,0 2.66877,0c0,1.11188 0,2.22408 0,3.33596c-0.8897,0 -1.77907,0 -2.66877,0c0.70289,-0.32292 1.4815,-0.43434 2.33517,-0.3336c0,-0.8897 0,-1.77907 0,-2.66877c-0.85367,0.10075 -1.63229,-0.01068 -2.33517,-0.3336z" fill="#671414"/><path d="M243.65886,236.65959c0.64718,3.47273 0.86968,7.0312 0.66719,10.67507c-1.29135,0.10508 -2.51465,-0.006 -3.66956,-0.3336c1.11188,0 2.22408,0 3.33596,0c0.20249,-3.40001 -0.01968,-6.73597 -0.66719,-10.00788c0.04137,-0.20249 0.15245,-0.31358 0.3336,-0.3336z" fill="#3f0c0c"/><path d="M251.99876,236.65959c0.10442,1.1816 -0.00701,2.29347 -0.3336,3.33596c0,-0.8897 0,-1.77907 0,-2.66877c-0.70189,0.09975 -1.36908,-0.01134 -2.00158,-0.3336c0.74826,-0.32492 1.52654,-0.43634 2.33517,-0.3336z" fill="#901c1c"/><path d="M256.3355,234.99161c0,0.66719 0,1.33438 0,2.00158c1.00079,0 2.00158,0 3.00236,0c0,3.22487 0,6.44941 0,9.67428c0.8897,0 1.77907,0 2.66877,0c0,-3.11345 0,-6.22724 0,-9.34069c0.33159,3.16449 0.44268,6.38903 0.3336,9.67428c-1.11188,0 -2.22408,0 -3.33596,0c0,-3.11345 0,-6.22724 0,-9.34069c-0.92973,-0.32592 -1.93052,-0.43701 -3.00236,-0.3336c-0.10075,-0.85367 0.01068,-1.63229 0.3336,-2.33517z" fill="#010101"/><path d="M285.35836,240.66274c0,1.00079 0,2.00158 0,3.00236c-0.71356,3.08209 -2.60405,4.19397 -5.67113,3.33596c-0.32792,1.267 -0.43935,2.60138 -0.3336,4.00315c-1.11188,0 -2.22408,0 -3.33596,0c0,-4.67034 0,-9.34069 0,-14.01103c1.20462,-0.15212 2.31649,0.07039 3.33596,0.66719c3.21486,-1.41245 5.21644,-0.41166 6.00473,3.00236z" fill="#292221"/><path d="M357.74868,243.66511c-0.33026,-2.04995 -0.44035,-4.16261 -0.3336,-6.33832c-1.11087,0 -2.22509,0 -3.33596,0c0,2.33517 0,4.67034 0,7.00552c-0.33026,-2.38454 -0.44035,-4.8308 -0.3336,-7.33911c1.33438,0 2.66877,0 4.00315,0c0,2.22408 0,4.44784 0,6.67192z" fill="#6b1415"/><path d="M379.43242,236.99319c0.8907,0 1.77807,0 2.66877,0c0,1.11188 0,2.22408 0,3.33596c-0.8907,0 -1.77807,0 -2.66877,0c0.70389,-0.32292 1.48117,-0.43434 2.33517,-0.3336c0,-0.8897 0,-1.77907 0,-2.66877c-0.85401,0.10075 -1.63128,-0.01068 -2.33517,-0.3336z" fill="#671414"/><path d="M386.43794,243.66511c-0.33026,-2.04995 -0.44035,-4.16261 -0.3336,-6.33832c-1.11087,0 -2.22509,0 -3.33596,0c0,2.33517 0,4.67034 0,7.00552c-0.33026,-2.38454 -0.44035,-4.8308 -0.3336,-7.33911c1.33438,0 2.66877,0 4.00315,0c0,2.22408 0,4.44784 0,6.67192z" fill="#6b1415"/><path d="M382.76838,244.3323c0,-2.33517 0,-4.67034 0,-7.00552c1.11087,0 2.22509,0 3.33596,0c-0.10675,2.17571 0.00334,4.28838 0.3336,6.33832c0.74058,0.92439 1.3544,0.81331 1.83478,-0.3336c0.1668,-2.10999 0.22351,-4.22266 0.1668,-6.33832c1.2243,0 2.44526,0 3.66956,0c0,3.44705 0,6.89443 0,10.34147c-1.17759,0.17047 -2.23509,-0.05204 -3.16916,-0.66719c-1.31103,0.65985 -2.70213,0.82665 -4.16995,0.50039c-1.25432,-0.53275 -1.92151,-1.47783 -2.00158,-2.83557z" fill="#1c1514"/><path d="M80.86402,237.66038c1.72369,-0.33626 2.27979,0.27522 1.66798,1.83478c-0.5451,0.1648 -1.1012,0.22017 -1.66798,0.1668c0,-0.66719 0,-1.33438 0,-2.00158z" fill="#e72c2c"/><path d="M97.54383,237.66038c0.66719,0 1.33438,0 2.00158,0c0.15812,1.21996 0.60281,1.27567 1.33438,0.1668c1.61827,-0.41966 3.06408,-0.14144 4.33675,0.83399c1.41211,-0.95475 2.969,-1.23264 4.67034,-0.83399c0.51674,0.40499 0.90571,0.90538 1.16759,1.50118c0.1668,2.44392 0.22217,4.89018 0.1668,7.33911c-0.77828,0 -1.55689,0 -2.33517,0c0.05538,-2.11567 0,-4.22833 -0.1668,-6.33832c-1.09887,-0.93774 -2.09965,-0.82665 -3.00236,0.3336c-0.16646,1.99857 -0.22217,4.00015 -0.1668,6.00473c-0.77828,0 -1.55689,0 -2.33517,0c0.05538,-2.11567 0,-4.22833 -0.1668,-6.33832c-0.8897,-0.8897 -1.77907,-0.8897 -2.66877,0c-0.1668,2.10999 -0.22217,4.22266 -0.1668,6.33832c-0.8897,0 -1.77907,0 -2.66877,0c0,-3.00236 0,-6.00473 0,-9.00709z" fill="#f6f6f6"/><path d="M158.2583,237.66038c0.66719,0 1.33438,0 2.00158,0c0.15812,1.21996 0.60281,1.27567 1.33438,0.1668c1.11188,-0.22251 2.22408,-0.22251 3.33596,0c0.47738,0.15512 0.86635,0.43334 1.16759,0.83399c0.47871,2.63174 0.64551,5.30051 0.50039,8.0063c-0.8897,0 -1.77907,0 -2.66877,0c0.05538,-2.22675 0,-4.45084 -0.1668,-6.67192c-0.97277,-0.50473 -1.86213,-0.39364 -2.66877,0.3336c-0.1668,2.10999 -0.22217,4.22266 -0.1668,6.33832c-0.8897,0 -1.77907,0 -2.66877,0c0,-3.00236 0,-6.00473 0,-9.00709z" fill="#f0f0f0"/><path d="M210.63286,237.66038c0.44468,0 0.8897,0 1.33438,0c0,0.66719 0,1.33438 0,2.00158c-0.53342,-0.0894 -0.9781,0.02202 -1.33438,0.3336c-0.62416,0.11976 -1.12455,0.45336 -1.50118,1.00079c-0.16646,1.88715 -0.22217,3.77764 -0.1668,5.67113c-0.8897,0 -1.77907,0 -2.66877,0c0,-3.00236 0,-6.00473 0,-9.00709c0.6762,-0.05404 1.34339,0.00167 2.00158,0.1668c0.23051,0.35595 0.39731,0.74525 0.50039,1.16759c0.48405,-0.65518 1.09553,-1.09987 1.83478,-1.33438z" fill="#f0f0f0"/><path d="M276.68486,237.66038c0.66719,0 1.33438,0 2.00158,0c0.15812,1.21996 0.60281,1.27567 1.33438,0.1668c3.20419,-0.52441 4.87217,0.86535 5.00394,4.16995c-0.15312,4.11324 -2.09932,5.44762 -5.83793,4.00315c-0.16646,1.55289 -0.22217,3.10945 -0.1668,4.67034c-0.77828,0 -1.55689,0 -2.33517,0c0,-4.33675 0,-8.6735 0,-13.01024z" fill="#f7f7f7"/><path d="M143.24648,237.66038c0.8897,0 1.77907,0 2.66877,0c0,3.00236 0,6.00473 0,9.00709c-0.8897,0 -1.77907,0 -2.66877,0c0,-3.00236 0,-6.00473 0,-9.00709z" fill="#ededed"/><path d="M195.28745,236.99319c0.22251,1.00079 0.44468,2.00158 0.66719,3.00236c0.05738,0.33093 -0.05404,0.5531 -0.3336,0.66719c-0.81664,-0.32459 -1.70634,-0.43568 -2.66877,-0.3336c0.70289,-0.32292 1.4815,-0.43434 2.33517,-0.3336c0,-1.00079 0,-2.00158 0,-3.00236z" fill="#9d1e1e"/><path d="M241.32369,237.66038c0.77828,0 1.55689,0 2.33517,0c0,3.00236 0,6.00473 0,9.00709c-0.77828,0 -1.55689,0 -2.33517,0c0,-3.00236 0,-6.00473 0,-9.00709z" fill="#fcfcfc"/><path d="M251.99876,236.65959c-0.80864,-0.10275 -1.58692,0.00867 -2.33517,0.3336c0.6325,0.32225 1.29969,0.43334 2.00158,0.3336c0,0.8897 0,1.77907 0,2.66877c-0.66719,0 -1.33438,0 -2.00158,0c0,2.44626 0,4.89285 0,7.33911c-1.2233,0 -2.44626,0 -3.66956,0c0,-2.44626 0,-4.89285 0,-7.33911c-0.44468,0 -0.8897,0 -1.33438,0c-0.26788,-1.22396 0.12143,-2.11366 1.16759,-2.66877c-0.10842,-1.55589 0.50306,-2.72348 1.83478,-3.50276c1.7347,-0.32826 3.40268,-0.16146 5.00394,0.50039c-0.35928,0.74359 -0.58179,1.5222 -0.66719,2.33517z" fill="#191515"/><path d="M248.32921,233.99082c1.23931,-0.02569 2.46227,0.0854 3.66956,0.3336c0.003,0.60314 -0.1638,1.15925 -0.50039,1.66798c-0.68254,-0.01635 -1.40544,0.09507 -2.16837,0.3336c-0.24886,0.41232 -0.35995,0.85734 -0.3336,1.33438c0.77828,0 1.55689,0 2.33517,0c0,0.66719 0,1.33438 0,2.00158c-0.77828,0 -1.55689,0 -2.33517,0c0,2.33517 0,4.67034 0,7.00552c-0.77828,0 -1.55689,0 -2.33517,0c0,-2.33517 0,-4.67034 0,-7.00552c-0.44468,0 -0.8897,0 -1.33438,0c-0.19248,-1.01747 0.19682,-1.68466 1.16759,-2.00158c-0.20816,-1.68232 0.40365,-2.90562 1.83478,-3.66956z" fill="#f5f5f5"/><path d="M383.10198,237.66038c0.8907,0 1.77807,0 2.66877,0c-0.05671,2.11567 0,4.22833 0.1668,6.33832c0.72724,0.71289 1.56123,0.82432 2.50197,0.3336c0.61048,-2.17238 0.83065,-4.39646 0.66719,-6.67192c0.77728,0 1.55789,0 2.33517,0c0,3.00236 0,6.00473 0,9.00709c-0.66719,0 -1.33438,0 -2.00158,0c0.05004,-0.35094 -0.00667,-0.68454 -0.1668,-1.00079c-0.77061,0.79663 -1.71468,1.13022 -2.83557,1.00079c-1.63128,0.21384 -2.68878,-0.45336 -3.16916,-2.00158c-0.1668,-2.3325 -0.22351,-4.66767 -0.1668,-7.00552z" fill="#f3f3f3"/><path d="M210.63286,237.66038c0.47337,-0.31725 1.02914,-0.42834 1.66798,-0.3336c0,0.8897 0,1.77907 0,2.66877c-0.5561,0 -1.11188,0 -1.66798,0c0.35628,-0.31158 0.80096,-0.423 1.33438,-0.3336c0,-0.66719 0,-1.33438 0,-2.00158c-0.44468,0 -0.8897,0 -1.33438,0z" fill="#8d8d8d"/><path d="M149.25121,240.99634c1.11621,-0.1678 2.22809,-0.39031 3.33596,-0.66719c-1.15858,-0.40032 -2.27045,-0.28889 -3.33596,0.3336c-0.52008,-0.70322 -0.96476,-1.4815 -1.33438,-2.33517c1.1062,-1.03582 2.44059,-1.48083 4.00315,-1.33438c1.81977,-0.17414 3.20986,0.49305 4.16995,2.00158c0.1668,2.77785 0.22217,5.55771 0.1668,8.3399c-1.09686,0.14245 -2.09765,-0.08006 -3.00236,-0.66719c-4.30239,1.64229 -6.24859,0.19649 -5.83793,-4.33675c0.47771,-0.64684 1.08919,-1.09153 1.83478,-1.33438z" fill="#1d1514"/><path d="M149.5848,237.66038c1.44981,-0.05538 2.89528,0.00033 4.33675,0.1668c0.5958,0.26187 1.0962,0.65085 1.50118,1.16759c0.47771,2.51998 0.64451,5.07766 0.50039,7.67271c-1.05149,0.15112 -1.88548,-0.18248 -2.50197,-1.00079c-0.30124,0.40065 -0.69021,0.67887 -1.16759,0.83399c-3.44404,0.8917 -4.83381,-0.38697 -4.16995,-3.83635c1.41611,-1.39877 3.13981,-1.95454 5.17074,-1.66798c0.09107,-0.65085 -0.1311,-1.15124 -0.66719,-1.50118c-1.07118,-0.26621 -2.07196,-0.09941 -3.00236,0.50039c-1.12889,-0.93774 -1.12889,-1.71635 0,-2.33517z" fill="#f2f2f2"/><path d="M187.61474,239.99555c0,2.33517 0,4.67034 0,7.00552c-1.11188,0 -2.22408,0 -3.33596,0c0.10775,-2.06496 -0.00334,-4.06653 -0.3336,-6.00473c-0.36996,-1.17726 -0.98144,-1.28835 -1.83478,-0.3336c-0.16113,0.31625 -0.2165,0.64984 -0.1668,1.00079c-0.32959,1.71468 -0.44068,3.49408 -0.3336,5.33754c-1.11188,0 -2.22408,0 -3.33596,0c0,-3.33596 0,-6.67192 0,-10.00788c1.20462,-0.15212 2.31649,0.07039 3.33596,0.66719c1.99224,-1.04082 3.82701,-0.81831 5.50433,0.66719c0.3366,0.50873 0.5034,1.06484 0.50039,1.66798z" fill="#231f1e"/><path d="M178.94125,237.66038c0.66719,0 1.33438,0 2.00158,0c-0.04971,0.35094 0.00567,0.68454 0.1668,1.00079c0.76927,-0.79663 1.71435,-1.13022 2.83557,-1.00079c1.26133,-0.22451 2.2064,0.22051 2.83557,1.33438c0.1668,2.55501 0.22217,5.11269 0.1668,7.67271c-0.77828,0 -1.55689,0 -2.33517,0c0.05538,-2.11567 0,-4.22833 -0.1668,-6.33832c-0.70756,-0.65285 -1.54155,-0.81965 -2.50197,-0.50039c-0.20883,0.2502 -0.37563,0.52842 -0.50039,0.83399c-0.16646,1.99857 -0.22217,4.00015 -0.1668,6.00473c-0.77828,0 -1.55689,0 -2.33517,0c0,-3.00236 0,-6.00473 0,-9.00709z" fill="#fafafa"/><path d="M188.61553,239.32836c0.44468,0 0.8897,0 1.33438,0c0,1.77907 0,3.55847 0,5.33754c-0.32926,-1.60293 -0.44068,-3.27091 -0.3336,-5.00394c-0.43067,0.07906 -0.76427,-0.03203 -1.00079,-0.3336z" fill="#737373"/><path d="M297.70141,235.32521c0.77828,0 1.55689,0 2.33517,0c-0.09474,0.63884 0.01635,1.19461 0.3336,1.66798c0.77828,0 1.55689,0 2.33517,0c0,1.00079 0,2.00158 0,3.00236c-0.8897,0 -1.77907,0 -2.66877,0c-0.10575,1.40177 0.00567,2.73615 0.3336,4.00315c0.70923,0.20116 1.4875,0.20116 2.33517,0c0,1.00079 0,2.00158 0,3.00236c-1.78607,0.5541 -3.50976,0.44302 -5.17074,-0.3336c-0.56945,-0.80363 -0.84733,-1.693 -0.83399,-2.66877c0,-1.33438 0,-2.66877 0,-4.00315c-0.44468,0 -0.8897,0 -1.33438,0c-0.18548,-1.23197 0.25954,-2.12167 1.33438,-2.66877c0.3396,-0.69855 0.6732,-1.36574 1.00079,-2.00158z" fill="#181211"/><path d="M298.035,235.6588c0.5561,0 1.11188,0 1.66798,0c0,0.66719 0,1.33438 0,2.00158c0.77828,0 1.55689,0 2.33517,0c0,0.66719 0,1.33438 0,2.00158c-0.77828,0 -1.55689,0 -2.33517,0c0,1.66798 0,3.33596 0,5.00394c0.8897,0 1.77907,0 2.66877,0c0.07973,0.65618 -0.03136,1.268 -0.3336,1.83478c-1.2233,0.22251 -2.44626,0.22251 -3.66956,0c-0.51674,-0.40499 -0.90571,-0.90538 -1.16759,-1.50118c-0.16646,-1.77573 -0.22217,-3.5548 -0.1668,-5.33754c-0.3336,0 -0.66719,0 -1.00079,0c-0.19248,-1.01747 0.19682,-1.68466 1.16759,-2.00158c0.31291,-0.66319 0.59113,-1.33038 0.83399,-2.00158z" fill="#eeeeee"/><path d="M337.39933,247.00107c-1.11087,0 -2.22509,0 -3.33596,0c0.10675,-2.06496 -0.00334,-4.06653 -0.3336,-6.00473c-0.37029,-1.17726 -0.98077,-1.28835 -1.83478,-0.3336c-0.16113,0.31625 -0.2165,0.64984 -0.1668,1.00079c-0.32959,1.71468 -0.44068,3.49408 -0.3336,5.33754c-1.11188,0 -2.22408,0 -3.33596,0c0,-3.33596 0,-6.67192 0,-10.00788c1.20462,-0.15212 2.31649,0.07039 3.33596,0.66719c1.99157,-1.04082 3.82635,-0.81831 5.50433,0.66719c0.48038,2.85491 0.64718,5.74586 0.50039,8.6735z" fill="#231f1e"/><path d="M328.72584,237.66038c0.66719,0 1.33438,0 2.00158,0c-0.04971,0.35094 0.00567,0.68454 0.1668,1.00079c0.76927,-0.79663 1.71468,-1.13022 2.83557,-1.00079c1.26099,-0.22451 2.20507,0.22051 2.83557,1.33438c0.1668,2.55501 0.22351,5.11269 0.1668,7.67271c-0.77728,0 -1.55789,0 -2.33517,0c0.05671,-2.11567 0,-4.22833 -0.1668,-6.33832c-0.70722,-0.65285 -1.54121,-0.81965 -2.50197,-0.50039c-0.20883,0.2502 -0.37563,0.52842 -0.50039,0.83399c-0.16646,1.99857 -0.22217,4.00015 -0.1668,6.00473c-0.77828,0 -1.55689,0 -2.33517,0c0,-3.00236 0,-6.00473 0,-9.00709z" fill="#fafafa"/><path d="M374.09489,239.99555c0,2.33517 0,4.67034 0,7.00552c-1.11087,0 -2.22509,0 -3.33596,0c0.10675,-2.06496 -0.00334,-4.06653 -0.3336,-6.00473c-0.37029,-1.17726 -0.98077,-1.28835 -1.83478,-0.3336c-0.16013,0.31625 -0.21684,0.64984 -0.1668,1.00079c-0.33026,1.71468 -0.44035,3.49408 -0.3336,5.33754c-1.11087,0 -2.22509,0 -3.33596,0c0,-3.33596 0,-6.67192 0,-10.00788c1.20428,-0.15212 2.31516,0.07039 3.33596,0.66719c1.99157,-1.04082 3.82635,-0.81831 5.50433,0.66719c0.33693,0.50873 0.50373,1.06484 0.50039,1.66798z" fill="#231f1e"/><path d="M365.42139,237.66038c0.66719,0 1.33438,0 2.00158,0c-0.05004,0.35094 0.00667,0.68454 0.1668,1.00079c0.77061,-0.79663 1.71468,-1.13022 2.83557,-1.00079c1.26099,-0.22451 2.20507,0.22051 2.83557,1.33438c0.1668,2.55501 0.22351,5.11269 0.1668,7.67271c-0.77728,0 -1.55789,0 -2.33517,0c0.05671,-2.11567 0,-4.22833 -0.1668,-6.33832c-0.70722,-0.65285 -1.54121,-0.81965 -2.50197,-0.50039c-0.21017,0.2502 -0.37696,0.52842 -0.50039,0.83399c-0.1668,1.99857 -0.22351,4.00015 -0.1668,6.00473c-0.77728,0 -1.55789,0 -2.33517,0c0,-3.00236 0,-6.00473 0,-9.00709z" fill="#fafafa"/><path d="M393.10986,239.32836c0.44368,0 0.8907,0 1.33438,0c0,1.77907 0,3.55847 0,5.33754c-0.33026,-1.60293 -0.44035,-3.27091 -0.3336,-5.00394c-0.43034,0.07906 -0.76393,-0.03203 -1.00079,-0.3336z" fill="#737373"/><path d="M131.90421,239.66195c0,2.44626 0,4.89285 0,7.33911c-0.8897,0 -1.77907,0 -2.66877,0c-0.02002,-0.18114 -0.1311,-0.29223 -0.3336,-0.3336c-3.63386,1.63295 -5.63544,0.52074 -6.00473,-3.33596c0.11109,-0.22251 0.22251,-0.44468 0.3336,-0.66719c0.2562,-1.02147 0.92339,-1.57724 2.00158,-1.66798c0.99178,-0.19482 1.99257,-0.41733 3.00236,-0.66719c-1.08752,-0.429 -2.08831,-0.31792 -3.00236,0.3336c-0.6722,-0.7259 -1.2283,-1.55989 -1.66798,-2.50197c0.57412,-0.5094 1.24131,-0.843 2.00158,-1.00079c1.33438,-0.22251 2.66877,-0.22251 4.00315,0c1.30703,0.36128 2.08564,1.19527 2.33517,2.50197z" fill="#1b1312"/><path d="M125.2323,237.66038c1.44981,-0.05538 2.89528,0.00033 4.33675,0.1668c0.81364,0.2582 1.42546,0.7586 1.83478,1.50118c0.1668,2.44392 0.22217,4.89018 0.1668,7.33911c-0.66719,0 -1.33438,0 -2.00158,0c-0.15812,-1.21996 -0.60281,-1.27567 -1.33438,-0.1668c-3.58782,1.07952 -5.08901,-0.19916 -4.50355,-3.83635c1.4368,-1.38709 3.16049,-1.94286 5.17074,-1.66798c0.07139,-0.54843 -0.04003,-1.04883 -0.3336,-1.50118c-1.1816,-0.28389 -2.29347,-0.11709 -3.33596,0.50039c-0.85,-0.81698 -0.85,-1.59526 0,-2.33517z" fill="#f2f2f2"/><path d="M214.63602,240.99634c0,-0.11109 0,-0.22251 0,-0.3336c1.17426,-0.64417 2.39755,-0.75559 3.66956,-0.3336c-1.22163,0.27121 -2.44459,0.49339 -3.66956,0.66719z" fill="#ab2121"/><path d="M287.69353,240.99634c0,-0.11109 0,-0.22251 0,-0.3336c1.17426,-0.64417 2.39755,-0.75559 3.66956,-0.3336c-1.22163,0.27121 -2.44459,0.49339 -3.66956,0.66719z" fill="#ab2121"/><path d="M319.38515,240.99634c0,-0.11109 0,-0.22251 0,-0.3336c1.17426,-0.64417 2.39755,-0.75559 3.66956,-0.3336c-1.22163,0.27121 -2.44459,0.49339 -3.66956,0.66719z" fill="#ab2121"/><path d="M125.2323,240.99634c0,-0.11109 0,-0.22251 0,-0.3336c0.91405,-0.65151 1.91484,-0.7626 3.00236,-0.3336c-1.00979,0.24986 -2.01058,0.47237 -3.00236,0.66719z" fill="#b62323"/><path d="M149.25121,240.99634c0,-0.11109 0,-0.22251 0,-0.3336c1.06551,-0.62249 2.17738,-0.73391 3.33596,-0.3336c-1.10787,0.27688 -2.21975,0.49939 -3.33596,0.66719z" fill="#b52323"/><path d="M192.95228,240.32915c0.96242,-0.10208 1.85212,0.00901 2.66877,0.3336c0,0.8897 0,1.77907 0,2.66877c-0.22251,0.22251 -0.44468,0.44468 -0.66719,0.66719c-0.64551,0.21684 -1.3127,0.32792 -2.00158,0.3336c0,-1.33438 0,-2.66877 0,-4.00315z" fill="#f93030"/><path d="M279.68722,239.66195c0.95575,-0.14845 1.78974,0.07406 2.50197,0.66719c0.32626,1.46782 0.15946,2.85792 -0.50039,4.16995c-1.11221,0.40432 -1.9462,0.12643 -2.50197,-0.83399c-0.3356,-1.43513 -0.1688,-2.76951 0.50039,-4.00315z" fill="#1e1615"/><path d="M280.02082,239.99555c0.54843,-0.07139 1.04883,0.04003 1.50118,0.3336c0.22251,1.11188 0.22251,2.22408 0,3.33596c-0.51674,0.83499 -1.07284,0.83499 -1.66798,0c-0.25186,-1.25265 -0.19649,-2.47595 0.1668,-3.66956z" fill="#ed2d2d"/><path d="M295.36624,239.99555c0.44468,0 0.8897,0 1.33438,0c0,1.33438 0,2.66877 0,4.00315c-0.32759,-1.15491 -0.43868,-2.37821 -0.3336,-3.66956c-0.43067,0.07906 -0.76427,-0.03203 -1.00079,-0.3336z" fill="#871a1a"/><path d="M302.70535,239.99555c-0.70289,0.32292 -1.4815,0.43434 -2.33517,0.3336c0,1.2233 0,2.44626 0,3.66956c-0.32792,-1.267 -0.43935,-2.60138 -0.3336,-4.00315c0.8897,0 1.77907,0 2.66877,0z" fill="#701515"/><path d="M392.77626,237.99397c0,0.66719 0,1.33438 0,2.00158c0.3336,0 0.66719,0 1.00079,0c0,1.33438 0,2.66877 0,4.00315c-0.32692,-1.15491 -0.43701,-2.37821 -0.3336,-3.66956c-0.3336,0 -0.66719,0 -1.00079,0c-0.10008,-0.85367 0.01001,-1.63229 0.3336,-2.33517z" fill="#ab2121"/><path d="M131.90421,239.66195c0.22251,2.44626 0.44468,4.89285 0.66719,7.33911c0.05738,0.33093 -0.05404,0.5531 -0.3336,0.66719c-1.00079,-0.22251 -2.00158,-0.44468 -3.00236,-0.66719c0.8897,0 1.77907,0 2.66877,0c0,-2.44626 0,-4.89285 0,-7.33911z" fill="#5c1212"/><path d="M188.28193,237.99397c0,0.66719 0,1.33438 0,2.00158c0.3336,0 0.66719,0 1.00079,0c0,1.33438 0,2.66877 0,4.00315c-0.32759,-1.15491 -0.43868,-2.37821 -0.3336,-3.66956c-0.3336,0 -0.66719,0 -1.00079,0c0.10842,2.39755 -0.003,4.73273 -0.3336,7.00552c0,-0.11109 0,-0.22251 0,-0.3336c0,-2.33517 0,-4.67034 0,-7.00552c0.22251,-0.66719 0.44468,-1.33438 0.66719,-2.00158z" fill="#ae2121"/><path d="M374.76208,237.99397c0,0.66719 0,1.33438 0,2.00158c0.43034,-0.07906 0.76393,0.03203 1.00079,0.3336c-0.44368,0 -0.8907,0 -1.33438,0c0.10675,2.39755 -0.00334,4.73273 -0.3336,7.00552c0,-0.11109 0,-0.22251 0,-0.3336c0,-2.33517 0,-4.67034 0,-7.00552c0.22351,-0.66719 0.44368,-1.33438 0.66719,-2.00158z" fill="#b22222"/><path d="M111.55486,239.32836c0.33093,2.60739 0.44235,5.27615 0.3336,8.0063c-1.29135,0.10508 -2.51465,-0.006 -3.66956,-0.3336c1.11188,0 2.22408,0 3.33596,0c0,-2.55768 0,-5.11503 0,-7.67271z" fill="#3d0b0c"/><path d="M166.93178,239.32836c0.33093,2.60739 0.44235,5.27615 0.3336,8.0063c-1.29135,0.10508 -2.51465,-0.006 -3.66956,-0.3336c1.11188,0 2.22408,0 3.33596,0c0,-2.55768 0,-5.11503 0,-7.67271z" fill="#430d0d"/><path d="M214.63602,240.99634c1.22496,-0.1738 2.44793,-0.39598 3.66956,-0.66719c-1.272,-0.422 -2.4953,-0.31058 -3.66956,0.3336c-0.39798,-0.85134 -0.843,-1.68533 -1.33438,-2.50197c2.20807,-1.28234 4.54324,-1.50485 7.00552,-0.66719c0.62649,0.51474 1.12689,1.12622 1.50118,1.83478c0.1668,2.66643 0.22217,5.3352 0.1668,8.0063c-1.21129,0.15612 -2.3235,-0.06639 -3.33596,-0.66719c-1.69634,0.92039 -3.36432,0.86468 -5.00394,-0.1668c-1.59559,-2.2411 -1.26199,-4.07588 1.00079,-5.50433z" fill="#201615"/><path d="M214.96961,237.66038c1.5609,-0.05538 3.11745,0.00033 4.67034,0.1668c0.47738,0.15512 0.86635,0.43334 1.16759,0.83399c0.47871,2.63174 0.64551,5.30051 0.50039,8.0063c-1.03281,0.19782 -1.81109,-0.13577 -2.33517,-1.00079c-1.93819,1.42379 -3.77297,1.3127 -5.50433,-0.3336c-0.57178,-2.24977 0.26221,-3.63953 2.50197,-4.16995c0.99478,-0.16613 1.99557,-0.22184 3.00236,-0.1668c0.06772,-0.6305 -0.15445,-1.13089 -0.66719,-1.50118c-1.13956,-0.2979 -2.19606,-0.1311 -3.16916,0.50039c-0.9264,-0.79362 -0.98211,-1.5719 -0.1668,-2.33517z" fill="#f5f5f5"/><path d="M286.02555,244.99949c0,-0.77828 0,-1.55689 0,-2.33517c0.3336,-0.77828 0.8897,-1.33438 1.66798,-1.66798c1.22496,-0.1738 2.44793,-0.39598 3.66956,-0.66719c-1.272,-0.422 -2.4953,-0.31058 -3.66956,0.3336c-0.39798,-0.85134 -0.843,-1.68533 -1.33438,-2.50197c2.20807,-1.28234 4.54324,-1.50485 7.00552,-0.66719c0.62649,0.51474 1.12689,1.12622 1.50118,1.83478c0.1668,2.66643 0.22217,5.3352 0.1668,8.0063c-1.21129,0.15612 -2.3235,-0.06639 -3.33596,-0.66719c-1.79341,0.96042 -3.51677,0.84934 -5.17074,-0.3336c-0.26387,-0.41533 -0.43067,-0.86001 -0.50039,-1.33438z" fill="#1e1615"/><path d="M288.02712,237.66038c1.5609,-0.05538 3.11745,0.00033 4.67034,0.1668c0.47738,0.15512 0.86635,0.43334 1.16759,0.83399c0.47871,2.63174 0.64551,5.30051 0.50039,8.0063c-1.03281,0.19782 -1.81109,-0.13577 -2.33517,-1.00079c-1.93819,1.42379 -3.77297,1.3127 -5.50433,-0.3336c-0.57178,-2.24977 0.26221,-3.63953 2.50197,-4.16995c0.99478,-0.16613 1.99557,-0.22184 3.00236,-0.1668c0.06772,-0.6305 -0.15445,-1.13089 -0.66719,-1.50118c-1.13956,-0.2979 -2.19606,-0.1311 -3.16916,0.50039c-0.9264,-0.79362 -0.98211,-1.5719 -0.1668,-2.33517z" fill="#f5f5f5"/><path d="M319.38515,240.99634c1.22496,-0.1738 2.44793,-0.39598 3.66956,-0.66719c-1.272,-0.422 -2.4953,-0.31058 -3.66956,0.3336c-0.39798,-0.85134 -0.843,-1.68533 -1.33438,-2.50197c2.20807,-1.28234 4.54324,-1.50485 7.00552,-0.66719c0.62649,0.51474 1.12689,1.12622 1.50118,1.83478c0.1668,2.66643 0.22217,5.3352 0.1668,8.0063c-1.21129,0.15612 -2.3235,-0.06639 -3.33596,-0.66719c-1.69634,0.92039 -3.36432,0.86468 -5.00394,-0.1668c-1.59559,-2.2411 -1.26199,-4.07588 1.00079,-5.50433z" fill="#201615"/><path d="M319.71874,237.66038c1.5609,-0.05538 3.11745,0.00033 4.67034,0.1668c0.47738,0.15512 0.86635,0.43334 1.16759,0.83399c0.47871,2.63174 0.64551,5.30051 0.50039,8.0063c-1.03281,0.19782 -1.81109,-0.13577 -2.33517,-1.00079c-1.93819,1.42379 -3.77297,1.3127 -5.50433,-0.3336c-0.57178,-2.24977 0.26221,-3.63953 2.50197,-4.16995c0.99478,-0.16613 1.99557,-0.22184 3.00236,-0.1668c0.06772,-0.6305 -0.15445,-1.13089 -0.66719,-1.50118c-1.13956,-0.2979 -2.19606,-0.1311 -3.16916,0.50039c-0.9264,-0.79362 -0.98211,-1.5719 -0.1668,-2.33517z" fill="#f5f5f5"/><path d="M183.94519,240.99634c0.33026,1.93819 0.44135,3.93977 0.3336,6.00473c1.11188,0 2.22408,0 3.33596,0c0,0.11109 0,0.22251 0,0.3336c-1.2233,0 -2.44626,0 -3.66956,0c0,-2.11266 0,-4.22566 0,-6.33832z" fill="#430d0d"/><path d="M268.67856,236.99319c2.39789,-0.5044 4.34375,0.16279 5.83793,2.00158c0.56344,2.54801 0.50773,5.10535 -0.1668,7.67271c-2.37654,0.94208 -4.71171,0.83065 -7.00552,-0.3336c-2.04127,-2.52032 -2.20807,-5.18909 -0.50039,-8.0063c0.6722,-0.39931 1.28401,-0.844 1.83478,-1.33438z" fill="#1e1413"/><path d="M274.34969,240.32915c0,0.77828 0,1.55689 0,2.33517c-1.89049,0 -3.78064,0 -5.67113,0c-0.07906,0.43067 0.03203,0.76427 0.3336,1.00079c1.30069,1.52587 2.85758,1.74838 4.67034,0.66719c0.47971,0.83332 0.36829,1.55589 -0.3336,2.16837c-5.44695,1.11321 -7.72642,-1.05516 -6.83872,-6.50512c1.34005,-2.21441 3.28592,-2.93698 5.83793,-2.16837c1.10654,0.49372 1.77373,1.32771 2.00158,2.50197z" fill="#f4f4f4"/><path d="M269.67934,239.32836c1.45148,-0.32259 2.23009,0.23352 2.33517,1.66798c-1.00079,0 -2.00158,0 -3.00236,0c-0.03603,-0.67186 0.18615,-1.22763 0.66719,-1.66798z" fill="#150d0c"/><path d="M269.67934,239.99555c0.59647,-0.09507 1.15257,0.01601 1.66798,0.3336c-0.27789,0.11109 -0.5561,0.22251 -0.83399,0.3336c-0.45903,-0.06138 -0.73691,-0.28389 -0.83399,-0.66719z" fill="#c82626"/><path d="M333.72978,240.99634c0.33026,1.93819 0.44035,3.93977 0.3336,6.00473c1.11087,0 2.22509,0 3.33596,0c-1.15424,0.32759 -2.37854,0.43868 -3.66956,0.3336c0,-2.11266 0,-4.22566 0,-6.33832z" fill="#430d0d"/><path d="M370.42533,240.99634c0.33026,1.93819 0.44035,3.93977 0.3336,6.00473c1.11087,0 2.22509,0 3.33596,0c0,0.11109 0,0.22251 0,0.3336c-1.2243,0 -2.44526,0 -3.66956,0c0,-2.11266 0,-4.22566 0,-6.33832z" fill="#430d0d"/><path d="M181.94361,241.66353c0,1.89049 0,3.78064 0,5.67113c-1.29135,0.10508 -2.51465,-0.006 -3.66956,-0.3336c1.11188,0 2.22408,0 3.33596,0c-0.10708,-1.84345 0.004,-3.62285 0.3336,-5.33754z" fill="#3e0c0c"/><path d="M331.7282,241.66353c0,1.89049 0,3.78064 0,5.67113c-1.29135,0.10508 -2.51465,-0.006 -3.66956,-0.3336c1.11188,0 2.22408,0 3.33596,0c-0.10708,-1.84345 0.004,-3.62285 0.3336,-5.33754z" fill="#3e0c0c"/><path d="M368.42376,241.66353c0,1.89049 0,3.78064 0,5.67113c-1.29102,0.10508 -2.51531,-0.006 -3.66956,-0.3336c1.11087,0 2.22509,0 3.33596,0c-0.10675,-1.84345 0.00334,-3.62285 0.3336,-5.33754z" fill="#3e0c0c"/><path d="M82.532,242.33072c-0.5888,0.32059 -1.25599,0.43201 -2.00158,0.3336c0.10575,1.40177 -0.00567,2.73615 -0.3336,4.00315c0,-1.44547 0,-2.89128 0,-4.33675c0.77828,0 1.55689,0 2.33517,0z" fill="#454545"/><path d="M122.56353,240.66274c0.22251,0.66719 0.44468,1.33438 0.66719,2.00158c-0.11109,0.22251 -0.22251,0.44468 -0.3336,0.66719c-0.11109,0 -0.22251,0 -0.3336,0c0,-0.8897 0,-1.77907 0,-2.66877z" fill="#881a1a"/><path d="M216.63759,242.66432c0.77828,0 1.55689,0 2.33517,0c-0.04804,1.7724 -0.9374,2.49496 -2.66877,2.16837c-0.45236,-0.8053 -0.34094,-1.5282 0.3336,-2.16837z" fill="#231715"/><path d="M274.34969,240.32915c0.32459,0.81664 0.43568,1.70634 0.3336,2.66877c-2.03427,-0.20583 -3.92476,0.01668 -5.67113,0.66719c-0.30157,-0.23652 -0.41266,-0.57012 -0.3336,-1.00079c1.89049,0 3.78064,0 5.67113,0c0,-0.77828 0,-1.55689 0,-2.33517z" fill="#717171"/><path d="M289.6951,242.66432c0.77828,0 1.55689,0 2.33517,0c-0.04804,1.7724 -0.9374,2.49496 -2.66877,2.16837c-0.45236,-0.8053 -0.34094,-1.5282 0.3336,-2.16837z" fill="#231715"/><path d="M321.38672,242.66432c0.77828,0 1.55689,0 2.33517,0c-0.04804,1.7724 -0.9374,2.49496 -2.66877,2.16837c-0.45236,-0.8053 -0.34094,-1.5282 0.3336,-2.16837z" fill="#231715"/><path d="M116.8924,239.66195c0.6762,-0.05404 1.34339,0.00167 2.00158,0.1668c0.86401,1.54722 0.86401,3.10378 0,4.67034c-0.75693,0.25287 -1.47983,0.19716 -2.16837,-0.1668c-0.71089,-1.62395 -0.65518,-3.18084 0.1668,-4.67034z" fill="#1c1312"/><path d="M117.22599,239.99555c0.65085,-0.09107 1.15124,0.1311 1.50118,0.66719c0.22251,1.00079 0.22251,2.00158 0,3.00236c-0.51674,0.83499 -1.07284,0.83499 -1.66798,0c-0.25186,-1.25265 -0.19649,-2.47595 0.1668,-3.66956z" fill="#ed2d2d"/><path d="M285.35836,240.66274c0.22251,0.66719 0.44468,1.33438 0.66719,2.00158c0,0.77828 0,1.55689 0,2.33517c-0.22251,-0.44468 -0.44468,-0.8897 -0.66719,-1.33438c0,-1.00079 0,-2.00158 0,-3.00236z" fill="#8e1b1b"/><path d="M126.90028,242.66432c0.66719,0 1.33438,0 2.00158,0c0.13477,1.9045 -0.69922,2.57169 -2.50197,2.00158c-0.24786,-0.79196 -0.08106,-1.45915 0.50039,-2.00158z" fill="#1b0e0c"/><path d="M126.90028,243.33151c1.59325,0.05704 1.70434,0.39064 0.3336,1.00079c-0.76827,-0.12543 -0.87969,-0.45903 -0.3336,-1.00079z" fill="#ef2e2e"/><path d="M216.63759,243.33151c0.59647,-0.09507 1.15257,0.01601 1.66798,0.3336c-0.38964,0.57278 -0.94574,0.79529 -1.66798,0.66719c0,-0.3336 0,-0.66719 0,-1.00079z" fill="#e72c2c"/><path d="M289.6951,243.33151c0.59647,-0.09507 1.15257,0.01601 1.66798,0.3336c-0.38964,0.57278 -0.94574,0.79529 -1.66798,0.66719c0,-0.3336 0,-0.66719 0,-1.00079z" fill="#e72c2c"/><path d="M321.38672,243.33151c0.59647,-0.09507 1.15257,0.01601 1.66798,0.3336c-0.38964,0.57278 -0.94574,0.79529 -1.66798,0.66719c0,-0.3336 0,-0.66719 0,-1.00079z" fill="#e72c2c"/><path d="M343.40406,234.32442c2.24844,-0.10975 4.47352,0.05704 6.67192,0.50039c2.21174,1.03315 2.93564,2.75684 2.16837,5.17074c-0.37363,0.70856 -0.87402,1.32004 -1.50118,1.83478c1.1409,1.83711 2.3652,3.61651 3.66956,5.33754c-1.45781,0.27622 -2.90228,0.22051 -4.33675,-0.1668c-0.9274,-1.52587 -1.92818,-2.97134 -3.00236,-4.33675c-0.32692,1.37909 -0.44035,2.82489 -0.3336,4.33675c-1.11087,0 -2.22509,0 -3.33596,0c0,-4.22566 0,-8.45099 0,-12.67665z" fill="#19100e"/><path d="M343.73765,234.99161c2.00491,-0.05538 4.00649,0.00033 6.00473,0.1668c2.99569,2.01859 3.10578,4.18696 0.3336,6.50512c1.00079,1.55689 2.00158,3.11345 3.00236,4.67034c-0.87069,0.3843 -1.75805,0.43968 -2.66877,0.1668c-0.76393,-1.13956 -1.48784,-2.30715 -2.16837,-3.50276c-0.48038,-0.5521 -1.09419,-0.77461 -1.83478,-0.66719c0,1.44547 0,2.89128 0,4.33675c-0.8907,0 -1.77807,0 -2.66877,0c0,-3.89206 0,-7.78379 0,-11.67586z" fill="#f2f2f2"/><path d="M346.40642,236.99319c0.92406,-0.02635 1.81476,0.14044 2.66877,0.50039c0.54376,2.17805 -0.3436,3.01204 -2.66877,2.50197c0,-1.00079 0,-2.00158 0,-3.00236z" fill="#1b0d0b"/><path d="M347.07361,237.66038c1.47116,-0.20049 1.91484,0.35561 1.33438,1.66798c-0.41366,0.24886 -0.85734,0.35995 -1.33438,0.3336c0,-0.66719 0,-1.33438 0,-2.00158z" fill="#eb2d2d"/><path d="M95.20866,243.33151c0,0.11109 0,0.22251 0,0.3336c-0.90304,0.35061 -1.84812,0.57312 -2.83557,0.66719c-0.78328,0.08073 -1.3951,-0.19749 -1.83478,-0.83399c1.55289,-0.16646 3.10945,-0.22217 4.67034,-0.1668z" fill="#e22b2b"/><path d="M95.87585,243.33151c-0.22251,0 -0.44468,0 -0.66719,0c-1.5609,-0.05538 -3.11745,0.00033 -4.67034,0.1668c0.43968,0.6365 1.05149,0.91472 1.83478,0.83399c0.98744,-0.09407 1.93252,-0.31658 2.83557,-0.66719c0.32592,0.92973 0.43701,1.93052 0.3336,3.00236c-7.29741,1.87681 -9.91047,-0.79196 -7.83951,-8.0063c2.76284,-2.29614 5.43161,-2.18472 8.0063,0.3336c0.52074,1.4825 0.57645,2.92797 0.1668,4.33675z" fill="#1f1817"/><path d="M89.87112,237.66038c4.11391,-0.77628 6.00439,0.8917 5.67113,5.00394c-1.89049,0 -3.78064,0 -5.67113,0c0.02102,1.63329 0.85501,2.41157 2.50197,2.33517c0.87969,-0.05237 1.71368,-0.27455 2.50197,-0.66719c0.47971,0.83332 0.36829,1.55589 -0.3336,2.16837c-4.86717,1.23998 -7.25771,-0.5948 -7.17231,-5.50433c0.40465,-1.45748 1.23864,-2.56969 2.50197,-3.33596z" fill="#f5f5f5"/><path d="M90.20472,240.32915c0.82999,0.62983 1.83077,0.85234 3.00236,0.66719c-1.04249,0.32659 -2.15436,0.43801 -3.33596,0.3336c-0.07906,-0.43067 0.03203,-0.76427 0.3336,-1.00079z" fill="#8a8a8a"/><path d="M93.20708,240.99634c-1.17159,0.18515 -2.17238,-0.03736 -3.00236,-0.66719c0.51807,-0.91872 1.29635,-1.19661 2.33517,-0.83399c0.51274,0.37029 0.73491,0.87069 0.66719,1.50118z" fill="#0c0807"/><path d="M90.87191,239.99555c0.59647,-0.09507 1.15257,0.01601 1.66798,0.3336c-0.64084,0.38063 -1.30803,0.43634 -2.00158,0.1668c0.18548,-0.12777 0.29657,-0.29457 0.3336,-0.50039z" fill="#be2424"/><path d="M95.20866,243.66511c0,-0.11109 0,-0.22251 0,-0.3336c0.22251,0 0.44468,0 0.66719,0c0.10442,1.1816 -0.00701,2.29347 -0.3336,3.33596c0.10341,-1.07184 -0.00767,-2.07263 -0.3336,-3.00236z" fill="#6b1414"/><path d="M195.95464,243.9987c0.05738,-0.33093 -0.05404,-0.5531 -0.3336,-0.66719c0,-0.8897 0,-1.77907 0,-2.66877c0.27955,-0.11409 0.39097,-0.33626 0.3336,-0.66719c1.24365,-2.73248 3.35631,-3.6779 6.33832,-2.83557c1.85179,0.85167 2.74149,2.29714 2.66877,4.33675c-0.10175,1.74004 -0.32426,3.46373 -0.66719,5.17074c-2.56602,1.02781 -5.01228,0.80563 -7.33911,-0.66719c-0.51307,-0.58146 -0.84667,-1.24865 -1.00079,-2.00158z" fill="#1b1110"/><path d="M199.6242,243.33151c1.44981,-0.05538 2.89528,0.00033 4.33675,0.1668c-1.21496,0.8033 -2.54934,1.02581 -4.00315,0.66719c-0.25086,-0.22384 -0.36229,-0.50173 -0.3336,-0.83399z" fill="#df2b2b"/><path d="M204.29454,240.32915c0.32459,0.81664 0.43568,1.70634 0.3336,2.66877c-2.03427,-0.20583 -3.92476,0.01668 -5.67113,0.66719c-0.30157,-0.23652 -0.41266,-0.57012 -0.3336,-1.00079c1.89049,0 3.78064,0 5.67113,0c0,-0.77828 0,-1.55689 0,-2.33517z" fill="#717171"/><path d="M204.29454,240.32915c0,0.77828 0,1.55689 0,2.33517c-1.89049,0 -3.78064,0 -5.67113,0c-0.07906,0.43067 0.03203,0.76427 0.3336,1.00079c1.30069,1.52587 2.85758,1.74838 4.67034,0.66719c0.47971,0.83332 0.36829,1.55589 -0.3336,2.16837c-5.44695,1.11321 -7.72642,-1.05516 -6.83872,-6.50512c1.34005,-2.21441 3.28592,-2.93698 5.83793,-2.16837c1.10654,0.49372 1.77373,1.32771 2.00158,2.50197z" fill="#f4f4f4"/><path d="M199.6242,239.32836c1.45148,-0.32259 2.23009,0.23352 2.33517,1.66798c-1.00079,0 -2.00158,0 -3.00236,0c-0.03603,-0.67186 0.18615,-1.22763 0.66719,-1.66798z" fill="#150d0c"/><path d="M199.6242,239.99555c0.59647,-0.09507 1.15257,0.01601 1.66798,0.3336c-0.27789,0.11109 -0.5561,0.22251 -0.83399,0.3336c-0.45903,-0.06138 -0.73691,-0.28389 -0.83399,-0.66719z" fill="#c82626"/><path d="M269.67934,243.33151c1.44981,-0.05538 2.89528,0.00033 4.33675,0.1668c-1.21496,0.8033 -2.54934,1.02581 -4.00315,0.66719c-0.25086,-0.22384 -0.36229,-0.50173 -0.3336,-0.83399z" fill="#df2b2b"/><path d="M313.04682,233.65723c1.2233,0 2.44626,0 3.66956,0c0,4.55926 0,9.11818 0,13.67743c-1.20462,0.15212 -2.31649,-0.07039 -3.33596,-0.66719c-3.25256,1.45948 -5.30985,0.45869 -6.17153,-3.00236c-0.60648,-2.62807 0.11609,-4.79644 2.16837,-6.50512c1.13222,-0.25086 2.2441,-0.19515 3.33596,0.1668c0.32993,-1.20328 0.44135,-2.42658 0.3336,-3.66956z" fill="#191211"/><path d="M313.71402,233.99082c0.77828,0 1.55689,0 2.33517,0c0,4.22566 0,8.45099 0,12.67665c-1.05149,0.15112 -1.88548,-0.18248 -2.50197,-1.00079c-1.08652,0.97677 -2.36553,1.25499 -3.83635,0.83399c-0.96109,-0.41733 -1.57257,-1.1399 -1.83478,-2.16837c-0.37029,-1.97689 -0.14812,-3.86704 0.66719,-5.67113c1.22797,-0.95408 2.61806,-1.23197 4.16995,-0.83399c0.27789,0.27789 0.5561,0.5561 0.83399,0.83399c0.16646,-1.55289 0.22217,-3.10945 0.1668,-4.67034z" fill="#f4f4f4"/><path d="M311.04525,239.66195c0.95575,-0.14845 1.78974,0.07406 2.50197,0.66719c0.32626,1.46782 0.15946,2.85792 -0.50039,4.16995c-0.94975,0.31491 -1.78374,0.14812 -2.50197,-0.50039c-0.34094,-1.54422 -0.17414,-2.98969 0.50039,-4.33675z" fill="#201311"/><path d="M311.04525,240.32915c0.65618,-0.07973 1.268,0.03136 1.83478,0.3336c0.26321,1.19794 0.2075,2.36553 -0.1668,3.50276c-0.90638,0.3446 -1.5182,0.06672 -1.83478,-0.83399c-0.2115,-1.01914 -0.15612,-2.01992 0.1668,-3.00236z" fill="#eb2d2d"/><path d="M195.62105,243.33151c0.27955,0.11409 0.39097,0.33626 0.3336,0.66719c-0.22251,1.00079 -0.44468,2.00158 -0.66719,3.00236c0.10341,-1.07184 -0.00767,-2.07263 -0.3336,-3.00236c0.22251,-0.22251 0.44468,-0.44468 0.66719,-0.66719z" fill="#661314"/><path d="M399.44818,243.9987c0.02002,-0.18114 0.1301,-0.29223 0.3336,-0.3336c0.43701,1.16091 0.43701,2.27279 0,3.33596c0.10341,-1.07184 -0.00667,-2.07263 -0.3336,-3.00236z" fill="#691414"/><path d="M150.91919,242.66432c0.77828,0 1.55689,0 2.33517,0c0.05871,1.88715 -0.83099,2.61005 -2.66877,2.16837c-0.45236,-0.8053 -0.34094,-1.5282 0.3336,-2.16837z" fill="#1c1312"/><path d="M150.91919,243.33151c0.59647,-0.09507 1.15257,0.01601 1.66798,0.3336c-0.38964,0.57278 -0.94574,0.79529 -1.66798,0.66719c0,-0.3336 0,-0.66719 0,-1.00079z" fill="#f12e2e"/><path d="M354.07913,244.3323c0,-2.33517 0,-4.67034 0,-7.00552c1.11087,0 2.22509,0 3.33596,0c-0.10675,2.17571 0.00334,4.28838 0.3336,6.33832c0.74058,0.92439 1.3544,0.81331 1.83478,-0.3336c0.1668,-2.10999 0.22351,-4.22266 0.1668,-6.33832c1.2243,0 2.44526,0 3.66956,0c0,3.44705 0,6.89443 0,10.34147c-1.20428,0.15212 -2.31516,-0.07039 -3.33596,-0.66719c-2.01492,1.05516 -3.8497,0.83266 -5.50433,-0.66719c-0.33693,-0.50873 -0.50373,-1.06484 -0.50039,-1.66798z" fill="#1d1615"/><path d="M354.41272,237.66038c0.8907,0 1.77807,0 2.66877,0c-0.05671,2.22675 0,4.45084 0.1668,6.67192c1.34439,0.64851 2.34518,0.31491 3.00236,-1.00079c0.1668,-1.88715 0.22351,-3.77764 0.1668,-5.67113c0.77728,0 1.55789,0 2.33517,0c0,3.00236 0,6.00473 0,9.00709c-0.66719,0 -1.33438,0 -2.00158,0c-0.15679,-1.21996 -0.60381,-1.27567 -1.33438,-0.1668c-1.11087,0.22251 -2.22509,0.22251 -3.33596,0c-0.47704,-0.15512 -0.86735,-0.43334 -1.16759,-0.83399c-0.46703,-2.64041 -0.63383,-5.30918 -0.50039,-8.0063z" fill="#f4f4f4"/><path d="M343.40406,234.32442c0,4.22566 0,8.45099 0,12.67665c1.11087,0 2.22509,0 3.33596,0c-0.10675,-1.51186 0.00667,-2.95766 0.3336,-4.33675c0,1.55689 0,3.11345 0,4.67034c-1.33438,0 -2.66877,0 -4.00315,0c-0.11009,-4.39579 0,-8.73254 0.3336,-13.01024z" fill="#621314"/><path d="M251.99876,244.3323c1.11188,0 2.22408,0 3.33596,0c-0.10442,1.64863 -0.54943,3.20552 -1.33438,4.67034c-0.97677,0.32826 -1.97756,0.43935 -3.00236,0.3336c0.44101,-1.64396 0.77461,-3.31194 1.00079,-5.00394z" fill="#160a08"/><path d="M253.66674,248.66905c-0.76093,0.14111 -1.31704,-0.0814 -1.66798,-0.66719c0.11109,-1.11188 0.22251,-2.22408 0.3336,-3.33596c0.8897,0 1.77907,0 2.66877,0c-0.37763,1.35507 -0.82231,2.68945 -1.33438,4.00315z" fill="#ececec"/><path d="M251.99876,248.00185c0.35094,0.58579 0.90705,0.8083 1.66798,0.66719c-0.5888,0.32059 -1.25599,0.43201 -2.00158,0.3336c-0.07906,-0.43067 0.03203,-0.76427 0.3336,-1.00079z" fill="#696969"/><path d="M138.24254,236.99319c1.267,0.32792 2.60138,0.43935 4.00315,0.3336c0.06739,0.81731 -0.0437,1.59559 -0.3336,2.33517c-0.1321,1.98957 -1.13289,3.49075 -3.00236,4.50355c2.81622,0.23418 3.87238,1.73537 3.16916,4.50355c-0.93107,1.55155 -2.32116,2.38554 -4.16995,2.50197c-1.92552,0.43034 -3.64921,0.04103 -5.17074,-1.16759c-0.40098,-0.72624 -0.56778,-1.50485 -0.50039,-2.33517c0.27955,-0.11409 0.39097,-0.33626 0.3336,-0.66719c0.32559,-0.43868 0.65919,-0.88336 1.00079,-1.33438c-0.45669,-0.90104 -0.34561,-1.73503 0.3336,-2.50197c-1.3087,-1.78941 -1.3087,-3.56848 0,-5.33754c1.34973,-0.72524 2.7952,-1.00312 4.33675,-0.83399z" fill="#1e1311"/><path d="M135.24017,237.66038c2.22408,0 4.44784,0 6.67192,0c0.0864,0.99412 -0.35828,1.6056 -1.33438,1.83478c0.65118,1.81343 0.09541,3.14781 -1.66798,4.00315c-0.99478,0.16613 -1.99557,0.22184 -3.00236,0.1668c0,0.3336 0,0.66719 0,1.00079c1.59025,-0.10308 3.14714,0.06372 4.67034,0.50039c1.88382,2.89695 1.10554,4.67601 -2.33517,5.33754c-1.95287,0.47004 -3.67656,0.08106 -5.17074,-1.16759c-0.5481,-1.64396 -0.0477,-2.81155 1.50118,-3.50276c-0.92239,-0.98945 -0.81131,-1.87915 0.3336,-2.66877c-0.50039,-0.27789 -0.8897,-0.66719 -1.16759,-1.16759c-0.58613,-1.89316 -0.08573,-3.33863 1.50118,-4.33675z" fill="#f2f2f2"/><path d="M135.90737,246.66747c1.00679,-0.05504 2.00758,0.00067 3.00236,0.1668c0.82999,1.08986 0.49639,1.75705 -1.00079,2.00158c-0.77828,0.22251 -1.55689,0.22251 -2.33517,0c-0.90838,-0.88703 -0.79729,-1.6096 0.3336,-2.16837z" fill="#221d1d"/><path d="M135.90737,247.33466c1.02481,-0.10575 2.02559,0.00534 3.00236,0.3336c-1.03381,0.71256 -2.14569,0.82398 -3.33596,0.3336c0.1211,-0.22785 0.23218,-0.45035 0.3336,-0.66719z" fill="#e22b2b"/><path d="M136.57456,238.99476c0.54843,-0.07139 1.04883,0.04003 1.50118,0.3336c0.25654,0.86702 0.20082,1.70101 -0.1668,2.50197c-1.86147,0.42066 -2.47295,-0.30224 -1.83478,-2.16837c0.23919,-0.18148 0.40599,-0.40398 0.50039,-0.66719z" fill="#1b1210"/><path d="M136.57456,239.66195c1.28434,0.06705 1.61794,0.67853 1.00079,1.83478c-0.31625,0.16113 -0.64984,0.2165 -1.00079,0.1668c0,-0.66719 0,-1.33438 0,-2.00158z" fill="#e32b2b"/><path d="M279.68722,247.00107c0,1.44547 0,2.89128 0,4.33675c-1.29135,0.10508 -2.51465,-0.006 -3.66956,-0.3336c1.11188,0 2.22408,0 3.33596,0c-0.10575,-1.40177 0.00567,-2.73615 0.3336,-4.00315z" fill="#430d0d"/></g></g></svg>