<svg version="1.1" xmlns="http://www.w3.org/2000/svg" xmlns:xlink="http://www.w3.org/1999/xlink" width="386.6087" height="359.89561" viewBox="0,0,386.6087,359.89561"><g transform="translate(-46.69565,-0.0522)"><g fill-rule="evenodd" stroke="none" stroke-miterlimit="10"><path d="M79.81109,0.0522c106.83957,0 213.67882,0 320.51839,0c8.33939,1.724 13.53591,6.75431 15.58303,15.09094c0.36743,3.15919 0.58723,6.33046 0.65613,9.51385c4.40918,5.4355 6.92543,11.66857 7.54546,18.69964c0.10826,3.17139 0.21981,6.34246 0.32806,9.51385c2.21771,1.87062 4.78973,2.90927 7.7095,3.11661c1.41724,1.15708 1.52878,2.36009 0.32806,3.60871c-2.86728,0.23785 -5.54756,1.05801 -8.03756,2.46048c-0.10826,89.01456 -0.21981,178.02943 -0.32806,267.04399c-2.67372,16.4524 -12.13508,26.56989 -28.37752,30.34591c-48.65516,0.38056 -97.31916,0.54459 -145.98842,0.4921c-47.6785,-0.05578 -95.35734,-0.10826 -143.03584,-0.16403c-6.89131,-0.71518 -13.01528,-3.22815 -18.37158,-7.54546c-5.69847,0.4921 -11.05673,-0.60364 -16.07513,-3.28064c-4.74938,-3.31673 -7.53793,-7.85713 -8.36562,-13.61465c-0.10925,-13.34137 -0.21881,-26.68242 -0.32806,-40.02379c0.04954,-5.44061 -1.15347,-10.58039 -3.60871,-15.419c-2.8768,-4.42164 -6.97759,-6.88212 -12.30239,-7.38144c-1.00748,-0.92613 -1.22631,-2.01956 -0.65613,-3.28064c6.91066,-1.2227 11.66759,-5.10467 14.27078,-11.64626c0.96517,-2.5484 1.6213,-5.17291 1.96838,-7.87353c0.4337,-77.74622 0.65252,-155.49735 0.65613,-233.2534c1.71447,-8.98606 7.01827,-14.4538 15.9111,-16.40319z" fill="#232020" opacity="0.984"/><path d="M79.48302,3.98896c106.62076,-0.05468 213.24152,0 319.86226,0.16403c7.22725,1.2116 11.54456,5.42175 12.95852,12.63046c0.21981,5.24903 0.21981,10.49804 0,15.74707c-0.01968,6.61705 -1.87981,12.63144 -5.57709,18.04351c-2.91649,3.34461 -6.57768,5.36745 -10.99014,6.06919c-0.43632,0.87494 -0.43632,1.74957 0,2.62451c8.32298,1.3244 13.51952,6.08132 15.58303,14.27078c0.61676,3.24948 0.94482,6.53012 0.98419,9.84191c0.21981,83.87511 0.21981,167.74988 0,251.62498c-1.49269,7.17804 -5.81001,11.49864 -12.95852,12.95852c-106.40193,0.21981 -212.8042,0.21981 -319.20613,0c-6.87261,-1.51566 -10.9734,-5.72472 -12.30239,-12.63046c-0.31658,-15.31894 -0.20701,-30.6287 0.32806,-45.92894c0.77915,-4.85896 2.63829,-9.23303 5.57709,-13.12255c2.58449,-2.53922 5.7011,-3.79668 9.34982,-3.77274c1.61211,-1.0403 1.72135,-2.24297 0.32806,-3.60871c-6.74171,-1.27158 -11.27982,-5.15388 -13.61465,-11.64626c-1.06228,-2.74918 -1.71839,-5.59218 -1.96838,-8.52966c-0.21881,-77.42307 -0.21881,-154.84615 0,-232.26921c1.47498,-6.44934 5.35728,-10.60482 11.64626,-12.46643z" fill="#da4130"/><path d="M414.10817,44.34082c1.58127,4.08997 3.87771,7.75346 6.88935,10.99014c1.09245,0.76538 2.18818,1.53107 3.28064,2.29645c-2.44407,1.19448 -4.46823,2.88926 -6.06919,5.08499c-1.57471,2.38076 -2.88696,4.89602 -3.93677,7.54546c-1.85356,-5.51377 -5.29823,-9.66935 -10.33401,-12.46643c5.05875,-3.22749 8.44765,-7.71082 10.16998,-13.45062z" fill="#fbfbfb"/><path d="M240.89044,114.21842c13.2318,0 26.46393,0 39.69572,0c-0.10925,24.22259 0.00033,48.39008 0.32806,72.50211c4.5929,0 9.18578,0 13.77868,0c0,13.77868 0,27.55736 0,41.33604c-4.5929,0 -9.18578,0 -13.77868,0c0,7.98278 0,15.96588 0,23.94866c-15.52825,0 -31.05682,0 -46.58507,0c0,-7.98278 0,-15.96588 0,-23.94866c-16.40319,0 -32.80639,0 -49.20958,0c-0.05478,-10.60794 0,-21.21523 0.16403,-31.8222c18.60811,-27.29951 37.14372,-54.63838 55.60682,-82.01596z" fill="#232020"/><path d="M240.89044,114.21842c13.2856,-0.32774 26.62664,-0.43699 40.02379,-0.32806c0,24.27672 0,48.55345 0,72.83018c-0.32774,-24.11204 -0.43731,-48.27952 -0.32806,-72.50211c-13.2318,0 -26.46393,0 -39.69572,0z" fill="#512924"/><path d="M269.432,125.37259c0,24.27672 0,48.55345 0,72.83018c4.5929,0 9.18578,0 13.77868,0c0,6.12397 0,12.24761 0,18.37158c-4.5929,0 -9.18578,0 -13.77868,0c0,7.98278 0,15.96588 0,23.94866c-7.87353,0 -15.74707,0 -23.62059,0c0,-7.87353 0,-15.74707 0,-23.62059c-16.34775,-0.32774 -32.75094,-0.43699 -49.20958,-0.32806c0,-5.57709 0,-11.15417 0,-16.73126c16.72273,-24.70813 33.45399,-49.4225 50.19378,-74.14243c7.54219,-0.32806 15.08765,-0.43731 22.6364,-0.32806z" fill="#fefefe"/><path d="M245.81141,197.8747c-9.24221,0.10858 -18.428,-0.00065 -27.55736,-0.32806c7.15933,-10.81659 14.32196,-21.6427 21.48819,-32.47832c2.29874,-3.72155 4.43116,-7.54907 6.39725,-11.48223c0.29788,3.71696 0.24342,7.43492 -0.16403,11.15417c-0.16403,11.04426 -0.21881,22.0892 -0.16403,33.13445z" fill="#242121"/><path d="M218.25404,197.54664c9.12936,0.32741 18.31515,0.43665 27.55736,0.32806c-9.24156,0.43599 -18.53659,0.43599 -27.88543,0c0.04068,-0.19914 0.14993,-0.30839 0.32806,-0.32806z" fill="#c8c7c7"/><path d="M269.432,125.37259c0.32774,24.11204 0.43731,48.27952 0.32806,72.50211c4.5929,0 9.18578,0 13.77868,0c0,6.34246 0,12.68525 0,19.02771c-4.5929,0 -9.18578,0 -13.77868,0c0,7.98278 0,15.96588 0,23.94866c-8.03953,0.10858 -16.02231,-0.00065 -23.94866,-0.32806c7.87353,0 15.74707,0 23.62059,0c0,-7.98278 0,-15.96588 0,-23.94866c4.5929,0 9.18578,0 13.77868,0c0,-6.12397 0,-12.24761 0,-18.37158c-4.5929,0 -9.18578,0 -13.77868,0c0,-24.27672 0,-48.55345 0,-72.83018z" fill="#9d9c9c"/><path d="M196.60182,199.84308c0,5.57709 0,11.15417 0,16.73126c16.45863,-0.10892 32.86183,0.00033 49.20958,0.32806c-16.51244,0 -33.0252,0 -49.53765,0c-0.10826,-5.74374 0.00098,-11.43007 0.32806,-17.05932z" fill="#bab8b8"/><path d="M65.37628,257.25426c1.53337,3.16877 3.33773,6.23092 5.41306,9.18578c1.54584,1.38377 3.1317,2.69603 4.75693,3.93677c-4.79957,3.02146 -8.02543,7.2863 -9.67788,12.79449c-1.91753,-5.6322 -5.47145,-9.84224 -10.66207,-12.63046c5.09122,-3.12973 8.4811,-7.55859 10.16998,-13.28659z" fill="#fbfbfb"/></g></g></svg>