<svg version="1.1" xmlns="http://www.w3.org/2000/svg" xmlns:xlink="http://www.w3.org/1999/xlink" width="382.10645" height="355.70444" viewBox="0,0,382.10645,355.70444"><g transform="translate(-48.94678,-2.14778)"><g fill-rule="evenodd" stroke="none" stroke-miterlimit="10"><path d="M81.67656,2.14779c105.59538,0 211.19042,0 316.78579,0c8.24227,1.70392 13.37828,6.67565 15.40156,14.9152c0.36315,3.1224 0.58039,6.25673 0.64849,9.40306c4.35784,5.37219 6.84478,11.53269 7.4576,18.48187c0.107,3.13446 0.21724,6.2686 0.32424,9.40306c2.19189,1.84884 4.73395,2.87539 7.61972,3.08032c1.40074,1.1436 1.51097,2.33261 0.32424,3.56667c-2.83389,0.23507 -5.48295,1.04568 -7.94397,2.43183c-0.107,87.97794 -0.21724,175.95619 -0.32424,263.93412c-2.64258,16.2608 -11.99376,26.26047 -28.04705,29.99251c-48.08853,0.37612 -96.18582,0.53824 -144.28831,0.48637c-47.12327,-0.05512 -94.24685,-0.107 -141.37011,-0.16212c-6.81106,-0.70686 -12.86371,-3.19055 -18.15763,-7.4576c-5.63211,0.48637 -10.92797,-0.59661 -15.88792,-3.24244c-4.69407,-3.2781 -7.45014,-7.76563 -8.26821,-13.4561c-0.10798,-13.18601 -0.21627,-26.37169 -0.32424,-39.55769c0.04896,-5.37725 -1.14004,-10.45717 -3.56667,-15.23944c-2.84329,-4.37016 -6.89634,-6.80198 -12.15913,-7.29548c-0.99575,-0.91534 -1.21203,-1.99604 -0.64849,-3.24244c6.83019,-1.20845 11.53172,-5.04522 14.10459,-11.51064c0.95392,-2.51872 1.60241,-5.11267 1.94546,-7.78184c0.42865,-76.84082 0.64492,-153.6865 0.64849,-230.53705c1.69449,-8.88142 6.93653,-14.28548 15.7258,-16.21217z" fill="#232020" opacity="0.984"/><path d="M81.35232,6.03871c105.37911,-0.05405 210.7582,0 316.13731,0.16212c7.12687,1.183 11.39715,5.34412 12.80762,12.48337c0.34046,7.3685 0.12645,14.71799 -0.64849,22.04855c-0.88843,5.61816 -3.43049,10.31969 -7.61972,14.10459c-2.52262,1.53172 -5.22356,2.61243 -8.10609,3.24244c-0.43125,0.86476 -0.43125,1.72919 0,2.59395c8.22606,1.30897 13.36207,6.0105 15.40156,14.10459c0.64849,3.20612 0.97273,6.44855 0.97273,9.7273c0.21724,82.89833 0.21724,165.79635 0,248.69468c-1.42667,6.93881 -5.58671,11.20909 -12.48337,12.80762c-105.27113,0.21724 -210.54193,0.21724 -315.81307,0c-6.78836,-1.49152 -10.8414,-5.6548 -12.15913,-12.48337c-0.3129,-15.14054 -0.20459,-30.27201 0.32424,-45.39408c0.64394,-4.85522 2.48111,-9.17868 5.51214,-12.96974c2.55439,-2.50964 5.6347,-3.75247 9.24094,-3.72879c1.59334,-1.02817 1.7013,-2.21685 0.32424,-3.56667c-4.41847,-0.45167 -7.93132,-2.45128 -10.53791,-5.9985c-2.77812,-4.22619 -4.39933,-8.87356 -4.86365,-13.94246c-0.21627,-76.73771 -0.21627,-153.4751 0,-230.21281c1.7373,-6.00631 5.57439,-9.89724 11.51064,-11.67276z" fill="#2ab7a1"/><path d="M412.08058,45.92064c1.56286,4.04235 3.83256,7.66317 6.80911,10.86215c1.07973,0.75646 2.1627,1.51325 3.24244,2.2697c-2.41561,1.18057 -4.41619,2.85561 -5.9985,5.02577c-1.55636,2.35304 -2.85334,4.83901 -3.89092,7.4576c-1.83197,-5.44956 -5.23653,-9.55675 -10.21367,-12.32125c4.99983,-3.18991 8.34926,-7.62101 10.05155,-13.29398z" fill="#fbfbfb"/><path d="M244.77098,250.84247c-16.67616,0.43125 -33.32055,0.43125 -49.93348,0c13.96257,-30.84333 28.01301,-61.64645 42.15164,-92.40937c0.29312,-0.22989 0.40109,-0.55413 0.32424,-0.97273c-16.64439,0 -33.28909,0 -49.93348,0c0,-14.15873 0,-28.31715 0,-42.47588c34.69404,0 69.38809,0 104.08213,0c0.05415,9.72795 0,19.45525 -0.16212,29.18191c-15.54293,35.55329 -31.05279,71.11177 -46.52892,106.67608z" fill="#232020"/><path d="M280.11351,141.57245c0,-5.07992 0,-10.15951 0,-15.23944c-27.12847,0 -54.25662,0 -81.38509,0c0,6.70113 0,13.40195 0,20.1031c-0.32327,-6.75302 -0.43157,-13.56213 -0.32424,-20.42733c27.34442,0 54.68916,0 82.03357,0c0.107,5.24463 -0.0013,10.43253 -0.32424,15.56368z" fill="#9a9999"/><path d="M280.11351,141.57245c-14.17819,32.78782 -28.4449,65.5364 -42.80013,98.24575c-8.37812,0.10732 -16.70015,-0.00065 -24.96674,-0.32424c14.02417,-31.02134 28.18291,-61.98658 42.47588,-92.89573c-18.69782,-0.16212 -37.39564,-0.21627 -56.0941,-0.16212c0,-6.70113 0,-13.40195 0,-20.1031c27.12847,0 54.25662,0 81.38509,0c0,5.07992 0,10.15951 0,15.23944z" fill="#fefefe"/><path d="M187.3799,157.46037c16.64439,0 33.28909,0 49.93348,0c0.07684,0.4186 -0.03112,0.74284 -0.32424,0.97273c-16.47967,-0.53987 -33.01609,-0.86411 -49.60924,-0.97273z" fill="#276b60"/><path d="M212.34665,239.49394c8.26658,0.3236 16.58861,0.43157 24.96674,0.32424c-8.37715,0.43092 -16.80748,0.43092 -25.29098,0c0.04021,-0.19682 0.14818,-0.30479 0.32424,-0.32424z" fill="#c8c7c7"/><path d="M194.8375,250.84247c16.61294,0.43125 33.25732,0.43125 49.93348,0c-8.26529,0.43222 -16.64179,0.64849 -25.12886,0.64849c-8.37618,-0.10798 -16.75268,-0.21627 -25.12886,-0.32424c0.04021,-0.19682 0.14818,-0.30479 0.32424,-0.32424z" fill="#299180"/><path d="M67.40985,256.3546c1.51551,3.13187 3.29885,6.15836 5.35002,9.07881c1.52783,1.36766 3.09523,2.66463 4.70153,3.89092c-4.74368,2.98628 -7.93196,7.20145 -9.56518,12.6455c-1.8952,-5.56662 -5.40773,-9.72763 -10.53791,-12.48337c5.03193,-3.09328 8.38234,-7.47057 10.05155,-13.13185z" fill="#fbfbfb"/></g></g></svg>