<svg version="1.1" xmlns="http://www.w3.org/2000/svg" xmlns:xlink="http://www.w3.org/1999/xlink" width="384.88429" height="358.29035" viewBox="0,0,384.88429,358.29035"><g transform="translate(-47.55785,-0.85483)"><g fill-rule="evenodd" stroke="none" stroke-miterlimit="10"><path d="M80.52558,0.85483c106.36304,0 212.72574,0 319.08878,0c8.30219,1.71631 13.47554,6.72418 15.51353,15.02363c0.3658,3.14509 0.58462,6.30222 0.6532,9.47142c4.38952,5.41125 6.89454,11.61653 7.51181,18.61623c0.10778,3.15725 0.21882,6.31417 0.3266,9.47142c2.20782,1.86228 4.76837,2.89629 7.67511,3.1027c1.41091,1.15192 1.52196,2.34956 0.3266,3.59261c-2.85449,0.23679 -5.52281,1.05328 -8.00171,2.4495c-0.10778,88.61752 -0.21882,177.23537 -0.3266,265.85288c-2.6618,16.37902 -12.08096,26.45138 -28.25095,30.21055c-48.43814,0.37885 -96.88508,0.54215 -145.33726,0.4899c-47.46584,-0.05552 -94.93202,-0.10778 -142.39786,-0.1633c-6.86057,-0.71199 -12.95723,-3.21375 -18.28963,-7.51181c-5.67305,0.4899 -11.00742,-0.60094 -16.00343,-3.266c-4.72819,-3.30193 -7.5043,-7.82209 -8.32832,-13.55393c-0.10876,-13.28186 -0.21785,-26.5634 -0.3266,-39.84527c0.04932,-5.41635 -1.14833,-10.5332 -3.59261,-15.35023c-2.86396,-4.40193 -6.94646,-6.85143 -12.24752,-7.34851c-1.00299,-0.92199 -1.22083,-2.01055 -0.6532,-3.266c6.87985,-1.21724 11.61555,-5.0819 14.20712,-11.59432c0.96086,-2.53703 1.61406,-5.14984 1.95961,-7.83841c0.43177,-77.39944 0.64961,-154.80379 0.6532,-232.21302c1.70682,-8.94598 6.98697,-14.38933 15.84013,-16.33003z" fill="#232020" opacity="0.984"/><path d="M80.19898,4.77404c106.14519,-0.05444 212.29039,0 318.43558,0.1633c7.17868,1.1916 11.48002,5.38297 12.90073,12.57412c0.34293,7.42206 0.12737,14.82499 -0.6532,22.20884c-0.89488,5.65901 -3.45543,10.39471 -7.67511,14.20712c-2.54096,1.54286 -5.26154,2.63142 -8.16502,3.266c-0.43438,0.87105 -0.43438,1.74176 0,2.6128c8.28586,1.31849 13.45922,6.05419 15.51353,14.20712c0.6532,3.22943 0.9798,6.49543 0.9798,9.79801c0.21882,83.50099 0.21882,167.00166 0,250.50265c-1.43705,6.98925 -5.62733,11.29058 -12.57412,12.90073c-106.03644,0.21882 -212.07254,0.21882 -318.10898,0c-6.83771,-1.50237 -10.92022,-5.69591 -12.24752,-12.57412c-0.31517,-15.25061 -0.20609,-30.49208 0.3266,-45.72408c0.64863,-4.89052 2.49915,-9.24541 5.55221,-13.06403c2.57296,-2.52789 5.67566,-3.77975 9.30812,-3.75591c1.60491,-1.03565 1.71368,-2.23296 0.3266,-3.59261c-4.45059,-0.45496 -7.98898,-2.4691 -10.61452,-6.04211c-2.79831,-4.25691 -4.43132,-8.93807 -4.89901,-14.04382c-0.21785,-77.29558 -0.21785,-154.59084 0,-231.88642c1.74993,-6.04998 5.61492,-9.96919 11.59432,-11.75762z" fill="#2bb7a1"/><path d="M413.33159,44.9459c1.57421,4.07173 3.86042,7.71887 6.85861,10.94112c1.08758,0.76196 2.17843,1.52424 3.266,2.2862c-2.43318,1.18916 -4.4483,2.87638 -6.04211,5.06231c-1.56769,2.37014 -2.87408,4.87418 -3.91921,7.51181c-1.84529,-5.48918 -5.2746,-9.62623 -10.28791,-12.41082c5.03619,-3.21309 8.40996,-7.67642 10.12461,-13.39063z" fill="#fbfbfb"/><path d="M247.74508,113.20543c6.53299,-0.05455 13.065,0 19.59604,0.1633c5.46991,0.82205 10.91336,1.74731 16.33003,2.7761c0.05455,14.26199 0,28.52366 -0.1633,42.78468c-6.25244,-1.41385 -12.5124,-2.7748 -18.77953,-4.08251c-3.70136,-0.21785 -7.40306,-0.21785 -11.10442,0c18.89613,2.67356 31.03456,13.17899 36.41597,31.51696c2.93189,12.72109 2.27869,25.24099 -1.95961,37.55906c-7.23159,16.90975 -20.02323,26.54446 -38.37557,28.90416c-34.63632,2.13825 -54.83134,-13.91971 -60.58441,-48.17359c-1.96613,-17.10276 -0.44222,-33.86815 4.57241,-50.29649c7.42134,-21.03111 21.95507,-34.14969 43.60118,-39.35537c3.53578,-0.5709 7.01963,-1.16956 10.45122,-1.79631z" fill="#232020"/><path d="M249.70469,124.30985c7.64441,-0.14272 15.26531,0.18388 22.86204,0.9798c0,6.53201 0,13.06403 0,19.59604c-11.03355,-2.57328 -21.92012,-2.08338 -32.66006,1.46971c-10.05538,4.69097 -15.77089,12.58393 -17.14653,23.67854c-0.45136,3.03412 -0.72342,6.08261 -0.8165,9.14482c0.34359,0.04866 0.67019,-0.00555 0.9798,-0.1633c4.30786,-7.16627 10.62236,-11.41208 18.94283,-12.73743c10.26473,-1.54352 19.51831,0.74269 27.76105,6.85861c6.79232,6.64632 10.43947,14.75679 10.94112,24.33175c0.78808,9.79965 -1.06276,19.05322 -5.55221,27.76105c-6.43501,9.78104 -15.52529,15.27903 -27.27115,16.49333c-24.24617,2.11767 -39.65095,-8.49684 -46.21398,-31.84356c-0.62446,-3.36366 -1.16891,-6.73875 -1.63301,-10.12461c-1.13102,-13.29199 0.0663,-26.35602 3.59261,-39.19207c5.75373,-18.81774 18.21876,-30.41206 37.39576,-34.78296c2.97696,-0.54086 5.91637,-1.03075 8.81822,-1.46971z" fill="#fefefe"/><path d="M238.92687,184.40436c10.462,-0.69043 16.50411,4.09982 18.12633,14.37042c0.54641,6.19594 -0.54248,12.07475 -3.266,17.63644c-2.36687,3.55276 -5.68742,5.56691 -9.96131,6.04211c-6.24036,0.93474 -11.30266,-1.07908 -15.18693,-6.04211c-4.17265,-5.90722 -5.6969,-12.43923 -4.57241,-19.59604c2.65102,-6.95137 7.60457,-11.08809 14.86032,-12.41082z" fill="#242121"/><path d="M239.25348,195.83538c1.6366,-0.05422 3.2696,0.00032 4.89901,0.1633c0.70285,0.80638 1.19275,1.73164 1.46971,2.7761c0.26356,2.95443 0.15481,5.89383 -0.3266,8.81822c-0.83087,3.72325 -2.95378,4.75726 -6.36871,3.1027c-3.25261,-3.19154 -4.50447,-7.05653 -3.75591,-11.59432c1.1235,-1.39687 2.48445,-2.48543 4.08251,-3.266z" fill="#2bb5a0"/><path d="M66.15516,256.90969c1.52653,3.15463 3.32283,6.20312 5.38891,9.14482c1.53894,1.3776 3.11773,2.68401 4.73571,3.91921c-4.77816,3.00799 -7.98963,7.2538 -9.63472,12.73743c-1.90898,-5.60707 -5.44704,-9.79835 -10.61452,-12.57412c5.06851,-3.11577 8.44328,-7.52488 10.12461,-13.22733z" fill="#fbfbfb"/></g></g></svg>