<svg version="1.1" xmlns="http://www.w3.org/2000/svg" xmlns:xlink="http://www.w3.org/1999/xlink" width="391.92995" height="364.84919" viewBox="0,0,391.92995,364.84919"><g transform="translate(-44.03502,2.42459)"><g fill-rule="evenodd" stroke="none" stroke-miterlimit="10"><path d="M77.60623,-2.42457c108.31011,0 216.61988,0 324.92999,0c8.45416,1.74774 13.72223,6.84727 15.79751,15.29865c0.37248,3.20268 0.59532,6.41759 0.66516,9.6448c4.46987,5.51031 7.02075,11.82918 7.64933,18.95702c0.10975,3.21504 0.22282,6.42976 0.33258,9.6448c2.24824,1.89637 4.85566,2.94931 7.81562,3.15951c1.43674,1.17301 1.54982,2.39257 0.33258,3.65837c-2.90675,0.24113 -5.62391,1.07256 -8.14819,2.49434c-0.10975,90.23974 -0.22282,180.47982 -0.33258,270.71955c-2.71052,16.67886 -12.30211,26.9356 -28.7681,30.76358c-49.32484,0.3858 -98.65866,0.55208 -147.99779,0.49886c-48.33475,-0.05653 -96.66983,-0.10975 -145.00457,-0.16629c-6.98616,-0.72503 -13.19442,-3.27258 -18.62444,-7.64933c-5.7769,0.49886 -11.20892,-0.61194 -16.29639,-3.3258c-4.81476,-3.36238 -7.64167,-7.96528 -8.48077,-13.80204c-0.11075,-13.525 -0.22183,-27.04967 -0.33258,-40.57468c0.05022,-5.5155 -1.16934,-10.72602 -3.65837,-15.63122c-2.91639,-4.4825 -7.07363,-6.97685 -12.47173,-7.48303c-1.02135,-0.93887 -1.24318,-2.04736 -0.66516,-3.3258c7.00578,-1.23953 11.82818,-5.17493 14.4672,-11.80656c0.97845,-2.58348 1.64361,-5.24411 1.99548,-7.98191c0.43966,-78.8163 0.6615,-157.6376 0.66516,-236.46389c1.73805,-9.10974 7.11487,-14.65275 16.1301,-16.62896z" fill="#232020" opacity="0.984"/><path d="M77.27366,1.56638c108.08828,-0.05544 216.17655,0 324.26483,0.16629c7.32673,1.22828 11.70347,5.49638 13.13688,12.8043c0.22282,5.32128 0.22282,10.64254 0,15.96381c-0.01663,6.70447 -1.90235,12.80164 -5.65385,18.29187c-2.95663,3.39065 -6.66822,5.44132 -11.1414,6.15271c-0.44233,0.88699 -0.44233,1.77365 0,2.66063c8.43753,1.34263 13.70559,6.16502 15.79751,14.4672c0.62524,3.29419 0.95783,6.61999 0.99774,9.97737c0.22282,85.02956 0.22282,170.05877 0,255.08833c-1.51323,7.27683 -5.88998,11.6569 -13.13688,13.13688c-107.86644,0.22282 -215.73322,0.22282 -323.59966,0c-6.96289,-1.52987 -11.12012,-5.80018 -12.47173,-12.8043c-0.32094,-15.52979 -0.20986,-31.05027 0.33258,-46.56111c0.6605,-4.98004 2.5449,-9.41466 5.65385,-13.30317c2.62006,-2.57416 5.77957,-3.84894 9.47851,-3.82466c1.63429,-1.05461 1.74505,-2.27385 0.33258,-3.65837c-6.8345,-1.28908 -11.43507,-5.22482 -13.80204,-11.80656c-1.07689,-2.78701 -1.74204,-5.66915 -1.99548,-8.64706c-0.22183,-78.71055 -0.22183,-157.42076 0,-236.13131c1.79093,-6.16944 5.72635,-10.1604 11.80656,-11.97285z" fill="#5679f2"/><path d="M416.50456,42.47364c1.60303,4.14626 3.93108,7.86018 6.98417,11.1414c1.10749,0.77591 2.2183,1.55215 3.3258,2.32806c-2.47772,1.21092 -4.52973,2.92903 -6.15271,5.15497c-1.59639,2.41353 -2.9267,4.96342 -3.99095,7.64933c-1.87907,-5.58966 -5.37115,-9.80244 -10.47625,-12.63802c5.12838,-3.27191 8.56391,-7.81694 10.30996,-13.63576z" fill="#fbfbfb"/><path d="M236.24657,117.63656c11.97285,0 23.94571,0 35.91857,0c0,46.67185 0,93.34404 0,140.01589c-15.85306,0 -31.70578,0 -47.55884,0c0.05555,-25.60893 0,-51.21754 -0.16629,-76.82582c-3.60284,2.93767 -7.206,5.87568 -10.80883,8.81336c-0.33258,0.22183 -0.66516,0.22183 -0.99774,0c-8.77344,-10.65717 -17.42051,-21.41079 -25.94119,-32.26019c16.58041,-13.2024 33.09862,-26.45037 49.55432,-39.74323z" fill="#232020"/><path d="M240.23752,129.27684c6.76233,0 13.525,0 20.28733,0c0,38.91178 0,77.82356 0,116.73533c-8.20374,0 -16.40713,0 -24.61087,0c-0.05555,-25.38711 0,-50.77389 0.16629,-76.16066c0.12106,-3.88219 0.28735,-7.7624 0.49886,-11.64028c-0.11075,-0.88699 -0.22183,-1.77365 -0.33258,-2.66063c-6.77398,6.65025 -13.97964,12.74743 -21.61765,18.29187c-4.03651,-4.74358 -7.91671,-9.62152 -11.64028,-14.63348c12.3184,-10.10143 24.73458,-20.07881 37.24889,-29.93213z" fill="#fefefe"/><path d="M240.23752,129.27684c6.81555,-0.33159 13.68896,-0.44267 20.61992,-0.33258c0.11075,39.0784 0,78.10126 -0.33258,117.06792c0,-38.91178 0,-77.82356 0,-116.73533c-6.76233,0 -13.525,0 -20.28733,0z" fill="#b1b0b0"/><path d="M62.97275,258.31761c1.55448,3.21239 3.38366,6.31668 5.48756,9.31222c1.56711,1.40283 3.17481,2.73314 4.8224,3.99095c-4.86563,3.06305 -8.13588,7.38659 -9.81109,12.97059c-1.94392,-5.70972 -5.54676,-9.97771 -10.80883,-12.8043c5.16129,-3.17281 8.59784,-7.66263 10.30996,-13.46946z" fill="#fbfbfb"/></g></g></svg>