<svg version="1.1" xmlns="http://www.w3.org/2000/svg" xmlns:xlink="http://www.w3.org/1999/xlink" width="392.14065" height="365.04531" viewBox="0,0,392.14065,365.04531"><g transform="translate(-43.92968,2.52266)"><g fill-rule="evenodd" stroke="none" stroke-miterlimit="10"><path d="M77.51895,-2.52266c108.36833,0 216.73633,0 325.10467,0c8.45871,1.74867 13.7296,6.85095 15.80601,15.30687c0.37269,3.20439 0.59564,6.42103 0.66552,9.64998c4.47227,5.51327 7.02453,11.83554 7.65343,18.96721c0.10981,3.21677 0.22294,6.43321 0.33275,9.64998c2.24945,1.89739 4.85827,2.95089 7.81982,3.16121c1.43752,1.17364 1.55065,2.39386 0.33275,3.66033c-2.90831,0.24125 -5.62694,1.07315 -8.15257,2.49569c-0.10981,90.28826 -0.22294,180.57684 -0.33275,270.8651c-2.71198,16.68782 -12.30872,26.95008 -28.78358,30.78012c-49.35136,0.386 -98.7117,0.55238 -148.07735,0.49914c-48.36073,-0.05657 -96.7218,-0.10981 -145.08253,-0.16638c-6.98992,-0.72542 -13.20151,-3.27434 -18.63446,-7.65343c-5.78,0.49914 -11.21494,-0.61227 -16.30514,-3.32758c-4.81734,-3.36418 -7.64578,-7.96956 -8.48534,-13.80947c-0.11081,-13.53227 -0.22194,-27.06421 -0.33275,-40.59649c0.05025,-5.51845 -1.16997,-10.73178 -3.66033,-15.63963c-2.91796,-4.48491 -7.07743,-6.9806 -12.47843,-7.48706c-1.0219,-0.93938 -1.24385,-2.04845 -0.66552,-3.32758c7.00955,-1.24019 11.83454,-5.17772 14.47498,-11.81292c0.97897,-2.58486 1.64449,-5.24693 1.99655,-7.9862c0.43991,-78.85868 0.66185,-157.72234 0.66552,-236.591c1.73899,-9.11464 7.11869,-14.66062 16.13877,-16.63791z" fill="#232020" opacity="0.984"/><path d="M77.1862,1.47044c108.14639,-0.05547 216.29276,0 324.43915,0.16638c7.33066,1.22895 11.70976,5.49932 13.14395,12.81119c0.3494,7.56199 0.12978,15.10449 -0.66552,22.62755c-0.91176,5.76569 -3.52058,10.5907 -7.81982,14.47498c-2.58553,1.56197 -5.35741,2.67139 -8.31895,3.32758c-0.44257,0.88746 -0.44257,1.7746 0,2.66207c8.44207,1.34335 13.71297,6.16834 15.80601,14.47498c0.66552,3.29031 0.99827,6.61789 0.99827,9.98274c0.22294,85.07526 0.22294,170.1502 0,255.22546c-1.51405,7.28075 -5.89315,11.66317 -13.14395,13.14395c-107.92443,0.22294 -215.8492,0.22294 -323.77363,0c-6.96662,-1.53069 -11.1261,-5.8033 -12.47843,-12.81119c-0.32111,-15.53814 -0.20997,-31.06696 0.33275,-46.58614c0.66086,-4.98272 2.54627,-9.41971 5.65688,-13.31033c2.62146,-2.57554 5.78267,-3.85101 9.4836,-3.82672c1.63518,-1.05517 1.74599,-2.27507 0.33275,-3.66033c-6.83818,-1.28977 -11.44122,-5.22763 -13.80947,-11.81292c-1.07747,-2.78851 -1.74298,-5.67219 -1.99655,-8.65171c-0.22194,-78.75286 -0.22194,-157.50539 0,-236.25825c1.79191,-6.17276 5.72942,-10.16586 11.81292,-11.97929z" fill="#fdd14b"/><path d="M416.59946,42.39969c1.6039,4.1485 3.9332,7.8644 6.98791,11.1474c1.10808,0.77632 2.21949,1.55298 3.32758,2.3293c-2.47904,1.21157 -4.53217,2.9306 -6.15602,5.15775c-1.59724,2.41483 -2.92827,4.96608 -3.9931,7.65343c-1.88008,-5.59266 -5.37404,-9.80772 -10.48188,-12.64481c5.13113,-3.27368 8.56852,-7.82115 10.3155,-13.64308z" fill="#fbfbfb"/><path d="M62.87759,258.3597c1.55531,3.21411 3.38549,6.32007 5.49051,9.31723c1.56795,1.40357 3.17651,2.73461 4.82499,3.9931c-4.86826,3.06471 -8.14026,7.39056 -9.81637,12.97756c-1.94497,-5.71279 -5.54974,-9.98307 -10.81464,-12.81119c5.16407,-3.17452 8.60246,-7.66674 10.3155,-13.4767z" fill="#fbfbfb"/></g></g></svg>