<svg version="1.1" xmlns="http://www.w3.org/2000/svg" xmlns:xlink="http://www.w3.org/1999/xlink" width="384.60264" height="358.02813" viewBox="0,0,384.60264,358.02813"><g transform="translate(-47.69868,-0.98593)"><g fill-rule="evenodd" stroke="none" stroke-miterlimit="10"><path d="M80.64228,0.98593c106.2852,0 212.57006,0 318.85526,0c8.29611,1.71506 13.46567,6.71927 15.50218,15.01264c0.36553,3.14279 0.58419,6.29761 0.65272,9.46448c4.3863,5.40729 6.8895,11.60802 7.50631,18.60261c0.1077,3.15494 0.21866,6.30955 0.32637,9.46448c2.2062,1.86091 4.76488,2.89418 7.6695,3.10044c1.40988,1.15108 1.52084,2.34784 0.32637,3.58998c-2.8524,0.23661 -5.51878,1.05252 -7.99586,2.44771c-0.1077,88.55266 -0.21866,177.10566 -0.32637,265.65832c-2.65984,16.36704 -12.07211,26.43203 -28.23028,30.18845c-48.40268,0.37858 -96.81418,0.54176 -145.2309,0.48954c-47.43111,-0.05548 -94.86254,-0.1077 -142.29364,-0.16318c-6.85556,-0.71147 -12.94774,-3.2114 -18.27625,-7.50631c-5.6689,0.48954 -10.99936,-0.60051 -15.99172,-3.26361c-4.72474,-3.29952 -7.49881,-7.81636 -8.32222,-13.54401c-0.10868,-13.27215 -0.21769,-26.54397 -0.32637,-39.81611c0.04928,-5.41238 -1.14748,-10.52549 -3.58998,-15.33899c-2.86186,-4.3987 -6.94138,-6.84641 -12.23855,-7.34313c-1.00226,-0.92132 -1.21994,-2.00908 -0.65272,-3.26361c6.87481,-1.21635 11.60705,-5.07818 14.19673,-11.58583c0.96015,-2.53517 1.61288,-5.14607 1.95817,-7.83268c0.43145,-77.34279 0.64913,-154.69049 0.65272,-232.04308c1.70556,-8.93944 6.98186,-14.37881 15.82853,-16.31808z" fill="#232020" opacity="0.984"/><path d="M80.31593,4.90227c106.06751,-0.05441 212.13503,0 318.20254,0.16318c7.17343,1.19073 11.47161,5.37902 12.89129,12.56492c0.34268,7.41663 0.12728,14.81414 -0.65272,22.19258c-0.89423,5.65487 -3.45291,10.38711 -7.6695,14.19673c-2.53909,1.54173 -5.25768,2.6295 -8.15904,3.26361c-0.43406,0.87041 -0.43406,1.74048 0,2.61089c8.27979,1.31752 13.44936,6.04977 15.50218,14.19673c0.65272,3.22707 0.97909,6.49068 0.97909,9.79085c0.21866,83.43989 0.21866,166.87944 0,250.31933c-1.43599,6.98414 -5.62321,11.28232 -12.56492,12.89129c-105.95883,0.21866 -211.91734,0.21866 -317.87617,0c-6.8327,-1.50126 -10.91223,-5.69174 -12.23855,-12.56492c-0.31493,-15.23945 -0.20594,-30.46977 0.32637,-45.69062c0.64815,-4.88693 2.49732,-9.23864 5.54815,-13.05446c2.57108,-2.52604 5.67152,-3.77698 9.30131,-3.75316c1.60375,-1.03489 1.71242,-2.23133 0.32637,-3.58998c-4.44733,-0.45462 -7.98313,-2.46729 -10.60675,-6.03769c-2.79627,-4.2538 -4.42808,-8.93153 -4.89542,-14.03355c-0.21769,-77.23902 -0.21769,-154.4777 0,-231.71672c1.74865,-6.04556 5.6108,-9.96189 11.58583,-11.74901z" fill="#2ab7a1"/><path d="M413.20474,45.04475c1.57306,4.06875 3.8576,7.71323 6.85359,10.93311c1.08678,0.7614 2.17683,1.52313 3.26361,2.28453c-2.4314,1.18829 -4.44505,2.87426 -6.03769,5.05861c-1.56654,2.36841 -2.87198,4.87062 -3.91633,7.50631c-1.84394,-5.48516 -5.27073,-9.61918 -10.28039,-12.40174c5.0325,-3.21075 8.40381,-7.6708 10.11721,-13.38083z" fill="#fbfbfb"/><path d="M231.42134,113.25431c30.02298,-1.72808 49.22414,11.76141 57.60282,40.46883c3.38437,17.02302 3.05801,33.99382 -0.97909,50.9124c-6.94268,27.82917 -24.62072,43.76672 -53.03375,47.81198c-13.12365,1.73135 -26.06943,0.91544 -38.83702,-2.44771c-0.32637,-14.2496 -0.43504,-28.5005 -0.32637,-42.75337c5.87027,1.35865 11.74477,2.71859 17.62353,4.07952c3.90491,0.48139 7.82126,0.59007 11.74901,0.32637c-18.95312,-3.07008 -30.86532,-13.89452 -35.73659,-32.47298c-2.51722,-12.25422 -1.8645,-24.3296 1.95817,-36.22613c7.62316,-17.57718 20.94947,-27.47671 39.9793,-29.69891z" fill="#232020"/><path d="M207.27058,240.86169c-0.1077,-6.47501 0.00098,-12.89357 0.32637,-19.25533c7.56147,1.39878 15.17646,1.67065 22.84531,0.81591c15.11478,-1.98558 23.87237,-10.52549 26.2721,-25.61938c0.51435,-3.13568 0.7862,-6.29029 0.81591,-9.46448c-0.38348,-0.07147 -0.70983,0.03721 -0.97909,0.32637c-4.48193,7.5791 -11.11783,11.7673 -19.90806,12.56492c-22.58683,1.56621 -35.04274,-8.93153 -37.36841,-31.49389c-0.92067,-9.81728 0.92849,-19.06442 5.54815,-27.74073c6.68943,-9.79477 15.99074,-15.28841 27.90391,-16.48125c25.31097,-1.35179 40.70447,10.34305 46.18016,35.08387c1.82012,13.66704 1.38508,27.26556 -1.30544,40.7952c-5.83991,25.41998 -21.77746,39.18134 -47.81198,41.28474c-5.76583,0.21769 -11.53133,0.21769 -17.29716,0c-1.82142,-0.04895 -3.56191,-0.32082 -5.22179,-0.81591z" fill="#fdfdfd"/><path d="M234.68495,143.9323c7.7315,-1.10995 13.66019,1.60962 17.78671,8.15904c3.09717,5.2603 4.18493,10.91712 3.26361,16.9708c-1.90106,6.25244 -5.98058,10.33196 -12.23855,12.23855c-11.60314,2.5244 -18.51091,-1.99048 -20.72396,-13.54401c-0.54829,-5.0263 -0.00425,-9.92172 1.63181,-14.68627c2.07468,-4.63433 5.50148,-7.68059 10.28039,-9.13812z" fill="#232121"/><path d="M236.64312,155.02859c2.95292,-0.50913 5.07427,0.57897 6.36405,3.26361c1.87527,3.14318 2.20164,6.40681 0.97909,9.79085c-2.54334,2.51298 -5.48059,3.1657 -8.81176,1.95817c-0.26599,-0.69286 -0.59235,-1.34558 -0.97909,-1.95817c-0.21769,-3.04594 -0.21769,-6.09219 0,-9.13812c0.41644,-1.60276 1.23234,-2.90821 2.44771,-3.91633z" fill="#2bb59f"/><path d="M207.59694,221.60635c-0.32538,6.36176 -0.43406,12.78032 -0.32637,19.25533c-0.43341,-6.47404 -0.43341,-13.00127 0,-19.58169c0.1981,0.04046 0.30678,0.14914 0.32637,0.32637z" fill="#828080"/><path d="M66.28238,256.85341c1.52541,3.15233 3.32041,6.19859 5.38496,9.13812c1.53782,1.37659 3.11544,2.68204 4.73224,3.91633c-4.77467,3.00579 -7.98378,7.24849 -9.62766,12.7281c-1.90758,-5.60297 -5.44306,-9.79117 -10.60675,-12.56492c5.06481,-3.11349 8.4371,-7.51937 10.11721,-13.21764z" fill="#fbfbfb"/></g></g></svg>