<svg version="1.1" xmlns="http://www.w3.org/2000/svg" xmlns:xlink="http://www.w3.org/1999/xlink" width="390.89641" height="363.88705" viewBox="0,0,390.89641,363.88705"><g transform="translate(-44.55179,1.94353)"><g fill-rule="evenodd" stroke="none" stroke-miterlimit="10"><path d="M78.0345,-1.94353c108.02448,0 216.04864,0 324.07312,0c8.43187,1.74312 13.68604,6.82922 15.75586,15.2583c0.37151,3.19423 0.59374,6.40066 0.6634,9.61936c4.45808,5.49578 7.00223,11.79798 7.62915,18.90703c0.10946,3.20656 0.22224,6.4128 0.3317,9.61936c2.24231,1.89137 4.84285,2.94154 7.79501,3.15118c1.43296,1.16992 1.54573,2.38626 0.3317,3.64872c-2.89908,0.24048 -5.60908,1.06974 -8.12671,2.48777c-0.10946,90.00177 -0.22224,180.00387 -0.3317,270.00566c-2.70337,16.63487 -12.26967,26.86457 -28.69224,30.68246c-49.19476,0.38478 -98.39848,0.55062 -147.60751,0.49756c-48.20729,-0.05639 -96.4149,-0.10946 -144.62219,-0.16586c-6.96774,-0.72311 -13.15963,-3.26395 -18.57533,-7.62915c-5.76167,0.49756 -11.17936,-0.61033 -16.25341,-3.31702c-4.80205,-3.35351 -7.62153,-7.94426 -8.45841,-13.76565c-0.11046,-13.48934 -0.22124,-26.97834 -0.3317,-40.46768c0.05008,-5.50095 -1.16627,-10.69773 -3.64872,-15.59c-2.90869,-4.47068 -7.05498,-6.95845 -12.43884,-7.4633c-1.01866,-0.9364 -1.2399,-2.04196 -0.6634,-3.31702c6.98731,-1.23626 11.79699,-5.16129 14.42905,-11.77543c0.97587,-2.57666 1.63927,-5.23028 1.99021,-7.96085c0.43851,-78.60847 0.65975,-157.2219 0.6634,-235.84032c1.73348,-9.08572 7.09611,-14.6141 16.08756,-16.58511z" fill="#232020" opacity="0.984"/><path d="M77.70279,2.0369c107.80324,-0.0553 215.60648,0 323.40972,0.16586c7.3074,1.22505 11.67261,5.48187 13.10224,12.77054c0.34829,7.538 0.12936,15.05656 -0.6634,22.55576c-0.90887,5.74741 -3.50941,10.55708 -7.79501,14.42905c-2.57732,1.55701 -5.34041,2.6629 -8.29255,3.31702c-0.44116,0.88465 -0.44116,1.76897 0,2.65362c8.41529,1.33908 13.66945,6.14876 15.75586,14.42905c0.6634,3.27987 0.99511,6.5969 0.99511,9.95107c0.22224,84.80533 0.22224,169.61032 0,254.41564c-1.50924,7.25765 -5.87445,11.62616 -13.10224,13.10224c-107.582,0.22224 -215.16432,0.22224 -322.74631,0c-6.94452,-1.52583 -11.0908,-5.78488 -12.43884,-12.77054c-0.3201,-15.48884 -0.20931,-30.96839 0.3317,-46.43832c0.65876,-4.96691 2.53818,-9.38983 5.63894,-13.26809c2.61315,-2.56738 5.76432,-3.83879 9.45352,-3.81458c1.62999,-1.05183 1.74044,-2.26785 0.3317,-3.64872c-6.81648,-1.28568 -11.40492,-5.21104 -13.76565,-11.77543c-1.07405,-2.77967 -1.73746,-5.65419 -1.99021,-8.62426c-0.22124,-78.50299 -0.22124,-157.00563 0,-235.50862c1.78622,-6.15318 5.71125,-10.13361 11.77543,-11.94128z" fill="#fdd14b"/><path d="M416.03912,42.83628c1.5988,4.13534 3.92072,7.83945 6.96575,11.11203c1.10457,0.77387 2.21246,1.54805 3.31702,2.32192c-2.47118,1.20772 -4.51778,2.9213 -6.1365,5.14139c-1.59217,2.40716 -2.91898,4.95032 -3.98043,7.62915c-1.87412,-5.57492 -5.35699,-9.7766 -10.44862,-12.60468c5.11485,-3.26329 8.54133,-7.79633 10.28277,-13.59979z" fill="#fbfbfb"/><path d="M231.28094,112.16205c30.52026,-1.75404 50.03563,11.95621 58.54545,41.13108c3.43975,17.30126 3.10805,34.54978 -0.99511,51.74555c-7.05631,28.28459 -25.02362,44.48294 -53.90162,48.59438c-13.34106,1.75968 -26.4987,0.93043 -39.47257,-2.48777c-0.3317,-14.48278 -0.44216,-28.9669 -0.3317,-43.453c5.96633,1.38087 11.93697,2.76308 17.91193,4.14628c3.96882,0.48926 7.94925,0.59971 11.94128,0.3317c-19.26461,-3.12165 -31.37173,-14.12322 -36.3214,-33.00437c-2.55245,-12.46206 -1.88905,-24.73504 1.99021,-36.81895c7.7479,-17.86482 21.2923,-27.92634 40.63353,-30.18491z" fill="#242020"/><path d="M206.73498,241.85765c-0.10946,-6.58097 0.00099,-13.10456 0.3317,-19.57044c7.68521,1.42167 15.42482,1.69798 23.21916,0.82926c15.36213,-2.01808 24.26302,-10.69773 26.70203,-26.03863c0.52276,-3.18699 0.79907,-6.39323 0.82926,-9.61936c-0.38975,-0.07264 -0.72145,0.03782 -0.99511,0.3317c-4.55527,7.70312 -11.29977,11.95986 -20.23384,12.77054c-22.95645,1.59184 -35.6162,-9.07769 -37.97992,-32.00927c-0.93573,-9.97794 0.94369,-19.37639 5.63894,-28.1947c6.7989,-9.95505 16.25242,-15.53859 28.36054,-16.75097c25.72517,-1.37391 41.37057,10.51231 46.93587,35.658c1.8499,13.89069 1.40775,27.71173 -1.32681,41.46278c-5.93548,25.83596 -22.13382,39.82252 -48.59438,41.96034c-5.86019,0.22124 -11.72004,0.22124 -17.58022,0c-1.85123,-0.04975 -3.6202,-0.32606 -5.30723,-0.82926z" fill="#fdfdfd"/><path d="M234.59797,143.34207c7.85803,-1.12812 13.88373,1.63596 18.07777,8.29255c3.14785,5.34637 4.25342,11.09577 3.31702,17.24851c-1.93217,6.35476 -6.07845,10.50103 -12.43884,12.43884c-11.79301,2.56572 -18.81382,-2.02305 -21.06309,-13.76565c-0.55726,-5.10854 -0.00431,-10.08408 1.65851,-14.9266c2.10863,-4.71017 5.59151,-7.80628 10.44862,-9.28766z" fill="#242120"/><path d="M236.58818,154.61995c3.00125,-0.51746 5.15731,0.58844 6.4682,3.31702c1.90596,3.19463 2.23767,6.51165 0.99511,9.95107c-2.50336,2.46388 -5.43328,3.18268 -8.79011,2.15607c-0.44979,-0.79543 -0.83688,-1.62468 -1.16096,-2.48777c-0.22124,-2.98532 -0.22124,-5.97064 0,-8.95596c0.42325,-1.62899 1.2525,-2.9558 2.48777,-3.98043z" fill="#facf4b"/><path d="M207.06668,222.28722c-0.33071,6.46588 -0.44116,12.98946 -0.3317,19.57044c-0.4405,-6.57998 -0.4405,-13.21402 0,-19.90214c0.20134,0.04113 0.3118,0.15159 0.3317,0.3317z" fill="#828080"/><path d="M63.4396,258.11107c1.55038,3.20391 3.37474,6.30002 5.47309,9.28766c1.56298,1.39912 3.16643,2.72593 4.80969,3.98043c-4.85281,3.05498 -8.11443,7.36711 -9.78522,12.93638c-1.9388,-5.69466 -5.53213,-9.9514 -10.78033,-12.77054c5.14769,-3.16444 8.57516,-7.64242 10.28277,-13.43394z" fill="#fbfbfb"/></g></g></svg>