<svg version="1.1" xmlns="http://www.w3.org/2000/svg" xmlns:xlink="http://www.w3.org/1999/xlink" width="393.89333" height="366.67689" viewBox="0,0,393.89333,366.67689"><g transform="translate(-43.05333,3.33844)"><g fill-rule="evenodd" stroke="none" stroke-miterlimit="10"><path d="M76.79276,-3.33844c108.85268,0 217.70503,0 326.55771,0c8.49651,1.75649 13.79096,6.88157 15.87665,15.37529c0.37436,3.21871 0.5983,6.44973 0.66849,9.69311c4.49225,5.53791 7.05592,11.88844 7.68764,19.05199c0.1103,3.23115 0.22395,6.46196 0.33425,9.69311c2.25949,1.90586 4.87998,2.96409 7.85477,3.17534c1.44394,1.17888 1.55759,2.40456 0.33425,3.6767c-2.9213,0.24233 -5.65209,1.07795 -8.18901,2.50684c-0.1103,90.69179 -0.22395,181.38393 -0.33425,272.07571c-2.7241,16.76241 -12.36373,27.07053 -28.91223,30.9177c-49.57193,0.38772 -99.15288,0.55485 -148.73919,0.50137c-48.57688,-0.05682 -97.15409,-0.1103 -145.73097,-0.16713c-7.02116,-0.72865 -13.26052,-3.28897 -18.71774,-7.68764c-5.80584,0.50137 -11.26507,-0.61501 -16.37803,-3.34245c-4.83887,-3.37922 -7.67995,-8.00518 -8.52326,-13.87118c-0.1113,-13.59275 -0.22294,-27.18518 -0.33425,-40.77794c0.05047,-5.54313 -1.1752,-10.77975 -3.6767,-15.70954c-2.931,-4.50496 -7.10907,-7.0118 -12.5342,-7.52052c-1.02647,-0.94358 -1.24941,-2.05762 -0.66849,-3.34245c7.04088,-1.24573 11.88743,-5.20086 14.53967,-11.86571c0.98335,-2.59641 1.65184,-5.27038 2.00547,-8.02189c0.44187,-79.21114 0.66481,-158.42729 0.66849,-237.64845c1.74676,-9.15538 7.15051,-14.72615 16.2109,-16.71227z" fill="#232020" opacity="0.984"/><path d="M76.45851,0.6725c108.62974,-0.05572 217.25948,0 325.88922,0.16713c7.36342,1.23444 11.7621,5.52391 13.20269,12.86845c0.35095,7.59579 0.13036,15.17199 -0.66849,22.72869c-0.91583,5.79147 -3.53631,10.63802 -7.85477,14.53967c-2.59708,1.56894 -5.38135,2.68332 -8.35613,3.34245c-0.44454,0.89143 -0.44454,1.78253 0,2.67396c8.47981,1.34935 13.77425,6.1959 15.87665,14.53967c0.66849,3.30502 1.00274,6.64747 1.00274,10.02736c0.22395,85.45551 0.22395,170.91067 0,256.36618c-1.52082,7.31328 -5.91948,11.7153 -13.20269,13.20269c-108.4068,0.22395 -216.81393,0.22395 -325.22073,0c-6.99776,-1.53753 -11.17583,-5.82924 -12.5342,-12.86845c-0.32255,-15.60758 -0.21091,-31.20582 0.33425,-46.79435c0.66382,-5.00499 2.55765,-9.46181 5.68217,-13.36981c2.63318,-2.58706 5.80852,-3.86822 9.52599,-3.84383c1.64248,-1.05989 1.75379,-2.28523 0.33425,-3.6767c-6.86874,-1.29554 -11.49236,-5.25099 -13.87118,-11.86571c-1.08229,-2.80098 -1.75078,-5.69754 -2.00547,-8.69038c-0.22294,-79.10485 -0.22294,-158.20935 0,-237.3142c1.79991,-6.20035 5.75504,-10.21129 11.86571,-12.03283z" fill="#fdd14b"/><path d="M417.38878,41.78467c1.61106,4.16704 3.95078,7.89955 7.01915,11.19722c1.11303,0.77979 2.22942,1.55992 3.34245,2.33972c-2.49013,1.21699 -4.55243,2.9437 -6.18354,5.18081c-1.60438,2.42562 -2.94136,4.98828 -4.01094,7.68764c-1.88849,-5.61766 -5.39806,-9.85155 -10.52873,-12.70132c5.15406,-3.28831 8.60682,-7.8561 10.3616,-13.70406z" fill="#fbfbfb"/><path d="M234.89081,110.97346c25.69044,-1.23003 43.01537,10.13432 51.97515,34.09302c4.82684,15.22989 6.60971,30.82812 5.34792,46.79435c-0.31452,13.83107 -3.43403,26.97827 -9.35887,39.44095c-7.50849,13.39856 -18.92865,21.14202 -34.26015,23.23005c-31.46753,2.7368 -50.90925,-11.24569 -58.32582,-41.94779c-2.05327,-9.80576 -3.00052,-19.72148 -2.84109,-29.74784c-0.42081,-11.20658 0.74904,-22.23667 3.50958,-33.09029c2.72611,-11.08324 8.24115,-20.49793 16.54514,-28.24374c8.04629,-6.37674 17.18222,-9.88631 27.40812,-10.52873z" fill="#242020"/><path d="M233.21959,122.67205c19.22981,-2.33838 32.98935,5.12632 41.2793,22.39444c3.82243,9.52967 5.93954,19.44573 6.35066,29.74784c0.60064,11.68388 -0.17949,23.27083 -2.33972,34.76151c-5.80015,26.22122 -22.01106,37.1955 -48.6327,32.92317c-12.18325,-3.26859 -20.59519,-10.78911 -25.23552,-22.56156c-3.34947,-9.3943 -5.24364,-19.08741 -5.68217,-29.07934c-0.61268,-10.76303 -0.05581,-21.45889 1.67123,-32.08755c1.35771,-7.63951 4.03167,-14.7703 8.02189,-21.3917c6.1197,-8.37919 14.30871,-13.28124 24.56703,-14.7068z" fill="#fefefe"/><path d="M236.89628,142.72677c7.70837,-0.79851 12.88917,2.43264 15.54241,9.69311c2.21872,7.06027 3.44407,14.30236 3.6767,21.72595c0.65378,12.37544 -0.23765,24.63121 -2.67396,36.76698c-1.08161,4.19778 -3.25421,7.70736 -6.51779,10.52873c-10.49296,4.41939 -17.345,1.13276 -20.55609,-9.86024c-1.69697,-6.00906 -2.5884,-12.13678 -2.67396,-18.3835c-0.22294,-7.24209 -0.22294,-14.48386 0,-21.72595c0.48165,-5.74635 1.37275,-11.42852 2.67396,-17.04652c1.38645,-5.89475 4.89603,-9.79439 10.52873,-11.69858z" fill="#242121"/><path d="M239.236,154.09111c1.29754,0.23765 2.13315,1.01745 2.50684,2.33972c1.81028,5.64674 2.70137,11.44055 2.67396,17.38076c0.42683,9.72286 0.09258,19.41598 -1.00274,29.07934c-0.488,3.02392 -1.37943,5.92049 -2.67396,8.69038c-0.66849,0.44555 -1.33698,0.44555 -2.00547,0c-0.80085,-1.7344 -1.46934,-3.51727 -2.00547,-5.34792c-2.18798,-14.22414 -2.41058,-28.48539 -0.66849,-42.78341c0.36834,-3.38991 1.42689,-6.50976 3.17534,-9.35887z" fill="#face4b"/><path d="M62.08597,258.7099c1.56226,3.22847 3.40061,6.34832 5.51505,9.35887c1.57496,1.40984 3.19071,2.74682 4.84656,4.01094c-4.89001,3.0784 -8.17664,7.42359 -9.86024,13.03556c-1.95366,-5.73832 -5.57455,-10.0277 -10.86297,-12.86845c5.18715,-3.1887 8.64091,-7.70102 10.3616,-13.53694z" fill="#fbfbfb"/></g></g></svg>