<svg version="1.1" xmlns="http://www.w3.org/2000/svg" xmlns:xlink="http://www.w3.org/1999/xlink" width="385.49647" height="358.86022" viewBox="0,0,385.49647,358.86022"><g transform="translate(-47.25177,-0.56989)"><g fill-rule="evenodd" stroke="none" stroke-miterlimit="10"><path d="M80.27193,0.56989c106.53221,0 213.06409,0 319.59629,0c8.31539,1.71905 13.49697,6.73488 15.5382,15.04752c0.36637,3.1501 0.58554,6.31224 0.65424,9.48648c4.39649,5.41986 6.9055,11.63501 7.52376,18.64584c0.10795,3.16227 0.21917,6.32421 0.32712,9.48648c2.21133,1.86524 4.77595,2.9009 7.68732,3.10764c1.41316,1.15375 1.52438,2.3533 0.32712,3.59832c-2.85903,0.23716 -5.5316,1.05496 -8.01444,2.4534c-0.10795,88.75847 -0.21917,177.51726 -0.32712,266.27572c-2.66603,16.40507 -12.10017,26.49345 -28.29588,30.2586c-48.51518,0.37946 -97.03918,0.54302 -145.56842,0.49068c-47.54134,-0.05561 -95.083,-0.10795 -142.62434,-0.16356c-6.87148,-0.71312 -12.97783,-3.21886 -18.31872,-7.52376c-5.68208,0.49068 -11.02493,-0.6019 -16.02888,-3.2712c-4.73572,-3.30718 -7.51624,-7.83453 -8.34156,-13.57548c-0.10893,-13.30299 -0.21819,-26.60566 -0.32712,-39.90865c0.0494,-5.42496 -1.15015,-10.54995 -3.59832,-15.37464c-2.86852,-4.40892 -6.95752,-6.86232 -12.267,-7.3602c-1.00459,-0.92346 -1.22277,-2.01375 -0.65424,-3.2712c6.89078,-1.21918 11.63402,-5.08999 14.22972,-11.61276c0.96239,-2.54107 1.61663,-5.15803 1.96272,-7.85088c0.43245,-77.52255 0.65064,-155.05 0.65424,-232.58236c1.70953,-8.96021 6.99808,-14.41222 15.86532,-16.356z" fill="#232020" opacity="0.984"/><path d="M79.94481,4.49533c106.31402,-0.05453 212.62804,0 318.94205,0.16356c7.20645,1.20812 11.51135,5.40615 12.92124,12.59412c0.21917,5.23392 0.21917,10.46784 0,15.70176c-0.01636,6.59441 -1.87113,12.59151 -5.56104,17.9916c-2.9081,3.33499 -6.55876,5.35201 -10.95852,6.05172c-0.43507,0.87243 -0.43507,1.74453 0,2.61696c8.29904,1.32058 13.48062,6.06382 15.5382,14.22972c0.61499,3.24012 0.94211,6.51132 0.98136,9.8136c0.21917,83.6338 0.21917,167.26728 0,250.90108c-1.4884,7.15739 -5.7933,11.46556 -12.92124,12.92124c-106.09583,0.21917 -212.19198,0.21917 -318.28781,0c-6.84859,-1.50475 -10.93759,-5.70497 -12.267,-12.59412c-0.31567,-15.27487 -0.20641,-30.54058 0.32712,-45.79681c0.64966,-4.8983 2.50312,-9.26011 5.56104,-13.0848c2.57705,-2.53191 5.68469,-3.78576 9.32292,-3.76188c1.60747,-1.0373 1.7164,-2.23652 0.32712,-3.59832c-6.72232,-1.26792 -11.24737,-5.13906 -13.57548,-11.61276c-1.05921,-2.74127 -1.71345,-5.57609 -1.96272,-8.50512c-0.21819,-77.41852 -0.21819,-154.83672 0,-232.25524c1.76154,-6.06818 5.63235,-9.99362 11.61276,-11.77632z" fill="#5679f2"/><path d="M413.60726,44.7311c1.57672,4.07821 3.86656,7.73116 6.86952,10.95852c1.08931,0.76317 2.18189,1.52667 3.2712,2.28984c-2.43704,1.19104 -4.45538,2.88095 -6.05172,5.07036c-1.57018,2.37391 -2.87866,4.88194 -3.92544,7.52376c-1.84823,-5.49791 -5.28299,-9.64154 -10.30428,-12.43056c5.04419,-3.21821 8.42334,-7.68863 10.14072,-13.41192z" fill="#fbfbfb"/><path d="M247.7574,113.09919c6.54338,-0.05463 13.08578,0 19.6272,0.16356c5.47599,0.82271 10.9281,1.74977 16.356,2.78052c0.05463,14.28468 0,28.56903 -0.16356,42.85273c-6.00396,-1.4462 -12.05568,-2.70005 -18.15516,-3.76188c-3.91399,-0.4825 -7.83943,-0.59143 -11.77632,-0.32712c18.92618,2.6778 31.08393,13.19995 36.47389,31.56709c2.93656,12.74231 2.28232,25.2818 -1.96272,37.61881c-7.33632,17.22745 -20.36682,26.87749 -39.09085,28.95012c-17.95464,2.37522 -33.27465,-2.80407 -45.96037,-15.5382c-7.79004,-9.50644 -12.47865,-20.41066 -14.06616,-32.71201c-1.96959,-17.1231 -0.44325,-33.91548 4.57968,-50.37649c7.23099,-20.53529 21.35178,-33.56546 42.36205,-39.09085c3.96993,-0.75172 7.89537,-1.46059 11.77632,-2.12628z" fill="#232021"/><path d="M249.72012,124.22127c7.65657,-0.14295 15.28959,0.18417 22.8984,0.98136c0,6.5424 0,13.0848 0,19.6272c-11.0511,-2.57738 -21.95499,-2.0867 -32.71201,1.47204c-10.07137,4.69843 -15.79597,12.60394 -17.1738,23.7162c-0.45208,3.03895 -0.72457,6.09228 -0.8178,9.15936c0.34413,0.04874 0.67125,-0.00556 0.98136,-0.16356c4.31471,-7.17767 10.63925,-11.43023 18.97296,-12.75768c10.28106,-1.54597 19.54935,0.74387 27.8052,6.86952c6.80312,6.65689 10.45607,14.78027 10.95852,24.37044c0.78934,9.81524 -1.06445,19.08353 -5.56104,27.8052c-6.44525,9.79659 -15.54998,15.30333 -27.31452,16.51956c-24.28474,2.12105 -39.71401,-8.51036 -46.28749,-31.89421c-0.62545,-3.36901 -1.17076,-6.74947 -1.6356,-10.14072c-1.13282,-13.31313 0.06641,-26.39793 3.59832,-39.25441c5.76287,-18.84768 18.24774,-30.46044 37.45525,-34.83829c2.9817,-0.54171 5.92578,-1.03239 8.83224,-1.47204z" fill="#fefefe"/><path d="M238.92516,184.41136c10.47864,-0.69153 16.53036,4.10634 18.15516,14.39328c0.54727,6.20579 -0.54335,12.09396 -3.2712,17.66448c-2.37064,3.55841 -5.69647,5.57576 -9.97716,6.05172c-6.25028,0.93622 -11.32064,-1.0808 -15.21108,-6.05172c-4.17929,-5.91662 -5.70596,-12.45902 -4.57968,-19.6272c2.65523,-6.96242 7.61666,-11.10573 14.88396,-12.43056z" fill="#242121"/><path d="M239.25228,195.86056c1.53059,-0.0543 3.05694,0.00033 4.57968,0.16356c0.96108,0.66242 1.56102,1.58915 1.79916,2.78052c0.33039,3.41906 0.11253,6.79952 -0.65424,10.14072c-0.97482,2.19956 -2.66505,3.01736 -5.07036,2.4534c-2.30718,-1.39419 -3.77922,-3.41154 -4.41612,-6.05172c-0.44325,-2.05595 -0.55251,-4.1276 -0.32712,-6.21528c1.12529,-1.39909 2.4884,-2.48938 4.089,-3.2712z" fill="#5678f0"/><path d="M65.87865,257.03201c1.52896,3.15965 3.32812,6.21299 5.39748,9.15936c1.54139,1.37979 3.12269,2.68827 4.74324,3.92544c-4.78577,3.01278 -8.00234,7.26534 -9.65004,12.75768c-1.91202,-5.616 -5.45571,-9.81393 -10.6314,-12.59412c5.07658,-3.12073 8.45671,-7.53685 10.14072,-13.24836z" fill="#fbfbfb"/></g></g></svg>