<svg version="1.1" xmlns="http://www.w3.org/2000/svg" xmlns:xlink="http://www.w3.org/1999/xlink" width="385.02016" height="358.41682" viewBox="0,0,385.02016,358.41682"><g transform="translate(-47.48992,-0.79159)"><g fill-rule="evenodd" stroke="none" stroke-miterlimit="10"><path d="M80.46928,0.79159c106.40058,0 212.80083,0 319.20141,0c8.30512,1.71692 13.4803,6.72656 15.519,15.02893c0.36592,3.14621 0.58482,6.30444 0.65343,9.47476c4.39106,5.41316 6.89697,11.62063 7.51447,18.62281c0.10782,3.15836 0.2189,6.3164 0.32672,9.47476c2.2086,1.86293 4.77005,2.89732 7.67782,3.1038c1.41141,1.15233 1.5225,2.35039 0.32672,3.59387c-2.8555,0.23687 -5.52477,1.05366 -8.00454,2.45037c-0.10782,88.6488 -0.2189,177.29793 -0.32672,265.94672c-2.66273,16.3848 -12.08522,26.46072 -28.26092,30.22122c-48.45523,0.37899 -96.91928,0.54235 -145.38857,0.49007c-47.4826,-0.05554 -94.96552,-0.10782 -142.44812,-0.16336c-6.86299,-0.71224 -12.9618,-3.21488 -18.29609,-7.51447c-5.67505,0.49007 -11.01131,-0.60116 -16.00908,-3.26716c-4.72987,-3.3031 -7.50695,-7.82485 -8.33125,-13.55871c-0.1088,-13.28655 -0.21792,-26.57278 -0.32672,-39.85934c0.04933,-5.41826 -1.14873,-10.53691 -3.59387,-15.35565c-2.86497,-4.40348 -6.94892,-6.85385 -12.25185,-7.35111c-1.00334,-0.92232 -1.22126,-2.01126 -0.65343,-3.26716c6.88227,-1.21767 11.61965,-5.0837 14.21214,-11.59841c0.9612,-2.53793 1.61463,-5.15166 1.9603,-7.84118c0.43192,-77.42676 0.64984,-154.85843 0.65343,-232.29499c1.70742,-8.94914 6.98943,-14.39442 15.84572,-16.33579z" fill="#232020" opacity="0.984"/><path d="M80.14257,4.71218c106.18266,-0.05446 212.36532,0 318.54798,0.16336c7.19755,1.20663 11.49713,5.39947 12.90528,12.57856c0.2189,5.22745 0.2189,10.45491 0,15.68236c-0.01634,6.58627 -1.86881,12.57595 -5.55417,17.96937c-2.9045,3.33087 -6.55065,5.3454 -10.94498,6.04424c-0.43453,0.87135 -0.43453,1.74238 0,2.61373c8.28878,1.31895 13.46396,6.05633 15.519,14.21214c0.61423,3.23612 0.94094,6.50328 0.98015,9.80148c0.2189,83.53047 0.2189,167.06061 0,250.59108c-1.48656,7.14854 -5.78614,11.45139 -12.90528,12.90528c-105.96474,0.2189 -211.92981,0.2189 -317.89455,0c-6.84012,-1.50289 -10.92407,-5.69792 -12.25185,-12.57856c-0.31528,-15.256 -0.20616,-30.50285 0.32672,-45.74022c0.64886,-4.89224 2.50003,-9.24867 5.55417,-13.06864c2.57387,-2.52878 5.67767,-3.78108 9.3114,-3.75723c1.60548,-1.03602 1.71428,-2.23376 0.32672,-3.59387c-6.71401,-1.26635 -11.23347,-5.13271 -13.55871,-11.59841c-1.05791,-2.73788 -1.71134,-5.5692 -1.9603,-8.49461c-0.21792,-77.32287 -0.21792,-154.64541 0,-231.96827c1.75936,-6.06068 5.62539,-9.98127 11.59841,-11.76177z" fill="#5679f2"/><path d="M413.39276,44.89823c1.57477,4.07317 3.86178,7.7216 6.86103,10.94498c1.08796,0.76223 2.17919,1.52478 3.26716,2.28701c-2.43403,1.18957 -4.44987,2.87739 -6.04424,5.0641c-1.56824,2.37098 -2.8751,4.87591 -3.92059,7.51447c-1.84594,-5.49111 -5.27646,-9.62962 -10.29155,-12.4152c5.03796,-3.21423 8.41293,-7.67913 10.12819,-13.39535z" fill="#fbfbfb"/><path d="M229.77844,112.85513c11.29359,-0.89945 22.29313,0.46198 32.9983,4.08395c18.86621,7.72422 26.87075,21.71844 24.01362,41.98299c-1.42415,7.34849 -4.63708,13.77401 -9.63812,19.27624c10.14714,8.21462 14.66693,18.88712 13.55871,32.01816c-1.17944,16.6893 -9.18398,28.83235 -24.01362,36.42882c-10.77901,4.63773 -22.05071,6.87018 -33.81509,6.69768c-15.5239,0.1235 -30.22612,-3.25246 -44.10664,-10.12819c-0.16336,-15.35532 -0.21792,-30.71097 -0.16336,-46.06694c6.84012,3.31094 13.70116,6.63233 20.5831,9.96483c9.1108,3.94705 18.58556,5.25392 28.42428,3.92059c4.36198,-0.27411 5.99556,-2.50656 4.90074,-6.69768c-3.33871,-1.36959 -6.82379,-2.07759 -10.45491,-2.12365c-8.49396,-0.16336 -16.98857,-0.21792 -25.48384,-0.16336c0.05456,-12.41553 0,-24.83073 -0.16336,-37.24561c-7.2018,-10.75549 -14.44411,-21.48255 -21.72661,-32.18151c6.86463,-5.50353 14.26997,-10.18635 22.21668,-14.04878c7.43181,-2.8457 15.05539,-4.75143 22.87011,-5.71753z" fill="#232021"/><path d="M231.0853,123.96347c6.00961,-0.13722 11.99929,0.13493 17.96937,0.81679c7.32987,1.0615 13.86419,3.89315 19.60295,8.49461c6.94337,7.13286 9.17582,15.57291 6.69768,25.32048c-2.46769,8.45508 -7.6409,14.60845 -15.519,18.45945c-2.80061,1.13305 -5.63226,2.16776 -8.49461,3.1038c5.54208,0.9942 10.87866,2.68201 16.00908,5.0641c9.66164,6.09717 13.63679,14.86394 11.92513,26.30063c-1.58,12.47173 -8.16855,21.1297 -19.76631,25.97391c-4.73869,1.89724 -9.63943,3.2041 -14.70221,3.92059c-12.47989,1.37972 -24.78597,0.50837 -36.91889,-2.61373c-2.56766,-0.76517 -5.07259,-1.69075 -7.51447,-2.77708c-0.32672,-6.85744 -0.43551,-13.71847 -0.32672,-20.5831c6.67481,3.11426 13.64464,5.34671 20.90982,6.69768c6.76269,1.03112 13.51493,0.92232 20.25638,-0.32672c10.14616,-2.68854 14.33891,-9.2771 12.57856,-19.76631c-1.07947,-4.34695 -3.74776,-7.23284 -8.00454,-8.65797c-4.34467,-1.42808 -8.80957,-2.19063 -13.39535,-2.28701c-4.89943,-0.16336 -9.80017,-0.21792 -14.70221,-0.16336c0,-6.3164 0,-12.63312 0,-18.94952c5.11964,0.05456 10.2383,0 15.35565,-0.16336c5.25751,-0.2519 10.15825,-1.66756 14.70221,-4.24731c3.28121,-3.02572 4.80599,-6.78295 4.57402,-11.2717c0.03529,-4.66844 -1.92501,-8.20808 -5.88089,-10.61827c-8.48971,-3.02114 -16.87553,-2.69443 -25.15712,0.98015c-3.42464,1.54798 -6.69179,3.34492 -9.80148,5.39081c-3.7837,-5.49797 -7.48669,-11.05214 -11.10834,-16.66251c6.53987,-4.90205 13.83642,-8.22377 21.88996,-9.96483c3.00121,-0.4097 5.94165,-0.89978 8.82133,-1.47022z" fill="#fdfdfd"/><path d="M231.73873,155.00148c3.05839,-0.0611 6.10795,0.0477 9.14804,0.32672c0.05391,1.0945 -0.00065,2.18344 -0.16336,3.26716c-2.913,1.45421 -6.0168,2.16221 -9.3114,2.12365c-4.24731,0.21792 -8.49461,0.21792 -12.74192,0c4.10943,-2.54642 8.46554,-4.45248 13.06864,-5.71753z" fill="#5577ee"/><path d="M66.09378,256.93684c1.52707,3.15575 3.32401,6.20531 5.39081,9.14804c1.53949,1.37809 3.11883,2.68495 4.73738,3.92059c-4.77985,3.00905 -7.99245,7.25636 -9.63812,12.74192c-1.90965,-5.60906 -5.44897,-9.8018 -10.61827,-12.57856c5.0703,-3.11687 8.44626,-7.52753 10.12819,-13.23199z" fill="#fbfbfb"/></g></g></svg>