<svg version="1.1" xmlns="http://www.w3.org/2000/svg" xmlns:xlink="http://www.w3.org/1999/xlink" width="395.03445" height="367.73917" viewBox="0,0,395.03445,367.73917"><g transform="translate(-42.48278,3.86958)"><g fill-rule="evenodd" stroke="none" stroke-miterlimit="10"><path d="M76.31992,-3.86958c109.16803,0 218.33574,0 327.50377,0c8.52113,1.76158 13.83091,6.90151 15.92265,15.41982c0.37543,3.22803 0.60003,6.46842 0.67042,9.7212c4.50528,5.55395 7.07636,11.92288 7.70992,19.10717c0.11062,3.2405 0.2246,6.48069 0.33522,9.7212c2.26604,1.9114 4.89412,2.97268 7.87752,3.18453c1.44812,1.18229 1.5621,2.41153 0.33522,3.68735c-2.92977,0.24303 -5.66846,1.08106 -8.21274,2.51411c-0.11062,90.95453 -0.2246,181.90941 -0.33522,272.86394c-2.732,16.81097 -12.39955,27.14895 -28.99598,31.00726c-49.71554,0.38885 -99.44013,0.55646 -149.17009,0.50282c-48.71762,-0.05698 -97.43556,-0.11062 -146.15316,-0.1676c-7.0415,-0.73077 -13.29893,-3.2985 -18.77197,-7.70992c-5.82266,0.50282 -11.2977,-0.61679 -16.42547,-3.35213c-4.85289,-3.38901 -7.7022,-8.02837 -8.54794,-13.91138c-0.11163,-13.63213 -0.22359,-27.26394 -0.33522,-40.89607c0.05062,-5.55919 -1.17861,-10.81098 -3.68735,-15.75504c-2.93949,-4.51801 -7.12966,-7.03211 -12.57051,-7.5423c-1.02944,-0.94631 -1.25303,-2.06358 -0.67042,-3.35213c7.06128,-1.24933 11.92187,-5.21593 14.5818,-11.90009c0.9862,-2.60394 1.65662,-5.28564 2.01128,-8.04512c0.44315,-79.44061 0.66674,-158.88626 0.67042,-238.33693c1.75183,-9.18191 7.17122,-14.76881 16.25786,-16.76069z" fill="#232020" opacity="0.984"/><path d="M75.98472,0.15298c108.94445,-0.05589 217.88889,0 326.83335,0.1676c7.38476,1.238 11.79617,5.53991 13.24094,12.90573c0.2246,5.36342 0.2246,10.72683 0,16.09026c-0.01677,6.75758 -1.91742,12.90304 -5.69863,18.43675c-2.98004,3.41751 -6.72103,5.48443 -11.22965,6.20146c-0.44584,0.89401 -0.44584,1.78769 0,2.68171c8.50437,1.35326 13.81416,6.21385 15.92265,14.5818c0.63021,3.32029 0.96541,6.67242 1.00564,10.05641c0.2246,85.70308 0.2246,171.40581 0,257.1089c-1.52522,7.33447 -5.93664,11.74924 -13.24094,13.24094c-108.72086,0.2246 -217.44206,0.2246 -326.16291,0c-7.01804,-1.54198 -11.20821,-5.84612 -12.57051,-12.90573c-0.32348,-15.6528 -0.21152,-31.29622 0.33522,-46.92991c0.66573,-5.01948 2.56505,-9.48924 5.69863,-13.40855c2.64082,-2.59455 5.82535,-3.87942 9.55359,-3.85495c1.64724,-1.06296 1.75887,-2.29186 0.33522,-3.68735c-6.88865,-1.29929 -11.52565,-5.2662 -13.91138,-11.90009c-1.08542,-2.80909 -1.75585,-5.71406 -2.01128,-8.71556c-0.22359,-79.33401 -0.22359,-158.6677 0,-238.00171c1.80512,-6.21831 5.77171,-10.24088 11.90009,-12.06769z" fill="#5679f2"/><path d="M417.90267,41.38426c1.61573,4.17911 3.96222,7.92244 7.03948,11.22965c1.11626,0.78205 2.23587,1.56444 3.35213,2.34649c-2.49734,1.22051 -4.56561,2.95222 -6.20146,5.19581c-1.60902,2.43265 -2.94989,5.00273 -4.02257,7.70992c-1.89396,-5.63393 -5.4137,-9.88009 -10.55923,-12.73812c5.16899,-3.29784 8.63175,-7.87887 10.39163,-13.74376z" fill="#fbfbfb"/><path d="M196.66164,112.78477c28.71675,0 57.43316,0 86.14991,0c0,14.63777 0,29.27521 0,43.913c-8.60461,-0.05597 -17.20819,0 -25.81145,0.1676c0.46964,0.13744 0.91647,0.30505 1.34086,0.50282c17.51424,5.50253 28.1851,17.23501 32.01291,35.19744c1.55774,11.12004 0.44047,21.95884 -3.35213,32.51573c-5.08419,11.34128 -13.29693,19.55402 -24.63821,24.63821c-11.64565,4.54684 -23.71335,6.33487 -36.20308,5.36342c-13.20441,-0.41533 -25.49535,-3.93508 -36.8735,-10.55923c-0.11129,-15.92365 0.00034,-31.79032 0.33522,-47.60035c6.30134,3.20665 12.55844,6.5028 18.77197,9.88881c8.56438,3.70578 17.50351,5.38185 26.81709,5.02821c7.07837,-0.57724 9.36922,-4.20894 6.87188,-10.89445c-2.29152,-1.42566 -4.80563,-2.15174 -7.5423,-2.17889c-7.77294,-0.59467 -15.31524,0.46661 -22.62692,3.18453c-6.9758,-3.59952 -13.90332,-7.28687 -20.78325,-11.06205c1.77362,-26.03203 3.6173,-52.06674 5.53103,-78.10479z" fill="#232020"/><path d="M196.66164,112.78477c28.77207,-0.33488 57.60045,-0.44685 86.48513,-0.33522c0,14.7494 0,29.4988 0,44.2482c-0.11163,0 -0.22359,0 -0.33522,0c0,-14.63777 0,-29.27521 0,-43.913c-28.71675,0 -57.43316,0 -86.14991,0z" fill="#374372"/><path d="M227.50129,165.74854c-0.32617,0.8206 -0.43778,1.71461 -0.33522,2.68171c0.53601,0.08983 0.98285,-0.02212 1.34086,-0.33522c7.31839,-1.45416 14.69309,-1.73372 22.1241,-0.83804c16.51195,3.21437 26.06555,13.10317 28.66078,29.66642c1.7411,28.09292 -11.38822,43.56839 -39.38761,46.42709c-9.72321,0.73915 -19.33278,0.06872 -28.82838,-2.01128c-3.46645,-0.98788 -6.81858,-2.27275 -10.05641,-3.85495c-0.39086,-7.2604 -0.44685,-14.52347 -0.1676,-21.7889c11.42576,5.78009 23.54943,8.2942 36.37068,7.5423c12.66438,-1.71394 18.30736,-8.92104 16.92829,-21.62128c-0.75724,-5.81361 -3.82982,-9.89182 -9.21838,-12.23529c-4.69668,-1.72333 -9.55727,-2.56137 -14.5818,-2.51411c-5.84244,0.34494 -11.59705,1.23862 -17.26351,2.68171c-3.28073,-1.58455 -6.52125,-3.26062 -9.7212,-5.02821c-0.11163,-0.39119 -0.22359,-0.78205 -0.33522,-1.17324c1.44511,-19.7233 2.89792,-39.44493 4.35777,-59.16522c21.34205,0 42.68376,0 64.02581,0c0,7.03948 0,14.07898 0,21.11846c-14.07898,0 -28.15795,0 -42.23692,0c-0.4579,6.82529 -1.01671,13.64118 -1.67607,20.44804z" fill="#fefefe"/><path d="M282.81156,156.69777c0.11163,0 0.22359,0 0.33522,0c-8.26872,0.22359 -16.53709,0.44685 -24.80581,0.67042c-0.42438,-0.19777 -0.87122,-0.36538 -1.34086,-0.50282c8.60326,-0.1676 17.20686,-0.22359 25.81145,-0.1676z" fill="#3d4c88"/><path d="M227.50129,165.74854c0,0.78205 0,1.56444 0,2.34649c0.33522,0 0.67042,0 1.00564,0c-0.35801,0.31309 -0.80484,0.42505 -1.34086,0.33522c-0.10258,-0.96709 0.00905,-1.86111 0.33522,-2.68171z" fill="#7b7979"/><path d="M189.62215,196.92342c-0.33488,15.81002 -0.44651,31.67669 -0.33522,47.60035c-0.44617,-15.92332 -0.44617,-31.90162 0,-47.93555c0.20348,0.04156 0.3151,0.15319 0.33522,0.33522z" fill="#475fb5"/><path d="M61.57052,258.93795c1.56679,3.23783 3.41046,6.36672 5.53103,9.38598c1.57952,1.41392 3.19995,2.75479 4.86059,4.02257c-4.90417,3.08732 -8.20033,7.44509 -9.88881,13.07334c-1.95933,-5.75495 -5.59069,-10.05674 -10.89445,-12.90573c5.20219,-3.19793 8.66595,-7.72332 10.39163,-13.57616z" fill="#fbfbfb"/></g></g></svg>