<svg version="1.1" xmlns="http://www.w3.org/2000/svg" xmlns:xlink="http://www.w3.org/1999/xlink" width="395.00782" height="367.71437" viewBox="0,0,395.00782,367.71437"><g transform="translate(-42.49609,3.85718)"><g fill-rule="evenodd" stroke="none" stroke-miterlimit="10"><path d="M76.33098,-3.85718c109.16067,0 218.321,0 327.48167,0c8.52055,1.76146 13.82998,6.90104 15.92157,15.41879c0.37542,3.22782 0.6,6.46798 0.67038,9.72054c4.50497,5.55358 7.07588,11.92207 7.70939,19.10589c0.11061,3.24029 0.22458,6.48024 0.33519,9.72054c2.26589,1.91126 4.89379,2.97247 7.87699,3.18432c1.44802,1.18222 1.56199,2.41137 0.33519,3.6871c-2.92957,0.24301 -5.66809,1.081 -8.21218,2.51394c-0.11061,90.94839 -0.22458,181.89713 -0.33519,272.84553c-2.73181,16.80984 -12.39871,27.14713 -28.99403,31.00518c-49.71219,0.38882 -99.43342,0.55642 -149.16003,0.50279c-48.71432,-0.05698 -97.42898,-0.11061 -146.1433,-0.1676c-7.04102,-0.73071 -13.29804,-3.29828 -18.7707,-7.70939c-5.82227,0.50279 -11.29694,-0.61675 -16.42437,-3.35191c-4.85256,-3.38878 -7.70168,-8.02783 -8.54737,-13.91043c-0.11162,-13.63121 -0.22357,-27.26209 -0.33519,-40.89332c0.05062,-5.55881 -1.17853,-10.81025 -3.6871,-15.75398c-2.93929,-4.5177 -7.12918,-7.03164 -12.56967,-7.5418c-1.02937,-0.94625 -1.25294,-2.06344 -0.67038,-3.35191c7.0608,-1.24925 11.92107,-5.21557 14.58081,-11.89928c0.98613,-2.60376 1.65652,-5.28529 2.01115,-8.04458c0.44312,-79.43526 0.66669,-158.87554 0.67038,-238.32085c1.75171,-9.18129 7.17074,-14.76782 16.25677,-16.75956z" fill="#232020" opacity="0.984"/><path d="M75.99579,0.16511c108.9371,-0.05587 217.87419,0 326.81129,0.1676c7.38425,1.23793 11.79538,5.53954 13.24005,12.90486c0.22458,5.36305 0.22458,10.72611 0,16.08918c-0.02011,6.7608 -1.92064,12.90586 -5.69825,18.43551c-2.97984,3.41727 -6.72059,5.48406 -11.2289,6.20104c-0.4458,0.89396 -0.4458,1.78757 0,2.68153c8.5038,1.35317 13.81322,6.21343 15.92157,14.58081c0.63016,3.32006 0.96535,6.67198 1.00557,10.05573c0.22458,85.69729 0.22458,171.39425 0,257.09154c-1.52512,7.33398 -5.93623,11.74845 -13.24005,13.24005c-108.71352,0.22458 -217.42738,0.22458 -326.14091,0c-7.02191,-1.54858 -11.21181,-5.84908 -12.56967,-12.90486c-0.32346,-15.65174 -0.21151,-31.29411 0.33519,-46.92675c0.79608,-4.96451 2.69561,-9.43362 5.69825,-13.40764c2.64063,-2.59438 5.82495,-3.87917 9.55295,-3.8547c1.64713,-1.06289 1.75875,-2.2917 0.33519,-3.6871c-6.88818,-1.2992 -11.52488,-5.26585 -13.91043,-11.89928c-1.08535,-2.8089 -1.75574,-5.71367 -2.01115,-8.71496c-0.22357,-79.10509 -0.22357,-158.21019 0,-237.31528c1.50702,-6.58945 5.47368,-10.83522 11.89928,-12.73726z" fill="#da4130"/><path d="M417.89068,41.3936c1.61562,4.17883 3.96196,7.9219 7.03901,11.2289c1.11618,0.782 2.23573,1.56434 3.35191,2.34634c-2.49717,1.22043 -4.56531,2.95203 -6.20104,5.19546c-1.60892,2.43248 -2.94968,5.00239 -4.02229,7.70939c-1.89383,-5.63356 -5.41333,-9.87942 -10.55852,-12.73726c5.16864,-3.29761 8.63117,-7.87833 10.39092,-13.74284z" fill="#fbfbfb"/><path d="M234.20597,111.11335c10.12813,-0.60234 19.96029,0.79441 29.49681,4.18989c20.80028,9.0934 28.78889,24.7914 23.96616,47.09434c-2.02992,6.68941 -5.54943,12.44364 -10.55852,17.26234c15.77912,14.05323 19.63382,30.86876 11.56409,50.44625c-6.60193,11.39984 -16.26649,18.94164 -28.99403,22.62539c-15.36985,3.82386 -30.56507,3.2651 -45.58599,-1.67595c-19.52824,-8.15084 -28.52242,-22.84327 -26.98288,-44.07762c1.43964,-11.03851 6.29992,-20.20029 14.58081,-27.48567c-11.05762,-12.80967 -13.79512,-27.22288 -8.21218,-43.23965c4.85592,-9.88378 12.39772,-16.86682 22.62539,-20.94944c5.92652,-2.04098 11.95995,-3.43772 18.10032,-4.18989z" fill="#242020"/><path d="M233.53559,122.84503c10.55986,-1.04915 20.61559,0.68245 30.16719,5.19546c12.85759,7.99766 16.82391,19.22656 11.89928,33.6867c-2.8632,6.32807 -7.27667,11.29997 -13.24005,14.916c-1.89953,1.06155 -3.79872,2.12276 -5.69825,3.18432c7.10538,3.63648 13.30641,8.44111 18.6031,14.41322c6.00193,8.00268 7.56627,16.82927 4.69267,26.48009c-3.48968,9.18792 -9.80232,15.61252 -18.93829,19.27348c-3.65828,1.52914 -7.45699,2.53471 -11.39649,3.01672c-9.13999,1.03641 -18.19014,0.58926 -27.15048,-1.34076c-20.04442,-6.43031 -27.47461,-19.89393 -22.2902,-40.39052c3.1575,-7.73889 8.35296,-13.71669 15.58638,-17.93272c1.67595,-0.9496 3.35191,-1.89953 5.02786,-2.84913c-3.95827,-2.5736 -7.5894,-5.59032 -10.89371,-9.05016c-7.50929,-8.9439 -9.52043,-18.99963 -6.03344,-30.16719c3.89459,-7.80391 9.984,-13.111 18.26791,-15.92157c3.75213,-1.27473 7.55085,-2.11271 11.39649,-2.51394z" fill="#fefefe"/><path d="M236.21712,140.94535c6.26874,-0.90871 11.57582,0.8792 15.92157,5.36305c1.75305,3.00265 2.31182,6.2426 1.67595,9.72054c-1.09474,4.02866 -3.38509,7.21297 -6.87142,9.55295c-2.23874,1.45506 -4.58508,2.74018 -7.03901,3.8547c-5.03624,-2.19215 -9.22613,-5.4321 -12.56967,-9.72054c-3.92911,-9.63473 -0.96803,-15.89174 8.88257,-18.7707z" fill="#232020"/><path d="M237.89307,152.34185c1.23417,-0.0553 2.46298,0.00034 3.6871,0.1676c0.47262,0.12335 0.80781,0.40256 1.00557,0.83798c-1.73394,3.52487 -3.52151,3.52487 -5.36305,0c0.14815,-0.4153 0.37172,-0.75049 0.67038,-1.00557z" fill="#cd3f2f"/><path d="M238.22827,190.88882c7.03733,2.65036 12.90318,6.89622 17.59753,12.73726c2.92488,5.29703 2.81326,10.54813 -0.33519,15.75398c-2.70231,3.11158 -6.1102,4.95512 -10.22333,5.53066c-5.39256,1.01629 -10.644,0.56949 -15.75398,-1.34076c-6.014,-3.14409 -8.63988,-8.11631 -7.87699,-14.916c0.93384,-5.052 3.44778,-9.13026 7.5418,-12.23447c2.8146,-2.1888 5.83132,-4.03234 9.05016,-5.53066z" fill="#242121"/><path d="M238.22827,203.96127c2.91114,1.1715 5.42506,2.9594 7.5418,5.36305c1.46612,2.23807 0.85172,3.63448 -1.84356,4.18989c-2.79314,0.22357 -5.58663,0.22357 -8.37977,0c-0.80412,-0.24503 -1.53015,-0.63619 -2.17875,-1.17317c-0.2571,-1.37227 -0.14547,-2.71303 0.33519,-4.02229c1.25228,-1.75574 2.76063,-3.20812 4.52508,-4.35748z" fill="#d74130"/><path d="M61.58258,258.93261c1.56668,3.23761 3.41024,6.36628 5.53066,9.38535c1.57942,1.41383 3.19974,2.7546 4.86027,4.02229c-4.90385,3.08711 -8.19978,7.4446 -9.88814,13.07245c-1.95919,-5.75456 -5.59032,-10.05607 -10.89371,-12.90486c5.20183,-3.19772 8.66535,-7.72281 10.39092,-13.57524z" fill="#fbfbfb"/></g></g></svg>