<svg version="1.1" xmlns="http://www.w3.org/2000/svg" xmlns:xlink="http://www.w3.org/1999/xlink" width="391.18034" height="364.15136" viewBox="0,0,391.18034,364.15136"><g transform="translate(-44.40983,2.07568)"><g fill-rule="evenodd" stroke="none" stroke-miterlimit="10"><path d="M77.91685,-2.07568c108.10295,0 216.20556,0 324.30851,0c8.43799,1.74439 13.69598,6.83417 15.76731,15.26939c0.37178,3.19655 0.59417,6.40531 0.66389,9.62635c4.46132,5.49977 7.00732,11.80656 7.63469,18.92076c0.10954,3.2089 0.22241,6.41746 0.33195,9.62635c2.24394,1.89273 4.84637,2.94367 7.80067,3.15346c1.43399,1.17077 1.54686,2.388 0.33195,3.65137c-2.90118,0.24066 -5.61316,1.07052 -8.13261,2.48958c-0.10954,90.06715 -0.22241,180.13462 -0.33195,270.20177c-2.70534,16.64696 -12.27857,26.88408 -28.71309,30.70475c-49.2305,0.38505 -98.46996,0.55102 -147.71473,0.49792c-48.2423,-0.05643 -96.48493,-0.10954 -144.72723,-0.16597c-6.9728,-0.72363 -13.16918,-3.26632 -18.58882,-7.63469c-5.76586,0.49792 -11.18749,-0.61077 -16.26521,-3.31943c-4.80554,-3.35595 -7.62706,-7.95004 -8.46456,-13.77565c-0.11054,-13.49913 -0.2214,-26.99793 -0.33195,-40.49708c0.05012,-5.50495 -1.16711,-10.70549 -3.65137,-15.60133c-2.91081,-4.47393 -7.06009,-6.96351 -12.44787,-7.46872c-1.0194,-0.93708 -1.2408,-2.04344 -0.66389,-3.31943c6.99239,-1.23716 11.80556,-5.16503 14.43953,-11.78399c0.97658,-2.57854 1.64046,-5.23408 1.99166,-7.96664c0.43883,-78.66556 0.66023,-157.3361 0.66389,-236.01162c1.73473,-9.09232 7.10126,-14.62472 16.09924,-16.59716z" fill="#232020" opacity="0.984"/><path d="M77.5849,1.90764c107.88154,-0.05533 215.76309,0 323.64462,0.16597c7.31271,1.22593 11.68108,5.48586 13.11176,12.77981c0.34855,7.54348 0.12946,15.0675 -0.66389,22.57214c-0.90952,5.75158 -3.51195,10.56475 -7.80067,14.43953c-2.5792,1.55815 -5.34429,2.66484 -8.29858,3.31943c-0.44148,0.88529 -0.44148,1.77026 0,2.65555c8.42139,1.34006 13.67938,6.15323 15.76731,14.43953c0.66389,3.28225 0.99582,6.60169 0.99582,9.9583c0.22241,84.86692 0.22241,169.73352 0,254.60043c-1.51034,7.26291 -5.87871,11.63461 -13.11176,13.11176c-107.66014,0.22241 -215.3206,0.22241 -322.98074,0c-6.94956,-1.52694 -11.09886,-5.78909 -12.44787,-12.77981c-0.32033,-15.50008 -0.20946,-30.99089 0.33195,-46.47204c0.65924,-4.97051 2.54003,-9.39665 5.64303,-13.27773c2.61504,-2.56923 5.76851,-3.84157 9.46038,-3.81735c1.63117,-1.05259 1.74171,-2.2695 0.33195,-3.65137c-6.82143,-1.28661 -11.4132,-5.21483 -13.77565,-11.78399c-1.07483,-2.78169 -1.73872,-5.6583 -1.99166,-8.63052c-0.2214,-78.56 -0.2214,-157.11967 0,-235.67967c1.78752,-6.15765 5.71539,-10.14097 11.78399,-11.94996z" fill="#fdd14b"/><path d="M416.16696,42.73665c1.59996,4.13834 3.92357,7.84514 6.9708,11.1201c1.10537,0.77442 2.21407,1.54918 3.31943,2.32361c-2.47298,1.20861 -4.52107,2.92342 -6.14095,5.14512c-1.59333,2.40892 -2.9211,4.95393 -3.98332,7.63469c-1.87547,-5.57897 -5.36089,-9.7837 -10.45621,-12.61384c5.11856,-3.26565 8.54753,-7.80199 10.29024,-13.60967z" fill="#fbfbfb"/><path d="M236.25375,117.75582c11.94996,0 23.89991,0 35.84987,0c0,46.58259 0,93.1655 0,139.74809c-15.82274,0 -31.64514,0 -47.46788,0c0.05543,-25.55996 0,-51.11958 -0.16597,-76.67888c-3.59594,2.93205 -7.19222,5.86444 -10.78815,8.79649c-0.33195,0.2214 -0.66389,0.2214 -0.99582,0c-8.75666,-10.63678 -17.38719,-21.36985 -25.89157,-32.19849c16.54869,-13.17715 33.03532,-26.39978 49.45954,-39.66721z" fill="#232020"/><path d="M240.23707,129.37382c6.7494,0 13.49913,0 20.24853,0c0,38.83735 0,77.67471 0,116.51206c-8.18804,0 -16.37575,0 -24.5638,0c-0.05543,-25.33855 0,-50.67677 0.16597,-76.015c0.12083,-3.87477 0.2868,-7.74755 0.49792,-11.61801c-0.11054,-0.88529 -0.2214,-1.77026 -0.33195,-2.65555c-6.76102,6.63754 -13.95291,12.72305 -21.57631,18.25687c-4.0288,-4.73451 -7.90158,-9.60312 -11.61801,-14.6055c12.29484,-10.08211 24.68728,-20.04041 37.17763,-29.87489z" fill="#fefefe"/><path d="M240.23707,129.37382c6.80252,-0.33094 13.66278,-0.44181 20.58048,-0.33195c0.11054,39.00365 0,77.95189 -0.33195,116.84401c0,-38.83735 0,-77.67471 0,-116.51206c-6.7494,0 -13.49913,0 -20.24853,0z" fill="#b1b0b0"/><path d="M63.31135,258.16779c1.5515,3.20624 3.37719,6.3046 5.47706,9.29441c1.56412,1.40014 3.16873,2.72791 4.81317,3.98332c-4.85634,3.0572 -8.12032,7.37245 -9.79233,12.94578c-1.94021,-5.6988 -5.53615,-9.95863 -10.78815,-12.77981c5.15142,-3.16674 8.58139,-7.64798 10.29024,-13.4437z" fill="#fbfbfb"/></g></g></svg>