<svg version="1.1" xmlns="http://www.w3.org/2000/svg" xmlns:xlink="http://www.w3.org/1999/xlink" width="395.95207" height="368.59337" viewBox="0,0,395.95207,368.59337"><g transform="translate(-42.02397,4.29668)"><g fill-rule="evenodd" stroke="none" stroke-miterlimit="10"><path d="M75.93972,-4.29666c109.42161,0 218.8429,0 328.26451,0c8.54093,1.76567 13.86305,6.91754 15.95964,15.45564c0.37631,3.23554 0.60143,6.48344 0.67199,9.74378c4.51574,5.56685 7.0928,11.95057 7.72782,19.15156c0.11088,3.24804 0.22512,6.49574 0.33599,9.74378c2.27131,1.91583 4.90548,2.97958 7.89582,3.19193c1.45149,1.18505 1.56573,2.41712 0.33599,3.69591c-2.93657,0.2436 -5.68163,1.08358 -8.23182,2.51994c-0.11088,91.16581 -0.22512,182.33195 -0.33599,273.49776c-2.73833,16.85001 -12.42835,27.21202 -29.06333,31.07929c-49.83102,0.38975 -99.67112,0.55775 -149.51659,0.50398c-48.83077,-0.05712 -97.66188,-0.11088 -146.49266,-0.16799c-7.05785,-0.73247 -13.32983,-3.30616 -18.81558,-7.72782c-5.83619,0.50398 -11.32395,-0.61822 -16.46362,-3.35992c-4.86416,-3.39688 -7.7201,-8.04702 -8.5678,-13.94368c-0.11188,-13.66381 -0.22411,-27.32727 -0.33599,-40.99106c0.05074,-5.57209 -1.18135,-10.83609 -3.69591,-15.79164c-2.94632,-4.5285 -7.14622,-7.04844 -12.59972,-7.55983c-1.03183,-0.94851 -1.25594,-2.06837 -0.67199,-3.35992c7.07768,-1.25224 11.94957,-5.22804 14.61567,-11.92773c0.98849,-2.60999 1.66048,-5.29793 2.01596,-8.06382c0.44418,-79.62514 0.66829,-159.25532 0.67199,-238.89056c1.75589,-9.20324 7.18788,-14.80312 16.29563,-16.79962z" fill="#232020" opacity="0.984"/><path d="M75.60373,-0.26475c109.19751,-0.05601 218.39501,0 327.59253,0.16799c7.40191,1.24089 11.82357,5.55278 13.27169,12.9357c0.35279,7.6355 0.13104,15.2513 -0.67199,22.84747c-0.92062,5.82174 -3.55479,10.69363 -7.89582,14.61567c-2.61066,1.57715 -5.40948,2.69734 -8.39981,3.35992c-0.44687,0.8961 -0.44687,1.79185 0,2.68794c8.52413,1.3564 13.84624,6.22829 15.95964,14.61567c0.67199,3.32229 1.00798,6.68222 1.00798,10.07977c0.22512,85.90215 0.22512,171.80397 0,257.70612c-1.52876,7.35151 -5.95043,11.77653 -13.27169,13.27169c-108.9734,0.22512 -217.94714,0.22512 -326.92054,0c-7.03433,-1.54556 -11.23424,-5.8597 -12.59972,-12.9357c-0.32423,-15.68916 -0.21201,-31.36892 0.33599,-47.03893c0.66728,-5.03115 2.57102,-9.51127 5.71187,-13.4397c2.64694,-2.60059 5.83887,-3.88844 9.57578,-3.86392c1.65107,-1.06544 1.76295,-2.29718 0.33599,-3.69591c-6.90464,-1.30231 -11.55242,-5.27844 -13.94368,-11.92773c-1.08795,-2.81561 -1.75992,-5.72732 -2.01596,-8.7358c-0.22411,-79.5183 -0.22411,-159.03626 0,-238.55456c1.80932,-6.23276 5.78511,-10.26466 11.92773,-12.09572z" fill="#fdd14b"/><path d="M418.3159,41.06231c1.61949,4.18882 3.97143,7.94084 7.05584,11.25575c1.11886,0.78387 2.24107,1.56807 3.35992,2.35194c-2.50314,1.22335 -4.57622,2.95909 -6.21586,5.20788c-1.61276,2.43829 -2.95673,5.01435 -4.03191,7.72782c-1.89835,-5.64702 -5.42628,-9.90304 -10.58376,-12.76771c5.181,-3.3055 8.65181,-7.89716 10.41577,-13.77569z" fill="#fbfbfb"/><path d="M240.91195,112.62868c13.55158,0 27.10349,0 40.65507,0c-0.11188,24.80799 0.00033,49.55954 0.33599,74.2543c4.70389,0 9.40779,0 14.11168,0c0,14.11168 0,28.22335 0,42.33504c-4.70389,0 -9.40779,0 -14.11168,0c0,8.1757 0,16.35174 0,24.52744c-15.90352,0 -31.80739,0 -47.71092,0c0,-8.1757 0,-16.35174 0,-24.52744c-16.79962,0 -33.59923,0 -50.39885,0c-0.05611,-10.86431 0,-21.72795 0.16799,-32.59125c19.05782,-27.95927 38.04139,-55.95885 56.9507,-83.99809z" fill="#232020"/><path d="M270.14329,124.05241c0,24.86343 0,49.72687 0,74.5903c4.70389,0 9.40779,0 14.11168,0c0,6.27197 0,12.5436 0,18.81558c-4.70389,0 -9.40779,0 -14.11168,0c0,8.1757 0,16.35174 0,24.52744c-8.06382,0 -16.12763,0 -24.19145,0c0,-8.06382 0,-16.12763 0,-24.19145c-16.74283,-0.33566 -33.54245,-0.44754 -50.39885,-0.33599c0,-5.71187 0,-11.42374 0,-17.13561c17.12688,-25.30527 34.26248,-50.61691 51.40683,-75.93427c7.72447,-0.33599 15.45229,-0.44788 23.18347,-0.33599z" fill="#fefefe"/><path d="M245.95184,198.30672c-9.46558,0.11121 -18.87337,-0.00067 -28.22335,-0.33599c7.33236,-11.078 14.66808,-22.16575 22.0075,-33.26324c2.3543,-3.81149 4.53825,-7.73152 6.55185,-11.75973c0.30508,3.80679 0.24931,7.6146 -0.16799,11.42374c-0.16799,11.31118 -0.22411,22.62303 -0.16799,33.93523z" fill="#242121"/><path d="M240.91195,112.62868c13.60668,-0.33566 27.27014,-0.44754 40.99106,-0.33599c0,24.86343 0,49.72687 0,74.5903c-0.33566,-24.69477 -0.44788,-49.44632 -0.33599,-74.2543c-13.55158,0 -27.10349,0 -40.65507,0z" fill="#5a4c2b"/><path d="M217.72848,197.97073c9.35,0.33532 18.75778,0.4472 28.22335,0.33599c-9.4649,0.44654 -18.98457,0.44654 -28.55935,0c0.04167,-0.20395 0.15355,-0.31583 0.33599,-0.33599z" fill="#c8c7c7"/><path d="M270.14329,124.05241c0.33566,24.69477 0.44788,49.44632 0.33599,74.2543c4.70389,0 9.40779,0 14.11168,0c0,6.49574 0,12.99182 0,19.48755c-4.70389,0 -9.40779,0 -14.11168,0c0,8.1757 0,16.35174 0,24.52744c-8.23383,0.11121 -16.40953,-0.00067 -24.52744,-0.33599c8.06382,0 16.12763,0 24.19145,0c0,-8.1757 0,-16.35174 0,-24.52744c4.70389,0 9.40779,0 14.11168,0c0,-6.27197 0,-12.5436 0,-18.81558c-4.70389,0 -9.40779,0 -14.11168,0c0,-24.86343 0,-49.72687 0,-74.5903z" fill="#9d9c9c"/><path d="M195.55299,200.32268c0,5.71187 0,11.42374 0,17.13561c16.8564,-0.11155 33.65602,0.00033 50.39885,0.33599c-16.9115,0 -33.82334,0 -50.73484,0c-0.11088,-5.88255 0.00101,-11.70631 0.33599,-17.4716z" fill="#bab8b8"/><path d="M61.15605,259.12133c1.57043,3.24535 3.41839,6.3815 5.54387,9.40779c1.5832,1.41721 3.20738,2.76118 4.87189,4.03191c-4.91557,3.09449 -8.21938,7.46239 -9.91177,13.1037c-1.96388,-5.76831 -5.60368,-10.08011 -10.91975,-12.9357c5.21426,-3.20537 8.68607,-7.74127 10.41577,-13.60769z" fill="#fbfbfb"/></g></g></svg>