<svg version="1.1" xmlns="http://www.w3.org/2000/svg" xmlns:xlink="http://www.w3.org/1999/xlink" width="385.67055" height="359.02229" viewBox="0,0,385.67055,359.02229"><g transform="translate(-47.16472,-0.48886)"><g fill-rule="evenodd" stroke="none" stroke-miterlimit="10"><path d="M80.19981,0.4889c106.58031,0 213.1603,0 319.74061,0c8.31915,1.71982 13.50306,6.73792 15.54522,15.05431c0.36654,3.15152 0.58581,6.31508 0.65454,9.49076c4.39848,5.4223 6.90862,11.64027 7.52716,18.65426c0.108,3.1637 0.21927,6.32707 0.32726,9.49076c2.21233,1.86608 4.77811,2.90221 7.69079,3.10904c1.4138,1.15427 1.52507,2.35436 0.32726,3.59994c-2.86032,0.23727 -5.53409,1.05544 -8.01806,2.45451c-0.108,88.79855 -0.21927,177.59742 -0.32726,266.39597c-2.66724,16.41248 -12.10563,26.50542 -28.30867,30.27226c-48.53709,0.37963 -97.083,0.54326 -145.63416,0.4909c-47.56281,-0.05564 -95.12594,-0.108 -142.68874,-0.16364c-6.87459,-0.71345 -12.9837,-3.22032 -18.327,-7.52716c-5.68464,0.4909 -11.02991,-0.60217 -16.03612,-3.27268c-4.73785,-3.30868 -7.51963,-7.83806 -8.34532,-13.58162c-0.10898,-13.309 -0.21829,-26.61766 -0.32726,-39.92667c0.04942,-5.42741 -1.15067,-10.55471 -3.59994,-15.38159c-2.86981,-4.41092 -6.96066,-6.86542 -12.27254,-7.36353c-1.00504,-0.92388 -1.22333,-2.01466 -0.65454,-3.27268c6.89389,-1.21973 11.63928,-5.09228 14.23615,-11.61801c0.96282,-2.54221 1.61736,-5.16036 1.96361,-7.85442c0.43264,-77.55755 0.65094,-155.12001 0.65454,-232.68738c1.7103,-8.96426 7.00124,-14.41873 15.87249,-16.36339z" fill="#232020" opacity="0.984"/><path d="M79.87253,4.41612c106.36203,-0.05455 212.72405,0 319.08607,0.16364c7.19334,1.19404 11.50346,5.39396 12.92708,12.5998c0.34363,7.43722 0.12763,14.85528 -0.65454,22.25421c-0.89671,5.67057 -3.46249,10.41595 -7.69079,14.23615c-2.54614,1.54601 -5.27229,2.63679 -8.1817,3.27268c-0.43526,0.87283 -0.43526,1.74532 0,2.61815c8.30278,1.32118 13.48671,6.06656 15.54522,14.23615c0.65454,3.23602 0.9818,6.5087 0.9818,9.81803c0.21927,83.67157 0.21927,167.34281 0,251.01438c-1.43998,7.00353 -5.63882,11.31365 -12.5998,12.92708c-106.25305,0.21927 -212.50576,0.21927 -318.75881,0c-6.85168,-1.50543 -10.94252,-5.70755 -12.27254,-12.5998c-0.31582,-15.28177 -0.20651,-30.55438 0.32726,-45.81749c0.64995,-4.90051 2.50425,-9.2643 5.56355,-13.09072c2.57822,-2.53305 5.68725,-3.78747 9.32713,-3.76358c1.6082,-1.03776 1.71718,-2.23753 0.32726,-3.59994c-4.45968,-0.45589 -8.0053,-2.47415 -10.63621,-6.05445c-2.80403,-4.26561 -4.44037,-8.95634 -4.90902,-14.07251c-0.21829,-77.45348 -0.21829,-154.90663 0,-232.36011c1.7535,-6.06234 5.62639,-9.98955 11.61801,-11.78164z" fill="#2ab7a1"/><path d="M413.68567,44.67006c1.57743,4.08005 3.86831,7.73465 6.87263,10.96347c1.0898,0.76352 2.18287,1.52735 3.27268,2.29087c-2.43814,1.19158 -4.45739,2.88224 -6.05445,5.07265c-1.57089,2.37499 -2.87995,4.88414 -3.92722,7.52716c-1.84906,-5.50039 -5.28537,-9.64589 -10.30893,-12.43618c5.04647,-3.21966 8.42715,-7.6921 10.1453,-13.41798z" fill="#fbfbfb"/><path d="M197.68893,114.37809c28.03605,0 56.07177,0 84.10781,0c0,14.29081 0,28.58127 0,42.87208c-8.40063,-0.05465 -16.80029,0 -25.19962,0.16364c0.40745,0.25887 0.84369,0.42251 1.30907,0.4909c17.09909,5.3721 27.517,16.82647 31.25407,34.36312c2.01368,13.24028 -0.05891,25.78543 -6.21809,37.63579c-7.12364,10.82406 -16.99633,17.86031 -29.61773,21.10877c-16.50935,3.67457 -32.87273,3.12901 -49.09017,-1.63634c-4.71691,-1.86805 -9.29866,-3.99528 -13.74524,-6.38173c-0.10865,-15.54621 0.00033,-31.03676 0.32726,-46.47202c6.36994,3.23962 12.69733,6.56696 18.98153,9.98167c8.70205,3.78616 17.75624,5.20421 27.16323,4.25448c5.14105,-0.83191 7.05,-3.83197 5.72719,-8.99986c-0.77596,-1.53521 -2.03036,-2.46236 -3.76358,-2.78177c-9.00281,-1.64419 -17.78471,-0.82603 -26.34506,2.45451c-6.81044,-3.5142 -13.57376,-7.11415 -20.2906,-10.79983c1.73157,-25.41528 3.53154,-50.83287 5.39992,-76.25339z" fill="#232020"/><path d="M197.68893,114.37809c28.09005,-0.32694 56.23508,-0.43624 84.43509,-0.32726c0,14.39978 0,28.79957 0,43.19934c-0.10898,0 -0.21829,0 -0.32726,0c0,-14.29081 0,-28.58127 0,-42.87208c-28.03605,0 -56.07177,0 -84.10781,0z" fill="#265b52"/><path d="M227.79757,166.0864c-0.31844,0.80115 -0.42741,1.67398 -0.32726,2.61815c0.52331,0.0877 0.95955,-0.0216 1.30907,-0.32726c7.14491,-1.41969 14.34481,-1.69263 21.59968,-0.81817c16.12056,3.13817 25.44769,12.79258 27.98139,28.9632c1.69983,27.427 -11.11827,42.53565 -38.45396,45.32659c-9.49272,0.72163 -18.87451,0.06709 -28.14503,-1.96361c-3.38427,-0.96446 -6.65695,-2.21888 -9.81803,-3.76358c-0.38159,-7.08829 -0.43624,-14.17921 -0.16364,-21.2724c11.15492,5.64307 22.99122,8.09758 35.50855,7.36353c12.36418,-1.67332 17.8734,-8.70958 16.52702,-21.10877c-0.7393,-5.67581 -3.73903,-9.65734 -8.99986,-11.94527c-4.58534,-1.68248 -9.33074,-2.50065 -14.23615,-2.45451c-5.70395,0.33676 -11.32216,1.20926 -16.85429,2.61815c-3.20297,-1.54699 -6.36667,-3.18333 -9.49076,-4.90902c-0.10898,-0.38192 -0.21829,-0.76352 -0.32726,-1.14544c1.41085,-19.25578 2.82922,-38.50993 4.25448,-57.76276c20.83616,0 41.67199,0 62.50815,0c0,6.87263 0,13.74524 0,20.61787c-13.74524,0 -27.49049,0 -41.23573,0c-0.44705,6.6635 -0.9926,13.31783 -1.63634,19.96333z" fill="#fefefe"/><path d="M281.79676,157.25017c0.10898,0 0.21829,0 0.32726,0c-8.07272,0.21829 -16.14511,0.43624 -24.21781,0.65454c-0.46538,-0.0684 -0.90162,-0.23203 -1.30907,-0.4909c8.39932,-0.16364 16.79899,-0.21829 25.19962,-0.16364z" fill="#276b60"/><path d="M227.79757,166.0864c0,0.76352 0,1.52735 0,2.29087c0.32726,0 0.65454,0 0.9818,0c-0.34952,0.30567 -0.78577,0.41498 -1.30907,0.32726c-0.10014,-0.94417 0.00884,-1.81699 0.32726,-2.61815z" fill="#7b7979"/><path d="M190.81632,196.5223c-0.32694,15.43526 -0.43592,30.92582 -0.32726,46.47202c-0.43559,-15.54588 -0.43559,-31.14542 0,-46.79929c0.19865,0.04058 0.30763,0.14956 0.32726,0.32726z" fill="#298b7c"/><path d="M65.80002,257.06684c1.52964,3.16108 3.32963,6.2158 5.39992,9.1635c1.54208,1.38041 3.1241,2.68948 4.74538,3.92722c-4.78792,3.01414 -8.00595,7.26862 -9.6544,12.76344c-1.91288,-5.61854 -5.45817,-9.81836 -10.63621,-12.5998c5.07887,-3.12214 8.46053,-7.54024 10.1453,-13.25434z" fill="#fbfbfb"/></g></g></svg>