<svg version="1.1" xmlns="http://www.w3.org/2000/svg" xmlns:xlink="http://www.w3.org/1999/xlink" width="385.7942" height="359.13739" viewBox="0,0,385.7942,359.13739"><g transform="translate(-47.1029,-0.43131)"><g fill-rule="evenodd" stroke="none" stroke-miterlimit="10"><path d="M80.14857,0.43131c106.61449,0 213.22864,0 319.84313,0c8.32182,1.72038 13.5074,6.74008 15.5502,15.05915c0.36666,3.15254 0.586,6.31712 0.65474,9.49381c4.39989,5.42404 6.91084,11.644 7.52957,18.66025c0.10804,3.16471 0.21934,6.32909 0.32737,9.49381c2.21304,1.86667 4.77964,2.90314 7.69326,3.11004c1.41425,1.15465 1.52556,2.35511 0.32737,3.6011c-2.86124,0.23734 -5.53587,1.05578 -8.02063,2.45529c-0.10804,88.82701 -0.21934,177.65436 -0.32737,266.48138c-2.66809,16.41774 -12.10952,26.51391 -28.31774,30.28198c-48.55265,0.37975 -97.11413,0.54344 -145.68085,0.49106c-47.57806,-0.05566 -95.15644,-0.10804 -142.7345,-0.16369c-6.8768,-0.71367 -12.98786,-3.22135 -18.33288,-7.52957c-5.68647,0.49106 -11.03344,-0.60236 -16.04126,-3.27373c-4.73938,-3.30974 -7.52204,-7.84057 -8.348,-13.58597c-0.10902,-13.31327 -0.21836,-26.62621 -0.32737,-39.93947c0.04944,-5.42915 -1.15104,-10.5581 -3.6011,-15.38652c-2.87073,-4.41233 -6.96289,-6.86762 -12.27647,-7.36589c-1.00537,-0.92417 -1.22372,-2.0153 -0.65474,-3.27373c6.89611,-1.22012 11.64301,-5.09392 14.24071,-11.62173c0.96313,-2.54303 1.61788,-5.16202 1.96424,-7.85694c0.43278,-77.58242 0.65115,-155.16975 0.65474,-232.76199c1.71085,-8.96713 7.00348,-14.42335 15.87757,-16.36864z" fill="#232020" opacity="0.984"/><path d="M79.8212,4.35978c106.39613,-0.05458 212.79225,0 319.18839,0.16369c7.21202,1.20905 11.52025,5.41032 12.93122,12.60385c0.34374,7.43961 0.12768,14.86004 -0.65474,22.26135c-0.897,5.67239 -3.4636,10.41929 -7.69326,14.24071c-2.54368,1.53669 -5.2707,2.62815 -8.18431,3.27373c-0.43541,0.87311 -0.43541,1.74588 0,2.61898c8.30544,1.3216 13.49103,6.06851 15.5502,14.24071c0.65474,3.23706 0.98212,6.51079 0.98212,9.82118c0.21934,83.6984 0.21934,167.39646 0,251.09486c-1.48955,7.16291 -5.79777,11.47442 -12.93122,12.93122c-106.17777,0.21934 -212.35587,0.21934 -318.53363,0c-6.85388,-1.50591 -10.94604,-5.70938 -12.27647,-12.60385c-0.31592,-15.28666 -0.20658,-30.56417 0.32737,-45.83218c0.65016,-4.90207 2.50506,-9.26727 5.56534,-13.09491c2.57904,-2.53387 5.68908,-3.78868 9.33012,-3.76479c1.60871,-1.0381 1.71772,-2.23825 0.32737,-3.6011c-6.72751,-1.26889 -11.25606,-5.14302 -13.58597,-11.62173c-1.06004,-2.74339 -1.71478,-5.58039 -1.96424,-8.51169c-0.21836,-77.47832 -0.21836,-154.9563 0,-232.43461c1.7629,-6.07286 5.6367,-10.00133 11.62173,-11.78542z" fill="#fdd14b"/><path d="M413.74135,44.62662c1.57794,4.08136 3.86955,7.73713 6.87483,10.96699c1.09015,0.76376 2.18358,1.52785 3.27373,2.29161c-2.43892,1.19197 -4.45882,2.88317 -6.05639,5.07428c-1.57139,2.37574 -2.88088,4.88571 -3.92847,7.52957c-1.84965,-5.50216 -5.28707,-9.64898 -10.31224,-12.44017c5.04809,-3.22069 8.42984,-7.69457 10.14855,-13.42228z" fill="#fbfbfb"/><path d="M258.56669,208.31297c-0.25829,0.09264 -0.47665,0.25633 -0.65474,0.49106c11.34838,0.16369 22.69741,0.21836 34.04676,0.16369c0,14.29539 0,28.59044 0,42.88582c-34.26512,0 -68.52991,0 -102.79503,0c0,-11.02166 0,-22.04298 0,-33.06464c11.21939,-11.3834 22.51375,-22.7321 33.88308,-34.04676c4.376,-4.48467 8.63184,-9.0679 12.76754,-13.74965c2.13349,-2.46479 3.87937,-5.19278 5.23797,-8.18431c0.824,-2.31681 0.98768,-4.66309 0.49106,-7.03852c-3.67836,-0.58469 -7.17045,-0.03896 -10.47592,1.63686c-2.70606,1.50722 -5.32504,3.14409 -7.85694,4.91059c-3.77198,3.17191 -7.59112,6.28196 -11.45804,9.33012c-9.27971,-10.80854 -18.44615,-21.72085 -27.4993,-32.73727c7.05357,-6.57823 14.58315,-12.5256 22.58872,-17.84181c17.5439,-9.23355 35.76776,-10.87041 54.67125,-4.91059c19.38046,8.25307 28.38321,22.93017 27.00825,44.03163c-1.41851,11.45346 -5.78337,21.60201 -13.09491,30.44566c-5.22683,6.26362 -10.84684,12.15633 -16.8597,17.67812z" fill="#232020"/><path d="M230.74002,219.11627c-0.30577,0.34964 -0.41511,0.78602 -0.32737,1.30949c16.69601,0 33.39201,0 50.08802,0c0,6.65646 0,13.31327 0,19.96973c-26.73555,0 -53.47077,0 -80.20631,0c-0.05467,-5.67567 0,-11.35001 0.16369,-17.02338c15.31646,-14.87909 30.15724,-30.15627 44.52268,-45.83218c3.72812,-4.28989 6.3471,-9.20048 7.85694,-14.73177c2.34006,-12.03553 -2.57053,-18.25561 -14.73177,-18.66025c-3.35,0.11458 -6.56906,0.82367 -9.65749,2.12792c-5.54471,2.52404 -10.61899,5.7431 -15.22283,9.65749c-4.5423,-5.08705 -8.96183,-10.27067 -13.2586,-15.5502c16.17908,-15.28241 35.05769,-19.97465 56.63548,-14.07702c16.48714,6.8339 23.19829,19.11038 20.13343,36.82943c-1.06756,5.16627 -3.0318,9.96752 -5.89271,14.4044c-2.47657,3.78705 -5.2049,7.38814 -8.18431,10.8033c-10.50605,10.45235 -21.14565,20.70993 -31.91884,30.77303z" fill="#fefefe"/><path d="M258.56669,208.31297c11.13067,0.21836 22.26135,0.43639 33.39201,0.65474c-11.34936,0.05467 -22.69839,0 -34.04676,-0.16369c0.17809,-0.23473 0.39645,-0.39841 0.65474,-0.49106z" fill="#c6a440"/><path d="M230.74002,219.11627c0,0.32737 0,0.65474 0,0.98212c16.69601,0 33.39201,0 50.08802,0c0,6.87483 0,13.74965 0,20.62448c-26.89956,0.10902 -53.74412,-0.00033 -80.53368,-0.32737c26.73555,0 53.47077,0 80.20631,0c0,-6.65646 0,-13.31327 0,-19.96973c-16.69601,0 -33.39201,0 -50.08802,0c-0.08774,-0.52347 0.0216,-0.95986 0.32737,-1.30949z" fill="#c8c7c7"/><path d="M189.16368,218.7889c0,11.02166 0,22.04298 0,33.06464c34.26512,0 68.52991,0 102.79503,0c-34.31914,0.32705 -68.69327,0.43639 -103.1224,0.32737c-0.10869,-11.18666 0.00065,-22.31732 0.32737,-33.39201z" fill="#b6973e"/><path d="M65.74418,257.0915c1.53014,3.16209 3.33069,6.21779 5.40165,9.16644c1.54258,1.38086 3.1251,2.69034 4.7469,3.92847c-4.78946,3.0151 -8.00851,7.27095 -9.65749,12.76754c-1.9135,-5.62033 -5.45993,-9.82151 -10.63962,-12.60385c5.0805,-3.12314 8.46324,-7.54267 10.14855,-13.2586z" fill="#fbfbfb"/></g></g></svg>