<svg version="1.1" xmlns="http://www.w3.org/2000/svg" xmlns:xlink="http://www.w3.org/1999/xlink" width="384.32321" height="357.76803" viewBox="0,0,384.32321,357.76803"><g transform="translate(-47.83839,-1.11599)"><g fill-rule="evenodd" stroke="none" stroke-miterlimit="10"><path d="M80.75807,1.11599c106.20798,0 212.41562,0 318.6236,0c8.29009,1.71382 13.45589,6.71438 15.49091,15.00173c0.36525,3.14052 0.58376,6.29303 0.65225,9.45761c4.38311,5.40336 6.88448,11.59959 7.50086,18.58909c0.10762,3.15264 0.2185,6.30496 0.32612,9.45761c2.2046,1.85956 4.76142,2.89207 7.66392,3.09818c1.40886,1.15024 1.51974,2.34614 0.32612,3.58736c-2.85033,0.23644 -5.51477,1.05175 -7.99004,2.44594c-0.10762,88.48833 -0.2185,176.97699 -0.32612,265.46532c-2.65791,16.35514 -12.06335,26.41282 -28.20977,30.16651c-48.36752,0.3783 -96.74384,0.54136 -145.12539,0.48919c-47.39665,-0.05544 -94.79362,-0.10762 -142.19027,-0.16307c-6.85057,-0.71095 -12.93833,-3.20906 -18.26297,-7.50086c-5.66478,0.48919 -10.99138,-0.60007 -15.9801,-3.26124c-4.72131,-3.29712 -7.49336,-7.81068 -8.31618,-13.53416c-0.1086,-13.2625 -0.21753,-26.52468 -0.32612,-39.78719c0.04925,-5.40845 -1.14665,-10.51783 -3.58736,-15.32785c-2.85979,-4.3955 -6.93634,-6.84144 -12.22967,-7.3378c-1.00153,-0.92065 -1.21906,-2.00762 -0.65225,-3.26124c6.86982,-1.21546 11.59862,-5.07449 14.18641,-11.57742c0.95946,-2.53333 1.61171,-5.14233 1.95674,-7.82699c0.43114,-77.2866 0.64866,-154.57811 0.65225,-231.8745c1.70432,-8.93294 6.97678,-14.36836 15.81703,-16.30622z" fill="#232020" opacity="0.984"/><path d="M80.43193,5.02947c105.99045,-0.05437 211.9809,0 317.97135,0.16307c7.16821,1.18987 11.46327,5.37512 12.88192,12.55579c0.34243,7.41124 0.12719,14.80337 -0.65225,22.17647c-0.89359,5.65076 -3.4504,10.37956 -7.66392,14.18641c-2.53725,1.54061 -5.25386,2.62758 -8.15311,3.26124c-0.43375,0.86977 -0.43375,1.73922 0,2.60899c8.27378,1.31656 13.43959,6.04537 15.49091,14.18641c0.65225,3.22472 0.97837,6.48596 0.97837,9.78373c0.2185,83.37926 0.2185,166.7582 0,250.13746c-1.43495,6.97907 -5.61913,11.27412 -12.55579,12.88192c-105.88185,0.2185 -211.76337,0.2185 -317.64522,0c-6.82775,-1.50017 -10.9043,-5.68761 -12.22967,-12.55579c-0.31471,-15.22838 -0.20578,-30.44763 0.32612,-45.65743c0.64768,-4.88339 2.49551,-9.23193 5.54412,-13.04498c2.56921,-2.52421 5.66739,-3.77423 9.29455,-3.75043c1.60257,-1.03414 1.71118,-2.22971 0.32612,-3.58736c-4.4441,-0.45429 -7.97734,-2.4655 -10.59905,-6.0333c-2.79423,-4.25071 -4.42486,-8.92505 -4.89187,-14.02335c-0.21753,-77.18289 -0.21753,-154.36547 0,-231.54837c1.74738,-6.04116 5.60673,-9.95466 11.57742,-11.74048z" fill="#2ab7a1"/><path d="M413.07889,45.14278c1.57191,4.06579 3.85479,7.70763 6.84862,10.92517c1.086,0.76085 2.17525,1.52202 3.26124,2.28287c-2.42962,1.18742 -4.44181,2.87217 -6.0333,5.05493c-1.5654,2.36668 -2.8699,4.86709 -3.91349,7.50086c-1.84261,-5.48118 -5.26691,-9.61219 -10.27292,-12.39272c5.02884,-3.20842 8.3977,-7.66523 10.10986,-13.37111z" fill="#fbfbfb"/><path d="M234.36269,112.65054c24.08103,-1.52952 40.87644,8.68893 50.38623,30.6557c3.03556,8.21898 4.99232,16.69822 5.87024,25.43771c1.55333,16.30296 0.35743,32.39199 -3.58736,48.26642c-7.71513,25.52903 -24.94558,37.54149 -51.69073,36.03675c-17.58724,-1.42223 -30.36056,-9.95592 -38.31962,-25.60077c-4.02014,-8.47858 -6.5202,-17.39254 -7.50086,-26.7422c-1.3195,-14.39741 -0.99338,-28.74689 0.97837,-43.04843c1.70759,-10.23933 5.51248,-19.58834 11.41435,-28.0467c8.44532,-10.17443 19.26189,-15.82747 32.44939,-16.95847z" fill="#232020"/><path d="M233.38431,124.06491c18.76259,-2.28156 32.18783,5.00177 40.27638,21.85034c3.72956,9.29813 5.79523,18.97327 6.19637,29.02508c0.58604,11.40001 -0.17513,22.70544 -2.28287,33.91694c-5.65924,25.58414 -21.47627,36.29178 -47.45111,32.12325c-11.88724,-3.18917 -20.09481,-10.52697 -24.6224,-22.0134c-3.2681,-9.16606 -5.11624,-18.62366 -5.54412,-28.37282c-0.59779,-10.50153 -0.05446,-20.93751 1.63062,-31.30795c1.32471,-7.4539 3.93372,-14.41144 7.82699,-20.87197c5.97101,-8.17562 13.96107,-12.95856 23.97014,-14.34948z" fill="#fefefe"/><path d="M236.97168,143.63237c7.52108,-0.77912 12.57601,2.37354 15.16478,9.45761c2.16481,6.88873 3.36038,13.95486 3.58736,21.19809c0.6379,12.07476 -0.23187,24.03276 -2.60899,35.87369c-1.05534,4.0958 -3.17515,7.52011 -6.35942,10.27292c-10.23803,4.31202 -16.92358,1.10524 -20.05665,-9.62067c-1.65574,-5.86307 -2.52551,-11.84191 -2.60899,-17.93684c-0.21753,-7.06614 -0.21753,-14.13195 0,-21.19809c0.46995,-5.60673 1.33939,-11.15085 2.60899,-16.63235c1.35276,-5.75153 4.77707,-9.55643 10.27292,-11.41435z" fill="#242121"/><path d="M239.25455,154.7206c1.26602,0.23187 2.08132,0.99273 2.44594,2.28287c2.26689,8.04614 3.1908,16.25372 2.77206,24.6224c0.16697,7.70763 -0.32221,15.37155 -1.46756,22.99177c-0.6317,2.11198 -1.39255,4.17732 -2.28287,6.19637c-1.3994,0.67345 -2.26884,0.23873 -2.60899,-1.3045c-1.59573,-4.86187 -2.46518,-9.86233 -2.60899,-15.00173c-0.79672,-10.2426 -0.5792,-20.46137 0.65225,-30.6557c0.35939,-3.30756 1.39222,-6.3516 3.09818,-9.13148z" fill="#2bb59f"/><path d="M66.40859,256.79756c1.5243,3.15003 3.31799,6.19408 5.38105,9.13148c1.5367,1.37559 3.11318,2.6801 4.7288,3.91349c-4.7712,3.00361 -7.97798,7.24322 -9.62067,12.71886c-1.9062,-5.59891 -5.43911,-9.78406 -10.59905,-12.55579c5.06112,-3.11122 8.43097,-7.5139 10.10986,-13.20804z" fill="#fbfbfb"/></g></g></svg>