<svg version="1.1" xmlns="http://www.w3.org/2000/svg" xmlns:xlink="http://www.w3.org/1999/xlink" width="389.72316" height="362.79486" viewBox="0,0,389.72316,362.79486"><g transform="translate(-45.13842,1.39743)"><g fill-rule="evenodd" stroke="none" stroke-miterlimit="10"><path d="M78.52063,-1.39743c107.70025,0 215.40018,0 323.10043,0c8.40656,1.73789 13.64496,6.80872 15.70857,15.21251c0.37039,3.18464 0.59196,6.38145 0.66141,9.59049c4.4447,5.47928 6.98122,11.76258 7.60625,18.85028c0.10913,3.19694 0.22157,6.39355 0.33071,9.59049c2.23558,1.88569 4.82832,2.93271 7.77161,3.14171c1.42865,1.1664 1.54109,2.3791 0.33071,3.63777c-2.89038,0.23976 -5.59225,1.06653 -8.10231,2.4803c-0.10913,89.73164 -0.22157,179.46361 -0.33071,269.19524c-2.69526,16.58494 -12.23284,26.78393 -28.60613,30.59037c-49.04711,0.38362 -98.10315,0.54897 -147.16448,0.49606c-48.0626,-0.05622 -96.12552,-0.10913 -144.18812,-0.16535c-6.94682,-0.72094 -13.12013,-3.25415 -18.51957,-7.60625c-5.74438,0.49606 -11.14581,-0.6085 -16.20463,-3.30707c-4.78764,-3.34344 -7.59865,-7.92043 -8.43302,-13.72433c-0.11013,-13.44885 -0.22058,-26.89737 -0.33071,-40.34622c0.04994,-5.48444 -1.16276,-10.66562 -3.63777,-15.54321c-2.89997,-4.45726 -7.0338,-6.93756 -12.4015,-7.4409c-1.0156,-0.93358 -1.23618,-2.03583 -0.66141,-3.30707c6.96634,-1.23254 11.76158,-5.1458 14.38574,-11.74009c0.97294,-2.56893 1.63435,-5.21458 1.98424,-7.93696c0.43719,-78.37252 0.65778,-156.75001 0.66141,-235.13245c1.72827,-9.05845 7.07481,-14.57024 16.03927,-16.53533z" fill="#232020" opacity="0.984"/><path d="M78.18992,2.57105c107.47967,-0.05513 214.95935,0 322.43902,0.16535c7.28547,1.22137 11.63757,5.46542 13.06291,12.73221c0.22157,5.29131 0.22157,10.58261 0,15.87392c-0.01654,6.66672 -1.89164,12.72956 -5.62201,18.18887c-2.93998,3.37155 -6.63067,5.41069 -11.07867,6.11807c-0.43984,0.88199 -0.43984,1.76366 0,2.64565c8.39003,1.33506 13.62842,6.13031 15.70857,14.38574c0.62173,3.27565 0.95244,6.58272 0.99212,9.9212c0.22157,84.55079 0.22157,169.10124 0,253.65203c-1.50472,7.23586 -5.85682,11.59127 -13.06291,13.06291c-107.25909,0.22157 -214.51851,0.22157 -321.77761,0c-6.92368,-1.52125 -11.05751,-5.76752 -12.4015,-12.73221c-0.31913,-15.44235 -0.20868,-30.87544 0.33071,-46.29894c0.65678,-4.952 2.53057,-9.36164 5.62201,-13.22827c2.60531,-2.55967 5.74702,-3.82727 9.42514,-3.80313c1.62509,-1.04867 1.73522,-2.26104 0.33071,-3.63777c-6.79602,-1.28182 -11.37069,-5.1954 -13.72433,-11.74009c-1.07083,-2.77132 -1.73224,-5.63723 -1.98424,-8.59837c-0.22058,-78.26736 -0.22058,-156.53439 0,-234.80175c1.78086,-6.13471 5.69411,-10.10319 11.74009,-11.90544z" fill="#5679f2"/><path d="M415.51074,43.24797c1.59401,4.12292 3.90895,7.81592 6.94484,11.07867c1.10125,0.77154 2.20581,1.54341 3.30707,2.31495c-2.46376,1.2041 -4.50423,2.91253 -6.11807,5.12595c-1.58739,2.39994 -2.91022,4.93547 -3.96848,7.60625c-1.86849,-5.55819 -5.34091,-9.74725 -10.41726,-12.56685c5.0995,-3.25349 8.5157,-7.77293 10.25191,-13.55897z" fill="#fbfbfb"/><path d="M244.53538,252.58531c-16.92193,0.10979 -33.78797,-0.00033 -50.59812,-0.33071c14.24089,-31.45814 28.5714,-62.87528 42.99187,-94.25141c0.29896,-0.23447 0.40908,-0.56518 0.33071,-0.99212c-16.97617,0 -33.95266,0 -50.92883,0c0,-14.44097 0,-28.88161 0,-43.32258c35.38562,0 70.77123,0 106.15685,0c0.05523,9.92186 0,19.84306 -0.16535,29.7636c-15.85474,36.44619 -31.78389,72.82393 -47.78712,109.13321z" fill="#232020"/><path d="M280.91312,140.80645c0,-5.18118 0,-10.36203 0,-15.54321c-27.66924,0 -55.33814,0 -83.00738,0c0,6.83472 0,13.6691 0,20.50381c-0.32971,-6.88763 -0.44017,-13.83247 -0.33071,-20.83452c27.88949,0 55.7793,0 83.66879,0c0.10913,5.34918 -0.00132,10.64049 -0.33071,15.87392z" fill="#9a9999"/><path d="M280.91312,140.80645c-14.46081,33.44139 -29.01191,66.84277 -43.65328,100.20413c-8.54513,0.10946 -17.03305,-0.00066 -25.46441,-0.33071c14.30373,-31.6397 28.74469,-63.22219 43.32258,-94.74747c-19.07053,-0.16535 -38.14106,-0.22058 -57.21226,-0.16535c0,-6.83472 0,-13.6691 0,-20.50381c27.66924,0 55.33814,0 83.00738,0c0,5.18118 0,10.36203 0,15.54321z" fill="#fefefe"/><path d="M186.33101,157.01107c16.97617,0 33.95266,0 50.92883,0c0.07838,0.42694 -0.03175,0.75765 -0.33071,0.99212c-16.80817,-0.55063 -33.67421,-0.88133 -50.59812,-0.99212z" fill="#3d4c88"/><path d="M211.79542,240.67987c8.43137,0.33005 16.91928,0.44017 25.46441,0.33071c-8.54414,0.43951 -17.14251,0.43951 -25.79512,0c0.04101,-0.20074 0.15113,-0.31086 0.33071,-0.33071z" fill="#c8c7c7"/><path d="M193.93726,252.2546c16.81015,0.33038 33.67619,0.4405 50.59812,0.33071c-16.9216,0.44017 -33.8981,0.44017 -50.92883,0c0.04101,-0.20074 0.15113,-0.31086 0.33071,-0.33071z" fill="#4962bd"/><path d="M63.96953,257.87661c1.54572,3.1943 3.36461,6.28111 5.45666,9.25979c1.55829,1.39492 3.15693,2.71775 4.79525,3.96848c-4.83824,3.04581 -8.09008,7.345 -9.75585,12.89756c-1.93298,-5.67757 -5.51553,-9.92153 -10.74797,-12.73221c5.13224,-3.15494 8.54943,-7.61948 10.25191,-13.39362z" fill="#fbfbfb"/></g></g></svg>