<svg version="1.1" xmlns="http://www.w3.org/2000/svg" xmlns:xlink="http://www.w3.org/1999/xlink" width="391.67045" height="364.6076" viewBox="0,0,391.67045,364.6076"><g transform="translate(-44.16477,2.3038)"><g fill-rule="evenodd" stroke="none" stroke-miterlimit="10"><path d="M77.71378,-2.3038c108.23839,0 216.47645,0 324.71484,0c8.44857,1.74658 13.71314,6.84274 15.78706,15.28852c0.37224,3.20055 0.59492,6.41333 0.66472,9.63841c4.46691,5.50666 7.0161,11.82135 7.64426,18.94447c0.10968,3.21292 0.22268,6.4255 0.33236,9.63841c2.24675,1.89511 4.85244,2.94736 7.81044,3.15741c1.43579,1.17223 1.54879,2.39099 0.33236,3.65595c-2.90482,0.24096 -5.62019,1.07186 -8.1428,2.49269c-0.10968,90.17999 -0.22268,180.36032 -0.33236,270.54031c-2.70873,16.66781 -12.29396,26.91776 -28.74906,30.74322c-49.29218,0.38554 -98.59333,0.55172 -147.8998,0.49854c-48.30275,-0.0565 -96.60582,-0.10968 -144.90857,-0.16618c-6.98154,-0.72454 -13.18568,-3.27041 -18.61211,-7.64426c-5.77308,0.49854 -11.2015,-0.61154 -16.2856,-3.32359c-4.81156,-3.36015 -7.63662,-7.96 -8.47516,-13.7929c-0.11068,-13.51605 -0.22168,-27.03176 -0.33236,-40.54781c0.05019,-5.51184 -1.16857,-10.71891 -3.65595,-15.62088c-2.91446,-4.47954 -7.06895,-6.97223 -12.46347,-7.47808c-1.02067,-0.93825 -1.24236,-2.046 -0.66472,-3.32359c7.00114,-1.2387 11.82035,-5.17151 14.45762,-11.79875c0.9778,-2.58177 1.64252,-5.24064 1.99415,-7.97662c0.43938,-78.76412 0.66106,-157.53323 0.66472,-236.30732c1.73691,-9.10371 7.11016,-14.64304 16.11942,-16.61795z" fill="#232020" opacity="0.984"/><path d="M77.38142,1.68451c108.01671,-0.0554 216.03341,0 324.05012,0.16618c7.32187,1.22747 11.69572,5.49273 13.12818,12.79583c0.22268,5.31775 0.22268,10.63549 0,15.95324c-0.01662,6.70003 -1.90109,12.79317 -5.6501,18.27975c-2.95467,3.3884 -6.6638,5.43773 -11.13403,6.14864c-0.44204,0.8864 -0.44204,1.77247 0,2.65887c8.43195,1.34173 13.69652,6.16094 15.78706,14.45762c0.62484,3.29202 0.95719,6.61561 0.99708,9.97077c0.22268,84.97325 0.22268,169.94618 0,254.91943c-1.51223,7.27202 -5.88608,11.64919 -13.12818,13.12818c-107.79502,0.22268 -215.59038,0.22268 -323.3854,0c-6.95827,-1.52885 -11.11276,-5.79634 -12.46347,-12.79583c-0.32073,-15.51951 -0.20972,-31.02971 0.33236,-46.53027c0.66007,-4.97675 2.54321,-9.40842 5.6501,-13.29436c2.61832,-2.57246 5.77574,-3.84639 9.47223,-3.82213c1.63321,-1.05391 1.74389,-2.27234 0.33236,-3.65595c-6.82998,-1.28822 -11.4275,-5.22136 -13.7929,-11.79875c-1.07618,-2.78517 -1.7409,-5.66539 -1.99415,-8.64134c-0.22168,-78.65843 -0.22168,-157.31653 0,-235.97496c1.78975,-6.16536 5.72256,-10.15367 11.79875,-11.96493z" fill="#5679f2"/><path d="M416.3877,42.56468c1.60197,4.14352 3.92848,7.85497 6.97954,11.13403c1.10676,0.77539 2.21684,1.55112 3.32359,2.32651c-2.47608,1.21012 -4.52673,2.92709 -6.14864,5.15157c-1.59532,2.41193 -2.92476,4.96013 -3.98831,7.64426c-1.87783,-5.58596 -5.3676,-9.79595 -10.46931,-12.62965c5.12498,-3.26975 8.55825,-7.81177 10.30313,-13.62672z" fill="#fbfbfb"/><path d="M234.91963,111.36301c25.54911,-1.22175 42.77628,10.07846 51.68184,33.90063c3.9132,11.97889 5.74117,24.27617 5.48393,36.89186c0.47195,14.22829 -1.57738,28.07637 -6.14864,41.54489c-6.96392,18.08499 -20.0921,28.33262 -39.38455,30.74322c-11.24703,1.14797 -21.88252,-0.84619 -31.90647,-5.98246c-9.83982,-6.07486 -16.76386,-14.55002 -20.77244,-25.42547c-4.52175,-13.01784 -6.5714,-26.42288 -6.14864,-40.21545c-0.3656,-11.13902 0.79766,-22.10687 3.48977,-32.90355c2.71072,-11.0207 8.19465,-20.38225 16.45178,-28.08434c8.00321,-6.34141 17.08758,-9.83118 27.25345,-10.46931z" fill="#232021"/><path d="M233.25784,122.99558c19.12128,-2.32518 32.80318,5.09739 41.04635,22.26806c3.80086,9.47589 5.90602,19.33599 6.31482,29.57996c0.59725,11.61794 -0.17848,23.13951 -2.32651,34.56535c-5.76743,26.07324 -21.88684,36.98559 -48.35825,32.73737c-12.11449,-3.25014 -20.47897,-10.72822 -25.09311,-22.43424c-3.33057,-9.34128 -5.21405,-18.9797 -5.6501,-28.91524c-0.60921,-10.7023 -0.0555,-21.33779 1.6618,-31.90647c1.35071,-7.59906 4.00958,-14.68928 7.97662,-21.27098c6.08516,-8.33191 14.22796,-13.20629 24.42839,-14.6238z" fill="#fefefe"/><path d="M236.91379,142.93713c7.66487,-0.79401 12.81643,2.41891 15.4547,9.63841c2.2062,7.02042 3.42463,14.22165 3.65595,21.60334c0.65009,12.3056 -0.23631,24.49221 -2.65887,36.5595c-1.07551,4.1741 -3.23585,7.66387 -6.481,10.46931c-10.43375,4.39445 -17.24711,1.12636 -20.44008,-9.80459c-1.68739,-5.97515 -2.57379,-12.06829 -2.65887,-18.27975c-0.22168,-7.20122 -0.22168,-14.40212 0,-21.60334c0.47893,-5.71392 1.365,-11.36402 2.65887,-16.95031c1.37863,-5.86149 4.8684,-9.73912 10.46931,-11.63257z" fill="#242121"/><path d="M239.2403,154.23734c1.29022,0.23631 2.12112,1.0117 2.49269,2.32651c2.31023,8.19996 3.2518,16.56445 2.82505,25.09311c0.15721,7.06662 -0.23032,14.10166 -1.16326,21.1048c-0.48524,3.00685 -1.37165,5.88708 -2.65887,8.64134c-0.66472,0.44303 -1.32944,0.44303 -1.99415,0c-0.79633,-1.72461 -1.46105,-3.49741 -1.99415,-5.31775c-2.17097,-14.14753 -2.39232,-28.3283 -0.66472,-42.54196c0.36626,-3.37079 1.41884,-6.47303 3.15741,-9.30605z" fill="#5678ef"/><path d="M63.08998,258.26573c1.55345,3.21026 3.38142,6.3125 5.48393,9.30605c1.56608,1.40189 3.1727,2.73133 4.81921,3.98831c-4.86241,3.06103 -8.1305,7.3817 -9.80459,12.962c-1.94264,-5.70594 -5.54309,-9.97111 -10.80167,-12.79583c5.15788,-3.17071 8.59215,-7.65755 10.30313,-13.46054z" fill="#fbfbfb"/></g></g></svg>