<svg version="1.1" xmlns="http://www.w3.org/2000/svg" xmlns:xlink="http://www.w3.org/1999/xlink" width="393.44977" height="366.26398" viewBox="0,0,393.44977,366.26398"><g transform="translate(-43.27512,3.13199)"><g fill-rule="evenodd" stroke="none" stroke-miterlimit="10"><path d="M76.97653,-3.13199c108.73011,0 217.45988,0 326.18999,0c8.48695,1.75451 13.77543,6.87383 15.85878,15.35797c0.37393,3.21509 0.59763,6.44247 0.66774,9.6822c4.4872,5.53167 7.04797,11.87505 7.67899,19.03053c0.11018,3.22751 0.22369,6.45469 0.33387,9.6822c2.25695,1.90372 4.87449,2.96075 7.84592,3.17176c1.44231,1.17756 1.55583,2.40185 0.33387,3.67256c-2.91801,0.24206 -5.64572,1.07673 -8.17979,2.50402c-0.11018,90.58967 -0.22369,181.17967 -0.33387,271.76934c-2.72103,16.74353 -12.34981,27.04005 -28.87967,30.88288c-49.51611,0.38729 -99.04123,0.55422 -148.57169,0.5008c-48.52218,-0.05676 -97.04469,-0.11018 -145.56687,-0.16693c-7.01325,-0.72783 -13.24558,-3.28527 -18.69666,-7.67899c-5.7993,0.5008 -11.25239,-0.61432 -16.35958,-3.33869c-4.83342,-3.37542 -7.67131,-7.99616 -8.51366,-13.85556c-0.11118,-13.57745 -0.22269,-27.15457 -0.33387,-40.73201c0.05041,-5.53688 -1.17388,-10.76761 -3.67256,-15.69184c-2.9277,-4.49989 -7.10106,-7.0039 -12.52009,-7.51205c-1.02531,-0.94251 -1.248,-2.0553 -0.66774,-3.33869c7.03295,-1.24433 11.87405,-5.195 14.5233,-11.85235c0.98224,-2.59349 1.64998,-5.26445 2.00321,-8.01286c0.44137,-79.12194 0.66407,-158.24888 0.66774,-237.38084c1.7448,-9.14507 7.14246,-14.70957 16.19265,-16.69345z" fill="#232020" opacity="0.984"/><path d="M76.64266,0.87444c108.50742,-0.05566 217.01483,0 325.52225,0.16693c7.35513,1.23304 11.74885,5.51769 13.18782,12.85396c0.22369,5.3419 0.22369,10.68381 0,16.02571c-0.01669,6.73046 -1.90973,12.85128 -5.67577,18.36279c-2.9681,3.40379 -6.69407,5.46243 -11.18461,6.17658c-0.44405,0.89043 -0.44405,1.78052 0,2.67095c8.47026,1.34783 13.75874,6.18893 15.85878,14.5233c0.62767,3.30697 0.96154,6.64566 1.00161,10.01607c0.22369,85.35928 0.22369,170.71822 0,256.0775c-1.5191,7.30505 -5.91282,11.70211 -13.18782,13.18782c-108.28473,0.22369 -216.56978,0.22369 -324.85451,0c-6.98988,-1.5358 -11.16324,-5.82267 -12.52009,-12.85396c-0.32218,-15.59001 -0.21067,-31.17067 0.33387,-46.74166c0.66306,-4.99935 2.55477,-9.45116 5.67577,-13.35476c2.63022,-2.58415 5.80197,-3.86387 9.51527,-3.83949c1.64063,-1.0587 1.75181,-2.28266 0.33387,-3.67256c-6.86101,-1.29408 -11.47942,-5.24508 -13.85556,-11.85235c-1.08107,-2.79782 -1.74881,-5.69113 -2.00321,-8.68059c-0.22269,-79.01577 -0.22269,-158.0312 0,-237.04697c1.79788,-6.19337 5.74856,-10.1998 11.85235,-12.01928z" fill="#5679f2"/><path d="M417.18901,41.94032c1.60925,4.16234 3.94633,7.89066 7.01125,11.18461c1.11178,0.77892 2.22691,1.55817 3.33869,2.33708c-2.48732,1.21562 -4.5473,2.94038 -6.17658,5.17497c-1.60257,2.42289 -2.93805,4.98266 -4.00643,7.67899c-1.88636,-5.61134 -5.39198,-9.84045 -10.51687,-12.68702c5.14826,-3.2846 8.59713,-7.84726 10.34994,-13.68863z" fill="#fbfbfb"/><path d="M234.22881,111.38507c10.08418,-0.60063 19.87789,0.7906 29.38047,4.17336c18.43691,7.76946 26.72788,21.62503 24.87324,41.56669c-1.23999,8.87958 -5.07948,16.39163 -11.51848,22.53616c15.71655,13.99612 19.55604,30.74499 11.51848,50.24728c-6.5682,11.3452 -16.19465,18.85725 -28.87967,22.53616c-15.30923,3.80878 -30.44451,3.25222 -45.40618,-1.66934c-19.34804,-8.02321 -28.30675,-22.54651 -26.87645,-43.5699c1.33648,-11.13319 6.17758,-20.37001 14.5233,-27.71112c-11.01367,-12.75346 -13.74038,-27.10983 -8.17979,-43.0691c4.83676,-9.84479 12.34881,-16.80029 22.53616,-20.86681c5.9018,-2.03259 11.91144,-3.42383 18.02892,-4.17336z" fill="#232021"/><path d="M233.56108,123.07048c10.51821,-1.04501 20.53428,0.67976 30.04821,5.17497c12.80688,7.96611 16.75755,19.15072 11.85235,33.55383c-2.85191,6.30311 -7.24796,11.25539 -13.18782,14.85717c-1.89204,1.05736 -3.78374,2.11439 -5.67577,3.17176c7.07735,3.62214 13.25393,8.40782 18.52973,14.35637c5.97826,7.97112 7.53642,16.76289 4.67417,26.37565c-3.47591,9.15168 -9.76366,15.55095 -18.8636,19.19747c-3.64385,1.52311 -7.42758,2.52472 -11.35155,3.00482c-9.10394,1.03232 -18.1184,0.58694 -27.04339,-1.33548c-19.96536,-6.40494 -27.36624,-19.81546 -22.20229,-40.23121c3.14505,-7.70837 8.32001,-13.66259 15.52491,-17.86199c1.66934,-0.94585 3.33869,-1.89204 5.00803,-2.83789c-3.94266,-2.56345 -7.55946,-5.56827 -10.85074,-9.01446c-7.47967,-8.90863 -9.48288,-18.92469 -6.00964,-30.04821c3.87922,-7.77314 9.94462,-13.05928 18.19586,-15.85878c3.73733,-1.2697 7.52107,-2.10438 11.35155,-2.50402z" fill="#fefefe"/><path d="M236.23203,141.09941c6.24402,-0.90512 11.53016,0.87574 15.85878,5.3419c1.74613,2.9908 2.30269,6.21798 1.66934,9.6822c-1.09042,4.01277 -3.37174,7.18453 -6.84431,9.51527c-2.22991,1.44933 -4.56699,2.72938 -7.01125,3.83949c-5.01638,-2.1835 -9.18974,-5.41068 -12.52009,-9.6822c-3.91361,-9.59673 -0.96421,-15.82906 8.84753,-18.69666z" fill="#232020"/><path d="M237.90137,152.45095c1.22931,-0.05509 2.45327,0.00033 3.67256,0.16693c0.47076,0.12286 0.80462,0.40098 1.00161,0.83467c-1.7271,3.51097 -3.50763,3.51097 -5.3419,0c0.14757,-0.41366 0.37026,-0.74753 0.66774,-1.00161z" fill="#5373e3"/><path d="M238.23524,190.84589c7.00958,2.6399 12.85229,6.86902 17.52812,12.68702c2.91334,5.27613 2.80216,10.50652 -0.33387,15.69184c-2.69165,3.09931 -6.0861,4.93559 -10.183,5.50884c-5.37128,1.01229 -10.60201,0.56724 -15.69184,-1.33548c-5.99028,-3.13169 -8.60581,-8.0843 -7.84592,-14.85717c0.93016,-5.03207 3.43418,-9.09426 7.51205,-12.18622c2.8035,-2.18016 5.80832,-4.01644 9.01446,-5.50884z" fill="#242121"/><path d="M238.23524,203.86678c2.89965,1.16687 5.40367,2.94773 7.51205,5.3419c1.46034,2.22924 0.84836,3.62014 -1.83628,4.17336c-2.78213,0.22269 -5.56459,0.22269 -8.34672,0c-0.80095,-0.24406 -1.52411,-0.63368 -2.17015,-1.16854c-0.25608,-1.36686 -0.1449,-2.70234 0.33387,-4.00643c1.24733,-1.74881 2.74974,-3.19546 4.50723,-4.3403z" fill="#5678ee"/><path d="M62.28629,258.62129c1.5605,3.22484 3.39678,6.34117 5.50884,9.34833c1.57319,1.40826 3.18711,2.74374 4.8411,4.00643c-4.8845,3.07493 -8.16744,7.41523 -9.84913,13.02089c-1.95146,-5.73186 -5.56827,-10.0164 -10.85074,-12.85396c5.18131,-3.18511 8.63118,-7.69234 10.34994,-13.52169z" fill="#fbfbfb"/></g></g></svg>