<svg version="1.1" xmlns="http://www.w3.org/2000/svg" xmlns:xlink="http://www.w3.org/1999/xlink" width="77.58315" height="115.69271" viewBox="0,0,77.58315,115.69271"><defs><clipPath id="clip-1"><path d="M280,138.33334h58.66667v97.33334h-58.66667zM280,138.33334" fill="none"/></clipPath><clipPath id="clip-2"><path d="M313.49479,234.53126c-1.64063,0 -3.32813,-0.25521 -5.15625,-0.77604c-4.36458,-1.25 -8.375,-3.67187 -12.22917,-7.375c-4.13021,-3.97396 -6.34375,-7.8125 -7.00521,-12.10938c-0.77604,-5.03646 0.93229,-9.34896 5.09375,-12.81771c3.71875,-3.09375 8.50521,-4.73438 13.85417,-4.73438c0.50521,0 1.01042,0 1.52083,0.05208c6.27604,0.35417 11.55208,2.89063 15.27604,7.30208c3.65104,4.32812 5.14063,9.65625 4.27604,15.42708c-0.80729,5.41146 -3.36458,9.70313 -7.40625,12.46354c-2.50521,1.72396 -5.27604,2.58333 -8.22396,2.58333zM306.20833,176.94792c-5.36458,0 -10.11979,-0.86458 -14.55208,-2.64063c-2.28125,-0.91146 -9.21875,-3.70313 -10.31771,-10.89063c-0.77604,-5.07292 1.70833,-10.04167 7.41146,-14.76042c5.49479,-4.51563 12.51563,-7.59375 20.33333,-8.89584c2.48437,-0.42187 4.90625,-0.625 7.20313,-0.625c5.43229,0 10.20313,1.14583 14.16146,3.43229c8.09896,4.65104 8.42187,11.24479 7.90104,14.74479c-0.8125,5.47917 -4.26563,10.16667 -10.21875,13.91667c-5.3125,3.34896 -11.15104,5.125 -18.36979,5.59896c-1.1875,0.08333 -2.38542,0.11979 -3.53646,0.11979zM306.20833,176.94792" fill="none"/></clipPath><linearGradient x1="309.84322" y1="234.54912" x2="309.84322" y2="139.13318" gradientUnits="userSpaceOnUse" id="color-1"><stop offset="0" stop-color="#ffc900"/><stop offset="0.5" stop-color="#ffc900"/><stop offset="0.53125" stop-color="#ffc900"/><stop offset="0.54688" stop-color="#ffc900"/><stop offset="0.55469" stop-color="#ffc900"/><stop offset="0.5625" stop-color="#ffca00"/><stop offset="0.57031" stop-color="#ffcb00"/><stop offset="0.57813" stop-color="#ffcc00"/><stop offset="0.58594" stop-color="#ffcd00"/><stop offset="0.59375" stop-color="#ffce00"/><stop offset="0.60156" stop-color="#ffcf00"/><stop offset="0.60938" stop-color="#ffd000"/><stop offset="0.61719" stop-color="#ffd100"/><stop offset="0.625" stop-color="#ffd100"/><stop offset="0.63281" stop-color="#ffd200"/><stop offset="0.64063" stop-color="#ffd300"/><stop offset="0.64844" stop-color="#ffd400"/><stop offset="0.65625" stop-color="#ffd500"/><stop offset="0.66406" stop-color="#ffd600"/><stop offset="0.67188" stop-color="#ffd700"/><stop offset="0.67969" stop-color="#ffd800"/><stop offset="0.6875" stop-color="#ffd900"/><stop offset="0.69531" stop-color="#ffda00"/><stop offset="0.70313" stop-color="#ffdb00"/><stop offset="0.71094" stop-color="#ffdc00"/><stop offset="0.71875" stop-color="#ffdd00"/><stop offset="0.72656" stop-color="#ffde00"/><stop offset="0.73438" stop-color="#ffdf00"/><stop offset="0.74219" stop-color="#ffe000"/><stop offset="0.75" stop-color="#ffe000"/><stop offset="0.75781" stop-color="#ffe100"/><stop offset="0.76563" stop-color="#ffe200"/><stop offset="0.77344" stop-color="#ffe300"/><stop offset="0.78125" stop-color="#ffe400"/><stop offset="0.78906" stop-color="#ffe500"/><stop offset="0.79688" stop-color="#ffe600"/><stop offset="0.80469" stop-color="#ffe700"/><stop offset="0.8125" stop-color="#ffe800"/><stop offset="0.82031" stop-color="#ffe900"/><stop offset="0.82813" stop-color="#ffea00"/><stop offset="0.83594" stop-color="#ffeb00"/><stop offset="0.84375" stop-color="#ffec00"/><stop offset="0.85156" stop-color="#ffed00"/><stop offset="0.85938" stop-color="#ffee00"/><stop offset="0.86719" stop-color="#ffef00"/><stop offset="0.875" stop-color="#fff000"/><stop offset="0.88281" stop-color="#fff000"/><stop offset="0.89063" stop-color="#fff100"/><stop offset="0.89844" stop-color="#fff200"/><stop offset="0.90625" stop-color="#fff300"/><stop offset="0.91406" stop-color="#fff400"/><stop offset="0.92188" stop-color="#fff500"/><stop offset="0.92969" stop-color="#fff600"/><stop offset="0.9375" stop-color="#fff700"/><stop offset="0.94531" stop-color="#fff800"/><stop offset="0.95313" stop-color="#fff900"/><stop offset="0.96094" stop-color="#fffa00"/><stop offset="0.96875" stop-color="#fffb00"/><stop offset="0.97656" stop-color="#fffc00"/><stop offset="0.98438" stop-color="#fffd00"/><stop offset="0.99219" stop-color="#fffe00"/><stop offset="1" stop-color="#ffff00"/></linearGradient></defs><g transform="translate(-271.02712,-128.98438)"><g stroke="none" stroke-miterlimit="10"><path d="M313.49479,244.67709c-2.60417,0 -5.20833,-0.38542 -7.96354,-1.18229c-5.98958,-1.72396 -11.36979,-4.9375 -16.45833,-9.80729c-5.73438,-5.53125 -9,-11.38021 -10,-17.875c-1.31771,-8.54167 1.74479,-16.40625 8.60937,-22.15625c4.22917,-3.53646 9.30729,-5.80208 14.90625,-6.68229c-5.26562,-0.33333 -10.11979,-1.40104 -14.73437,-3.26042c-12.04687,-4.85417 -15.66667,-12.88542 -16.5625,-18.75521c-0.94792,-6.08854 0.20313,-15.22396 10.97917,-24.13542c6.88542,-5.66146 15.5625,-9.48438 25.11979,-11.07813c3.04687,-0.50521 6.02083,-0.76042 8.86458,-0.76042c7.23958,0 13.70313,1.60937 19.21354,4.78646c9.59375,5.51563 14.39583,14.88542 12.85938,25.04688c-0.88021,5.85417 -4.16146,14.27604 -14.85417,20.98958c-6.22396,3.92187 -13.19271,6.22396 -21.28125,6.98437c8.25521,0.94792 15.26042,4.63021 20.38542,10.71875c5.5,6.53125 7.83333,14.84896 6.54687,23.45833c-1.21875,8.15104 -5.38021,15.01563 -11.72396,19.34896c-4.16146,2.85417 -8.97917,4.35937 -13.95312,4.35937zM313.49479,244.67709" fill="#ffffff"/><g clip-path="url(#clip-1)"><g clip-path="url(#clip-2)"><path d="M338.86979,139.13542v95.41146h-58.30729v-95.41146zM280.5625,139.13542" fill="url(#color-1)"/></g></g><path d="M332.14063,146.42188c2.48437,1.42187 4.32812,3.02604 5.73437,4.66667c0.76042,2.42187 0.70833,4.65104 0.47396,6.26042c-0.45833,3.09375 -1.79688,5.91667 -3.91146,8.48958c0.23958,-0.72917 0.44271,-1.47396 0.55729,-2.23437c0.49479,-3.24479 -0.18229,-7.84896 -6.22396,-11.3125c-3.43229,-1.99479 -7.63021,-2.99479 -12.46354,-2.99479c-2.11458,0 -4.34896,0.1875 -6.65104,0.57292c-7.20313,1.20313 -13.68229,4.02604 -18.72396,8.17187c-4.71875,3.90625 -6.81771,7.8125 -6.22396,11.63542c0.01563,0.13542 0.06771,0.27083 0.09896,0.40625c-1.64063,-1.64063 -3.01042,-3.79167 -3.44792,-6.66667c-0.30729,-1.97917 -0.10417,-3.9375 0.57292,-5.86458c1.28646,-1.60937 2.82292,-3.19792 4.6875,-4.73958c5.95313,-4.90104 13.53125,-8.21875 21.92187,-9.61979c9.18229,-1.54167 17.27083,-0.42187 23.59896,3.21354zM332.14063,146.40625" fill="#ffffca"/><path d="M309.79167,200.11459c7.23958,0.42708 13.34896,3.36979 17.67708,8.51042c0.23958,0.28646 0.44271,0.58854 0.66146,0.88021c1.19792,3.07813 1.55729,6.44271 1.03125,9.95833c-0.55729,3.73958 -1.97917,6.95313 -4.13021,9.48958c0.33854,-1.01563 0.60937,-2.09896 0.78125,-3.23438c0.70833,-4.76562 -0.51042,-9.16146 -3.52083,-12.73438c-3.09375,-3.68229 -7.54167,-5.79687 -12.86979,-6.10417c-0.44271,-0.03125 -0.89583,-0.03125 -1.33854,-0.03125c-4.55208,0 -8.59375,1.36979 -11.6875,3.95833c-3.22917,2.6875 -4.51563,5.86458 -3.92708,9.70312c0.13542,0.86458 0.33854,1.69271 0.64583,2.52083c-2.21875,-2.82292 -3.52083,-5.68229 -3.99479,-8.76042c-0.33854,-2.18229 -0.16667,-4.20833 0.42187,-6.11979c0.74479,-0.88021 1.55729,-1.72396 2.50521,-2.52083c4.71875,-3.94271 10.85938,-5.85417 17.72917,-5.47917zM309.77604,200.15105" fill="#ffffca"/><path d="M313.49479,237.91667c-1.95833,0 -3.95833,-0.30729 -6.08854,-0.91667c-4.90625,-1.40104 -9.36979,-4.09375 -13.63542,-8.18229c-4.68229,-4.51563 -7.21875,-8.98438 -8,-14.02083c-0.96354,-6.19271 1.21875,-11.70313 6.27604,-15.93229c4.71875,-3.9375 10.85938,-5.83333 17.72917,-5.47917c7.23958,0.42188 13.34375,3.36458 17.67708,8.50521c4.29687,5.09375 6.03646,11.34896 5.04167,18.09896c-0.94792,6.35937 -4.01042,11.46354 -8.84896,14.76042c-3.07813,2.11458 -6.49479,3.18229 -10.13021,3.18229zM308.05208,200.09896c-4.55208,0 -8.57812,1.36979 -11.69271,3.95833c-3.22917,2.6875 -4.51563,5.86979 -3.92187,9.70833c0.54167,3.51563 2.45313,6.74479 6.00521,10.18229c3.44792,3.3125 6.96875,5.45833 10.80729,6.55729c4.13021,1.20313 7.46354,0.76042 10.54167,-1.34896c3.24479,-2.21875 5.30729,-5.73438 5.96875,-10.18229c0.71354,-4.77083 -0.50521,-9.16667 -3.51562,-12.73438c-3.11458,-3.6875 -7.5625,-5.80208 -12.875,-6.10417c-0.4375,-0.02083 -0.89583,-0.03646 -1.33854,-0.03646zM306.20833,180.32813c-5.80208,0 -10.96354,-0.94271 -15.81771,-2.89063c-7.30729,-2.94271 -11.46875,-7.47396 -12.40104,-13.51042c-0.97917,-6.34375 1.91146,-12.36458 8.60937,-17.875c5.95833,-4.90625 13.53646,-8.23958 21.92708,-9.625c9.18229,-1.52083 17.28646,-0.42187 23.59375,3.21354c10.20313,5.86979 10.08333,14.66146 9.54167,18.18229c-0.96354,6.48958 -4.92187,11.96875 -11.77083,16.26562c-5.80208,3.65625 -12.14583,5.59896 -19.94792,6.10417c-1.25,0.08854 -2.52083,0.13542 -3.75521,0.13542zM316.28646,142.51563c-2.09375,0 -4.32813,0.20312 -6.64583,0.57292c-7.22396,1.20313 -13.70313,4.02604 -18.72396,8.17187c-4.72396,3.89063 -6.81771,7.8125 -6.22917,11.63542c0.72917,4.73437 5.05729,6.98437 8.23958,8.26563c4.90625,1.97917 10.38542,2.70833 16.57813,2.28646c6.64583,-0.44271 11.97396,-2.04688 16.79687,-5.09375c5.09375,-3.19271 8.02083,-7.08333 8.67708,-11.54688c0.48958,-3.25 -0.20313,-7.84896 -6.22396,-11.31771c-3.45313,-1.97396 -7.64583,-2.98958 -12.46875,-2.98958zM316.28646,142.51563" fill="#000000"/></g></g></svg>