<svg version="1.1" xmlns="http://www.w3.org/2000/svg" xmlns:xlink="http://www.w3.org/1999/xlink" width="389.50475" height="362.59156" viewBox="0,0,389.50475,362.59156"><g transform="translate(-45.24763,1.29578)"><g fill-rule="evenodd" stroke="none" stroke-miterlimit="10"><path d="M78.61113,-1.29577c107.6399,0 215.27947,0 322.91936,0c8.40185,1.73692 13.63731,6.80491 15.69976,15.20398c0.37019,3.18286 0.59164,6.37787 0.66104,9.58512c4.4422,5.47621 6.9773,11.75598 7.60199,18.83972c0.10907,3.19515 0.22145,6.38997 0.33052,9.58512c2.23432,1.88463 4.82561,2.93106 7.76725,3.13996c1.42785,1.16575 1.54023,2.37777 0.33052,3.63574c-2.88876,0.23963 -5.58912,1.06593 -8.09777,2.47891c-0.10907,89.68135 -0.22145,179.36303 -0.33052,269.04438c-2.69374,16.57565 -12.22598,26.76892 -28.5901,30.57322c-49.01962,0.38341 -98.04817,0.54866 -147.082,0.49578c-48.03566,-0.05619 -96.07165,-0.10907 -144.10731,-0.16526c-6.94293,-0.72053 -13.11277,-3.25233 -18.5092,-7.60199c-5.74116,0.49578 -11.13956,-0.60816 -16.19555,-3.30521c-4.78496,-3.34158 -7.59439,-7.91599 -8.4283,-13.71664c-0.11006,-13.44131 -0.22046,-26.88229 -0.33052,-40.32361c0.04991,-5.48137 -1.16211,-10.65965 -3.63574,-15.53451c-2.89834,-4.45477 -7.02986,-6.93368 -12.39455,-7.43673c-1.01503,-0.93306 -1.23548,-2.03469 -0.66104,-3.30521c6.96244,-1.23186 11.75499,-5.14292 14.37768,-11.73351c0.97239,-2.56749 1.63343,-5.21166 1.98313,-7.93252c0.43695,-78.3286 0.65741,-156.66216 0.66104,-235.00068c1.7273,-9.05338 7.07085,-14.56208 16.03029,-16.52607z" fill="#232020" opacity="0.984"/><path d="M78.28061,2.67049c107.41944,-0.0551 214.83888,0 322.25832,0.16526c7.28138,1.22068 11.63105,5.46236 13.05559,12.72507c0.22145,5.28834 0.22145,10.57668 0,15.86502c-0.01983,6.66661 -1.89388,12.72606 -5.61887,18.17867c-2.93834,3.36966 -6.62696,5.40766 -11.07246,6.11465c-0.43959,0.8815 -0.43959,1.76268 0,2.64418c8.38532,1.33432 13.62078,6.12688 15.69976,14.37768c0.62138,3.27382 0.9519,6.57903 0.99156,9.91564c0.22145,84.5034 0.22145,169.00647 0,253.50988c-1.50387,7.2318 -5.85353,11.58477 -13.05559,13.05559c-107.19898,0.22145 -214.3983,0.22145 -321.59727,0c-6.9241,-1.52701 -11.05561,-5.7676 -12.39455,-12.72507c-0.31896,-15.4337 -0.20856,-30.85813 0.33052,-46.27299c0.78499,-4.89536 2.65806,-9.3022 5.61887,-13.22086c2.60385,-2.55823 5.7438,-3.82513 9.41986,-3.801c1.62418,-1.04808 1.73424,-2.25977 0.33052,-3.63574c-6.79222,-1.2811 -11.36431,-5.19249 -13.71664,-11.73351c-1.07023,-2.76977 -1.73127,-5.63407 -1.98313,-8.59355c-0.22046,-78.00304 -0.22046,-156.00608 0,-234.00912c1.48602,-6.49765 5.39741,-10.68427 11.73351,-12.55981z" fill="#da4130"/><path d="M415.41239,43.32462c1.59312,4.12061 3.90676,7.81154 6.94095,11.07246c1.10064,0.7711 2.20458,1.54254 3.30521,2.31365c-2.46239,1.20342 -4.5017,2.9109 -6.11465,5.12308c-1.5865,2.39859 -2.90859,4.93271 -3.96625,7.60199c-1.86745,-5.55507 -5.33792,-9.74178 -10.41142,-12.55981c5.09664,-3.25167 8.51093,-7.76857 10.24617,-13.55138z" fill="#fbfbfb"/><path d="M258.74527,208.58529c-0.26078,0.09353 -0.48124,0.2588 -0.66104,0.49578c11.45752,0.16526 22.91571,0.22046 34.37422,0.16526c0,14.43288 0,28.86543 0,43.2983c-34.59468,0 -69.18902,0 -103.7837,0c0,-11.12767 0,-22.255 0,-33.38265c11.3273,-11.49289 22.73029,-22.95074 34.20896,-34.37422c4.41808,-4.52781 8.71486,-9.15511 12.89033,-13.88189c2.15401,-2.4885 3.91667,-5.24273 5.28834,-8.26303c0.83192,-2.3391 0.99718,-4.70794 0.49578,-7.10621c-3.71374,-0.59031 -7.23941,-0.03933 -10.57668,1.6526c-2.36918,1.34952 -4.68282,2.78167 -6.94095,4.29678c-4.23431,3.29761 -8.42102,6.65769 -12.55981,10.0809c-9.12801,-10.83747 -18.32741,-21.63427 -27.59853,-32.39109c-0.22046,-0.33052 -0.22046,-0.66104 0,-0.99156c4.24158,-3.58053 8.48349,-7.1614 12.72507,-10.74195c15.76025,-12.61799 33.71847,-17.5758 53.87498,-14.87346c14.24613,2.12921 25.31859,9.12504 33.2174,20.9881c5.51309,9.85285 7.05564,20.31946 4.6273,31.39953c-2.41579,10.1199 -6.93301,19.15438 -13.55138,27.10275c-5.06854,5.78446 -10.41175,11.29325 -16.03029,16.52607z" fill="#232020"/><path d="M230.65096,219.49249c-0.30871,0.353 -0.4191,0.79358 -0.33052,1.32209c16.85658,0 33.71318,0 50.56976,0c0,6.72049 0,13.44131 0,20.1618c-26.99269,0 -53.98504,0 -80.97773,0c-0.05519,-5.73025 0,-11.45918 0.16526,-17.18711c15.46377,-15.0222 30.44729,-30.4463 44.95091,-46.27299c3.76398,-4.33115 6.40815,-9.28897 7.93252,-14.87346c2.36257,-12.15129 -2.59526,-18.43119 -14.87346,-18.83972c-3.38223,0.11568 -6.63224,0.8316 -9.75039,2.14839c-5.59804,2.54832 -10.72112,5.79834 -15.36924,9.75039c-4.58599,-5.13598 -9.04802,-10.36945 -13.38611,-15.69976c16.33469,-15.4294 35.39487,-20.16676 57.18019,-14.21242c16.64571,6.89964 23.42141,19.29419 20.32707,37.18365c-1.07783,5.21595 -3.06096,10.06338 -5.94939,14.54294c-2.50039,3.82347 -5.25495,7.45921 -8.26303,10.90721c-10.60709,10.55288 -21.34904,20.90911 -32.22583,31.069z" fill="#fefefe"/><path d="M258.74527,208.58529c11.23773,0.22046 22.47545,0.44059 33.71318,0.66104c-11.45852,0.05519 -22.9167,0 -34.37422,-0.16526c0.1798,-0.23698 0.40026,-0.40225 0.66104,-0.49578z" fill="#ac382c"/><path d="M230.65096,219.49249c0,0.33052 0,0.66104 0,0.99156c16.85658,0 33.71318,0 50.56976,0c0,6.94095 0,13.88189 0,20.82285c-27.15828,0.11006 -54.26103,-0.00033 -81.30825,-0.33052c26.99269,0 53.98504,0 80.97773,0c0,-6.72049 0,-13.44131 0,-20.1618c-16.85658,0 -33.71318,0 -50.56976,0c-0.08858,-0.5285 0.02182,-0.96909 0.33052,-1.32209z" fill="#c8c7c7"/><path d="M188.67474,219.16198c0,11.12767 0,22.255 0,33.38265c34.59468,0 69.18902,0 103.7837,0c-34.64921,0.33019 -69.35395,0.44059 -104.11423,0.33052c-0.10974,-11.29425 0.00066,-22.53197 0.33052,-33.71318z" fill="#9f362b"/><path d="M64.06819,257.83298c1.54485,3.1925 3.36272,6.27759 5.4536,9.25459c1.55742,1.39414 3.15516,2.71623 4.79256,3.96625c-4.83552,3.0441 -8.08554,7.34088 -9.75039,12.89033c-1.9319,-5.6744 -5.51243,-9.91597 -10.74195,-12.72507c5.12936,-3.15317 8.54464,-7.61521 10.24617,-13.38611z" fill="#fbfbfb"/></g></g></svg>