<svg version="1.1" xmlns="http://www.w3.org/2000/svg" xmlns:xlink="http://www.w3.org/1999/xlink" width="399.13749" height="371.5587" viewBox="0,0,399.13749,371.5587"><g transform="translate(-40.43126,5.77935)"><g fill-rule="evenodd" stroke="none" stroke-miterlimit="10"><path d="M74.61985,-5.77935c110.30191,0 220.60349,0 330.9054,0c8.60963,1.77988 13.97457,6.9732 16.08804,15.57999c0.37934,3.26157 0.60626,6.53561 0.67739,9.82217c4.55207,5.61164 7.14986,12.04672 7.78999,19.30564c0.11177,3.27416 0.22693,6.54799 0.3387,9.82217c2.28958,1.93124 4.94495,3.00356 7.95935,3.21761c1.46316,1.19458 1.57833,2.43658 0.3387,3.72565c-2.96019,0.24556 -5.72734,1.09229 -8.29803,2.54021c-0.11177,91.89924 -0.22693,183.79881 -0.3387,275.69805c-2.76037,16.98557 -12.52835,27.43094 -29.29715,31.32933c-50.23191,0.39288 -100.47298,0.56224 -150.71945,0.50804c-49.22362,-0.05758 -98.44758,-0.11177 -147.67119,-0.16934c-7.11464,-0.73836 -13.43706,-3.33276 -18.96695,-7.78999c-5.88314,0.50804 -11.41505,-0.6232 -16.59607,-3.38696c-4.90329,-3.42421 -7.7822,-8.11176 -8.63673,-14.05586c-0.11278,-13.77372 -0.22591,-27.54711 -0.3387,-41.32084c0.05115,-5.61692 -1.19085,-10.92326 -3.72565,-15.91868c-2.97002,-4.56494 -7.20371,-7.10515 -12.70108,-7.62065c-1.04013,-0.95614 -1.26604,-2.08501 -0.67739,-3.38696c7.13462,-1.26232 12.0457,-5.2701 14.73325,-12.02369c0.99644,-2.63099 1.67383,-5.34055 2.03217,-8.12869c0.44776,-80.26573 0.67367,-160.53654 0.67739,-240.81242c1.77002,-9.27727 7.24571,-14.92221 16.42672,-16.93477z" fill="#232020" opacity="0.984"/><path d="M74.28115,-1.71501c110.076,-0.05646 220.15201,0 330.22801,0.16934c7.46146,1.25087 11.91869,5.59744 13.37847,13.03977c0.35563,7.69692 0.13209,15.37399 -0.67739,23.03129c-0.92803,5.86858 -3.5834,10.77966 -7.95935,14.73325c-2.63166,1.58983 -5.45299,2.71905 -8.46739,3.38696c-0.45046,0.9033 -0.45046,1.80626 0,2.70957c8.5927,1.36732 13.95764,6.27839 16.08804,14.73325c0.67739,3.34902 1.01609,6.73598 1.01609,10.16086c0.22693,86.59323 0.22693,173.18613 0,259.77937c-1.54107,7.41065 -5.99829,11.87127 -13.37847,13.37847c-109.8501,0.22693 -219.70052,0.22693 -329.55062,0c-7.09093,-1.558 -11.32462,-5.90684 -12.70108,-13.03977c-0.32684,-15.81538 -0.21371,-31.62128 0.3387,-47.41735c0.67265,-5.07163 2.5917,-9.58779 5.75782,-13.54781c2.66824,-2.62151 5.88584,-3.91972 9.65282,-3.895c1.66435,-1.074 1.77713,-2.31566 0.3387,-3.72565c-6.96019,-1.31278 -11.64536,-5.32091 -14.05586,-12.02369c-1.0967,-2.83826 -1.77409,-5.77341 -2.03217,-8.80608c-0.22591,-80.15802 -0.22591,-160.3157 0,-240.47373c1.82387,-6.2829 5.83165,-10.34724 12.02369,-12.19303z" fill="#fdd14b"/><path d="M419.75045,39.94452c1.63251,4.22251 4.00337,8.00472 7.1126,11.34629c1.12785,0.79017 2.25909,1.5807 3.38696,2.37087c-2.52328,1.23319 -4.61304,2.98289 -6.26587,5.24978c-1.62574,2.45791 -2.98052,5.05469 -4.06434,7.78999c-1.91363,-5.69246 -5.46993,-9.98271 -10.6689,-12.87042c5.22269,-3.33209 8.72141,-7.9607 10.49956,-13.88651z" fill="#fbfbfb"/><path d="M234.14538,110.39316c10.22996,-0.60931 20.16525,0.80203 29.80519,4.23369c20.23501,8.80032 28.42027,24.09784 24.55541,45.89323c-1.88043,7.43267 -5.54953,13.81132 -11.0076,19.13629c17.46042,15.90276 20.56524,34.24887 9.31412,55.038c-6.85485,9.22098 -15.83029,15.48685 -26.92628,18.79759c-15.52207,3.86383 -30.87615,3.29923 -46.06257,-1.69348c-19.7307,-8.23199 -28.81891,-23.07803 -27.26498,-44.53844c1.4547,-11.15392 6.36578,-20.41148 14.73325,-27.77303c-11.17288,-12.93783 -13.93901,-27.50173 -8.29803,-43.69171c4.76443,-9.73174 12.1595,-16.67499 22.18455,-20.82977c6.17848,-2.27874 12.50057,-3.80287 18.96695,-4.57239z" fill="#242120"/><path d="M233.46798,122.2475c10.67026,-1.06011 20.83112,0.68958 30.48258,5.24978c12.99202,8.08128 16.9998,19.42757 12.02369,34.03888c-2.89313,6.39423 -7.35274,11.4181 -13.37847,15.07195c-1.91939,1.07265 -3.83844,2.14496 -5.75782,3.21761c7.17966,3.67451 13.44553,8.52937 18.79759,14.5639c6.06468,8.08635 7.64537,17.00522 4.74173,26.75694c-3.52615,9.28398 -9.90481,15.77575 -19.13629,19.47498c-3.69652,1.54513 -7.53495,2.56121 -11.51565,3.04826c-9.23554,1.04724 -18.38032,0.59543 -27.43433,-1.35478c-20.25399,-6.49753 -27.76185,-20.10191 -22.52325,-40.81279c3.19051,-7.81979 8.44029,-13.8601 15.74934,-18.1202c1.69348,-0.95953 3.38696,-1.91939 5.08043,-2.87891c-3.99965,-2.60051 -7.66875,-5.64876 -11.0076,-9.14478c-7.5878,-9.03741 -9.61996,-19.19827 -6.09651,-30.48258c3.9353,-7.88551 10.08838,-13.24807 18.4589,-16.08804c3.79136,-1.28806 7.62979,-2.13479 11.51565,-2.54021z" fill="#fefefe"/><path d="M236.17754,140.53706c6.33428,-0.9182 11.69684,0.8884 16.08804,5.41912c1.77137,3.03403 2.33598,6.30787 1.69348,9.82217c-1.10618,4.07078 -3.42048,7.28839 -6.94326,9.65282c-2.26215,1.47027 -4.63302,2.76883 -7.1126,3.895c-5.0889,-2.21507 -9.32259,-5.4889 -12.70108,-9.82217c-3.97019,-9.73546 -0.97816,-16.05789 8.97542,-18.96695z" fill="#232020"/><path d="M237.87102,152.0527c1.24708,-0.05589 2.48873,0.00034 3.72565,0.16934c0.47756,0.12464 0.81625,0.40677 1.01609,0.84673c-1.75207,3.56172 -3.55834,3.56172 -5.41912,0c0.14971,-0.41964 0.37561,-0.75834 0.67739,-1.01609z" fill="#eec549"/><path d="M238.20971,191.00266c7.11091,2.67807 13.03807,6.96832 17.78151,12.87042c2.95545,5.3524 2.84267,10.6584 -0.3387,15.91868c-2.73057,3.14411 -6.17407,5.00694 -10.33021,5.58848c-5.44893,1.02692 -10.75527,0.57544 -15.91868,-1.35478c-6.07687,-3.17696 -8.73021,-8.20117 -7.95935,-15.07195c0.9436,-5.10482 3.48382,-9.22572 7.62065,-12.36238c2.84402,-2.21168 5.89228,-4.0745 9.14478,-5.58848z" fill="#242121"/><path d="M238.20971,204.21179c2.94157,1.18374 5.48179,2.99034 7.62065,5.41912c1.48145,2.26147 0.86062,3.67247 -1.86282,4.23369c-2.82235,0.22591 -5.64504,0.22591 -8.46739,0c-0.81253,-0.24758 -1.54614,-0.64284 -2.20152,-1.18543c-0.25978,-1.38662 -0.14699,-2.7414 0.3387,-4.06434c1.26537,-1.77409 2.7895,-3.24166 4.57239,-4.40304z" fill="#f9ce4b"/><path d="M59.71724,259.75783c1.58307,3.27146 3.44589,6.43284 5.58848,9.48347c1.59594,1.42862 3.23318,2.7834 4.91108,4.06434c-4.95511,3.11938 -8.28551,7.52243 -9.99151,13.20912c-1.97967,-5.81472 -5.64876,-10.1612 -11.0076,-13.03977c5.25621,-3.23116 8.75595,-7.80355 10.49956,-13.71717z" fill="#fbfbfb"/></g></g></svg>