<svg version="1.1" xmlns="http://www.w3.org/2000/svg" xmlns:xlink="http://www.w3.org/1999/xlink" width="337.53906" height="77.75912" viewBox="0,0,337.53906,77.75912"><g transform="translate(-71.23047,-141.12044)"><g fill-rule="evenodd" stroke="none" stroke-miterlimit="10"><path d="M397.25,153.2181c-0.23958,15.33854 -0.38542,30.69792 -0.43229,46.07813c-1.26563,4.4375 -4.19792,6.88542 -8.78646,7.34375c-99.07292,0.19271 -198.14063,0.19271 -297.21354,0c-4.49479,-0.94271 -7.13542,-3.67708 -7.92188,-8.20833c-0.14063,-2.875 -0.19271,-5.75521 -0.14063,-8.64063c5.04688,-0.68229 7.20833,-3.5625 6.47917,-8.64062c-1.17188,-2.91146 -3.33333,-4.44792 -6.47917,-4.60417c0,-1.72917 0,-3.45833 0,-5.1875c4.15104,-0.16667 6.35938,-2.32813 6.61979,-6.47917c-0.39583,-4.57292 -2.89062,-6.73437 -7.48437,-6.47917c0.20313,-0.26042 0.48958,-0.35417 0.86458,-0.28646c0,-1.63542 0,-3.26563 0,-4.89583c-0.66146,-4.41146 0.77604,-7.91667 4.31771,-10.51563c1.32292,-0.82292 2.76562,-1.30208 4.31771,-1.4375c99.07292,-0.19271 198.14583,-0.19271 297.21875,0c6.33854,1.40104 9.21875,5.38542 8.64062,11.95313zM397.25,153.2181" fill-opacity="0.994" fill="#fedfb2"/><path d="M82.75521,153.2181c0,1.63021 0,3.26042 0,4.89583c-0.375,-0.06771 -0.66146,0.02604 -0.86458,0.28646c-4.47396,1.15625 -6.25,4.03646 -5.32813,8.64062c1.15625,2.76042 3.21875,4.19792 6.19271,4.31771c0,1.72917 0,3.45833 0,5.1875c-5.23437,0.95833 -7.20312,4.03125 -5.90625,9.21354c1.14583,2.54167 3.11458,3.88542 5.90625,4.03125c-0.05208,2.88542 0,5.76563 0.14063,8.64063c0.78646,4.53125 3.42708,7.26563 7.92188,8.20833c99.07292,0.19271 198.14062,0.19271 297.21354,0c4.58854,-0.45833 7.52083,-2.90625 8.78646,-7.34375c0.04687,-15.38021 0.19271,-30.73958 0.43229,-46.07813c5.89063,-0.38542 9.68229,2.20313 11.375,7.77604c0.19271,16.79687 0.19271,33.59896 0,50.40104c-1.13542,3.91667 -3.68229,6.36458 -7.63021,7.34375c-107.32813,0.1875 -214.65625,0.1875 -321.98437,0c-3.95313,-0.97917 -6.5,-3.42708 -7.63542,-7.34375c-0.19271,-16.90104 -0.19271,-33.79688 0,-50.69271c1.82292,-5.40104 5.61458,-7.89583 11.38021,-7.48437zM82.75521,153.2181" fill-opacity="0.983" fill="#ff3131"/><path d="M81.89062,158.40039c4.59375,-0.25521 7.08854,1.90625 7.48437,6.47917c-0.26042,4.15104 -2.46875,6.3125 -6.61979,6.47917c-2.97396,-0.11979 -5.03646,-1.55729 -6.19271,-4.31771c-0.92187,-4.60417 0.85417,-7.48437 5.32813,-8.64062zM81.89062,158.40039" fill="#fffdfd"/><path d="M164.25521,163.00977c-3.55208,0 -7.10417,0 -10.65625,0c0.09375,1.78125 0,3.51042 -0.28646,5.18229c0,-1.82292 0,-3.64583 0,-5.47396c3.69792,-0.09375 7.34896,0.00521 10.94271,0.29167zM164.25521,163.00977" fill="#3e372c"/><path d="M164.25521,163.00977c0,1.82292 0,3.64583 0,5.46875c5.76042,0 11.52083,0 17.28125,0c-0.04687,0.39583 0.00521,0.78125 0.14583,1.15625c4.4375,-2.09375 8.76042,-1.90104 12.95833,0.57292c0.14063,-0.56771 0.19271,-1.14583 0.14583,-1.72917c4.51563,0 9.02604,-0.05208 13.53646,-0.14063c3.49479,0.80729 5.65625,2.96875 6.47917,6.47917c0.14063,4.98958 0.19271,9.98437 0.14063,14.97396c-9.84375,-0.08333 -19.68229,0.01042 -29.51563,0.29167c-1.22917,0.00521 -2.38021,-0.28125 -3.45833,-0.86458c-4.28646,0.49479 -8.60417,0.78125 -12.95833,0.86458c-1.6875,-0.17187 -3.22396,-0.75 -4.60937,-1.72917c-0.14063,0.46875 -0.19271,0.94792 -0.14583,1.4375c-3.89062,-0.06771 -7.78125,0.02604 -11.66146,0.29167c-1.85937,0.03125 -3.48958,-0.54687 -4.89583,-1.72917c-0.14583,0.46875 -0.19271,0.94792 -0.14583,1.4375c-10.375,-0.02604 -20.73958,0.02083 -31.10417,0.14583c-3.92708,-1.29167 -5.94271,-4.03125 -6.04687,-8.20833c-1.36458,0.67708 -2.80208,1.05729 -4.31771,1.15104c0,2.30729 0,4.60937 0,6.91146c-3.55208,0 -7.10417,0 -10.65625,0c0,-8.54167 0,-17.08854 0,-25.63021c3.55208,0 7.10417,0 10.65625,0c3.82292,0.13542 6.65625,1.85938 8.49479,5.18229c3.45833,-1.32813 6.96354,-1.46875 10.51042,-0.43229c0.79167,0.32292 1.51042,0.75521 2.16146,1.29687c0.14063,-0.56771 0.1875,-1.14583 0.14063,-1.72917c4.61458,-0.03646 9.21875,-0.08333 13.82813,-0.14063c0.98958,0.29687 1.95312,0.67708 2.88021,1.15104c0.625,0.67708 1.29687,1.30208 2.01563,1.86979c1.84896,-2.21875 4.25,-3.27604 7.19792,-3.16667c0.28646,-1.67187 0.38021,-3.40104 0.28646,-5.18229c3.55208,0 7.10417,0 10.65625,0zM164.25521,163.00977" fill="#030303"/><path d="M156.77083,166.17643c1.34375,0 2.6875,0 4.03125,0c0,6.71875 0,13.44271 0,20.16146c-1.07292,0.09375 -2.13021,-0.00521 -3.17188,-0.29167c-0.15625,-0.52604 -0.39583,-1.00521 -0.71875,-1.4375c-1.79167,2 -3.94792,2.52604 -6.47917,1.58333c-1.82813,-1.16146 -2.83854,-2.84375 -3.02604,-5.04167c-0.64583,-3.20833 0.07292,-6.04167 2.16146,-8.49479c2.72917,-1.60937 5.17708,-1.27604 7.34375,1.01042c-0.10937,-2.48437 -0.15625,-4.97917 -0.14063,-7.48958zM156.77083,166.17643" fill="#f9f9f9"/><path d="M105.79167,167.61914c-2.30208,0 -4.60937,0 -6.91146,0c0,6.23958 0,12.47917 0,18.71875c-0.28646,-6.28646 -0.38021,-12.625 -0.28646,-19.01042c2.45312,-0.09375 4.85417,0.00521 7.19792,0.29167zM105.79167,167.61914" fill="#bababa"/><path d="M105.79167,167.61914c4.91146,0.49479 6.78125,3.18229 5.61458,8.0625c-0.70313,1.81771 -1.99479,3.02083 -3.88542,3.59896c-1.60937,0.36979 -3.23958,0.51563 -4.89583,0.43229c0,2.20833 0,4.41667 0,6.625c-1.25,0 -2.49479,0 -3.74479,0c0,-6.23958 0,-12.47917 0,-18.71875c2.30208,0 4.60938,0 6.91146,0zM105.79167,167.61914" fill="#fbfbfb"/><path d="M228.19271,168.19206c3.66146,-0.39583 6.6875,0.75521 9.07292,3.45833c1.66667,-2.05729 3.82292,-3.16146 6.47917,-3.3125c1.25,-0.19271 2.49479,-0.19271 3.74479,0c1.1875,0.44792 2.33854,0.97396 3.45313,1.58333c0.27604,-0.44792 0.36979,-0.92708 0.29167,-1.44271c4.60937,-0.03646 9.21875,-0.08333 13.82292,-0.14063c1.84896,0.39583 3.38021,1.30729 4.60937,2.73437c2.03125,-1.98437 4.47917,-2.94792 7.34375,-2.88021c3.76042,0.15104 7.50521,0.34375 11.22917,0.57813c1.10417,-0.42188 2.25521,-0.61458 3.45833,-0.57813c11.90104,0.38542 23.80729,0.38542 35.70833,0c2.4375,0.04167 4.59375,0.8125 6.48437,2.30208c4.01042,-2.29687 8.23437,-2.82813 12.67187,-1.58333c1.08854,0.47396 2.14583,1 3.16667,1.58333c2.65104,-1.4375 5.48437,-2.20833 8.49479,-2.30208c2.46354,-0.13021 4.67187,0.54167 6.625,2.01562c0.14583,-0.56771 0.1875,-1.14583 0.14583,-1.72917c4.51563,0 9.02604,-0.05208 13.53646,-0.14063c3.49479,0.80729 5.65625,2.96875 6.47917,6.47917c0.14063,4.98958 0.19271,9.98437 0.14063,14.97396c-9.89063,-0.08333 -19.77604,0.01042 -29.66146,0.29167c-1.13542,0.00521 -2.19271,-0.28646 -3.16667,-0.86458c-4.13021,0.5 -8.30729,0.79167 -12.53125,0.86458c-1.22396,0.00521 -2.38021,-0.28125 -3.45313,-0.86458c-10.05208,0.48437 -20.13542,0.77083 -30.23958,0.86458c-1.21354,-0.24479 -2.41146,-0.53125 -3.60417,-0.86458c-0.95833,3.69271 -3.35937,5.85417 -7.19792,6.47917c-2.69271,0.56771 -5.38021,0.56771 -8.0625,0c-1.11458,-0.33854 -2.11979,-0.86979 -3.02604,-1.58333c-3.78125,2 -7.76562,2.53125 -11.95313,1.58333c-2.98437,-0.92187 -4.80729,-2.88542 -5.46875,-5.90625c-5.40625,0.17708 -10.78646,-0.01562 -16.13021,-0.57292c-5.02083,1.85937 -9.48438,0.99479 -13.39063,-2.59375c-1.92187,2.28125 -4.36979,3.43229 -7.34375,3.45833c0,2.01563 0,4.03125 0,6.04688c-3.65104,0 -7.29687,0 -10.94271,0c0,-9.21875 0,-18.43229 0,-27.65104c3.11979,0.09896 6.19271,0 9.21354,-0.28646zM228.19271,168.19206" fill="#050504"/><path d="M102.625,170.78581c1.52083,-0.16667 2.95833,0.07292 4.31771,0.71875c0.92187,1.61458 0.72917,3.05208 -0.57292,4.31771c-1.21875,0.375 -2.46875,0.51563 -3.74479,0.43229c0,-1.82292 0,-3.64583 0,-5.46875zM102.625,170.78581" fill="#060606"/><path d="M118.17708,171.65039c2.39583,-0.21875 4.69792,0.11979 6.91146,1.00521c0.85417,0.60417 1.38021,1.42187 1.58333,2.44792c0.14583,3.74479 0.19271,7.48958 0.14583,11.23437c-0.97917,0.08854 -1.9375,-0.00521 -2.88021,-0.29167c-0.21354,-0.58333 -0.45312,-1.16146 -0.71875,-1.72396c-2.14063,2.40625 -4.68229,2.93229 -7.63542,1.58333c-2.02083,-2.17187 -2.21354,-4.47396 -0.57292,-6.91146c0.94792,-0.71354 2,-1.19271 3.16667,-1.44271c1.53125,-0.14063 3.06771,-0.19271 4.60937,-0.14063c0.32292,-2.04687 -0.54167,-3.00521 -2.59375,-2.88021c-1.14063,0.13542 -2.24479,0.42708 -3.3125,0.86458c-0.72917,-0.59375 -1.26042,-1.35938 -1.58333,-2.30729c0.92708,-0.59375 1.89063,-1.07292 2.88021,-1.4375zM118.17708,171.65039" fill="#f8f8f8"/><path d="M185.56771,171.65039c1.63542,-0.05208 3.26562,0 4.89583,0.14062c1.83333,0.41667 3.03646,1.52083 3.59896,3.3125c0.14583,3.74479 0.19271,7.48958 0.14583,11.23437c-0.97917,0.08854 -1.9375,-0.00521 -2.88021,-0.29167c-0.21354,-0.52604 -0.50521,-1.00521 -0.86458,-1.4375c-2.1875,2.13542 -4.68229,2.56771 -7.48437,1.29687c-1.61979,-1.43229 -2.14583,-3.20833 -1.58854,-5.32813c0.83854,-1.73958 2.22917,-2.75 4.17708,-3.02604c1.53646,-0.14063 3.06771,-0.19271 4.60937,-0.14063c-0.05729,-2.4375 -1.30208,-3.34896 -3.74479,-2.73958c-0.71875,0.23958 -1.4375,0.47917 -2.16146,0.72396c-0.85417,-0.66146 -1.33333,-1.52604 -1.4375,-2.59375c0.91667,-0.4375 1.83333,-0.82292 2.73438,-1.15104zM185.56771,171.65039" fill="#f8f8f8"/><path d="M339.9375,171.65039c1.63542,-0.05208 3.26563,0 4.89583,0.14062c1.83333,0.41667 3.03646,1.52083 3.59896,3.3125c0.14583,3.74479 0.19271,7.48958 0.14583,11.23437c-0.97917,0.08854 -1.9375,-0.00521 -2.88021,-0.29167c-0.21875,-0.52604 -0.50521,-1.00521 -0.86458,-1.4375c-2.1875,2.13542 -4.68229,2.56771 -7.48958,1.29687c-1.61979,-1.43229 -2.14583,-3.20833 -1.58333,-5.32813c0.83333,-1.73958 2.22917,-2.75 4.17708,-3.02604c1.53125,-0.14063 3.06771,-0.19271 4.60937,-0.14063c-0.05729,-2.4375 -1.30729,-3.34896 -3.74479,-2.73958c-0.71875,0.23958 -1.44271,0.47917 -2.16146,0.72396c-0.85937,-0.66146 -1.33854,-1.52604 -1.4375,-2.59375c0.91667,-0.4375 1.82813,-0.82292 2.73437,-1.15104zM339.9375,171.65039" fill="#f8f8f8"/><path d="M355.77604,171.65039c2.39583,-0.21875 4.69792,0.11979 6.91146,1.00521c0.85417,0.60417 1.38542,1.42187 1.58333,2.44792c0.14583,3.74479 0.19271,7.48958 0.14583,11.23437c-0.97917,0.08854 -1.9375,-0.00521 -2.88021,-0.29167c-0.21354,-0.58333 -0.45313,-1.16146 -0.71875,-1.72396c-2.13542,2.40625 -4.68229,2.93229 -7.63542,1.58333c-2.02083,-2.17187 -2.21354,-4.47396 -0.57292,-6.91146c0.94792,-0.71354 2.00521,-1.19271 3.16667,-1.44271c1.53125,-0.14063 3.07292,-0.19271 4.60937,-0.14063c0.32292,-2.04687 -0.54167,-3.00521 -2.59375,-2.88021c-1.14062,0.13542 -2.24479,0.42708 -3.3125,0.86458c-0.72917,-0.59375 -1.26042,-1.35938 -1.58333,-2.30729c0.93229,-0.59375 1.89063,-1.07292 2.88021,-1.4375zM355.77604,171.65039" fill="#f8f8f8"/><path d="M137.47396,171.65039c1.83854,-0.20833 3.56771,0.13021 5.18229,1.00521c0.36979,0.40625 0.70833,0.83854 1.01042,1.29687c0.41667,4.10938 0.55729,8.23438 0.43229,12.38542c-1.25,0 -2.5,0 -3.74479,0c0.04688,-3.26563 0,-6.53125 -0.14583,-9.79167c-0.85937,-1.69271 -2.15625,-2.125 -3.88542,-1.29688c-0.66667,0.46875 -1.09896,1.09375 -1.29687,1.86979c-0.14583,3.07292 -0.19271,6.14583 -0.14583,9.21875c-1.34375,0 -2.6875,0 -4.03125,0c0,-4.80208 0,-9.59896 0,-14.40104c1.07292,-0.09375 2.13021,0.00521 3.16667,0.28646c0.15104,0.5 0.34375,0.97917 0.57813,1.44271c0.8125,-0.91146 1.77083,-1.58333 2.88021,-2.01562zM137.47396,171.65039" fill="#fbfbfb"/><path d="M164.83333,171.93685c1.34375,0 2.6875,0 4.03125,0c-0.04687,3.35937 0,6.71875 0.14583,10.07812c1.08854,1.65104 2.47917,1.89063 4.17187,0.72396c0.18229,-0.21875 0.32813,-0.45833 0.43229,-0.72396c0.40625,-3.33854 0.55208,-6.69792 0.43229,-10.07812c1.34375,0 2.6875,0 4.03646,0c0,4.80208 0,9.59896 0,14.40104c-1.05729,0 -2.11458,0 -3.17187,0c0.07292,-0.67188 -0.11979,-1.25 -0.57292,-1.72917c-1.93229,2.00521 -4.23437,2.53646 -6.91146,1.58333c-1.11979,-0.64063 -1.9375,-1.55208 -2.44792,-2.73438c-0.14583,-3.83854 -0.19271,-7.68229 -0.14583,-11.52083zM164.83333,171.93685" fill="#f9f9f9"/><path d="M204.57812,171.65039c3.08854,-0.625 5.34375,0.43229 6.76563,3.16667c0.14583,3.83854 0.19271,7.67708 0.14583,11.52083c-1.34375,0 -2.6875,0 -4.03125,0c0.04687,-3.45833 0,-6.91667 -0.14583,-10.36979c-2.01042,-1.74479 -3.64063,-1.45313 -4.89583,0.86458c-0.14583,3.16667 -0.19271,6.33333 -0.14583,9.50521c-1.34375,0 -2.6875,0 -4.03125,0c0,-4.80208 0,-9.59896 0,-14.40104c1.05729,0 2.11458,0 3.16667,0c0.05729,0.59375 0.19792,1.17187 0.43229,1.72917c0.80729,-0.85417 1.71875,-1.52604 2.73958,-2.01562zM204.57812,171.65039" fill="#f9f9f9"/><path d="M228.77083,171.65039c3.35417,-0.46354 5.60937,0.88542 6.76563,4.03125c0.77604,2.99479 0.48437,5.875 -0.86458,8.64063c-2.60937,2.79687 -5.39583,2.98958 -8.34896,0.57292c0.125,2.56771 0.17187,5.16146 0.14062,7.77604c-1.34375,0 -2.6875,0 -4.03125,0c0,-6.91146 0,-13.82292 0,-20.73437c1.0625,-0.04688 2.11458,0 3.16667,0.14583c0.23958,0.52083 0.47917,1.04688 0.72396,1.58333c0.70313,-0.85417 1.51562,-1.52604 2.44792,-2.01562zM228.77083,171.65039" fill="#f9f9f9"/><path d="M243.16667,171.65039c6.14583,-0.57813 8.93229,2.20833 8.35417,8.34896c-3.07292,0 -6.14583,0 -9.21354,0c-0.04687,1.45313 0.52604,2.55729 1.72396,3.3125c2.1875,0.60937 4.29687,0.36979 6.33854,-0.71875c0.38542,1.05729 0.38542,2.10937 0,3.16667c-3.23958,1.27083 -6.40625,1.125 -9.50521,-0.43229c-1.93229,-1.65625 -2.79167,-3.77083 -2.59375,-6.33333c-0.11458,-3.66667 1.51563,-6.11458 4.89583,-7.34375zM243.16667,171.65039" fill="#f8f8f8"/><path d="M261.3125,171.65039c1.84375,-0.20833 3.56771,0.13021 5.18229,1.00521c0.375,0.40625 0.70833,0.83854 1.01042,1.29687c0.41667,4.10938 0.5625,8.23438 0.43229,12.38542c-1.25,0 -2.49479,0 -3.74479,0c0.04687,-3.26563 0,-6.53125 -0.14583,-9.79167c-0.85937,-1.69271 -2.15104,-2.125 -3.88542,-1.29688c-0.66667,0.46875 -1.09896,1.09375 -1.29687,1.86979c-0.14583,3.07292 -0.19271,6.14583 -0.14583,9.21875c-1.34375,0 -2.6875,0 -4.03125,0c0,-4.80208 0,-9.59896 0,-14.40104c1.07292,-0.09375 2.13021,0.00521 3.16667,0.28646c0.15104,0.5 0.34375,0.97917 0.57813,1.44271c0.8125,-0.91146 1.77083,-1.58333 2.88021,-2.01562zM261.3125,171.65039" fill="#fbfbfb"/><path d="M274.84896,171.65039c3.26042,0.15104 6.52604,0.25 9.79167,0.28646c0,0.67187 0,1.34375 0,2.01562c-0.66146,0.14063 -1.33333,0.23958 -2.01563,0.28646c0.8125,5.47917 -1.58854,7.92708 -7.19792,7.34375c-0.41667,0.65625 -0.31771,1.22917 0.28646,1.72917c2.01563,0.09896 4.03125,0.19271 6.04688,0.28646c2.60417,1.34375 3.32292,3.41146 2.16146,6.19271c-1.21875,1.54688 -2.80208,2.45833 -4.75521,2.73958c-1.82292,0.1875 -3.64583,0.1875 -5.46875,0c-3.40104,-0.99479 -4.3125,-3.05729 -2.73958,-6.19271c0.58854,-0.44271 1.21354,-0.82813 1.875,-1.15104c-1.66667,-1.70833 -1.47396,-3.19271 0.57292,-4.46875c-2.70313,-2.25521 -2.99479,-4.79687 -0.85938,-7.63021c0.69792,-0.63542 1.46354,-1.11458 2.30208,-1.4375zM274.84896,171.65039" fill="#f9f9f9"/><path d="M289.82292,171.65039c3.26562,0.13542 6.52604,0.22917 9.79167,0.28646c0,0.67187 0,1.34375 0,2.01562c-0.82813,0.0625 -1.59896,0.30208 -2.30208,0.71875c1.26042,3.14583 0.30208,5.35417 -2.88021,6.625c-1.34375,0.09375 -2.6875,0.19271 -4.03125,0.28646c-0.8125,0.72917 -0.71875,1.30208 0.28646,1.72917c2.01563,0.09896 4.03125,0.19271 6.04688,0.28646c2.31771,0.9375 3.13542,2.61458 2.44792,5.04167c-0.93229,2.22396 -2.60937,3.52083 -5.03646,3.89063c-1.82292,0.1875 -3.65104,0.1875 -5.47396,0c-3.32292,-0.82292 -4.33333,-2.79167 -3.02083,-5.90625c0.68229,-0.6875 1.5,-1.11979 2.44792,-1.29687c-1.96354,-1.65625 -1.86979,-3.19271 0.28646,-4.60937c-2.01563,-1.33854 -2.73437,-3.20833 -2.16146,-5.61458c0.625,-1.77083 1.82292,-2.92188 3.59896,-3.45313zM289.82292,171.65039" fill="#f8f8f8"/><path d="M301.92187,171.93685c1.24479,0 2.49479,0 3.74479,0c-0.11979,3.47396 0.02604,6.92708 0.43229,10.36979c1.74479,1.64063 3.27604,1.44792 4.60417,-0.57812c0.40104,-3.25 0.54167,-6.51042 0.43229,-9.79167c1.34375,0 2.6875,0 4.03125,0c0,4.80208 0,9.59896 0,14.40104c-1.07292,0.09375 -2.125,-0.00521 -3.16667,-0.29167c-0.14583,-0.49479 -0.33854,-0.97396 -0.57292,-1.4375c-1.72396,1.86458 -3.83854,2.48958 -6.33854,1.86979c-1.70833,-0.45833 -2.71875,-1.5625 -3.02604,-3.3125c-0.14063,-3.73958 -0.19271,-7.48437 -0.14063,-11.22917zM301.92187,171.93685" fill="#fafafa"/><path d="M325.82292,171.65039c1.84375,-0.20833 3.56771,0.13021 5.1875,1.00521c0.36979,0.40625 0.70312,0.83854 1.00521,1.29687c0.41667,4.10938 0.5625,8.23438 0.43229,12.38542c-1.24479,0 -2.49479,0 -3.74479,0c0.05208,-3.26563 0,-6.53125 -0.14063,-9.79167c-0.85937,-1.69271 -2.15625,-2.125 -3.89063,-1.29688c-0.66667,0.46875 -1.09896,1.09375 -1.29687,1.86979c-0.14062,3.07292 -0.19271,6.14583 -0.14062,9.21875c-1.34896,0 -2.6875,0 -4.03125,0c0,-4.80208 0,-9.59896 0,-14.40104c1.07292,-0.09375 2.125,0.00521 3.16667,0.28646c0.14583,0.5 0.33854,0.97917 0.57292,1.44271c0.8125,-0.91146 1.77083,-1.58333 2.88021,-2.01562zM325.82292,171.65039" fill="#fbfbfb"/><path d="M374.78646,171.65039c3.08854,-0.625 5.34375,0.43229 6.76563,3.16667c0.14583,3.83854 0.19271,7.67708 0.14583,11.52083c-1.34375,0 -2.6875,0 -4.03125,0c0.04687,-3.45833 0,-6.91667 -0.14583,-10.36979c-2.01042,-1.74479 -3.64583,-1.45313 -4.89583,0.86458c-0.14583,3.16667 -0.19271,6.33333 -0.14583,9.50521c-1.34375,0 -2.6875,0 -4.03125,0c0,-4.80208 0,-9.59896 0,-14.40104c1.05729,0 2.10937,0 3.16667,0c0.05729,0.59375 0.20313,1.17187 0.43229,1.72917c0.80729,-0.85417 1.71875,-1.52604 2.73958,-2.01562zM374.78646,171.65039" fill="#f9f9f9"/><path d="M276.28646,173.95247c2.50521,0.05729 3.41667,1.30729 2.73958,3.74479c-0.03125,0.67708 -0.36979,1.10937 -1.01042,1.29687c-2.61458,0.25521 -3.625,-0.94271 -3.02083,-3.59896c0.39063,-0.53646 0.82292,-1.02083 1.29167,-1.44271zM276.28646,173.95247" fill="#141413"/><path d="M291.26562,173.95247c2.34375,-0.00521 3.25521,1.14583 2.73437,3.45833c-0.41667,1.59896 -1.42708,2.125 -3.02083,1.58333c-1.06771,-0.97917 -1.40625,-2.18229 -1.01042,-3.59896c0.29687,-0.63021 0.72917,-1.11458 1.29687,-1.44271zM291.26562,173.95247" fill="#121211"/><path d="M244.03125,174.5306c2.27083,-0.32292 3.52083,0.64063 3.74479,2.88021c-1.82292,0 -3.64583,0 -5.46875,0c0.14063,-1.25 0.71354,-2.20833 1.72396,-2.88021zM244.03125,174.5306" fill="#060606"/><path d="M227.90625,174.81706c2.23958,-0.30208 3.53646,0.65625 3.88542,2.88021c0.22917,1.58333 0.03646,3.11979 -0.57292,4.60937c-1.01042,1.18229 -2.21354,1.42188 -3.60417,0.71875c-0.52083,-0.52083 -0.85938,-1.14063 -1.00521,-1.875c-0.19271,-1.53125 -0.19271,-3.06771 0,-4.60417c0.38542,-0.625 0.8125,-1.19792 1.29687,-1.72917zM227.90625,174.81706" fill="#080808"/><path d="M153.3125,174.81706c1.68229,-0.19271 2.88542,0.47917 3.59896,2.01562c0.31771,1.98438 0.125,3.90104 -0.57292,5.76042c-2.22396,1.52083 -3.85937,1.04167 -4.89583,-1.44271c-0.19271,-1.34375 -0.19271,-2.6875 0,-4.03125c0.375,-0.99479 1,-1.76562 1.86979,-2.30208zM153.3125,174.81706" fill="#080808"/><path d="M276.57812,175.68164c1.01563,-0.17708 1.54167,0.20833 1.58333,1.15104c-0.82292,0.8125 -1.54167,0.76563 -2.16146,-0.14583c0.14063,-0.375 0.32813,-0.70833 0.57813,-1.00521zM276.57812,175.68164" fill="#ebcfa5"/><path d="M291.26562,175.68164c1,-0.08854 1.625,0.29688 1.86979,1.15104c-0.92708,0.82292 -1.74479,0.72396 -2.44792,-0.28646c0.32292,-0.22396 0.51563,-0.51042 0.57813,-0.86458zM291.26562,175.68164" fill="#e4c8a0"/><path d="M82.75521,176.54622c3.14583,0.15625 5.30729,1.69271 6.47917,4.60417c0.72917,5.07813 -1.43229,7.95833 -6.47917,8.64062c-2.79167,-0.14583 -4.76042,-1.48958 -5.90625,-4.03125c-1.29687,-5.18229 0.67187,-8.25521 5.90625,-9.21354zM82.75521,176.54622" fill="#fffdfd"/><path d="M119.90625,179.71289c0.95833,0 1.91667,0 2.88021,0c0.23437,3.27083 -1.20833,4.47396 -4.32292,3.59896c-0.71875,-1.71875 -0.23958,-2.92188 1.44271,-3.59896zM119.90625,179.71289" fill="#090909"/><path d="M187.01042,179.71289c1.05208,0 2.10937,0 3.16667,0c0.30729,3.00521 -1.03646,4.30208 -4.03125,3.88542c-0.80208,-0.63542 -1.04687,-1.44792 -0.71875,-2.44792c0.49479,-0.54687 1.02604,-1.02604 1.58333,-1.4375zM187.01042,179.71289" fill="#0d0d0d"/><path d="M341.375,179.71289c1.05729,0 2.11458,0 3.17187,0c0.30208,3.00521 -1.04167,4.30208 -4.03646,3.88542c-0.80208,-0.63542 -1.04167,-1.44792 -0.71875,-2.44792c0.5,-0.54687 1.02604,-1.02604 1.58333,-1.4375zM341.375,179.71289" fill="#0d0d0d"/><path d="M357.50521,179.71289c0.95833,0 1.92188,0 2.88021,0c0.23437,3.27083 -1.20833,4.47396 -4.32292,3.59896c-0.71875,-1.71875 -0.23958,-2.92188 1.44271,-3.59896zM357.50521,179.71289" fill="#090909"/><path d="M106.08333,164.16081c-3.55208,0 -7.10417,0 -10.65625,0c0,8.54167 0,17.08854 0,25.63021c-0.29167,-8.58854 -0.38542,-17.22917 -0.29167,-25.91667c3.69792,-0.09896 7.34896,0 10.94792,0.28646zM106.08333,164.16081" fill="#494033"/><path d="M274.84896,186.62435c1.94792,-0.10937 3.86458,0.03646 5.76042,0.43229c0.36979,1.75 -0.40104,2.71354 -2.30208,2.88021c-1.15625,0.19271 -2.30729,0.19271 -3.45833,0c-1.06771,-0.48958 -1.40625,-1.30208 -1.01042,-2.44792c0.33333,-0.32813 0.66667,-0.61458 1.01042,-0.86458zM274.84896,186.62435" fill="#050505"/><path d="M289.53646,186.62435c1.72917,-0.04687 3.45833,0 5.18229,0.14583c1.0625,0.19792 1.40104,0.82292 1.01042,1.86979c-0.38021,0.57292 -0.90625,0.91146 -1.58333,1.01042c-1.42187,0.38021 -2.86458,0.47917 -4.32292,0.28646c-1.80729,-0.94792 -1.90104,-2.05208 -0.28646,-3.3125zM289.53646,186.62435" fill="#060606"/></g></g></svg>