<svg version="1.1" xmlns="http://www.w3.org/2000/svg" xmlns:xlink="http://www.w3.org/1999/xlink" width="384.44687" height="357.88313" viewBox="0,0,384.44687,357.88313"><g transform="translate(-48.58304,-1.80919)"><g fill-rule="evenodd" stroke="none" stroke-miterlimit="10"><path d="M81.51331,1.80919c106.24215,0 212.48396,0 318.72611,0c8.29275,1.71437 13.46022,6.71654 15.49589,15.00655c0.36537,3.14152 0.58395,6.29505 0.65246,9.46065c4.38452,5.4051 6.88671,11.60333 7.50328,18.59507c0.10766,3.15366 0.21858,6.307 0.32623,9.46065c2.20531,1.86016 4.76295,2.893 7.66639,3.09918c1.40931,1.15061 1.52023,2.3469 0.32623,3.58852c-2.85125,0.23652 -5.51654,1.05209 -7.99262,2.44672c-0.10766,88.5168 -0.21858,177.03393 -0.32623,265.55073c-2.65877,16.36041 -12.06722,26.42132 -28.21884,30.17622c-48.38308,0.37843 -96.77497,0.54154 -145.17208,0.48934c-47.4119,-0.05546 -94.82412,-0.10766 -142.23601,-0.16311c-6.85278,-0.71118 -12.94249,-3.2101 -18.26885,-7.50328c-5.6666,0.48934 -10.99491,-0.60026 -15.98524,-3.26229c-4.72283,-3.29818 -7.49577,-7.81319 -8.31885,-13.53852c-0.10863,-13.26678 -0.21759,-26.53322 -0.32623,-39.79999c0.04926,-5.41019 -1.14702,-10.52122 -3.58852,-15.33278c-2.86071,-4.39692 -6.93858,-6.84364 -12.2336,-7.34016c-1.00185,-0.92095 -1.21945,-2.00827 -0.65246,-3.26229c6.87202,-1.21585 11.60235,-5.07613 14.19098,-11.58115c0.95977,-2.53415 1.61222,-5.14399 1.95738,-7.8295c0.43127,-77.31147 0.64887,-154.62784 0.65246,-231.9491c1.70487,-8.93581 6.97902,-14.37298 15.82213,-16.31147z" fill="#232020" opacity="0.984"/><path d="M81.18707,5.72395c106.02456,-0.05438 212.0491,0 318.07366,0.16311c7.17052,1.19025 11.46696,5.37685 12.88606,12.55983c0.34255,7.41363 0.12723,14.80814 -0.65246,22.1836c-0.89387,5.65258 -3.45151,10.3829 -7.66639,14.19098c-2.53807,1.5411 -5.25555,2.62843 -8.15574,3.26229c-0.43388,0.87005 -0.43388,1.73979 0,2.60983c8.27644,1.31698 13.44391,6.04732 15.49589,14.19098c0.65246,3.22576 0.97869,6.48805 0.97869,9.78688c0.21858,83.40609 0.21858,166.81185 0,250.21795c-1.43541,6.98131 -5.62094,11.27775 -12.55983,12.88606c-105.91592,0.21858 -211.83151,0.21858 -317.74742,0c-6.82994,-1.50066 -10.90781,-5.68944 -12.2336,-12.55983c-0.31481,-15.23328 -0.20586,-30.45743 0.32623,-45.67211c0.64789,-4.88496 2.49631,-9.2349 5.5459,-13.04917c2.57004,-2.52502 5.66921,-3.77546 9.29754,-3.75163c1.6031,-1.03448 1.71172,-2.23044 0.32623,-3.58852c-4.44553,-0.45443 -7.97989,-2.46629 -10.60246,-6.03525c-2.79514,-4.25207 -4.42628,-8.92792 -4.89345,-14.02786c-0.21759,-77.20773 -0.21759,-154.41513 0,-231.62287c1.74794,-6.0431 5.60854,-9.95786 11.58115,-11.74426z" fill="#2ab7a1"/><path d="M413.94106,45.85016c1.57242,4.0671 3.85604,7.71011 6.85081,10.92868c1.08635,0.7611 2.17595,1.52252 3.26229,2.2836c-2.43041,1.1878 -4.44324,2.87311 -6.03525,5.05656c-1.5659,2.36745 -2.87082,4.86864 -3.91476,7.50328c-1.84319,-5.48294 -5.26861,-9.61529 -10.27623,-12.39671c5.03046,-3.20945 8.40041,-7.6677 10.11311,-13.3754z" fill="#fbfbfb"/><path d="M237.12472,119.578c11.74426,0 23.48852,0 35.23278,0c0,45.78074 0,91.56182 0,137.34258c-15.55038,0 -31.10043,0 -46.6508,0c0.05448,-25.11999 0,-50.23965 -0.16311,-75.35899c-3.53404,2.88159 -7.06842,5.76349 -10.60246,8.64508c-0.32623,0.21759 -0.65246,0.21759 -0.97869,0c-8.60593,-10.4537 -17.0879,-21.002 -25.4459,-31.64425c16.26384,-12.95033 32.46667,-25.94535 48.60818,-38.98441z" fill="#232020"/><path d="M241.03948,130.99603c6.63322,0 13.26678,0 19.9,0c0,38.16883 0,76.33768 0,114.50651c-8.0471,0 -16.09388,0 -24.14097,0c-0.05448,-24.90239 0,-49.80446 0.16311,-74.70653c0.11875,-3.80808 0.28186,-7.6142 0.48934,-11.41803c-0.10863,-0.87005 -0.21759,-1.73979 -0.32623,-2.60983c-6.64465,6.52329 -13.71273,12.50405 -21.20491,17.94262c-3.95944,-4.65301 -7.76556,-9.43782 -11.41803,-14.35409c12.08321,-9.90856 24.26233,-19.69545 36.53769,-29.36064z" fill="#fefefe"/><path d="M241.03948,130.99603c6.68541,-0.32525 13.4276,-0.43422 20.22622,-0.32623c0.10863,38.33228 0,76.61008 -0.32623,114.83275c0,-38.16883 0,-76.33768 0,-114.50651c-6.63322,0 -13.26678,0 -19.9,0z" fill="#b1b0b0"/><path d="M67.15921,257.57304c1.52479,3.15105 3.31906,6.19607 5.38278,9.13443c1.53719,1.37604 3.11419,2.68095 4.73032,3.91476c-4.77273,3.00457 -7.98055,7.24555 -9.62377,12.72295c-1.90681,-5.60071 -5.44085,-9.7872 -10.60246,-12.55983c5.06275,-3.11223 8.43368,-7.51632 10.11311,-13.21229z" fill="#fbfbfb"/></g></g></svg>