<svg version="1.1" xmlns="http://www.w3.org/2000/svg" xmlns:xlink="http://www.w3.org/1999/xlink" width="383.48429" height="356.9871" viewBox="0,0,383.48429,356.9871"><g transform="translate(-48.25786,-1.50645)"><g fill-rule="evenodd" stroke="none" stroke-miterlimit="10"><path d="M81.10566,1.50645c105.97614,0 211.95196,0 317.9281,0c8.27199,1.71007 13.42653,6.69972 15.45709,14.96898c0.36446,3.13365 0.58249,6.27929 0.65083,9.43697c4.37355,5.39156 6.86946,11.57428 7.48449,18.54852c0.10739,3.14576 0.21803,6.2912 0.32541,9.43697c2.19979,1.85551 4.75102,2.88576 7.6472,3.09142c1.40578,1.14773 1.51642,2.34102 0.32541,3.57954c-2.84411,0.23593 -5.50272,1.04946 -7.97261,2.4406c-0.10739,88.29518 -0.21803,176.59067 -0.32541,264.88585c-2.65211,16.31944 -12.03701,26.35516 -28.14819,30.10066c-48.26194,0.37748 -96.53267,0.54019 -144.8086,0.48812c-47.29319,-0.05532 -94.58669,-0.10739 -141.87989,-0.1627c-6.83562,-0.70941 -12.9101,-3.20206 -18.2231,-7.48449c-5.65241,0.48812 -10.96737,-0.59876 -15.94521,-3.25413c-4.711,-3.28992 -7.477,-7.79363 -8.29802,-13.50462c-0.10837,-13.23355 -0.21705,-26.46678 -0.32541,-39.70033c0.04913,-5.39664 -1.14415,-10.49487 -3.57954,-15.29439c-2.85355,-4.38591 -6.9212,-6.82651 -12.20298,-7.32179c-0.99935,-0.91864 -1.21639,-2.00325 -0.65083,-3.25413c6.85481,-1.21281 11.5733,-5.06342 14.15545,-11.55214c0.95737,-2.5278 1.60819,-5.13111 1.95247,-7.80991c0.4302,-77.11791 0.64724,-154.24068 0.65083,-231.36835c1.70061,-8.91344 6.96155,-14.337 15.78251,-16.27062z" fill="#232020" opacity="0.984"/><path d="M80.78025,5.4114c105.75908,-0.05424 211.51818,0 317.27727,0.1627c7.16884,1.20181 11.45126,5.37793 12.8538,12.52839c0.21803,5.2066 0.21803,10.4132 0,15.6198c-0.01628,6.56 -1.86136,12.52579 -5.53201,17.89769c-2.89291,3.31759 -6.52452,5.32408 -10.90132,6.02013c-0.4328,0.86788 -0.4328,1.73542 0,2.60331c8.25572,1.3137 13.41025,6.03218 15.45709,14.15545c0.61178,3.22321 0.93719,6.47734 0.97623,9.76238c0.21803,83.19726 0.21803,166.3942 0,249.59145c-1.48062,7.12003 -5.76306,11.40572 -12.8538,12.8538c-105.54204,0.21803 -211.08441,0.21803 -316.62645,0c-6.81284,-1.49689 -10.88049,-5.67519 -12.20298,-12.52839c-0.31402,-15.19514 -0.20534,-30.38118 0.32541,-45.55777c0.64627,-4.87273 2.49005,-9.21178 5.53201,-13.01651c2.56361,-2.51869 5.65501,-3.766 9.27426,-3.74224c1.59907,-1.03188 1.70744,-2.22485 0.32541,-3.57954c-6.68723,-1.2613 -11.18867,-5.11222 -13.50462,-11.55214c-1.05368,-2.72695 -1.70451,-5.54698 -1.95247,-8.46072c-0.21705,-77.01443 -0.21705,-154.02852 0,-231.04294c1.75235,-6.0365 5.60296,-9.94145 11.55214,-11.71485z" fill="#5679f2"/><path d="M412.70109,45.43715c1.56849,4.05692 3.84637,7.69081 6.83366,10.90132c1.08363,0.75919 2.17051,1.5187 3.25413,2.27789c-2.42432,1.18483 -4.43213,2.86591 -6.02013,5.0439c-1.56198,2.36151 -2.86363,4.85646 -3.90495,7.48449c-1.83858,-5.46922 -5.25541,-9.59122 -10.25049,-12.36568c5.01786,-3.20141 8.37937,-7.64849 10.08779,-13.34192z" fill="#fbfbfb"/><path d="M231.44628,113.44838c29.94154,-1.72079 49.08686,11.7295 57.43532,40.35116c1.57565,6.68429 2.38918,13.46361 2.4406,20.33829c0.13699,14.01096 -2.08655,27.62428 -6.67095,40.83929c-9.2326,22.01839 -25.77463,34.43841 -49.62543,37.25974c-13.092,1.72632 -25.99981,0.91278 -38.72409,-2.4406c-0.32541,-14.20816 -0.43378,-28.41763 -0.32541,-42.62905c5.8532,1.35469 11.71062,2.71068 17.57229,4.06766c3.89356,0.47998 7.79852,0.58835 11.71485,0.32541c-18.89541,-3.05822 -30.77297,-13.85085 -35.63268,-32.37855c-2.49331,-12.22119 -1.84248,-24.26146 1.95247,-36.1208c7.59936,-17.5238 20.88693,-27.39485 39.86304,-29.61254z" fill="#232021"/><path d="M207.36575,240.6847c-0.10739,-6.45619 0.00098,-12.85607 0.32541,-19.19934c7.53948,1.39471 15.13233,1.66578 22.77889,0.81353c15.07083,-1.9798 23.80296,-10.49487 26.19571,-25.54489c0.51285,-3.12656 0.78392,-6.27201 0.81353,-9.43697c-0.38235,-0.07127 -0.70777,0.0371 -0.97623,0.32541c-4.4689,7.55706 -11.08551,11.73308 -19.85016,12.52839c-22.52116,1.56166 -34.94085,-8.90557 -37.25974,-31.40232c-0.91799,-9.78873 0.9258,-19.00897 5.53201,-27.66007c6.66999,-9.76629 15.94424,-15.24395 27.82278,-16.43333c25.23737,-1.34786 40.5861,10.31297 46.04589,34.98185c1.81483,13.6273 1.38105,27.18626 -1.30164,40.67658c-5.82293,25.34606 -21.71413,39.06741 -47.67294,41.16469c-5.74906,0.21705 -11.4978,0.21705 -17.24687,0c-1.81612,-0.04881 -3.55156,-0.31987 -5.2066,-0.81353z" fill="#fdfdfd"/><path d="M234.7004,144.03716c7.70902,-1.10673 13.62047,1.60494 17.73499,8.13532c3.08816,5.24499 4.17277,10.88537 3.25413,16.92146c-1.89552,6.23426 -5.96319,10.30191 -12.20298,12.20298c-11.5694,2.51707 -18.45707,-1.98469 -20.66369,-13.50462c-0.5467,-5.01169 -0.00423,-9.89287 1.62706,-14.64356c2.06864,-4.62086 5.48548,-7.65826 10.25049,-9.11155z" fill="#232021"/><path d="M236.65289,155.10119c2.94434,-0.50765 5.05951,0.57728 6.34554,3.25413c1.86981,3.13404 2.19523,6.38817 0.97623,9.76238c-2.45589,2.41716 -5.33026,3.12234 -8.62344,2.11517c-0.44126,-0.78034 -0.82102,-1.59387 -1.13894,-2.4406c-0.21705,-2.92871 -0.21705,-5.85743 0,-8.78614c0.41523,-1.59809 1.22875,-2.89976 2.4406,-3.90495z" fill="#5678ef"/><path d="M207.69116,221.48536c-0.32443,6.34327 -0.4328,12.74316 -0.32541,19.19934c-0.43215,-6.45521 -0.43215,-12.96346 0,-19.52476c0.19752,0.04035 0.30589,0.14871 0.32541,0.32541z" fill="#828080"/><path d="M66.78751,256.62992c1.52098,3.14316 3.31075,6.18056 5.36931,9.11155c1.53335,1.3726 3.1064,2.67424 4.71848,3.90495c-4.76079,2.99705 -7.96057,7.22742 -9.59967,12.69109c-1.90203,-5.58668 -5.42723,-9.76271 -10.57591,-12.52839c5.05008,-3.10444 8.41257,-7.49751 10.08779,-13.17921z" fill="#fbfbfb"/></g></g></svg>