<svg version="1.1" xmlns="http://www.w3.org/2000/svg" xmlns:xlink="http://www.w3.org/1999/xlink" width="389.11934" height="362.23277" viewBox="0,0,389.11934,362.23277"><g transform="translate(-45.44033,1.11638)"><g fill-rule="evenodd" stroke="none" stroke-miterlimit="10"><path d="M78.77081,-1.11638c107.53339,0 215.06645,0 322.59984,0c8.39354,1.7352 13.62382,6.79817 15.68423,15.18894c0.36982,3.17971 0.59105,6.37156 0.66039,9.57564c4.43781,5.47079 6.9704,11.74435 7.59447,18.82108c0.10896,3.19199 0.22123,6.38365 0.33019,9.57564c2.23211,1.88277 4.82084,2.92816 7.75957,3.13685c1.42644,1.1646 1.53871,2.37542 0.33019,3.63214c-2.8859,0.23939 -5.58359,1.06488 -8.08976,2.47646c-0.10896,89.59261 -0.22123,179.18556 -0.33019,268.77817c-2.69108,16.55924 -12.21389,26.74244 -28.56181,30.54297c-48.97112,0.38303 -97.95115,0.54812 -146.93647,0.49529c-47.98813,-0.05613 -95.97659,-0.10896 -143.96472,-0.1651c-6.93606,-0.71982 -13.0998,-3.24911 -18.49088,-7.59447c-5.73548,0.49529 -11.12854,-0.60756 -16.17952,-3.30194c-4.78022,-3.33826 -7.58687,-7.90815 -8.41995,-13.70306c-0.10995,-13.42801 -0.22024,-26.85569 -0.33019,-40.28371c0.04986,-5.47594 -1.16096,-10.6491 -3.63214,-15.51913c-2.89547,-4.45036 -7.0229,-6.92682 -12.38229,-7.42937c-1.01403,-0.93214 -1.23427,-2.03268 -0.66039,-3.30194c6.95554,-1.23063 11.74336,-5.13782 14.36345,-11.7219c0.97143,-2.56495 1.63182,-5.2065 1.98117,-7.92466c0.43652,-78.2511 0.65676,-156.50715 0.66039,-234.76816c1.7256,-9.04442 7.06385,-14.54767 16.01442,-16.50972z" fill="#232020" opacity="0.984"/><path d="M78.44062,2.84595c107.31315,-0.05504 214.6263,0 321.93945,0.1651c7.27418,1.21947 11.61954,5.45696 13.04268,12.71248c0.22123,5.28311 0.22123,10.56622 0,15.84933c-0.01651,6.65639 -1.88871,12.70984 -5.6133,18.16069c-2.93543,3.36633 -6.6204,5.40231 -11.06151,6.10859c-0.43916,0.88063 -0.43916,1.76093 0,2.64155c8.37703,1.33299 13.60731,6.12081 15.68423,14.36345c0.62077,3.27057 0.95096,6.57252 0.99058,9.90583c0.22123,84.41979 0.22123,168.83925 0,253.25904c-1.50238,7.22465 -5.84774,11.57331 -13.04268,13.04268c-107.09291,0.22123 -214.18615,0.22123 -321.27906,0c-6.91295,-1.51889 -11.04038,-5.75859 -12.38229,-12.71248c-0.31864,-15.41842 -0.20835,-30.8276 0.33019,-46.2272c0.65577,-4.94433 2.52665,-9.34714 5.6133,-13.20777c2.60127,-2.5557 5.73812,-3.82134 9.41054,-3.79723c1.62257,-1.04705 1.73253,-2.25754 0.33019,-3.63214c-6.78549,-1.27983 -11.35307,-5.18735 -13.70306,-11.7219c-1.06917,-2.76703 -1.72956,-5.62849 -1.98117,-8.58505c-0.22024,-78.1461 -0.22024,-156.29186 0,-234.43796c1.7781,-6.1252 5.68529,-10.08754 11.7219,-11.887z" fill="#5679f2"/><path d="M415.23882,43.45985c1.59154,4.11653 3.9029,7.80381 6.93408,11.06151c1.09955,0.77034 2.2024,1.54102 3.30194,2.31136c-2.45995,1.20224 -4.49725,2.90802 -6.10859,5.11801c-1.58493,2.39622 -2.90571,4.92782 -3.96233,7.59447c-1.8656,-5.54958 -5.33264,-9.73215 -10.40112,-12.54738c5.0916,-3.24845 8.5025,-7.76089 10.23602,-13.53797z" fill="#fbfbfb"/><path d="M240.89622,113.79124c13.31773,0 26.63578,0 39.95351,0c-0.10995,24.3799 0.00033,48.70432 0.33019,72.97294c4.62272,0 9.24544,0 13.86816,0c0,13.86816 0,27.73632 0,41.60448c-4.62272,0 -9.24544,0 -13.86816,0c0,8.03462 0,16.06957 0,24.10418c-15.62909,0 -31.2585,0 -46.88759,0c0,-8.03462 0,-16.06957 0,-24.10418c-16.50972,0 -33.01943,0 -49.52915,0c-0.05514,-10.67683 0,-21.35301 0.1651,-32.02885c18.72895,-27.47679 37.38493,-54.9932 55.96794,-82.54858z" fill="#232020"/><path d="M240.89622,113.79124c13.37188,-0.32986 26.79956,-0.43982 40.28371,-0.33019c0,24.43438 0,48.86876 0,73.30314c-0.32986,-24.26862 -0.44015,-48.59305 -0.33019,-72.97294c-13.31773,0 -26.63578,0 -39.95351,0z" fill="#313655"/><path d="M269.62313,125.01784c0,24.43438 0,48.86876 0,73.30314c4.62272,0 9.24544,0 13.86816,0c0,6.16374 0,12.32714 0,18.49088c-4.62272,0 -9.24544,0 -13.86816,0c0,8.03462 0,16.06957 0,24.10418c-7.92466,0 -15.84933,0 -23.77399,0c0,-7.92466 0,-15.84933 0,-23.77399c-16.45391,-0.32986 -32.96363,-0.43982 -49.52915,-0.33019c0,-5.6133 0,-11.22661 0,-16.83991c16.83132,-24.86858 33.67123,-49.74344 50.51973,-74.62391c7.59117,-0.33019 15.18564,-0.44015 22.78341,-0.33019z" fill="#fefefe"/><path d="M245.84914,197.99079c-9.30223,0.10929 -18.54767,-0.00066 -27.73632,-0.33019c7.20583,-10.88684 14.41496,-21.78325 21.62773,-32.68924c2.31367,-3.74572 4.45993,-7.5981 6.43879,-11.5568c0.29982,3.7411 0.245,7.48319 -0.1651,11.22661c-0.1651,11.11599 -0.22024,22.23264 -0.1651,33.34963z" fill="#242121"/><path d="M218.11281,197.66059c9.18865,0.32953 18.43409,0.43949 27.73632,0.33019c-9.30157,0.43883 -18.65697,0.43883 -28.06652,0c0.04094,-0.20043 0.1509,-0.31038 0.33019,-0.33019z" fill="#c8c7c7"/><path d="M269.62313,125.01784c0.32986,24.26862 0.44015,48.59305 0.33019,72.97294c4.62272,0 9.24544,0 13.86816,0c0,6.38365 0,12.76762 0,19.15127c-4.62272,0 -9.24544,0 -13.86816,0c0,8.03462 0,16.06957 0,24.10418c-8.09174,0.10929 -16.12636,-0.00066 -24.10418,-0.33019c7.92466,0 15.84933,0 23.77399,0c0,-8.03462 0,-16.06957 0,-24.10418c4.62272,0 9.24544,0 13.86816,0c0,-6.16374 0,-12.32714 0,-18.49088c-4.62272,0 -9.24544,0 -13.86816,0c0,-24.43438 0,-48.86876 0,-73.30314z" fill="#9d9c9c"/><path d="M196.31999,199.97195c0,5.6133 0,11.22661 0,16.83991c16.56552,-0.10962 33.07523,0.00033 49.52915,0.33019c-16.61967,0 -33.23967,0 -49.85934,0c-0.10896,-5.78104 0.00099,-11.5043 0.33019,-17.1701z" fill="#bab8b8"/><path d="M64.24226,257.75596c1.54333,3.18935 3.3594,6.27138 5.44821,9.24544c1.55588,1.39276 3.15203,2.71354 4.78782,3.96233c-4.83074,3.04109 -8.07754,7.33362 -9.74073,12.87758c-1.92999,-5.66878 -5.50698,-9.90616 -10.73132,-12.71248c5.12429,-3.15005 8.53618,-7.60768 10.23602,-13.37287z" fill="#fbfbfb"/></g></g></svg>