<svg version="1.0" preserveAspectRatio="xMidYMid meet" height="360" viewBox="0 0 360 269.999989" zoomAndPan="magnify" width="480" xmlns:xlink="http://www.w3.org/1999/xlink" xmlns="http://www.w3.org/2000/svg"><defs><clipPath id="ab45c895bb"><path clip-rule="nonzero" d="M 108 117 L 252 117 L 252 156.421875 L 108 156.421875 Z M 108 117"></path></clipPath></defs><path fill-rule="nonzero" fill-opacity="1" d="M 224.230469 123.851562 C 196.398438 125.695312 120.648438 113.683594 113.851562 131.207031 C 110.730469 139.304688 113.917969 147.847656 121.714844 150.246094 C 125.902344 151.53125 137.644531 151.222656 142.386719 151.289062 C 168.628906 151.558594 194.140625 152.644531 216.773438 152.261719 C 237.324219 151.925781 247.445312 149.285156 247.785156 133.929688 C 248.242188 125.722656 235.921875 123 224.230469 123.851562" fill="#fee578"></path><g clip-path="url(#ab45c895bb)"><path fill-rule="nonzero" fill-opacity="1" d="M 206.625 156.40625 C 195.34375 156.40625 183.519531 156.148438 171.15625 155.878906 C 161.777344 155.675781 152.078125 155.460938 142.335938 155.351562 L 142.320312 155.351562 C 141.441406 155.335938 140.320312 155.335938 139.011719 155.335938 C 131.066406 155.335938 124.1875 155.257812 120.511719 154.132812 C 116.027344 152.75 112.433594 149.691406 110.40625 145.492188 C 108.136719 140.808594 108 135.066406 110.054688 129.742188 C 111.648438 125.652344 115.605469 122.578125 121.835938 120.628906 C 126.621094 119.125 132.847656 118.191406 140.890625 117.757812 C 155.28125 116.972656 173.277344 117.976562 189.167969 118.871094 C 202.84375 119.628906 215.746094 120.34375 223.949219 119.804688 C 228.746094 119.453125 233.40625 119.683594 237.40625 120.453125 C 242.269531 121.402344 246 123.109375 248.472656 125.546875 C 250.839844 127.875 252 130.828125 251.835938 134.078125 C 251.621094 143 248.3125 148.972656 241.703125 152.34375 C 235.703125 155.40625 227.421875 156.148438 216.839844 156.324219 C 213.488281 156.378906 210.085938 156.40625 206.625 156.40625 Z M 142.429688 147.226562 C 152.210938 147.320312 161.941406 147.539062 171.34375 147.753906 C 187.398438 148.105469 202.570312 148.445312 216.707031 148.199219 C 224.894531 148.066406 233.136719 147.589844 238.015625 145.101562 C 239.921875 144.125 241.230469 142.90625 242.121094 141.265625 C 243.136719 139.425781 243.648438 136.988281 243.71875 133.832031 L 243.71875 133.699219 C 243.769531 132.75 243.488281 132.046875 242.757812 131.339844 C 240.070312 128.6875 232.730469 127.304688 224.503906 127.902344 L 224.476562 127.902344 C 215.789062 128.46875 202.625 127.738281 188.695312 126.96875 C 173.019531 126.101562 155.253906 125.097656 141.308594 125.855469 C 134.050781 126.25 128.308594 127.101562 124.242188 128.375 C 120.59375 129.527344 118.230469 131.042969 117.59375 132.667969 C 116.351562 135.890625 116.378906 139.261719 117.675781 141.929688 C 118.730469 144.097656 120.527344 145.628906 122.863281 146.347656 C 125.675781 147.210938 134.335938 147.199219 138.984375 147.199219 C 140.347656 147.210938 141.496094 147.210938 142.429688 147.226562 Z M 142.429688 147.226562" fill="#000000"></path></g></svg>