<svg version="1.1" xmlns="http://www.w3.org/2000/svg" xmlns:xlink="http://www.w3.org/1999/xlink" width="395.91769" height="368.56138" viewBox="0,0,395.91769,368.56138"><g transform="translate(-42.04116,4.28069)"><g fill-rule="evenodd" stroke="none" stroke-miterlimit="10"><path d="M75.95396,-4.28069c109.41211,0 218.8239,0 328.23602,0c8.54018,1.76552 13.86184,6.91694 15.95825,15.45431c0.37628,3.23526 0.60137,6.48288 0.67193,9.74293c4.51535,5.56637 7.09218,11.94954 7.72715,19.1499c0.11086,3.24776 0.22509,6.49518 0.33596,9.74293c2.27111,1.91567 4.90507,2.97933 7.89513,3.19165c1.45136,1.18494 1.56559,2.41692 0.33596,3.6956c-2.93632,0.24357 -5.68114,1.08348 -8.23109,2.51973c-0.11086,91.1579 -0.22509,182.31613 -0.33596,273.47402c-2.7381,16.84855 -12.42728,27.20966 -29.06081,31.07659c-49.8267,0.38972 -99.66247,0.5577 -149.50361,0.50395c-48.82654,-0.05712 -97.6534,-0.11086 -146.47994,-0.16798c-7.05725,-0.7324 -13.32867,-3.30588 -18.81394,-7.72715c-5.83568,0.50395 -11.32297,-0.61817 -16.4622,-3.35963c-4.86374,-3.39659 -7.71943,-8.04632 -8.56706,-13.94247c-0.11188,-13.66261 -0.22409,-27.32489 -0.33596,-40.98751c0.05073,-5.57161 -1.18125,-10.83515 -3.6956,-15.79027c-2.94606,-4.52811 -7.1456,-7.04784 -12.59862,-7.55918c-1.03174,-0.94842 -1.25583,-2.06818 -0.67193,-3.35963c7.07707,-1.25214 11.94853,-5.22759 14.6144,-11.92669c0.98841,-2.60977 1.66033,-5.29746 2.01578,-8.06311c0.44415,-79.61823 0.66823,-159.2415 0.67193,-238.86982c1.75574,-9.20243 7.18726,-14.80183 16.29422,-16.79816z" fill="#232020" opacity="0.984"/><path d="M75.61799,-0.24913c109.18804,-0.056 218.37606,0 327.5641,0.16798c7.40127,1.24078 11.82255,5.5523 13.27054,12.93458c0.35276,7.63483 0.13102,15.24998 -0.67193,22.84549c-0.92054,5.82124 -3.55449,10.6927 -7.89513,14.6144c-2.61043,1.57701 -5.40901,2.69712 -8.39908,3.35963c-0.44683,0.89601 -0.44683,1.79169 0,2.68771c8.52339,1.35628 13.84505,6.22775 15.95825,14.6144c0.67193,3.32201 1.00789,6.68163 1.00789,10.07889c0.22509,85.8947 0.22509,171.78905 0,257.68375c-1.52863,7.35088 -5.94991,11.77551 -13.27054,13.27054c-108.96395,0.22509 -217.92822,0.22509 -326.89217,0c-7.03372,-1.54543 -11.23327,-5.8592 -12.59862,-12.93458c-0.3242,-15.6878 -0.21199,-31.3662 0.33596,-47.03485c0.66722,-5.03072 2.57079,-9.51044 5.71138,-13.43853c2.64672,-2.60036 5.83837,-3.8881 9.57495,-3.86358c1.65093,-1.06534 1.7628,-2.29698 0.33596,-3.6956c-6.90404,-1.3022 -11.55142,-5.27798 -13.94247,-11.92669c-1.08785,-2.81537 -1.75977,-5.72683 -2.01578,-8.73504c-0.22409,-79.5114 -0.22409,-159.02245 0,-238.53386c1.80916,-6.23222 5.78461,-10.26377 11.92669,-12.09467z" fill="#fdd14b"/><path d="M418.30043,41.07434c1.61934,4.18846 3.97109,7.94015 7.05523,11.25476c1.11875,0.7838 2.24087,1.56794 3.35963,2.35174c-2.50292,1.22324 -4.57582,2.95883 -6.21532,5.20743c-1.61262,2.43808 -2.95648,5.01391 -4.03156,7.72715c-1.89819,-5.64654 -5.4258,-9.90218 -10.58284,-12.7666c5.18056,-3.3052 8.65105,-7.89648 10.41486,-13.77449z" fill="#fbfbfb"/><path d="M244.60747,253.73902c-17.19089,0.11154 -34.32502,-0.00034 -51.40236,-0.33596c14.46725,-31.95816 29.02554,-63.87466 43.67521,-95.7495c0.30371,-0.2382 0.41558,-0.57416 0.33596,-1.00789c-17.246,0 -34.49234,0 -51.73832,0c0,-14.6705 0,-29.34067 0,-44.01118c35.94806,0 71.89612,0 107.84418,0c0.05611,10.07957 0,20.15846 -0.16798,30.23669c-16.10675,37.02549 -32.28908,73.98144 -48.54668,110.86784z" fill="#232020"/><path d="M281.56342,140.18347c0,-5.26354 0,-10.52673 0,-15.79027c-28.10903,0 -56.21772,0 -84.32675,0c0,6.94335 0,13.88636 0,20.82972c-0.33495,-6.9971 -0.44716,-14.05233 -0.33596,-21.16568c28.33278,0 56.6659,0 84.99868,0c0.11086,5.4342 -0.00134,10.80961 -0.33596,16.12623z" fill="#9a9999"/><path d="M281.56342,140.18347c-14.69066,33.97294 -29.47304,67.90521 -44.34714,101.79684c-8.68096,0.1112 -17.30378,-0.00067 -25.86916,-0.33596c14.53108,-32.14261 29.20158,-64.22709 44.01118,-96.25344c-19.37365,-0.16798 -38.74731,-0.22409 -58.12163,-0.16798c0,-6.94335 0,-13.88636 0,-20.82972c28.10903,0 56.21772,0 84.32675,0c0,5.26354 0,10.52673 0,15.79027z" fill="#fefefe"/><path d="M185.47795,156.64567c17.246,0 34.49234,0 51.73832,0c0.07962,0.43373 -0.03226,0.76969 -0.33596,1.00789c-17.07533,-0.55938 -34.20945,-0.89534 -51.40236,-1.00789z" fill="#8f7835"/><path d="M211.34712,241.64435c8.56538,0.33529 17.18822,0.44716 25.86916,0.33596c-8.67994,0.4465 -17.41498,0.4465 -26.20513,0c0.04166,-0.20393 0.15353,-0.31581 0.33596,-0.33596z" fill="#c8c7c7"/><path d="M193.2051,253.40306c17.07734,0.33563 34.21147,0.4475 51.40236,0.33596c-17.19057,0.44716 -34.43689,0.44716 -51.73832,0c0.04166,-0.20393 0.15353,-0.31581 0.33596,-0.33596z" fill="#c6a440"/><path d="M61.17158,259.11443c1.57029,3.24507 3.41809,6.38095 5.5434,9.40697c1.58306,1.41709 3.20711,2.76094 4.87147,4.03156c-4.91514,3.09422 -8.21867,7.46174 -9.91091,13.10256c-1.9637,-5.76781 -5.60319,-10.07923 -10.9188,-12.93458c5.21381,-3.20509 8.68532,-7.74059 10.41486,-13.60651z" fill="#fbfbfb"/></g></g></svg>