<svg version="1.1" xmlns="http://www.w3.org/2000/svg" xmlns:xlink="http://www.w3.org/1999/xlink" width="389.72316" height="362.79486" viewBox="0,0,389.72316,362.79486"><g transform="translate(-45.13842,1.39743)"><g fill-rule="evenodd" stroke="none" stroke-miterlimit="10"><path d="M78.52063,-1.39743c107.70025,0 215.40018,0 323.10043,0c8.40656,1.73789 13.64496,6.80872 15.70857,15.21251c0.37039,3.18464 0.59196,6.38145 0.66141,9.59049c4.4447,5.47928 6.98122,11.76258 7.60625,18.85028c0.10913,3.19694 0.22157,6.39355 0.33071,9.59049c2.23558,1.88569 4.82832,2.93271 7.77161,3.14171c1.42865,1.1664 1.54109,2.3791 0.33071,3.63777c-2.89038,0.23976 -5.59225,1.06653 -8.10231,2.4803c-0.10913,89.73164 -0.22157,179.46361 -0.33071,269.19524c-2.69526,16.58494 -12.23284,26.78393 -28.60613,30.59037c-49.04711,0.38362 -98.10315,0.54897 -147.16448,0.49606c-48.0626,-0.05622 -96.12552,-0.10913 -144.18812,-0.16535c-6.94682,-0.72094 -13.12013,-3.25415 -18.51957,-7.60625c-5.74438,0.49606 -11.14581,-0.6085 -16.20463,-3.30707c-4.78764,-3.34344 -7.59865,-7.92043 -8.43302,-13.72433c-0.11013,-13.44885 -0.22058,-26.89737 -0.33071,-40.34622c0.04994,-5.48444 -1.16276,-10.66562 -3.63777,-15.54321c-2.89997,-4.45726 -7.0338,-6.93756 -12.4015,-7.4409c-1.0156,-0.93358 -1.23618,-2.03583 -0.66141,-3.30707c6.96634,-1.23254 11.76158,-5.1458 14.38574,-11.74009c0.97294,-2.56893 1.63435,-5.21458 1.98424,-7.93696c0.43719,-78.37252 0.65778,-156.75001 0.66141,-235.13245c1.72827,-9.05845 7.07481,-14.57024 16.03927,-16.53533z" fill="#232020" opacity="0.984"/><path d="M78.18992,2.57105c107.47967,-0.05513 214.95935,0 322.43902,0.16535c7.28547,1.22137 11.63757,5.46542 13.06291,12.73221c0.22157,5.29131 0.22157,10.58261 0,15.87392c-0.01654,6.66672 -1.89164,12.72956 -5.62201,18.18887c-2.93998,3.37155 -6.63067,5.41069 -11.07867,6.11807c-0.43984,0.88199 -0.43984,1.76366 0,2.64565c8.39003,1.33506 13.62842,6.13031 15.70857,14.38574c0.62173,3.27565 0.95244,6.58272 0.99212,9.9212c0.22157,84.55079 0.22157,169.10124 0,253.65203c-1.50472,7.23586 -5.85682,11.59127 -13.06291,13.06291c-107.25909,0.22157 -214.51851,0.22157 -321.77761,0c-6.92368,-1.52125 -11.05751,-5.76752 -12.4015,-12.73221c-0.31913,-15.44235 -0.20868,-30.87544 0.33071,-46.29894c0.65678,-4.952 2.53057,-9.36164 5.62201,-13.22827c2.60531,-2.55967 5.74702,-3.82727 9.42514,-3.80313c1.62509,-1.04867 1.73522,-2.26104 0.33071,-3.63777c-6.79602,-1.28182 -11.37069,-5.1954 -13.72433,-11.74009c-1.07083,-2.77132 -1.73224,-5.63723 -1.98424,-8.59837c-0.22058,-78.26736 -0.22058,-156.53439 0,-234.80175c1.78086,-6.13471 5.69411,-10.10319 11.74009,-11.90544z" fill="#5679f2"/><path d="M415.51074,43.24797c1.59401,4.12292 3.90895,7.81592 6.94484,11.07867c1.10125,0.77154 2.20581,1.54341 3.30707,2.31495c-2.46376,1.2041 -4.50423,2.91253 -6.11807,5.12595c-1.58739,2.39994 -2.91022,4.93547 -3.96848,7.60625c-1.86849,-5.55819 -5.34091,-9.74725 -10.41726,-12.56685c5.0995,-3.25349 8.5157,-7.77293 10.25191,-13.55897z" fill="#fbfbfb"/><path d="M231.30712,112.36567c30.42865,-1.74878 49.88545,11.92032 58.36973,41.00763c1.60128,6.79305 2.42805,13.68266 2.4803,20.66917c0.13923,14.23891 -2.12049,28.07369 -6.77949,41.50369c-9.38281,22.37661 -26.19395,34.99869 -50.43277,37.86592c-13.30499,1.7544 -26.4228,0.92763 -39.3541,-2.4803c-0.33071,-14.43932 -0.44083,-28.87995 -0.33071,-43.32258c5.94842,1.37673 11.90114,2.75479 17.85816,4.13383c3.95691,0.48779 7.92539,0.59792 11.90544,0.33071c-19.20281,-3.10798 -31.27361,-14.0762 -36.21238,-32.90532c-2.53387,-12.42002 -1.87246,-24.65617 1.98424,-36.70844c7.72299,-17.80889 21.22674,-27.84054 40.51157,-30.09431z" fill="#232021"/><path d="M206.83482,241.67199c-0.10913,-6.56122 0.00099,-13.06523 0.33071,-19.51169c7.66214,1.41741 15.37852,1.69289 23.14947,0.82677c15.31602,-2.01202 24.1902,-10.66562 26.62189,-25.96047c0.52119,-3.17743 0.79667,-6.37404 0.82677,-9.59049c-0.38858,-0.07242 -0.71929,0.0377 -0.99212,0.33071c-4.54159,7.68 -11.26585,11.92396 -20.17311,12.73221c-22.88755,1.58706 -35.5093,-9.05045 -37.86592,-31.9132c-0.93292,-9.94799 0.94086,-19.31823 5.62201,-28.11007c6.77849,-9.92517 16.20364,-15.49195 28.27542,-16.70069c25.64796,-1.36979 41.2464,10.48076 46.795,35.55097c1.84435,13.849 1.40352,27.62856 -1.32283,41.33834c-5.91767,25.75841 -22.0674,39.70299 -48.44853,41.8344c-5.8426,0.22058 -11.68486,0.22058 -17.52745,0c-1.84567,-0.04961 -3.60933,-0.32508 -5.29131,-0.82677z" fill="#fdfdfd"/><path d="M234.61418,143.4521c7.83444,-1.12473 13.84206,1.63105 18.02351,8.26767c3.13841,5.33033 4.24065,11.06247 3.30707,17.19675c-1.92637,6.33568 -6.0602,10.46951 -12.4015,12.4015c-11.75761,2.55802 -18.75735,-2.01698 -20.99987,-13.72433c-0.55559,-5.09321 -0.0043,-10.05381 1.65353,-14.8818c2.1023,-4.69603 5.57472,-7.78285 10.41726,-9.25979z" fill="#232021"/><path d="M236.59842,154.69613c2.99223,-0.5159 5.14183,0.58667 6.44878,3.30707c1.90024,3.18504 2.23095,6.4921 0.99212,9.9212c-2.49584,2.45649 -5.41698,3.17313 -8.76373,2.14959c-0.44844,-0.79303 -0.83437,-1.6198 -1.15747,-2.4803c-0.22058,-2.97636 -0.22058,-5.95272 0,-8.92908c0.42198,-1.6241 1.24875,-2.94693 2.4803,-3.96848z" fill="#5678ef"/><path d="M207.16553,222.16029c-0.32971,6.44647 -0.43984,12.95047 -0.33071,19.51169c-0.43918,-6.56023 -0.43918,-13.17436 0,-19.8424c0.20074,0.04101 0.31086,0.15113 0.33071,0.33071z" fill="#828080"/><path d="M63.96953,257.87661c1.54572,3.1943 3.36461,6.28111 5.45666,9.25979c1.55829,1.39492 3.15693,2.71775 4.79525,3.96848c-4.83824,3.04581 -8.09008,7.345 -9.75585,12.89756c-1.93298,-5.67757 -5.51553,-9.92153 -10.74797,-12.73221c5.13224,-3.15494 8.54943,-7.61948 10.25191,-13.39362z" fill="#fbfbfb"/></g></g></svg>