<svg version="1.1" xmlns="http://www.w3.org/2000/svg" xmlns:xlink="http://www.w3.org/1999/xlink" width="173.74174" height="173.74174" viewBox="0,0,173.74174,173.74174"><g transform="translate(-153.12913,-93.12913)"><g stroke="none" stroke-miterlimit="10"><path d="M153.12913,180c0,-47.97043 38.90044,-86.87087 86.87087,-86.87087c47.97043,0 86.87087,38.90044 86.87087,86.87087c0,47.97043 -38.90044,86.87087 -86.87087,86.87087c-47.97043,0 -86.87087,-38.90044 -86.87087,-86.87087zM153.12913,180" fill="#357180"/><path d="M300.19084,179.96439c0,33.19451 -26.92721,60.11962 -60.12171,60.11962c-33.19241,0 -60.11962,-26.92511 -60.11962,-60.11962c0,-31.72194 24.58116,-57.70235 55.74382,-59.94367v-11.5543c0,0 -0.10473,-0.9468 0.59489,-1.22749c0.69963,-0.27859 1.47047,0.28069 1.47047,0.28069l34.38429,20.23887c0,0 0.77084,0.45455 0.77084,1.12066c0,0.77084 -0.77084,1.18978 -0.77084,1.18978l-34.52464,20.3436c0,0 -0.66402,0.42103 -1.33013,0c-0.66402,-0.41894 -0.6305,-1.04944 -0.6305,-1.04944v-10.78555c-20.93849,2.20571 -37.25401,19.88906 -37.25401,41.38683c0,22.97034 18.62596,41.59839 41.5963,41.59839c22.97034,0 41.5963,-18.62805 41.5963,-41.59839c0,-6.51238 -1.50399,-12.71056 -4.19985,-18.20702c0,0 -3.50232,-7.77338 3.70969,-11.30922c7.2141,-3.53583 11.48517,0.34981 12.36075,2.06536c4.23755,8.22793 6.65273,17.57652 6.72395,27.45088zM293.46689,152.51351" fill="#f7f7f7"/></g></g></svg>