<svg version="1.1" xmlns="http://www.w3.org/2000/svg" xmlns:xlink="http://www.w3.org/1999/xlink" width="385.90789" height="359.24323" viewBox="0,0,385.90789,359.24323"><g transform="translate(-47.04606,-0.37838)"><g fill-rule="evenodd" stroke="none" stroke-miterlimit="10"><path d="M80.10144,0.3784c106.64591,0 213.29148,0 319.93738,0c8.32427,1.72088 13.51138,6.74207 15.55479,15.06359c0.36677,3.15346 0.58617,6.31897 0.65494,9.4966c4.40118,5.42565 6.91287,11.64743 7.53179,18.66575c0.10807,3.16564 0.2194,6.33096 0.32748,9.4966c2.21369,1.86723 4.78105,2.90399 7.69553,3.11096c1.41467,1.15499 1.526,2.35581 0.32748,3.60216c-2.86208,0.23742 -5.53751,1.05609 -8.02299,2.45602c-0.10807,88.85319 -0.2194,177.70671 -0.32748,266.5599c-2.66888,16.42258 -12.11309,26.52173 -28.32609,30.2909c-48.56695,0.37987 -97.14275,0.5436 -145.72378,0.4912c-47.59208,-0.05567 -95.18448,-0.10807 -142.77656,-0.16374c-6.87881,-0.71388 -12.99168,-3.22229 -18.33827,-7.53179c-5.68814,0.4912 -11.03669,-0.60255 -16.04599,-3.2747c-4.74077,-3.31071 -7.52426,-7.84289 -8.35047,-13.58998c-0.10904,-13.31718 -0.21842,-26.63405 -0.32748,-39.95124c0.04945,-5.43075 -1.15138,-10.5612 -3.60216,-15.39105c-2.87157,-4.41363 -6.96494,-6.86965 -12.28009,-7.36806c-1.00566,-0.92444 -1.22408,-2.0159 -0.65494,-3.2747c6.89813,-1.22048 11.64644,-5.09542 14.24491,-11.62515c0.96341,-2.54378 1.61835,-5.16354 1.96481,-7.85926c0.43291,-77.60529 0.65134,-155.21547 0.65494,-232.83058c1.71135,-8.96978 7.00555,-14.42761 15.88225,-16.37346z" fill="#232020" opacity="0.984"/><path d="M79.77397,4.30802c106.42749,-0.05458 212.85496,0 319.28245,0.16374c7.21414,1.20941 11.52365,5.41192 12.93503,12.60756c0.2194,5.23951 0.2194,10.47902 0,15.71852c-0.01965,6.60505 -1.8764,12.60855 -5.56697,18.01081c-2.91119,3.33855 -6.56576,5.35772 -10.97022,6.05818c-0.43553,0.87336 -0.43553,1.74639 0,2.61975c8.30789,1.32199 13.49501,6.0703 15.55479,14.24491c0.61565,3.24358 0.94311,6.51828 0.98241,9.82408c0.2194,83.72306 0.2194,167.44579 0,251.16885c-1.48999,7.16503 -5.79948,11.47779 -12.93503,12.93503c-106.20905,0.2194 -212.41844,0.2194 -318.62751,0c-6.86015,-1.5129 -10.95352,-5.71433 -12.28009,-12.60756c-0.31601,-15.29117 -0.20664,-30.57317 0.32748,-45.84569c0.77773,-4.85015 2.6335,-9.21629 5.56697,-13.09876c2.57981,-2.53462 5.69077,-3.7898 9.33287,-3.7659c1.60919,-1.03841 1.71823,-2.23891 0.32748,-3.60216c-6.7295,-1.26927 -11.25937,-5.14454 -13.58998,-11.62515c-1.06034,-2.7442 -1.71529,-5.58204 -1.96481,-8.51419c-0.21842,-77.28272 -0.21842,-154.56545 0,-231.84817c1.47231,-6.43765 5.34757,-10.5856 11.62515,-12.44383z" fill="#da4130"/><path d="M413.79252,44.58674c1.57841,4.08256 3.87068,7.7394 6.87686,10.97022c1.09047,0.76398 2.18421,1.52829 3.2747,2.29229c-2.43965,1.19231 -4.46012,2.88402 -6.05818,5.07577c-1.57186,2.37644 -2.88173,4.88715 -3.92963,7.53179c-1.8502,-5.50378 -5.28862,-9.65182 -10.31528,-12.44383c5.04957,-3.22164 8.43234,-7.69684 10.15154,-13.42624z" fill="#fbfbfb"/><path d="M230.40979,112.70032c11.09891,-0.83898 21.90539,0.52559 32.41945,4.09336c18.91004,7.74301 26.93303,21.76949 24.06898,42.07979c-1.42744,7.36543 -4.64777,13.80577 -9.66034,19.32068c10.17054,8.23356 14.70075,18.93066 13.58998,32.09197c-1.18315,16.7304 -9.20614,28.90111 -24.06898,36.51281c-10.69088,4.64614 -21.87952,6.88406 -33.56558,6.71312c-15.67563,0.19484 -30.52112,-3.18922 -44.53581,-10.15154c-0.16374,-15.39073 -0.21842,-30.78178 -0.16374,-46.17315c6.90338,3.23932 13.78024,6.5687 20.63056,9.9878c9.15178,3.83597 18.64839,5.14586 28.48981,3.92963c4.37204,-0.27475 6.00939,-2.51234 4.91203,-6.71312c-3.34641,-1.37276 -6.83952,-2.08237 -10.47902,-2.12855c-8.51354,-0.16374 -17.02775,-0.21842 -25.54259,-0.16374c0.05468,-12.44416 0,-24.88799 -0.16374,-37.33148c-7.21841,-10.78029 -14.47742,-21.53209 -21.77669,-32.25571c6.88045,-5.51622 14.30287,-10.20983 22.26791,-14.08118c7.64968,-2.94951 15.50895,-4.85997 23.57778,-5.73071z" fill="#242020"/><path d="M231.06473,123.83427c6.02347,-0.13754 12.02696,0.13525 18.01081,0.81867c7.34677,1.06395 13.89615,3.90213 19.64815,8.51419c6.95938,7.1493 9.19697,15.60882 6.71312,25.37887c-2.47337,8.47457 -7.65852,14.64213 -15.55479,18.50201c-2.80706,1.13566 -5.64524,2.17276 -8.51419,3.11096c5.55485,0.99648 10.90374,2.6882 16.04599,5.07577c9.68392,6.11123 13.66824,14.89821 11.95263,26.36127c-1.58364,12.50048 -8.18738,21.17841 -19.81188,26.0338c-4.74961,1.90161 -9.66165,3.2115 -14.73611,3.92963c-12.50867,1.3829 -24.84312,0.50955 -37.00402,-2.61975c-2.57357,-0.76694 -5.08429,-1.69465 -7.53179,-2.78348c-0.32748,-6.87325 -0.43652,-13.75011 -0.32748,-20.63056c6.69019,3.12144 13.67609,5.35903 20.95803,6.71312c6.77828,1.0335 13.54609,0.92444 20.30308,-0.32748c10.16956,-2.69475 14.37197,-9.29849 12.60756,-19.81188c-1.08196,-4.35698 -3.7564,-7.24951 -8.02299,-8.67793c-4.35469,-1.43137 -8.82988,-2.19568 -13.42624,-2.29229c-4.91073,-0.16374 -9.82276,-0.21842 -14.73611,-0.16374c0,-6.33096 0,-12.66225 0,-18.99321c5.13144,0.05468 10.2619,0 15.39105,-0.16374c5.26964,-0.25248 10.18167,-1.67141 14.73611,-4.2571c3.28877,-3.03269 4.81708,-6.79858 4.58457,-11.29769c0.03536,-4.67921 -1.92945,-8.22701 -5.89445,-10.64275c-8.50929,-3.02811 -16.91444,-2.70064 -25.21513,0.98241c-3.43254,1.55155 -6.70722,3.35263 -9.82408,5.40325c-3.79242,-5.51065 -7.50395,-11.07762 -11.13395,-16.70092c6.55495,-4.91335 13.86832,-8.24273 21.94043,-9.9878c3.00813,-0.41065 5.95536,-0.90185 8.84167,-1.47361z" fill="#fdfdfd"/><path d="M233.02954,154.94384c2.62925,-0.05109 5.249,0.05796 7.85926,0.32748c0.05403,1.09702 -0.00065,2.18848 -0.16374,3.2747c-2.81492,1.41499 -5.81684,2.12462 -9.00541,2.12855c-4.36615,0.21842 -8.73262,0.21842 -13.09876,0c4.4395,-2.93314 9.24249,-4.84327 14.40864,-5.73071z" fill="#d74130"/><path d="M65.69279,257.11422c1.5306,3.16302 3.33167,6.21962 5.40325,9.16914c1.54303,1.38126 3.12602,2.69114 4.74831,3.92963c-4.79087,3.01599 -8.01088,7.27309 -9.66034,12.7713c-1.91406,-5.62198 -5.46154,-9.8244 -10.64275,-12.60756c5.08199,-3.12406 8.46573,-7.5449 10.15154,-13.2625z" fill="#fbfbfb"/></g></g></svg>