<svg version="1.1" xmlns="http://www.w3.org/2000/svg" xmlns:xlink="http://www.w3.org/1999/xlink" width="390.38799" height="363.41375" viewBox="0,0,390.38799,363.41375"><g transform="translate(-44.806,1.70688)"><g fill-rule="evenodd" stroke="none" stroke-miterlimit="10"><path d="M78.24516,-1.70688c107.88398,0 215.76763,0 323.65162,0c8.4209,1.74086 13.66824,6.82034 15.73537,15.23846c0.37102,3.19007 0.59297,6.39233 0.66254,9.60685c4.45228,5.48863 6.99313,11.78264 7.61923,18.88244c0.10932,3.2024 0.22195,6.40446 0.33127,9.60685c2.23939,1.88891 4.83655,2.93771 7.78486,3.14707c1.43109,1.16839 1.54372,2.38316 0.33127,3.64398c-2.89531,0.24017 -5.60179,1.06835 -8.11614,2.48453c-0.10932,89.88471 -0.22195,179.76976 -0.33127,269.65447c-2.69986,16.61323 -12.25371,26.82963 -28.65493,30.64255c-49.13078,0.38427 -98.2705,0.54991 -147.41553,0.49691c-48.14459,-0.05632 -96.2895,-0.10932 -144.43409,-0.16564c-6.95868,-0.72217 -13.14251,-3.25971 -18.55117,-7.61923c-5.75417,0.49691 -11.16482,-0.60954 -16.23227,-3.31271c-4.79581,-3.34915 -7.61161,-7.93394 -8.44741,-13.74774c-0.11031,-13.47179 -0.22096,-26.94325 -0.33127,-40.41504c0.05002,-5.4938 -1.16475,-10.68382 -3.64398,-15.56973c-2.90491,-4.46487 -7.0458,-6.9494 -12.42266,-7.45359c-1.01733,-0.93518 -1.23829,-2.0393 -0.66254,-3.31271c6.97822,-1.23465 11.78165,-5.15457 14.41028,-11.76011c0.9746,-2.57331 1.63714,-5.22348 1.98763,-7.9505c0.43794,-78.50622 0.6589,-157.01741 0.66254,-235.53357c1.73122,-9.07391 7.08688,-14.5951 16.06664,-16.56354z" fill="#232020" opacity="0.984"/><path d="M77.91389,2.26837c107.66302,-0.05522 215.32605,0 322.98907,0.16564c7.28133,1.20864 11.64417,5.45994 13.0852,12.75393c0.34783,7.5282 0.1292,15.03698 -0.66254,22.52642c-0.90768,5.73993 -3.50485,10.54336 -7.78486,14.41028c-2.57729,1.56492 -5.33677,2.66905 -8.28177,3.31271c-0.44059,0.8835 -0.44059,1.76667 0,2.65017c8.40434,1.33734 13.65167,6.14077 15.73537,14.41028c0.66254,3.27561 0.99381,6.58831 0.99381,9.93813c0.22195,84.69502 0.22195,169.38971 0,254.08474c-1.45759,7.0892 -5.7078,11.45203 -12.75393,13.0852c-107.55271,0.22195 -215.10509,0.22195 -322.6578,0c-6.93549,-1.52385 -11.07637,-5.77736 -12.42266,-12.75393c-0.31968,-15.46869 -0.20903,-30.92811 0.33127,-46.37792c0.6579,-4.96045 2.53488,-9.37762 5.6316,-13.25083c2.60975,-2.56404 5.75682,-3.8338 9.44122,-3.80961c1.62786,-1.05046 1.73818,-2.2649 0.33127,-3.64398c-4.51423,-0.46146 -8.10322,-2.50441 -10.7663,-6.12851c-2.83833,-4.31778 -4.49468,-9.06589 -4.96906,-14.24465c-0.22096,-78.40088 -0.22096,-156.80142 0,-235.2023c1.77495,-6.13649 5.69521,-10.11174 11.76011,-11.92575z" fill="#2ab7a1"/><path d="M415.81015,43.01469c1.59673,4.12995 3.91562,7.82926 6.95669,11.09757c1.10313,0.77285 2.20958,1.54604 3.31271,2.3189c-2.46797,1.20616 -4.51191,2.9175 -6.12851,5.1347c-1.5901,2.40403 -2.91518,4.94389 -3.97525,7.61923c-1.87168,-5.56767 -5.35002,-9.76388 -10.43503,-12.58829c5.1082,-3.25904 8.53022,-7.78619 10.2694,-13.5821z" fill="#fbfbfb"/><path d="M63.66924,258.00947c1.54836,3.19975 3.37035,6.29183 5.46597,9.27558c1.56095,1.3973 3.16231,2.72238 4.80343,3.97525c-4.84649,3.051 -8.10388,7.35753 -9.77249,12.91956c-1.93628,-5.68726 -5.52494,-9.93846 -10.7663,-12.75393c5.14099,-3.16032 8.56401,-7.63248 10.2694,-13.41647z" fill="#fbfbfb"/></g></g></svg>