<svg version="1.1" xmlns="http://www.w3.org/2000/svg" xmlns:xlink="http://www.w3.org/1999/xlink" width="396.29251" height="368.91029" viewBox="0,0,396.29251,368.91029"><g transform="translate(-41.85375,4.45515)"><g fill-rule="evenodd" stroke="none" stroke-miterlimit="10"><path d="M75.79866,-4.45515c109.5157,0 219.03106,0 328.54676,0c8.54827,1.76719 13.87496,6.92349 15.97336,15.46894c0.37663,3.23832 0.60194,6.48902 0.67256,9.75216c4.51962,5.57164 7.0989,11.96085 7.73447,19.16803c0.11097,3.25083 0.22531,6.50132 0.33628,9.75216c2.27326,1.91748 4.90971,2.98214 7.90261,3.19467c1.45273,1.18606 1.56707,2.41921 0.33628,3.69909c-2.9391,0.2438 -5.68652,1.08451 -8.23889,2.52211c-0.11097,91.24419 -0.22531,182.48873 -0.33628,273.73292c-2.74069,16.8645 -12.43904,27.23542 -29.08833,31.10601c-49.87387,0.39009 -99.75682,0.55823 -149.64515,0.50442c-48.87276,-0.05717 -97.74586,-0.11097 -146.61862,-0.16814c-7.06392,-0.73309 -13.34129,-3.30901 -18.83175,-7.73447c-5.8412,0.50442 -11.33369,-0.61876 -16.47778,-3.36281c-4.86834,-3.3998 -7.72673,-8.05394 -8.57517,-13.95567c-0.11198,-13.67555 -0.2243,-27.35076 -0.33628,-41.02631c0.05078,-5.57689 -1.18236,-10.84541 -3.69909,-15.80522c-2.94885,-4.5324 -7.15237,-7.05451 -12.61055,-7.56633c-1.03272,-0.94932 -1.25702,-2.07015 -0.67256,-3.36281c7.08376,-1.25332 11.95984,-5.23254 14.62823,-11.93798c0.98934,-2.61223 1.6619,-5.30248 2.01769,-8.07075c0.44456,-79.69361 0.66886,-159.39226 0.67256,-239.09595c1.75741,-9.21115 7.19406,-14.81584 16.30964,-16.81406z" fill="#232020" opacity="0.984"/><path d="M75.46238,-0.41977c109.2914,-0.05606 218.5828,0 327.8742,0.16814c7.40828,1.24195 11.83374,5.55755 13.28311,12.94683c0.3531,7.64206 0.13115,15.26441 -0.67256,22.86712c-0.92141,5.82674 -3.55786,10.70282 -7.90261,14.62823c-2.61291,1.5785 -5.41413,2.69967 -8.40703,3.36281c-0.44725,0.89686 -0.44725,1.79339 0,2.69025c8.53145,1.35757 13.85815,6.23365 15.97336,14.62823c0.67256,3.32515 1.00884,6.68796 1.00884,10.08844c0.22531,85.97601 0.22531,171.95169 0,257.9277c-1.53008,7.35783 -5.95554,11.78666 -13.28311,13.28311c-109.0671,0.22531 -218.13454,0.22531 -327.20164,0c-7.04038,-1.54689 -11.2439,-5.86474 -12.61055,-12.94683c-0.32451,-15.70265 -0.21219,-31.39589 0.33628,-47.07937c0.66785,-5.03548 2.57322,-9.51945 5.71678,-13.45125c2.64922,-2.60282 5.8439,-3.89178 9.58402,-3.86723c1.65249,-1.06635 1.76447,-2.29915 0.33628,-3.69909c-6.91058,-1.30343 -11.56236,-5.28298 -13.95567,-11.93798c-1.08888,-2.81804 -1.76144,-5.73225 -2.01769,-8.74331c-0.2243,-79.58667 -0.2243,-159.173 0,-238.75967c1.81087,-6.23812 5.79009,-10.27349 11.93798,-12.10612z" fill="#fdd14b"/><path d="M418.46923,40.94282c1.62088,4.19242 3.97484,7.94767 7.06191,11.26542c1.11982,0.78454 2.243,1.56942 3.36281,2.35397c-2.5053,1.2244 -4.58015,2.96163 -6.2212,5.21236c-1.61415,2.44039 -2.95927,5.01866 -4.03537,7.73447c-1.89999,-5.65188 -5.43094,-9.91155 -10.59286,-12.77869c5.18546,-3.30833 8.65924,-7.90395 10.42472,-13.78753z" fill="#fbfbfb"/><path d="M247.97465,111.2256c6.72663,-0.05616 13.45226,0 20.17687,0.16814c5.63204,0.84642 11.23684,1.7991 16.81406,2.85839c0.05616,14.68473 0,29.36912 -0.16814,44.05284c-6.43407,-1.45543 -12.87923,-2.85637 -19.33617,-4.20352c-3.81108,-0.2243 -7.62249,-0.2243 -11.43356,0c18.47966,2.43131 30.75393,12.46359 36.82279,30.09717c4.62319,16.40716 3.16609,32.21238 -4.37166,47.41565c-8.24595,13.74415 -20.40824,21.53478 -36.48651,23.37155c-35.6485,2.20668 -56.44178,-14.32726 -62.38017,-49.60148c-2.02475,-17.60365 -0.45532,-34.86597 4.70794,-51.78731c7.64132,-21.65449 22.60583,-35.1619 44.89354,-40.52189c3.64663,-0.58883 7.23341,-1.20523 10.761,-1.84955z" fill="#242120"/><path d="M249.99233,122.65916c7.871,-0.14695 15.71778,0.18933 23.53969,1.00884c0,6.72562 0,13.45125 0,20.17687c-11.36059,-2.64956 -22.56985,-2.14514 -33.62812,1.51327c-10.35343,4.83001 -16.23835,12.95692 -17.65476,24.38039c-0.46474,3.12405 -0.74486,6.2629 -0.8407,9.41587c0.35377,0.05011 0.69005,-0.00572 1.00884,-0.16814c4.43555,-7.37868 10.93721,-11.75034 19.50431,-13.11497c10.56898,-1.58927 20.09684,0.7647 28.5839,7.06191c6.99364,6.84332 10.74889,15.19419 11.26542,25.05295c0.81145,10.09012 -1.09426,19.61797 -5.71678,28.5839c-6.62575,10.07095 -15.98546,15.73191 -28.07948,16.9822c-24.96485,2.18045 -40.82622,-8.74869 -47.58379,-32.78742c-0.64297,-3.46336 -1.20355,-6.93849 -1.68141,-10.42472c-1.16454,-13.68597 0.06827,-27.13722 3.69909,-40.35375c5.92427,-19.37552 18.75878,-31.3135 38.5042,-35.81395c3.0652,-0.55688 6.09173,-1.0613 9.07959,-1.51327z" fill="#fefefe"/><path d="M238.89505,184.53491c10.7721,-0.7109 16.9933,4.22134 18.66361,14.79637c0.5626,6.37959 -0.55856,12.43265 -3.36281,18.15919c-2.43703,3.65807 -5.856,5.73191 -10.25658,6.2212c-6.42533,0.96244 -11.63768,-1.11107 -15.63708,-6.2212c-4.29633,-6.08232 -5.86575,-12.80794 -4.70794,-20.17687c2.72959,-7.15741 7.82997,-11.41675 15.3008,-12.77869z" fill="#242121"/><path d="M239.23134,196.30475c1.57346,-0.05582 3.14255,0.00034 4.70794,0.16814c0.98799,0.68097 1.60473,1.63365 1.84955,2.85839c0.27138,3.042 0.1594,6.06853 -0.33628,9.07959c-0.47079,3.2737 -2.32034,4.563 -5.54864,3.86723c-2.86882,-1.97868 -4.4944,-4.72509 -4.87608,-8.23889c-0.52628,-2.1976 -0.13418,-4.15946 1.17698,-5.88492c1.03037,-0.62515 2.03921,-1.24155 3.02653,-1.84955z" fill="#fbcf4b"/><path d="M61.00228,259.18934c1.57178,3.24814 3.42133,6.38699 5.54864,9.41587c1.58456,1.41843 3.21014,2.76356 4.87608,4.03537c-4.91979,3.09715 -8.22645,7.46881 -9.9203,13.11497c-1.96556,-5.77328 -5.6085,-10.08877 -10.92914,-12.94683c5.21875,-3.20812 8.69354,-7.74792 10.42472,-13.61939z" fill="#fbfbfb"/></g></g></svg>