<svg version="1.1" xmlns="http://www.w3.org/2000/svg" xmlns:xlink="http://www.w3.org/1999/xlink" width="387.73764" height="360.94653" viewBox="0,0,387.73764,360.94653"><g transform="translate(-46.13118,0.47327)"><g fill-rule="evenodd" stroke="none" stroke-miterlimit="10"><path d="M79.34331,-0.47327c107.15156,0 214.30278,0 321.45434,0c8.36374,1.72904 13.57544,6.77403 15.62854,15.135c0.3685,3.16841 0.58895,6.34894 0.65804,9.54163c4.42205,5.45137 6.94565,11.70265 7.5675,18.75424c0.10858,3.18065 0.22044,6.36098 0.32902,9.54163c2.22419,1.87608 4.80372,2.91777 7.73201,3.12571c1.42137,1.16046 1.53324,2.36698 0.32902,3.61924c-2.87565,0.23854 -5.56376,1.0611 -8.06104,2.46766c-0.10858,89.27448 -0.22044,178.5493 -0.32902,267.82378c-2.68153,16.50045 -12.17052,26.64748 -28.46039,30.43452c-48.79723,0.38167 -97.60334,0.54618 -146.41472,0.49353c-47.81773,-0.05593 -95.63579,-0.10858 -143.45352,-0.16451c-6.91143,-0.71727 -13.05328,-3.23757 -18.42522,-7.5675c-5.71511,0.49353 -11.08902,-0.6054 -16.12207,-3.29022c-4.76325,-3.32641 -7.55993,-7.88007 -8.39006,-13.65441c-0.10956,-13.38033 -0.21946,-26.76033 -0.32902,-40.14066c0.04968,-5.4565 -1.15684,-10.61128 -3.61924,-15.46403c-2.88519,-4.43456 -6.99797,-6.90222 -12.33832,-7.40299c-1.01043,-0.92883 -1.22988,-2.02546 -0.65804,-3.29022c6.93085,-1.22626 11.70166,-5.11958 14.31245,-11.68028c0.96798,-2.55584 1.62603,-5.18802 1.97413,-7.89652c0.43497,-77.97324 0.65442,-155.95142 0.65804,-233.93453c1.71947,-9.0123 7.03876,-14.49601 15.95756,-16.45109z" fill="#232020" opacity="0.984"/><path d="M79.01429,3.475c106.9321,-0.05485 213.8642,0 320.79629,0.16451c7.24835,1.21514 11.57828,5.43758 12.99636,12.66734c0.22044,5.26435 0.22044,10.5287 0,15.79305c-0.01645,6.63275 -1.882,12.66471 -5.59337,18.0962c-2.925,3.35438 -6.59689,5.38313 -11.02223,6.0869c-0.4376,0.8775 -0.4376,1.75467 0,2.63217c8.34728,1.32826 13.55899,6.09908 15.62854,14.31245c0.61856,3.25896 0.94758,6.54918 0.98707,9.87066c0.22044,84.12003 0.22044,168.23972 0,252.35975c-1.49705,7.199 -5.82698,11.53222 -12.99636,12.99636c-106.71264,0.22044 -213.42561,0.22044 -320.13825,0c-6.8884,-1.5135 -11.00117,-5.73814 -12.33832,-12.66734c-0.31751,-15.36367 -0.20761,-30.71814 0.32902,-46.06306c0.65344,-4.92677 2.51768,-9.31395 5.59337,-13.16087c2.59203,-2.54663 5.71774,-3.80777 9.37712,-3.78375c1.61681,-1.04333 1.72638,-2.24952 0.32902,-3.61924c-6.7614,-1.27529 -11.31276,-5.16893 -13.65441,-11.68028c-1.06537,-2.7572 -1.72342,-5.60851 -1.97413,-8.55457c-0.21946,-77.86861 -0.21946,-155.73689 0,-233.60551c1.77178,-6.10345 5.6651,-10.05172 11.68028,-11.84479z" fill="#5679f2"/><path d="M414.61657,43.94468c1.58589,4.10192 3.88904,7.7761 6.90946,11.02223c1.09564,0.76761 2.19458,1.53554 3.29022,2.30315c-2.45121,1.19797 -4.48128,2.8977 -6.0869,5.09984c-1.5793,2.38771 -2.89539,4.91032 -3.94826,7.5675c-1.85897,-5.52987 -5.3137,-9.69759 -10.36419,-12.50283c5.07352,-3.23692 8.47231,-7.73333 10.19968,-13.4899z" fill="#fbfbfb"/><path d="M64.86635,257.47986c1.53785,3.17802 3.34747,6.24911 5.42886,9.21261c1.55035,1.38781 3.14084,2.7039 4.77082,3.94826c-4.81359,3.03029 -8.04886,7.30758 -9.70614,12.83185c-1.92313,-5.64865 -5.48743,-9.87098 -10.69321,-12.66734c5.10609,-3.13887 8.50587,-7.58066 10.19968,-13.32538z" fill="#fbfbfb"/></g></g></svg>