<svg version="1.1" xmlns="http://www.w3.org/2000/svg" xmlns:xlink="http://www.w3.org/1999/xlink" width="337.53907" height="77.75911" viewBox="0,0,337.53907,77.75911"><g transform="translate(-71.23047,-141.12044)"><g fill-rule="evenodd" stroke="none" stroke-miterlimit="10"><path d="M397.25,153.2181c-0.23958,15.33854 -0.38542,30.69792 -0.43229,46.07813c-1.26563,4.4375 -4.19792,6.88542 -8.78646,7.34375c-99.07292,0.19271 -198.14063,0.19271 -297.21354,0c-4.49479,-0.94271 -7.13542,-3.67708 -7.92188,-8.20833c-0.14063,-2.875 -0.19271,-5.75521 -0.14063,-8.64063c5.04688,-0.68229 7.20833,-3.5625 6.47917,-8.64062c-1.17188,-2.91146 -3.33333,-4.44792 -6.47917,-4.60417c0,-1.72917 0,-3.45833 0,-5.1875c4.15104,-0.16667 6.35938,-2.32813 6.61979,-6.47917c-0.39583,-4.57292 -2.89062,-6.73437 -7.48437,-6.47917c0.20313,-0.26042 0.48958,-0.35417 0.86458,-0.28646c0,-1.63542 0,-3.26563 0,-4.89583c-0.66146,-4.41146 0.77604,-7.91667 4.31771,-10.51563c1.32292,-0.82292 2.76562,-1.30208 4.31771,-1.4375c99.07292,-0.19271 198.14583,-0.19271 297.21875,0c6.33854,1.40104 9.21875,5.38542 8.64062,11.95313zM397.25,153.2181" fill-opacity="0.995" fill="#fedfb2"/><path d="M82.75521,153.2181c0,1.63021 0,3.26042 0,4.89583c-0.375,-0.06771 -0.66146,0.02604 -0.86458,0.28646c-4.47396,1.15625 -6.25,4.03646 -5.32813,8.64062c1.15625,2.76042 3.21875,4.19792 6.19271,4.31771c0,1.72917 0,3.45833 0,5.1875c-5.23437,0.95833 -7.20312,4.03125 -5.90625,9.21354c1.14583,2.54167 3.11458,3.88542 5.90625,4.03125c-0.05208,2.88542 0,5.76563 0.14063,8.64063c0.78646,4.53125 3.42708,7.26563 7.92188,8.20833c99.07292,0.19271 198.14062,0.19271 297.21354,0c4.58854,-0.45833 7.52083,-2.90625 8.78646,-7.34375c0.04687,-15.38021 0.19271,-30.73958 0.43229,-46.07813c5.89063,-0.38542 9.68229,2.20313 11.375,7.77604c0.19271,16.79687 0.19271,33.59896 0,50.40104c-1.13542,3.91667 -3.68229,6.36458 -7.63021,7.34375c-107.32813,0.1875 -214.65625,0.1875 -321.98437,0c-3.95313,-0.97917 -6.5,-3.42708 -7.63542,-7.34375c-0.19271,-16.90104 -0.19271,-33.79688 0,-50.69271c1.82292,-5.40104 5.61458,-7.89583 11.38021,-7.48437zM82.75521,153.2181" fill-opacity="0.983" fill="#ff3131"/><path d="M81.89062,158.40039c4.59375,-0.25521 7.08854,1.90625 7.48437,6.47917c-0.26042,4.15104 -2.46875,6.3125 -6.61979,6.47917c-2.97396,-0.11979 -5.03646,-1.55729 -6.19271,-4.31771c-0.92187,-4.60417 0.85417,-7.48437 5.32813,-8.64062zM81.89062,158.40039" fill="#fffdfd"/><path d="M208.32292,163.00977c3.59375,-0.28646 7.24479,-0.38542 10.94271,-0.29167c0,1.82813 0,3.65104 0,5.47396c-0.28646,-1.67187 -0.38021,-3.40104 -0.28646,-5.18229c-3.55208,0 -7.10417,0 -10.65625,0zM208.32292,163.00977" fill="#4e4436"/><path d="M322.08333,163.00977c-3.55208,0 -7.10937,0 -10.65625,0c0.09375,2.40625 0,4.80729 -0.29167,7.19792c-0.17188,-0.03646 -0.27083,-0.13021 -0.28646,-0.28646c0.28646,-2.34896 0.38542,-4.75 0.28646,-7.20313c3.69792,-0.09375 7.34896,0.00521 10.94792,0.29167zM322.08333,163.00977" fill="#4e4436"/><path d="M208.32292,163.00977c3.55208,0 7.10417,0 10.65625,0c-0.09375,1.78125 0,3.51042 0.28646,5.18229c2.66146,-0.04167 5.0625,0.72917 7.19792,2.30208c2.54167,-1.4375 5.27604,-2.20313 8.20833,-2.30208c2.5625,-0.16146 4.86458,0.51042 6.91146,2.01562c0.14583,-0.56771 0.19271,-1.14583 0.14583,-1.72917c4.51563,-0.01042 9.02604,-0.05729 13.53646,-0.14063c3.5,0.8125 5.66146,2.97396 6.47917,6.47917c0.14583,4.98958 0.19271,9.98437 0.14583,14.97396c-9.84375,-0.08333 -19.6875,0.01042 -29.52083,0.29167c-1.22917,0.00521 -2.38021,-0.28125 -3.45833,-0.86458c-10.43229,0.48437 -20.89583,0.77083 -31.39063,0.86458c-2.08333,0.06771 -3.95833,-0.51042 -5.61458,-1.72917c-0.27604,0.44271 -0.36979,0.92187 -0.29167,1.4375c-11.03646,0.14063 -22.07292,0.14063 -33.11979,0c0,-8.54167 0,-17.08854 0,-25.63021c3.55208,0 7.10417,0 10.65625,0c0,5.18229 0,10.36979 0,15.55208c1.11458,0.08854 2.17187,-0.00521 3.17187,-0.28646c0.48437,-1.21354 1.15625,-2.31771 2.01562,-3.3125c-0.58854,-1.3125 -1.20833,-2.60937 -1.875,-3.89063c-0.19792,-0.36979 -0.14583,-0.70312 0.14583,-1.00521c5.28646,-3.59375 10.76042,-3.93229 16.41667,-1.01042c0.35937,-0.15625 0.69271,-0.34896 1.00521,-0.57292c0.50521,-1.36458 1.03125,-2.70833 1.58333,-4.03646c2.78646,0 5.56771,0 8.35417,0c-0.04688,0.96875 0,1.92708 0.14583,2.88021c0.07292,-0.88542 0.21875,-1.75 0.43229,-2.58854c0.92708,-2.17187 2.60938,-3.22917 5.03646,-3.17187c0.91667,0.07292 1.83333,0.16667 2.73958,0.29167zM208.32292,163.00977" fill="#040403"/><path d="M322.08333,163.00977c0,8.92708 0,17.85417 0,26.78125c-7.30208,-0.00521 -14.59896,0.04688 -21.89062,0.14583c-1.72396,-0.47917 -3.16146,-1.39063 -4.31771,-2.73438c-4.94792,3.8125 -9.89583,3.8125 -14.83333,0c-3.54167,2.83854 -7.52604,3.65104 -11.95313,2.44792c-1.34896,-0.41146 -2.64583,-0.94271 -3.88542,-1.58333c-0.19271,-4.80208 -0.19271,-9.60417 0,-14.40104c1.10937,-3.03125 3.27083,-4.80729 6.47917,-5.32812c3.58854,-0.38021 6.99479,0.24479 10.22396,1.86979c4.72917,-2.81771 9.33333,-2.63021 13.82292,0.57813c4.90104,-3.07813 9.94271,-3.36458 15.11979,-0.86458c0.01563,0.15625 0.11458,0.25 0.28646,0.28646c0.29167,-2.39062 0.38542,-4.79167 0.29167,-7.19792c3.54687,0 7.10417,0 10.65625,0zM322.08333,163.00977" fill="#050404"/><path d="M169.15104,164.16081c0.28646,5.03646 0.38542,10.125 0.29167,15.26563c0.95833,0 1.91667,0 2.88021,0c-1,0.28125 -2.05729,0.375 -3.17187,0.28646c0,-5.18229 0,-10.36979 0,-15.55208zM169.15104,164.16081" fill="#ccb390"/><path d="M191.61458,165.59831c1.39062,-0.1875 2.83333,-0.28646 4.32292,-0.28646c1.60417,0.01562 3.14063,0.20833 4.60937,0.57812c-0.21354,0.83854 -0.35937,1.70313 -0.43229,2.58854c-0.14583,-0.95313 -0.19271,-1.91146 -0.14583,-2.88021c-2.78646,0 -5.56771,0 -8.35417,0zM191.61458,165.59831" fill="#514839"/><path d="M204.86458,166.17643c2.84375,-0.08854 3.60937,1.10937 2.30208,3.59896c-2.66146,0.98437 -3.76562,0.07292 -3.3125,-2.73438c0.33333,-0.32812 0.66667,-0.61458 1.01042,-0.86458zM204.86458,166.17643" fill="#f3f3f3"/><path d="M211.77604,166.46289c1.25,0 2.49479,0 3.74479,0c0,2.11458 0,4.22396 0,6.33854c-0.04167,0.30208 0.00521,0.58854 0.14583,0.86458c2.10417,-2.17708 4.55208,-2.60937 7.34375,-1.29687c0.84375,0.65104 1.46875,1.46875 1.86979,2.44792c0.14583,3.83854 0.19271,7.67708 0.14583,11.52083c-1.34375,0 -2.6875,0 -4.03125,0c0.04687,-3.36458 0,-6.72396 -0.14583,-10.08333c-1.01042,-1.52083 -2.30729,-1.80729 -3.89063,-0.85937c-0.39062,0.4375 -0.72396,0.91667 -1.00521,1.4375c-0.14583,3.16667 -0.19271,6.33333 -0.14583,9.50521c-1.34375,0 -2.6875,0 -4.03125,0c0,-6.625 0,-13.25 0,-19.875zM211.77604,166.46289" fill="#fafafa"/><path d="M211.77604,166.46289c1.28646,-0.28125 2.63021,-0.38021 4.03125,-0.28646c0.09375,2.26042 0,4.46875 -0.28646,6.625c0,-2.11458 0,-4.22396 0,-6.33854c-1.25,0 -2.49479,0 -3.74479,0zM211.77604,166.46289" fill="#979797"/><path d="M318.625,166.46289c-1.24479,0 -2.49479,0 -3.74479,0c0,6.625 0,13.25 0,19.875c-0.28646,-6.67188 -0.38021,-13.39063 -0.28646,-20.16146c1.40104,-0.09375 2.74479,0.00521 4.03125,0.28646zM318.625,166.46289" fill="#a5a5a5"/><path d="M318.625,166.46289c0,6.625 0,13.25 0,19.875c-1.24479,0 -2.49479,0 -3.74479,0c0,-6.625 0,-13.25 0,-19.875c1.25,0 2.5,0 3.74479,0zM318.625,166.46289" fill="#fefffe"/><path d="M165.69792,167.61914c-1.25,0 -2.49479,0 -3.74479,0c0,6.23958 0,12.47917 0,18.71875c-0.28646,-6.28646 -0.38542,-12.625 -0.28646,-19.01042c1.40104,-0.08854 2.74479,0.00521 4.03125,0.29167zM165.69792,167.61914" fill="#bfbfbf"/><path d="M165.69792,167.61914c0,5.08333 0,10.17187 0,15.26042c2.44271,0.28646 4.9375,0.38542 7.48437,0.28646c0,1.05729 0,2.11458 0,3.17188c-3.73958,0 -7.48437,0 -11.22917,0c0,-6.23958 0,-12.47917 0,-18.71875c1.25,0 2.49479,0 3.74479,0zM165.69792,167.61914" fill="#fefffe"/><path d="M200.54687,174.81706c-1.34375,0 -2.6875,0 -4.03646,0c-0.09375,2.54687 0.00521,5.04167 0.29167,7.48958c0,0.43229 0.19271,0.77083 0.57292,1.00521c1.15625,0.10417 2.30729,0.05729 3.45833,-0.14583c0,0.96354 0,1.92188 0,2.88021c-1.78125,0.55729 -3.60417,0.69792 -5.47396,0.43229c-1.67708,-0.61458 -2.53646,-1.81771 -2.58854,-3.59896c0,-2.6875 0,-5.375 0,-8.0625c-0.67187,0 -1.34375,0 -2.01563,0c-0.04687,-0.58333 0,-1.16146 0.14063,-1.72917c1.91667,-0.78125 2.92188,-2.22396 3.02604,-4.31771c0.86458,0 1.72917,0 2.58854,0c0,1.05208 0,2.10937 0,3.16667c1.34896,0 2.69271,0 4.03646,0c0,0.95833 0,1.92187 0,2.88021zM200.54687,174.81706" fill="#fbfbfb"/><path d="M179.52083,171.65039c1.94271,-0.09896 3.85937,0.04687 5.76042,0.43229c1.29687,0.52604 2.20833,1.4375 2.73437,2.73438c0.14583,3.83854 0.19271,7.67708 0.14583,11.52083c-0.95833,0 -1.92187,0 -2.88021,0c0,-0.67708 -0.23958,-1.25 -0.71875,-1.72917c-2.40104,2.25 -5.04167,2.58854 -7.92187,1.01042c-1.08333,-1.60937 -1.42187,-3.38542 -1.01042,-5.32813c0.88542,-1.67187 2.28125,-2.58333 4.17708,-2.73958c1.53646,-0.14063 3.07292,-0.19271 4.60937,-0.14063c0.14583,-1.86979 -0.71875,-2.83333 -2.59375,-2.88021c-1.19271,0.14063 -2.34375,0.42708 -3.45313,0.86458c-0.89583,-0.64063 -1.32813,-1.50521 -1.29687,-2.59375c0.82813,-0.41667 1.64583,-0.80208 2.44792,-1.15104zM179.52083,171.65039" fill="#fafafa"/><path d="M232.51042,171.65039c1.54167,-0.05208 3.07812,0 4.60937,0.14062c1.94792,0.51042 3.24479,1.70833 3.89063,3.60417c0.14063,3.64583 0.19271,7.29167 0.14063,10.94271c-0.96354,0.04687 -1.92188,0 -2.88021,-0.14583c-0.20312,-0.57292 -0.49479,-1.09896 -0.86458,-1.58333c-2.19271,2.13542 -4.69271,2.56771 -7.48438,1.29687c-1.63542,-1.53125 -2.16146,-3.40625 -1.58333,-5.61458c0.98438,-1.52604 2.375,-2.4375 4.17188,-2.73958c1.53646,-0.14063 3.07292,-0.19271 4.60937,-0.14063c0.30208,-1.33854 -0.17708,-2.25 -1.4375,-2.73958c-1.70833,-0.21354 -3.29167,0.11979 -4.75521,1.01042c-0.71354,-0.85417 -1.09896,-1.8125 -1.15104,-2.88021c0.90625,-0.47396 1.81771,-0.85937 2.73437,-1.15104zM232.51042,171.65039" fill="#f7f7f7"/><path d="M301.92187,171.65039c1.9375,-0.09896 3.85938,0.04687 5.76042,0.43229c1.29687,0.52604 2.20833,1.4375 2.73437,2.73438c0.14583,3.83854 0.19271,7.67708 0.14583,11.52083c-0.95833,0 -1.92187,0 -2.88021,0c0,-0.67708 -0.24479,-1.25 -0.72396,-1.72917c-2.39583,2.25 -5.03646,2.58854 -7.91667,1.01042c-1.08854,-1.60937 -1.42187,-3.38542 -1.01042,-5.32813c0.88542,-1.67187 2.28125,-2.58333 4.17708,-2.73958c1.53125,-0.14063 3.07292,-0.19271 4.60938,-0.14063c0.14583,-1.86979 -0.71875,-2.83333 -2.59375,-2.88021c-1.19271,0.14063 -2.34375,0.42708 -3.45313,0.86458c-0.89583,-0.64063 -1.32812,-1.50521 -1.29687,-2.59375c0.82813,-0.41667 1.64583,-0.80208 2.44792,-1.15104zM301.92187,171.65039" fill="#fafafa"/><path d="M203.71354,171.93685c1.34375,0 2.6875,0 4.03125,0c0,4.80208 0,9.59896 0,14.40104c-1.34375,0 -2.6875,0 -4.03125,0c0,-4.80208 0,-9.59896 0,-14.40104zM203.71354,171.93685" fill="#fafafa"/><path d="M251.52083,171.65039c2.77604,-0.56771 4.9375,0.29687 6.47917,2.58854c0.41667,4.01042 0.5625,8.04687 0.43229,12.09896c-1.34375,0 -2.6875,0 -4.03125,0c0.04687,-3.36458 0,-6.72396 -0.14583,-10.08333c-0.96875,-1.46875 -2.26562,-1.80729 -3.88542,-1.00521c-0.36979,0.40625 -0.70833,0.83854 -1.01042,1.29688c-0.40625,3.24479 -0.54688,6.51042 -0.43229,9.79167c-1.24479,0 -2.49479,0 -3.74479,0c0,-4.80208 0,-9.59896 0,-14.40104c1.05729,0 2.11458,0 3.17187,0c-0.03646,0.61979 0.10417,1.19792 0.43229,1.72917c0.8125,-0.85937 1.72396,-1.53125 2.73437,-2.01562zM251.52083,171.65039" fill="#fbfbfb"/><path d="M271.96875,171.65039c2.55729,-0.29687 4.95312,0.13542 7.19792,1.29167c-0.39062,0.9375 -0.82292,1.84896 -1.29167,2.73958c-1.55208,-0.98958 -3.22917,-1.32812 -5.04167,-1.01042c-0.77083,0.57812 -0.77083,1.15104 0,1.72917c2.16667,0.77083 4.13542,1.875 5.90104,3.3125c1.09896,2.03646 0.85937,3.90625 -0.71875,5.61458c-2.33333,1.23438 -4.82813,1.61979 -7.48437,1.15104c-0.66667,-0.1875 -1.33854,-0.33333 -2.02083,-0.43229c-0.08854,-1.16667 0.00521,-2.31771 0.29167,-3.45313c1.81771,0.91146 3.73958,1.24479 5.76042,1.00521c1.15104,-0.76563 1.15104,-1.53125 0,-2.30208c-1.44271,-0.67188 -2.88021,-1.34375 -4.32292,-2.01563c-1.76563,-1.53646 -2.19792,-3.41146 -1.29687,-5.61458c0.78125,-1.06771 1.79167,-1.73958 3.02604,-2.01562zM271.96875,171.65039" fill="#f8f8f8"/><path d="M286.36979,171.65039c5.66146,-0.63021 8.73437,1.86458 9.21354,7.48437c-0.39062,5.57292 -3.36458,8.02604 -8.92708,7.34375c-3.65104,-1.26042 -5.38021,-3.84896 -5.18229,-7.77604c0.03646,-3.49479 1.67187,-5.84375 4.89583,-7.05208zM286.36979,171.65039" fill="#f7f7f7"/><path d="M190.75521,174.81706c0.67188,0 1.34375,0 2.01563,0c0,2.6875 0,5.375 0,8.0625c-0.28646,-2.53646 -0.38542,-5.13021 -0.29167,-7.77604c-0.64063,0.08854 -1.21875,-0.01042 -1.72396,-0.28646zM190.75521,174.81706" fill="#656565"/><path d="M200.54687,174.81706c-1.19271,0.28125 -2.44271,0.38021 -3.74479,0.28646c0,2.40104 0,4.80208 0,7.20312c-0.28646,-2.44792 -0.38542,-4.94271 -0.29167,-7.48958c1.34896,0 2.69271,0 4.03646,0zM200.54687,174.81706" fill="#555555"/><path d="M287.36627,174.87519c1.74348,-0.23698 3.04688,0.38932 3.89887,1.87327c0.27083,2.00304 0.16927,3.97786 -0.31033,5.92448c-1.07205,1.54037 -2.47135,1.90712 -4.21484,1.09462c-0.92535,-0.76736 -1.39366,-1.75477 -1.39931,-2.96224c-0.69965,-2.49956 -0.02257,-4.48004 2.02561,-5.93012zM287.36627,174.87519" fill="#060606"/><path d="M82.75521,176.54622c3.14583,0.15625 5.30729,1.69271 6.47917,4.60417c0.72917,5.07813 -1.43229,7.95833 -6.47917,8.64062c-2.79167,-0.14583 -4.76042,-1.48958 -5.90625,-4.03125c-1.29687,-5.18229 0.67187,-8.25521 5.90625,-9.21354zM82.75521,176.54622" fill="#fffdfd"/><path d="M181.25,179.71289c1.05729,0 2.10938,0 3.16667,0c-0.02604,3.30208 -1.5625,4.45312 -4.60937,3.45312c-0.70833,-1.6875 -0.22917,-2.83854 1.44271,-3.45312zM181.25,179.71289" fill="#0e0e0e"/><path d="M233.95312,179.71289c1.05729,0 2.10937,0 3.16667,0c0.29167,3.02083 -1.05208,4.31771 -4.03125,3.88542c-1.30208,-1.64583 -1.01562,-2.94271 0.86458,-3.88542zM233.95312,179.71289" fill="#0d0d0d"/><path d="M303.65104,179.71289c1.05729,0 2.10937,0 3.16667,0c-0.02604,3.30208 -1.5625,4.45312 -4.60938,3.45312c-0.70833,-1.6875 -0.22917,-2.83854 1.44271,-3.45312zM303.65104,179.71289" fill="#0e0e0e"/><path d="M165.69792,182.87956c2.58854,0 5.18229,0 7.77604,0c0.08854,1.21354 -0.00521,2.36458 -0.29167,3.45833c0,-1.05729 0,-2.11458 0,-3.17188c-2.54687,0.09896 -5.04167,0 -7.48437,-0.28646zM165.69792,182.87956" fill="#8c8c8c"/><path d="M169.15104,164.16081c-3.55208,0 -7.10417,0 -10.65625,0c0,8.54167 0,17.08854 0,25.63021c-0.28646,-8.58854 -0.38021,-17.22917 -0.28646,-25.91667c3.69792,-0.09896 7.34896,0 10.94271,0.28646zM169.15104,164.16081" fill="#483f32"/></g></g></svg>