<svg version="1.1" xmlns="http://www.w3.org/2000/svg" xmlns:xlink="http://www.w3.org/1999/xlink" width="390.9025" height="363.89272" viewBox="0,0,390.9025,363.89272"><g transform="translate(-45.2995,2.64524)"><g fill-rule="evenodd" stroke="none" stroke-miterlimit="10"><path d="M78.78273,-2.64521c108.02617,0 216.05201,0 324.07819,0c8.432,1.74315 13.68625,6.82933 15.7561,15.25854c0.37151,3.19428 0.59376,6.40076 0.66341,9.61951c4.45814,5.49586 7.00234,11.79817 7.62927,18.90732c0.10946,3.20662 0.22225,6.4129 0.3317,9.61951c2.24234,1.89139 4.84293,2.94158 7.79512,3.15122c1.43297,1.16993 1.54576,2.3863 0.3317,3.64878c-2.89912,0.24049 -5.60918,1.06976 -8.12684,2.4878c-0.10946,90.00318 -0.22225,180.00669 -0.3317,270.00986c-2.70342,16.63512 -12.26986,26.86499 -28.6927,30.68294c-49.19554,0.38478 -98.40002,0.55063 -147.60982,0.49756c-48.20804,-0.05639 -96.41641,-0.10946 -144.62445,-0.16586c-6.96784,-0.72312 -13.15983,-3.264 -18.57562,-7.62927c-5.76176,0.49756 -11.17954,-0.61034 -16.25366,-3.31707c-4.80212,-3.35356 -7.62164,-7.9444 -8.45854,-13.76586c-0.11046,-13.48955 -0.22125,-26.97876 -0.3317,-40.46831c0.05009,-5.50103 -1.16628,-10.6979 -3.64878,-15.59025c-2.90874,-4.47076 -7.05509,-6.95856 -12.43903,-7.46342c-1.01868,-0.93641 -1.23992,-2.042 -0.66341,-3.31707c6.98742,-1.23628 11.79717,-5.16137 14.42927,-11.77561c0.97588,-2.5767 1.6393,-5.23036 1.99024,-7.96098c0.43852,-78.60969 0.65977,-157.22436 0.66341,-235.844c1.7335,-9.08587 7.09621,-14.61434 16.08781,-16.58537z" fill="#232020" opacity="0.984"/><path d="M78.45101,1.33528c107.80492,-0.05529 215.60985,0 323.41477,0.16586c7.30752,1.22506 11.67279,5.48196 13.10244,12.77074c0.22225,5.30732 0.22225,10.61464 0,15.92196c-0.0199,6.69054 -1.90069,12.77174 -5.63902,18.2439c-2.94888,3.38175 -6.65073,5.42707 -11.1122,6.13659c-0.44117,0.88467 -0.44117,1.76899 0,2.65366c8.41542,1.33911 13.66967,6.14886 15.7561,14.42927c0.62361,3.28556 0.95532,6.60264 0.99512,9.95122c0.22225,84.80665 0.22225,169.61297 0,254.41962c-1.50927,7.25775 -5.87454,11.62635 -13.10244,13.10244c-107.58368,0.22225 -215.16768,0.22225 -322.75136,0c-6.94894,-1.53248 -11.09528,-5.78829 -12.43903,-12.77074c-0.32009,-15.48908 -0.20931,-30.96888 0.3317,-46.43904c0.78781,-4.91292 2.66759,-9.33558 5.63902,-13.2683c2.61319,-2.56741 5.76441,-3.83885 9.45367,-3.81463c1.63001,-1.05184 1.74046,-2.26788 0.3317,-3.64878c-6.81659,-1.2857 -11.4051,-5.21113 -13.76586,-11.77561c-1.07406,-2.77971 -1.73748,-5.65429 -1.99024,-8.62439c-0.22125,-78.28296 -0.22125,-156.56592 0,-234.84888c1.49136,-6.52097 5.41678,-10.72261 11.77561,-12.60488z" fill="#da4130"/><path d="M416.79263,42.13529c1.59883,4.1354 3.92079,7.83957 6.96585,11.1122c1.10458,0.77387 2.21249,1.54808 3.31707,2.32195c-2.47122,1.20775 -4.51786,2.92134 -6.13659,5.14146c-1.5922,2.4072 -2.91903,4.9504 -3.98049,7.62927c-1.87415,-5.575 -5.35708,-9.77675 -10.44878,-12.60488c5.11493,-3.26334 8.54147,-7.79645 10.28293,-13.6z" fill="#fbfbfb"/><path d="M245.29987,252.10611c-16.97314,0.11012 -33.89022,-0.00034 -50.75124,-0.3317c14.28399,-31.55334 28.65787,-63.06555 43.12197,-94.53662c0.29987,-0.23518 0.41033,-0.56689 0.3317,-0.99512c-17.02753,0 -34.0554,0 -51.08295,0c0,-14.48467 0,-28.969 0,-43.45367c35.49269,0 70.9854,0 106.47809,0c0.0554,9.95188 0,19.90311 -0.16586,29.85367c-15.90271,36.55648 -31.88007,73.0443 -47.93173,109.46346z" fill="#232020"/><path d="M281.78769,139.98898c0,-5.19686 0,-10.39338 0,-15.59025c-27.75297,0 -55.5056,0 -83.25857,0c0,6.8554 0,13.71046 0,20.56586c-0.33072,-6.90847 -0.4415,-13.87433 -0.3317,-20.89756c27.97389,0 55.9481,0 83.92198,0c0.10946,5.36537 -0.00133,10.67269 -0.3317,15.92196z" fill="#9a9999"/><path d="M281.78769,139.98898c-14.50457,33.54259 -29.0997,67.04504 -43.78539,100.50736c-8.57099,0.1098 -17.0846,-0.00066 -25.54147,-0.3317c14.34701,-31.73545 28.83168,-63.41351 43.45367,-95.03419c-19.12824,-0.16586 -38.25649,-0.22125 -57.38539,-0.16586c0,-6.8554 0,-13.71046 0,-20.56586c27.75297,0 55.5056,0 83.25857,0c0,5.19686 0,10.39338 0,15.59025z" fill="#fefefe"/><path d="M186.91936,156.24266c17.02753,0 34.0554,0 51.08295,0c0.07861,0.42824 -0.03185,0.75994 -0.3317,0.99512c-16.85903,-0.5523 -33.77611,-0.884 -50.75124,-0.99512z" fill="#7e3128"/><path d="M212.46083,240.16464c8.45688,0.33104 16.97048,0.4415 25.54147,0.3317c-8.56999,0.44084 -17.19439,0.44084 -25.87318,0c0.04113,-0.20135 0.15159,-0.31181 0.3317,-0.3317z" fill="#c8c7c7"/><path d="M194.54863,251.77441c16.86102,0.33138 33.7781,0.44184 50.75124,0.3317c-16.97281,0.4415 -34.00068,0.4415 -51.08295,0c0.04113,-0.20135 0.15159,-0.31181 0.3317,-0.3317z" fill="#ac382c"/><path d="M64.1876,257.41343c1.5504,3.20397 3.37479,6.30012 5.47318,9.28781c1.563,1.39915 3.16648,2.72598 4.80976,3.98049c-4.85288,3.05503 -8.11456,7.36722 -9.78537,12.93659c-1.93883,-5.69475 -5.53222,-9.95156 -10.7805,-12.77074c5.14777,-3.16449 8.5753,-7.64254 10.28293,-13.43416z" fill="#fbfbfb"/></g></g></svg>