<svg version="1.1" xmlns="http://www.w3.org/2000/svg" xmlns:xlink="http://www.w3.org/1999/xlink" width="389.17426" height="362.28389" viewBox="0,0,389.17426,362.28389"><g transform="translate(-45.41287,1.14194)"><g fill-rule="evenodd" stroke="none" stroke-miterlimit="10"><path d="M78.74806,-1.14194c107.54857,0 215.09681,0 322.64537,0c8.39472,1.73545 13.62574,6.79913 15.68644,15.19108c0.36987,3.18015 0.59113,6.37246 0.66048,9.57699c4.43844,5.47156 6.97139,11.74601 7.59554,18.82373c0.10898,3.19244 0.22126,6.38455 0.33024,9.57699c2.23243,1.88303 4.82152,2.92858 7.76066,3.13729c1.42664,1.16476 1.53892,2.37575 0.33024,3.63265c-2.88631,0.23942 -5.58437,1.06503 -8.0909,2.47681c-0.10898,89.60526 -0.22126,179.21085 -0.33024,268.8161c-2.69146,16.56158 -12.21561,26.74621 -28.56584,30.54728c-48.97803,0.38308 -97.96498,0.5482 -146.95721,0.49536c-47.9949,-0.05614 -95.99014,-0.10898 -143.98504,-0.16512c-6.93704,-0.71993 -13.10165,-3.24957 -18.49349,-7.59554c-5.73628,0.49536 -11.13011,-0.60764 -16.1818,-3.30241c-4.7809,-3.33874 -7.58795,-7.90927 -8.42114,-13.705c-0.10997,-13.42991 -0.22027,-26.85948 -0.33024,-40.28939c0.04987,-5.47672 -1.16113,-10.6506 -3.63265,-15.52132c-2.89588,-4.45099 -7.02389,-6.92779 -12.38403,-7.43042c-1.01417,-0.93227 -1.23444,-2.03296 -0.66048,-3.30241c6.95652,-1.23081 11.74502,-5.13855 14.36548,-11.72355c0.97157,-2.56531 1.63205,-5.20724 1.98145,-7.92578c0.43658,-78.26214 0.65685,-156.52924 0.66048,-234.80129c1.72584,-9.04569 7.06484,-14.54972 16.01668,-16.51205z" fill="#232020" opacity="0.984"/><path d="M78.41782,2.82095c107.3283,-0.05505 214.65659,0 321.98489,0.16512c7.27521,1.21965 11.62118,5.45773 13.04452,12.71428c0.22126,5.28385 0.22126,10.56771 0,15.85156c-0.01651,6.65733 -1.88898,12.71163 -5.6141,18.16325c-2.93584,3.36681 -6.62133,5.40307 -11.06307,6.10946c-0.43922,0.88075 -0.43922,1.76117 0,2.64193c8.37821,1.33318 13.60923,6.12168 15.68644,14.36548c0.62085,3.27104 0.95109,6.57345 0.99072,9.90723c0.22126,84.4317 0.22126,168.86308 0,253.29478c-1.5026,7.22567 -5.84857,11.57494 -13.04452,13.04452c-107.10803,0.22126 -214.21638,0.22126 -321.32441,0c-6.91392,-1.51911 -11.04194,-5.7594 -12.38403,-12.71428c-0.31868,-15.4206 -0.20838,-30.83195 0.33024,-46.23373c0.65586,-4.94503 2.527,-9.34846 5.6141,-13.20964c2.60164,-2.55606 5.73893,-3.82188 9.41187,-3.79777c1.6228,-1.04719 1.73277,-2.25786 0.33024,-3.63265c-6.78645,-1.28001 -11.35467,-5.18808 -13.705,-11.72355c-1.06932,-2.76742 -1.7298,-5.62929 -1.98145,-8.58626c-0.22027,-78.15713 -0.22027,-156.31392 0,-234.47105c1.77835,-6.12607 5.68609,-10.08896 11.72355,-11.88867z" fill="#5679f2"/><path d="M415.26355,43.44058c1.59176,4.11711 3.90345,7.80491 6.93506,11.06307c1.0997,0.77045 2.20271,1.54123 3.30241,2.31169c-2.46029,1.20241 -4.49788,2.90843 -6.10946,5.11873c-1.58516,2.39656 -2.90612,4.92852 -3.96289,7.59554c-1.86586,-5.55036 -5.33339,-9.73352 -10.40259,-12.54915c5.09231,-3.24891 8.5037,-7.76198 10.23747,-13.53988z" fill="#fbfbfb"/><path d="M236.27297,118.07503c11.88867,0 23.77735,0 35.66602,0c0,46.3437 0,92.68773 0,139.03142c-15.74159,0 -31.48286,0 -47.22445,0c0.05515,-25.42888 0,-50.85743 -0.16512,-76.28565c-3.5775,2.91702 -7.15533,5.83437 -10.73283,8.75138c-0.33024,0.22027 -0.66048,0.22027 -0.99072,0c-8.71176,-10.58224 -17.29802,-21.26025 -25.75879,-32.03337c16.46383,-13.10957 32.86591,-26.26439 49.2059,-39.46379z" fill="#232020"/><path d="M240.23587,129.63346c6.71479,0 13.42991,0 20.1447,0c0,38.63819 0,77.27637 0,115.91456c-8.14605,0 -16.29178,0 -24.43783,0c-0.05515,-25.20861 0,-50.41689 0.16512,-75.62517c0.12021,-3.8549 0.28533,-7.70782 0.49536,-11.55843c-0.10997,-0.88075 -0.22027,-1.76117 -0.33024,-2.64193c-6.72635,6.6035 -13.88135,12.6578 -21.46566,18.16325c-4.00813,-4.71023 -7.86105,-9.55387 -11.55843,-14.5306c12.23179,-10.03041 24.56068,-19.93763 36.98698,-29.72168z" fill="#fefefe"/><path d="M240.23587,129.63346c6.76763,-0.32925 13.59272,-0.43955 20.47494,-0.33024c0.10997,38.80364 0,77.55213 -0.33024,116.2448c0,-38.63819 0,-77.27637 0,-115.91456c-6.71479,0 -13.42991,0 -20.1447,0z" fill="#b1b0b0"/><path d="M64.21746,257.76693c1.54355,3.1898 3.35987,6.27227 5.44898,9.24675c1.5561,1.39296 3.15248,2.71392 4.78849,3.96289c-4.83142,3.04152 -8.07868,7.33465 -9.74211,12.8794c-1.93026,-5.66958 -5.50776,-9.90756 -10.73283,-12.71428c5.12501,-3.1505 8.53739,-7.60875 10.23747,-13.37476z" fill="#fbfbfb"/></g></g></svg>