<svg version="1.1" xmlns="http://www.w3.org/2000/svg" xmlns:xlink="http://www.w3.org/1999/xlink" width="387.72928" height="360.93877" viewBox="0,0,387.72928,360.93877"><g transform="translate(-46.13536,0.46938)"><g fill-rule="evenodd" stroke="none" stroke-miterlimit="10"><path d="M79.34678,-0.46936c107.14925,0 214.29817,0 321.44741,0c8.36355,1.729 13.57515,6.77389 15.6282,15.13468c0.36849,3.16835 0.58894,6.3488 0.65803,9.54142c4.42195,5.45125 6.9455,11.7024 7.56734,18.75384c0.10857,3.18058 0.22044,6.36084 0.32901,9.54142c2.22414,1.87604 4.80361,2.91771 7.73185,3.12564c1.42134,1.16044 1.53321,2.36693 0.32901,3.61916c-2.87559,0.23854 -5.56364,1.06107 -8.06087,2.46761c-0.10857,89.27256 -0.22044,178.54545 -0.32901,267.81801c-2.68148,16.50009 -12.17025,26.64691 -28.45977,30.43386c-48.79618,0.38166 -97.60124,0.54617 -146.41156,0.49352c-47.8167,-0.05594 -95.63373,-0.10857 -143.45044,-0.16451c-6.91128,-0.71726 -13.053,-3.2375 -18.42483,-7.56734c-5.71498,0.49352 -11.08879,-0.60538 -16.12172,-3.29015c-4.76314,-3.32634 -7.55977,-7.8799 -8.38988,-13.65411c-0.10956,-13.38005 -0.21945,-26.75975 -0.32901,-40.1398c0.04968,-5.45638 -1.15682,-10.61105 -3.61916,-15.46369c-2.88513,-4.43446 -6.99782,-6.90207 -12.33805,-7.40284c-1.0104,-0.92881 -1.22985,-2.02541 -0.65803,-3.29015c6.9307,-1.22623 11.70141,-5.11947 14.31214,-11.68002c0.96796,-2.55578 1.62599,-5.1879 1.97409,-7.89636c0.43496,-77.97156 0.65441,-155.94806 0.65803,-233.92949c1.71943,-9.01211 7.03862,-14.49569 15.95721,-16.45074z" fill="#232020" opacity="0.984"/><path d="M79.01778,3.47882c106.92979,-0.05485 213.85959,0 320.78938,0.16451c7.2482,1.21512 11.57803,5.43747 12.99608,12.66706c0.22044,5.26424 0.22044,10.52847 0,15.79271c-0.01974,6.63622 -1.88526,12.66806 -5.59325,18.09581c-2.92494,3.35431 -6.59675,5.38301 -11.02199,6.08678c-0.43759,0.87748 -0.43759,1.75464 0,2.63212c8.3471,1.32824 13.5587,6.09894 15.6282,14.31214c0.61854,3.25889 0.94756,6.54904 0.98704,9.87045c0.22044,84.11822 0.22044,168.2361 0,252.35432c-1.49702,7.19884 -5.82686,11.53197 -12.99608,12.99608c-106.71034,0.22044 -213.42101,0.22044 -320.13135,0c-6.89253,-1.52004 -11.00521,-5.7413 -12.33805,-12.66706c-0.3175,-15.36334 -0.20761,-30.71747 0.32901,-46.06207c0.78142,-4.87304 2.64594,-9.25979 5.59325,-13.16059c2.59198,-2.54658 5.71762,-3.80768 9.37693,-3.78367c1.61678,-1.0433 1.72635,-2.24948 0.32901,-3.61916c-6.76125,-1.27526 -11.31251,-5.16883 -13.65411,-11.68002c-1.06535,-2.75714 -1.72338,-5.60839 -1.97409,-8.55439c-0.21945,-77.64748 -0.21945,-155.29497 0,-232.94245c1.47925,-6.46804 5.37281,-10.63557 11.68002,-12.50256z" fill="#da4130"/><path d="M414.61282,43.94764c1.58585,4.10182 3.88895,7.77593 6.90931,11.02199c1.09562,0.76759 2.19453,1.53551 3.29015,2.3031c-2.45116,1.19794 -4.48118,2.89764 -6.08678,5.09973c-1.57927,2.38767 -2.89533,4.91022 -3.94818,7.56734c-1.85894,-5.52976 -5.31359,-9.69739 -10.36396,-12.50256c5.0734,-3.23685 8.47213,-7.73316 10.19945,-13.4896z" fill="#fbfbfb"/><path d="M247.80234,112.71171c6.58128,-0.05494 13.16158,0 19.74089,0.16451c5.5008,0.82583 10.98449,1.75825 16.45074,2.79663c0.05494,14.36741 0,28.73451 -0.16451,43.10094c-6.03873,-1.45457 -12.12551,-2.71569 -18.26032,-3.78367c-3.93667,-0.4853 -7.88483,-0.59486 -11.84453,-0.32901c19.03581,2.69331 31.26397,13.2764 36.68514,31.74992c3.8225,15.61109 2.06753,30.52631 -5.26424,44.74601c-8.34875,13.20139 -20.35778,20.60422 -36.02711,22.2085c-18.05863,2.38898 -33.46738,-2.82032 -46.22658,-15.6282c-6.58161,-7.99046 -10.96836,-17.0933 -13.16059,-27.30823c-3.20361,-19.04205 -1.99712,-37.7959 3.61916,-56.26152c7.26465,-20.64535 21.46722,-33.75099 42.60741,-39.31726c3.99292,-0.75608 7.9411,-1.46905 11.84453,-2.1386z" fill="#242020"/><path d="M249.77643,123.89821c7.70092,-0.14378 15.37815,0.18524 23.03103,0.98704c0,6.5803 0,13.16059 0,19.74089c-11.11511,-2.59231 -22.08215,-2.09879 -32.90147,1.48057c-10.12971,4.72564 -15.88747,12.67693 -17.27327,23.85357c-0.4547,3.05655 -0.72877,6.12757 -0.82254,9.21242c0.34613,0.04903 0.67514,-0.0056 0.98704,-0.16451c4.33971,-7.21924 10.70088,-11.49644 19.08286,-12.83157c10.3406,-1.55493 19.66258,0.74818 27.96626,6.90931c6.84252,6.69545 10.51662,14.86587 11.02199,24.5116c0.79391,9.87208 -1.07061,19.19407 -5.59325,27.96626c-6.48258,9.85334 -15.64004,15.39197 -27.47274,16.61524c-24.4254,2.13333 -39.94404,-8.55964 -46.55559,-32.07894c-0.62907,-3.38852 -1.17754,-6.78857 -1.64507,-10.19945c-1.13938,-13.39025 0.06679,-26.55083 3.61916,-39.48177c5.79626,-18.95684 18.35343,-30.63686 37.67219,-35.04007c2.99897,-0.54484 5.9601,-1.03837 8.88339,-1.48057z" fill="#fefefe"/><path d="M238.91894,184.43693c10.53933,-0.69554 16.62611,4.13012 18.26032,14.47665c0.55044,6.24174 -0.54649,12.164 -3.29015,17.7668c-2.38438,3.57903 -5.72947,5.60806 -10.03496,6.08678c-6.28649,0.94164 -11.38621,-1.08706 -15.29918,-6.08678c-4.2035,-5.95089 -5.73901,-12.53118 -4.60621,-19.74089c2.67061,-7.00275 7.66078,-11.17005 14.97017,-12.50256z" fill="#242121"/><path d="M239.24796,195.95245c1.53946,-0.05461 3.07464,0.00033 4.60621,0.16451c0.96664,0.66625 1.57006,1.59836 1.80958,2.79663c0.26552,2.97627 0.15595,5.9374 -0.32901,8.88339c-0.81365,3.74485 -2.95225,4.7865 -6.41579,3.12564c-3.27666,-3.21514 -4.53778,-7.10869 -3.78367,-11.68002c1.13181,-1.4072 2.50282,-2.5038 4.11269,-3.29015z" fill="#d84130"/><path d="M64.87013,257.47821c1.53782,3.17796 3.3474,6.24898 5.42875,9.21242c1.55031,1.38778 3.14078,2.70384 4.77072,3.94818c-4.81348,3.03023 -8.04869,7.30741 -9.70593,12.83157c-1.92309,-5.64853 -5.48731,-9.87077 -10.69299,-12.66706c5.10598,-3.1388 8.50569,-7.5805 10.19945,-13.32509z" fill="#fbfbfb"/></g></g></svg>