<svg version="1.1" xmlns="http://www.w3.org/2000/svg" xmlns:xlink="http://www.w3.org/1999/xlink" width="385.5652" height="358.9242" viewBox="0,0,385.5652,358.9242"><g transform="translate(-47.2174,-0.5379)"><g fill-rule="evenodd" stroke="none" stroke-miterlimit="10"><path d="M80.24345,0.5379c106.5512,0 213.10208,0 319.65328,0c8.31687,1.71935 13.49937,6.73607 15.54097,15.05021c0.36644,3.15067 0.58565,6.31337 0.65436,9.48818c4.39728,5.42082 6.90673,11.63708 7.5251,18.64917c0.10796,3.16284 0.21921,6.32534 0.32718,9.48818c2.21172,1.86558 4.7768,2.90142 7.68869,3.1082c1.41341,1.15396 1.52465,2.35372 0.32718,3.59896c-2.85953,0.2372 -5.53259,1.05515 -8.01587,2.45384c-0.10796,88.77429 -0.21921,177.54891 -0.32718,266.3232c-2.66651,16.40799 -12.10233,26.49818 -28.30093,30.264c-48.52382,0.37953 -97.05648,0.54312 -145.59438,0.49076c-47.54982,-0.05562 -95.09996,-0.10796 -142.64977,-0.16359c-6.87271,-0.71325 -12.98015,-3.21943 -18.32199,-7.5251c-5.68309,0.49076 -11.02689,-0.60201 -16.03174,-3.27178c-4.73656,-3.30778 -7.51758,-7.83592 -8.34305,-13.5779c-0.10895,-13.30536 -0.21823,-26.6104 -0.32718,-39.91576c0.04941,-5.42592 -1.15036,-10.55183 -3.59896,-15.37738c-2.86903,-4.40971 -6.95875,-6.86354 -12.26919,-7.36152c-1.00476,-0.92363 -1.22299,-2.01411 -0.65436,-3.27178c6.89201,-1.2194 11.6361,-5.0909 14.23226,-11.61484c0.96256,-2.54152 1.61691,-5.15894 1.96307,-7.85228c0.43253,-77.53637 0.65076,-155.07765 0.65436,-232.62382c1.70983,-8.96181 6.99933,-14.41479 15.86815,-16.35892z" fill="#232020" opacity="0.984"/><path d="M79.91626,4.46403c106.33297,-0.05454 212.66594,0 318.99892,0.16359c7.20774,1.20833 11.51341,5.40712 12.92355,12.59637c0.21921,5.23486 0.21921,10.46971 0,15.70456c-0.01963,6.59919 -1.87473,12.59734 -5.56203,17.99481c-2.90862,3.33559 -6.55993,5.35297 -10.96048,6.0528c-0.43515,0.87259 -0.43515,1.74484 0,2.61742c8.30051,1.32082 13.48302,6.0649 15.54097,14.23226c0.6151,3.2407 0.94227,6.51249 0.98154,9.81535c0.21921,83.64871 0.21921,167.2971 0,250.94582c-1.48866,7.15867 -5.79433,11.4676 -12.92355,12.92355c-106.11474,0.21921 -212.22982,0.21921 -318.34457,0c-6.85406,-1.51156 -10.94379,-5.70926 -12.26919,-12.59637c-0.31572,-15.2776 -0.20645,-30.54602 0.32718,-45.80497c0.77705,-4.84584 2.63117,-9.20811 5.56203,-13.08714c2.57751,-2.53236 5.68571,-3.78644 9.32459,-3.76255c1.60775,-1.03748 1.71671,-2.23692 0.32718,-3.59896c-6.72352,-1.26814 -11.24937,-5.13997 -13.5779,-11.61484c-1.0594,-2.74176 -1.71376,-5.57709 -1.96307,-8.50664c-0.21823,-77.2141 -0.21823,-154.42819 0,-231.6423c1.47099,-6.43194 5.34282,-10.5762 11.61484,-12.43277z" fill="#da4130"/><path d="M413.63821,44.70698c1.577,4.07893 3.86725,7.73253 6.87074,10.96048c1.0895,0.76331 2.18228,1.52694 3.27178,2.29025c-2.43747,1.19126 -4.45617,2.88146 -6.0528,5.07127c-1.57045,2.37433 -2.87917,4.88281 -3.92614,7.5251c-1.84856,-5.49889 -5.28393,-9.64326 -10.30611,-12.43277c5.04509,-3.21878 8.42485,-7.69 10.14253,-13.41431z" fill="#fbfbfb"/><path d="M234.99882,112.4329c25.1489,-1.20336 42.10753,9.9207 50.87623,33.37219c4.68192,14.8022 6.42709,29.96136 5.23486,45.4778c-0.37691,10.87738 -2.33998,21.45604 -5.88921,31.7363c-6.48664,17.06333 -18.75583,27.04227 -36.80757,29.93682c-30.80189,2.67926 -49.83287,-11.00792 -57.09263,-41.06088c-2.18425,-9.96815 -3.11114,-20.05603 -2.78102,-30.264c-0.39523,-13.77944 1.73143,-27.13945 6.37998,-40.07936c7.53623,-17.7347 20.8959,-27.44111 40.07936,-29.11888z" fill="#242020"/><path d="M233.36292,123.88414c18.82322,-2.28894 32.29185,5.01793 40.40653,21.92095c3.74161,9.32818 5.81396,19.03459 6.21639,29.11888c0.58794,11.43685 -0.1757,22.77881 -2.29025,34.02655c-5.67753,25.66681 -21.54568,36.40906 -47.60445,32.22707c-11.92565,-3.19948 -20.15975,-10.56099 -24.70197,-22.08454c-3.27866,-9.19568 -5.13277,-18.68385 -5.56203,-28.46452c-0.59972,-10.53547 -0.05464,-21.00518 1.63589,-31.40913c1.32965,-7.48061 3.94708,-14.4603 7.85228,-20.93941c5.99031,-8.20203 14.00617,-13.00043 24.04761,-14.39585z" fill="#fefefe"/><path d="M236.96189,143.51484c7.54538,-0.78163 12.61665,2.3812 15.2138,9.48818c2.17181,6.91099 3.37124,13.99996 3.59896,21.26659c0.63996,12.11378 -0.23262,24.11043 -2.61742,35.98962c-1.05875,4.10903 -3.1854,7.54441 -6.37998,10.30611c-10.27112,4.32595 -16.97827,1.10881 -20.12147,-9.65176c-1.66109,-5.88201 -2.53367,-11.88017 -2.61742,-17.99481c-0.21823,-7.08897 -0.21823,-14.17762 0,-21.26659c0.47147,-5.62485 1.34372,-11.18688 2.61742,-16.68609c1.35714,-5.77012 4.79251,-9.58731 10.30611,-11.45124z" fill="#242120"/><path d="M239.25214,154.63891c1.27011,0.23262 2.08806,0.99593 2.45384,2.29025c1.65028,5.10235 2.52255,10.3372 2.61742,15.70456c0.42664,9.95342 0.09946,19.87773 -0.98154,29.77323c-0.47768,2.95999 -1.35026,5.79531 -2.61742,8.50664c-1.40392,0.67562 -2.27617,0.2395 -2.61742,-1.30871c-1.71114,-5.65135 -2.69268,-11.43161 -2.94461,-17.34046c-0.42402,-9.51762 -0.09685,-19.00579 0.98154,-28.46452c0.36056,-3.31824 1.39672,-6.37212 3.1082,-9.16099z" fill="#d74130"/><path d="M65.8476,257.04574c1.52923,3.16021 3.32871,6.21409 5.39844,9.16099c1.54166,1.38004 3.12324,2.68875 4.74408,3.92614c-4.78661,3.01331 -8.00377,7.26663 -9.65176,12.75996c-1.91236,-5.617 -5.45668,-9.81568 -10.6333,-12.59637c5.07749,-3.12128 8.45822,-7.53819 10.14253,-13.25072z" fill="#fbfbfb"/></g></g></svg>