<svg version="1.1" xmlns="http://www.w3.org/2000/svg" xmlns:xlink="http://www.w3.org/1999/xlink" width="385.23085" height="358.61296" viewBox="0,0,385.23085,358.61296"><g transform="translate(-47.38458,-0.69352)"><g fill-rule="evenodd" stroke="none" stroke-miterlimit="10"><path d="M80.38197,0.69352c106.45881,0 212.91728,0 319.37609,0c8.30966,1.71786 13.48768,6.73024 15.5275,15.03715c0.36613,3.14793 0.58514,6.30789 0.65379,9.47995c4.39346,5.41612 6.90074,11.62699 7.51858,18.63299c0.10787,3.1601 0.21902,6.31985 0.32689,9.47995c2.20981,1.86396 4.77266,2.89891 7.68202,3.1055c1.41219,1.15296 1.52333,2.35168 0.32689,3.59584c-2.85705,0.237 -5.52778,1.05423 -8.00892,2.45171c-0.10787,88.69731 -0.21902,177.39494 -0.32689,266.09226c-2.6642,16.39377 -12.09184,26.4752 -28.27639,30.23776c-48.48175,0.37919 -96.97232,0.54265 -145.46812,0.49034c-47.50858,-0.05557 -95.01749,-0.10787 -142.52607,-0.16344c-6.86675,-0.71263 -12.96889,-3.21664 -18.3061,-7.51858c-5.67816,0.49034 -11.01733,-0.60149 -16.01784,-3.26895c-4.73245,-3.30491 -7.51106,-7.82913 -8.33581,-13.56613c-0.10885,-13.29382 -0.21804,-26.58732 -0.32689,-39.88115c0.04937,-5.42122 -1.14936,-10.54268 -3.59584,-15.36405c-2.86654,-4.40589 -6.95272,-6.85759 -12.25855,-7.35513c-1.00389,-0.92282 -1.22194,-2.01236 -0.65379,-3.26895c6.88604,-1.21834 11.62601,-5.08649 14.21992,-11.60476c0.96173,-2.53932 1.61552,-5.15447 1.96137,-7.84548c0.43216,-77.46913 0.65019,-154.94317 0.65379,-232.4221c1.70835,-8.95403 6.99325,-14.4023 15.85439,-16.34473z" fill="#232020" opacity="0.984"/><path d="M80.05508,4.61626c106.24077,-0.05449 212.48153,0 318.7223,0.16344c7.18514,1.19267 11.49035,5.38781 12.91234,12.58545c0.34324,7.42875 0.12749,14.83834 -0.65379,22.22884c-0.89569,5.6641 -3.45855,10.40408 -7.68202,14.21992c-2.54324,1.54425 -5.26628,2.63379 -8.17237,3.26895c-0.43477,0.87183 -0.43477,1.74333 0,2.61516c8.29332,1.31968 13.47133,6.05964 15.5275,14.21992c0.65379,3.23233 0.98068,6.50128 0.98068,9.80684c0.21902,83.57618 0.21902,167.15203 0,250.7282c-1.43833,6.99555 -5.63239,11.30075 -12.58545,12.91234c-106.13191,0.21902 -212.26349,0.21902 -318.3954,0c-6.84387,-1.50372 -10.93005,-5.70104 -12.25855,-12.58545c-0.31545,-15.26434 -0.20627,-30.51954 0.32689,-45.76525c0.64921,-4.89493 2.5014,-9.25374 5.55721,-13.07578c2.57527,-2.53016 5.68078,-3.78315 9.3165,-3.75929c1.60636,-1.03658 1.71522,-2.23498 0.32689,-3.59584c-4.4546,-0.45537 -7.99617,-2.47133 -10.62408,-6.04755c-2.80083,-4.26075 -4.4353,-8.94613 -4.90342,-14.05647c-0.21804,-77.36518 -0.21804,-154.73003 0,-232.09521c1.75151,-6.05543 5.61997,-9.97816 11.60476,-11.7682z" fill="#2ab7a1"/><path d="M413.48764,44.8243c1.57563,4.07539 3.86389,7.72583 6.86479,10.95097c1.08856,0.76264 2.18038,1.52562 3.26895,2.28826c-2.43537,1.19022 -4.45231,2.87896 -6.04755,5.06686c-1.5691,2.37227 -2.87668,4.87858 -3.92274,7.51858c-1.84695,-5.49411 -5.27934,-9.6349 -10.29718,-12.42199c5.04072,-3.21599 8.41754,-7.68333 10.13374,-13.40268z" fill="#fbfbfb"/><path d="M258.53957,208.27163c-0.25792,0.09251 -0.47596,0.25596 -0.65379,0.49034c11.3318,0.16344 22.66426,0.21804 33.99704,0.16344c0,14.27451 0,28.54869 0,42.8232c-34.21508,0 -68.42984,0 -102.64492,0c0,-11.00556 0,-22.01079 0,-33.01636c11.19418,-11.35796 22.47204,-22.69009 33.8336,-33.99704c4.3696,-4.47814 8.61923,-9.05465 12.74889,-13.72957c2.13037,-2.46119 3.8737,-5.18521 5.23032,-8.17237c0.82279,-2.31344 0.98624,-4.65629 0.49034,-7.02823c-3.67299,-0.58383 -7.15997,-0.03891 -10.46063,1.63447c-2.70211,1.50502 -5.31727,3.13949 -7.84548,4.90342c-3.76648,3.16728 -7.58003,6.27278 -11.44131,9.3165c-9.26616,-10.79275 -18.41921,-21.68914 -27.45915,-32.68946c7.04327,-6.56862 14.56184,-12.50732 22.55573,-17.81576c17.5111,-9.28969 35.70834,-10.92416 54.5914,-4.90342c19.35052,8.23709 28.34014,22.89309 26.96881,43.96733c-1.41578,11.43543 -5.77426,21.56917 -13.07578,30.40121c-5.2192,6.25448 -10.831,12.13858 -16.83508,17.65231z" fill="#232020"/><path d="M230.75352,219.05916c-0.30532,0.34912 -0.4145,0.78487 -0.32689,1.30758c16.67163,0 33.34325,0 50.01489,0c0,6.64675 0,13.29382 0,19.94057c-26.6965,0 -53.39269,0 -80.08919,0c-0.05459,-5.66737 0,-11.33344 0.16344,-16.99852c15.29409,-14.85736 30.11321,-30.11223 44.45768,-45.76525c3.72268,-4.28363 6.33783,-9.18705 7.84548,-14.71026c2.33665,-12.01795 -2.56678,-18.22895 -14.71026,-18.63299c-3.34511,0.11441 -6.55947,0.82247 -9.64339,2.12481c-5.53662,2.52035 -10.60348,5.73471 -15.2006,9.64339c-4.53566,-5.07961 -8.94874,-10.25567 -13.23924,-15.5275c16.15546,-15.2601 35.0065,-19.94548 56.55277,-14.05647c16.46307,6.82392 23.16441,19.08247 20.10403,36.77565c-1.066,5.15872 -3.02737,9.95297 -5.88411,14.38336c-2.47295,3.78151 -5.1973,7.37736 -8.17237,10.78752c-10.49071,10.4371 -21.11478,20.67968 -31.87223,30.7281z" fill="#fefefe"/><path d="M258.53957,208.27163c11.11441,0.21804 22.22884,0.43575 33.34325,0.65379c-11.33278,0.05459 -22.66524,0 -33.99704,-0.16344c0.17783,-0.23438 0.39587,-0.39783 0.65379,-0.49034z" fill="#289180"/><path d="M230.75352,219.05916c0,0.32689 0,0.65379 0,0.98068c16.67163,0 33.34325,0 50.01489,0c0,6.86479 0,13.72957 0,20.59436c-26.86028,0.10885 -53.66565,-0.00033 -80.41608,-0.32689c26.6965,0 53.39269,0 80.08919,0c0,-6.64675 0,-13.29382 0,-19.94057c-16.67163,0 -33.34325,0 -50.01489,0c-0.08761,-0.52271 0.02157,-0.95846 0.32689,-1.30758z" fill="#c8c7c7"/><path d="M189.2379,218.73227c0,11.00556 0,22.01079 0,33.01636c34.21508,0 68.42984,0 102.64492,0c-34.26902,0.32657 -68.59296,0.43575 -102.97182,0.32689c-0.10853,-11.17032 0.00065,-22.28474 0.32689,-33.34325z" fill="#298677"/><path d="M65.99861,256.97894c1.5279,3.15748 3.32583,6.20871 5.39376,9.15306c1.54032,1.37885 3.12054,2.68643 4.73997,3.92274c-4.78247,3.0107 -7.99682,7.26034 -9.64339,12.74889c-1.91069,-5.61213 -5.45195,-9.80717 -10.62408,-12.58545c5.07308,-3.11857 8.45088,-7.53165 10.13374,-13.23924z" fill="#fbfbfb"/></g></g></svg>