<svg version="1.1" xmlns="http://www.w3.org/2000/svg" xmlns:xlink="http://www.w3.org/1999/xlink" width="337.53906" height="77.75912" viewBox="0,0,337.53906,77.75912"><g transform="translate(-71.23047,-141.12044)"><g fill-rule="evenodd" stroke="none" stroke-miterlimit="10"><path d="M397.25,153.2181c-0.28646,7.17708 -0.38021,14.375 -0.29167,21.59896c-1.11458,-4.09375 -3.80729,-6.30208 -8.0625,-6.625c-4.02604,0.26042 -8.05729,0.35937 -12.09375,0.28646c0.04687,0.58333 0,1.16146 -0.14583,1.72917c-2.00521,-1.29167 -4.21354,-1.96354 -6.625,-2.01562c-1.73438,0.14583 -3.45833,0.33854 -5.18229,0.57813c-1.58854,-0.13542 -3.17187,-0.32813 -4.75,-0.57813c-3.73958,0.26042 -7.48437,0.35417 -11.23437,0.28646c0.04687,0.58333 0,1.16146 -0.14583,1.72917c-4,-2.35417 -8.17708,-2.64583 -12.52604,-0.86458c-0.27604,-5.40625 -3.0625,-7.47396 -8.35417,-6.19271c-1.60937,0.55729 -2.61979,1.66146 -3.02083,3.3125c-0.13542,1.26563 -0.13542,2.51042 0,3.74479c-4.25,-2.45833 -8.61979,-2.65104 -13.10417,-0.57292c0,-2.30729 0,-4.60937 0,-6.91667c-3.69792,-0.09375 -7.34896,0.00521 -10.94271,0.29167c0.09375,2.3125 0,4.61458 -0.29167,6.91146c-3.64583,-2.14063 -7.39063,-2.28646 -11.22917,-0.43229c-0.90104,0.61458 -1.71875,1.33333 -2.44792,2.16146c-1.86979,-2.33854 -4.31771,-3.48958 -7.34375,-3.45833c0,-1.82292 0,-3.64583 0,-5.47396c-3.70313,-0.09375 -7.34896,0.00521 -10.94792,0.29167c0.05208,2.30729 0,4.60937 -0.14063,6.91146c-3.08333,-2 -6.34896,-2.28646 -9.79167,-0.86458c-0.76042,-0.125 -1.47917,-0.36458 -2.16146,-0.71875c-0.76562,-0.04688 -1.53646,-0.09896 -2.30208,-0.14583c-3.83854,0.23958 -7.67708,0.33854 -11.52083,0.28646c0.08333,0.51562 -0.01563,0.99479 -0.28646,1.44271c-3.9375,-2.24479 -7.86979,-2.24479 -11.8125,0c-1.36458,-2.66146 -3.47396,-4.4375 -6.33333,-5.32813c-1.13542,-0.29167 -2.28646,-0.4375 -3.45833,-0.43229c-3.30729,-0.28646 -6.66667,-0.38021 -10.07813,-0.28646c-0.09375,8.6875 0,17.32813 0.28646,25.91667c3.55208,0 7.10417,0 10.65625,0c0.11458,-2.32812 0.40625,-4.63021 0.86458,-6.91146c1.36458,-0.27083 2.66146,-0.75 3.89063,-1.4375c0.86979,4.61458 3.60417,7.44792 8.20833,8.49479c2.54687,0.30729 5.04687,0.06771 7.48437,-0.71875c12.55729,0.47917 25.13542,0.76563 37.72917,0.86458c1.47917,-0.16667 2.92187,-0.5 4.31771,-1.01042c1.05208,-0.70313 2.01042,-1.52083 2.88021,-2.44792c2.47917,2.52604 5.5,3.67708 9.07292,3.45833c1.46875,-0.14062 2.91146,-0.43229 4.32292,-0.86458c1.92708,0.36458 3.89583,0.55729 5.90104,0.57292c1.96875,-0.01042 3.89062,-0.20312 5.76042,-0.57292c1.14063,0.55208 2.33854,0.84375 3.59896,0.86458c1.86979,-0.21354 3.73958,-0.3125 5.61979,-0.29167c-0.05208,1.73438 0,3.45833 0.14063,5.1875c4.03125,1.74479 7.92187,1.50521 11.66667,-0.72396c1.27083,-1.54167 2.28125,-3.21875 3.02083,-5.03646c1.07813,0.58333 2.22917,0.86979 3.45833,0.86458c6.66667,-0.27083 13.33854,-0.36979 20.01563,-0.29167c0.19271,-1.91667 0.38542,-3.83854 0.57813,-5.76042c0.69792,3.15104 2.61979,5.11979 5.75521,5.90625c10.36458,-0.11979 20.73437,-0.17188 31.10417,-0.14583c0.05208,3.17188 0,6.33854 -0.14062,9.50521c-1.26563,4.4375 -4.19792,6.88542 -8.78646,7.34375c-99.07292,0.19271 -198.14063,0.19271 -297.21354,0c-4.49479,-0.94271 -7.13542,-3.67708 -7.92188,-8.20833c-0.14063,-2.875 -0.19271,-5.75521 -0.14063,-8.64063c5.04688,-0.68229 7.20833,-3.5625 6.47917,-8.64062c-1.17188,-2.91146 -3.33333,-4.44792 -6.47917,-4.60417c0,-1.72917 0,-3.45833 0,-5.1875c4.15104,-0.16667 6.35938,-2.32813 6.61979,-6.47917c-0.39583,-4.57292 -2.89062,-6.73437 -7.48437,-6.47917c0.20313,-0.26042 0.48958,-0.35417 0.86458,-0.28646c0,-1.63542 0,-3.26563 0,-4.89583c-0.66146,-4.41146 0.77604,-7.91667 4.31771,-10.51563c1.32292,-0.82292 2.76562,-1.30208 4.31771,-1.4375c99.07292,-0.19271 198.14583,-0.19271 297.21875,0c6.33854,1.40104 9.21875,5.38542 8.64062,11.95313zM397.25,153.2181" fill-opacity="0.994" fill="#fedfb2"/><path d="M82.75521,153.2181c0,1.63021 0,3.26042 0,4.89583c-0.375,-0.06771 -0.66146,0.02604 -0.86458,0.28646c-4.47396,1.15625 -6.25,4.03646 -5.32813,8.64062c1.15625,2.76042 3.21875,4.19792 6.19271,4.31771c0,1.72917 0,3.45833 0,5.1875c-5.23437,0.95833 -7.20312,4.03125 -5.90625,9.21354c1.14583,2.54167 3.11458,3.88542 5.90625,4.03125c-0.05208,2.88542 0,5.76563 0.14063,8.64063c0.78646,4.53125 3.42708,7.26563 7.92188,8.20833c99.07292,0.19271 198.14062,0.19271 297.21354,0c4.58854,-0.45833 7.52083,-2.90625 8.78646,-7.34375c0.14062,-3.16667 0.19271,-6.33333 0.14062,-9.50521c0,-4.98958 0,-9.98437 0,-14.97396c-0.08854,-7.22396 0.00521,-14.42187 0.29167,-21.59896c5.89063,-0.38542 9.68229,2.20313 11.375,7.77604c0.19271,16.79687 0.19271,33.59896 0,50.40104c-1.13542,3.91667 -3.68229,6.36458 -7.63021,7.34375c-107.32813,0.1875 -214.65625,0.1875 -321.98437,0c-3.95313,-0.97917 -6.5,-3.42708 -7.63542,-7.34375c-0.19271,-16.90104 -0.19271,-33.79688 0,-50.69271c1.82292,-5.40104 5.61458,-7.89583 11.38021,-7.48437zM82.75521,153.2181" fill-opacity="0.983" fill="#ff3131"/><path d="M81.89062,158.40039c4.59375,-0.25521 7.08854,1.90625 7.48437,6.47917c-0.26042,4.15104 -2.46875,6.3125 -6.61979,6.47917c-2.97396,-0.11979 -5.03646,-1.55729 -6.19271,-4.31771c-0.92187,-4.60417 0.85417,-7.48437 5.32813,-8.64062zM81.89062,158.40039" fill="#fffdfd"/><path d="M268.51042,163.00977c3.59896,-0.28646 7.24479,-0.38542 10.94792,-0.29167c0,1.82813 0,3.65104 0,5.47396c-0.28646,-1.67187 -0.38021,-3.40104 -0.29167,-5.18229c-3.55208,0 -7.10417,0 -10.65625,0zM268.51042,163.00977" fill="#3f372c"/><path d="M300.77083,163.00977c3.59375,-0.28646 7.24479,-0.38542 10.94271,-0.29167c0,2.30729 0,4.60937 0,6.91667c-0.28646,-2.15625 -0.38542,-4.36458 -0.28646,-6.625c-3.55208,0 -7.10937,0 -10.65625,0zM300.77083,163.00977" fill="#3f372c"/><path d="M159.07292,162.7181c5.21875,-0.58333 7.66667,1.71875 7.34375,6.91667c3.17708,-1.49479 6.48958,-1.82813 9.9375,-1.01042c1.07292,0.42188 2.08333,0.94792 3.02083,1.58333c0.14583,-0.56771 0.19271,-1.14583 0.14583,-1.72917c4.51563,-0.01042 9.03125,-0.05729 13.53646,-0.14063c3.5,0.8125 5.66146,2.97396 6.47917,6.47917c0.14583,4.98958 0.19271,9.98437 0.14583,14.97396c-9.84375,-0.08333 -19.68229,0.01042 -29.52083,0.29167c-1.26563,-0.02083 -2.46354,-0.3125 -3.59896,-0.86458c-6.67708,0.49479 -13.39583,0.78646 -20.16146,0.86458c-2.39063,0.00521 -4.40625,-0.85937 -6.04688,-2.59375c-1.86458,1.74479 -4.07292,2.60937 -6.625,2.59375c0,2.01563 0,4.03125 0,6.04688c-3.65104,0 -7.29687,0 -10.94271,0c0,-2.11458 0,-4.22396 0,-6.33854c-3.125,-0.05729 -6.24479,0.04167 -9.35937,0.29167c-1.70833,-0.11458 -3.29167,-0.59375 -4.75521,-1.44271c-13.66667,3.83854 -19.95833,-1.34375 -18.86458,-15.55208c1.67708,-6 5.61458,-9.07292 11.80729,-9.21354c3.54167,0.02604 6.80729,0.98438 9.79167,2.88021c-0.01042,0.625 -0.15625,1.25 -0.42708,1.86979c0.09375,0.14583 0.1875,0.28646 0.28646,0.43229c3.99479,-1.4375 7.78646,-1.05729 11.375,1.15104c0.14063,-0.56771 0.19271,-1.14583 0.14583,-1.72917c3.94271,-0.00521 7.875,-0.05208 11.80729,-0.14063c2.15625,0.125 4.07292,0.84375 5.76042,2.15625c4.8125,-2.80729 9.70833,-2.99479 14.6875,-0.57292c-0.5,-3.52083 0.84375,-5.92188 4.03125,-7.20313zM159.07292,162.7181" fill="#050504"/><path d="M396.95833,174.81706c0,4.98958 0,9.98437 0,14.97396c-10.36979,-0.02604 -20.73958,0.02604 -31.10417,0.14583c-3.13542,-0.78646 -5.05729,-2.75521 -5.75521,-5.90625c-0.33854,-1.64583 -0.23958,-3.28125 0.28646,-4.89583c-0.23437,-0.25521 -0.52604,-0.34896 -0.86458,-0.28646c0,3.64583 0,7.29688 0,10.94271c-6.67708,-0.07812 -13.34896,0.02083 -20.01563,0.29167c-1.22917,0.00521 -2.38021,-0.28125 -3.45833,-0.86458c-0.73958,1.81771 -1.75,3.49479 -3.02083,5.03646c-3.74479,2.22917 -7.63542,2.46875 -11.66667,0.72396c-0.14063,-1.72917 -0.19271,-3.45313 -0.14063,-5.1875c-1.88021,-0.02083 -3.75,0.07813 -5.61979,0.29167c-1.26042,-0.02083 -2.45833,-0.3125 -3.59896,-0.86458c-1.86979,0.36979 -3.79167,0.5625 -5.76042,0.57292c-2.00521,-0.01562 -3.97396,-0.20833 -5.90104,-0.57292c-1.41146,0.43229 -2.85417,0.72396 -4.32292,0.86458c-3.57292,0.21875 -6.59375,-0.93229 -9.07292,-3.45833c-0.86979,0.92708 -1.82813,1.74479 -2.88021,2.44792c-1.39583,0.51042 -2.83854,0.84375 -4.31771,1.01042c-12.59375,-0.09896 -25.17187,-0.38542 -37.72917,-0.86458c-2.4375,0.78646 -4.9375,1.02604 -7.48437,0.71875c-4.60417,-1.04688 -7.33854,-3.88021 -8.20833,-8.49479c-1.22917,0.6875 -2.52604,1.16667 -3.89063,1.4375c-0.28646,0 -0.57813,0 -0.86458,0c0,2.30729 0,4.60937 0,6.91146c-3.55208,0 -7.10417,0 -10.65625,0c0,-8.54167 0,-17.08854 0,-25.63021c3.26563,0 6.53125,0 9.79167,0c1.17187,-0.00521 2.32292,0.14063 3.45833,0.43229c2.85937,0.89063 4.96875,2.66667 6.33333,5.32813c3.94271,-2.24479 7.875,-2.24479 11.8125,0c0.27083,-0.44792 0.36979,-0.92708 0.28646,-1.44271c3.84375,0.05208 7.68229,-0.04688 11.52083,-0.28646c0.76562,0.04687 1.53646,0.09896 2.30208,0.14583c0.68229,0.35417 1.40104,0.59375 2.16146,0.71875c3.44271,-1.42187 6.70833,-1.13542 9.79167,0.86458c0.14063,-2.30208 0.19271,-4.60417 0.14063,-6.91146c3.55208,0 7.10417,0 10.65625,0c-0.08854,1.78125 0.00521,3.51042 0.29167,5.18229c3.02604,-0.03125 5.47396,1.11979 7.34375,3.45833c0.72917,-0.82813 1.54687,-1.54687 2.44792,-2.16146c3.83854,-1.85417 7.58333,-1.70833 11.22917,0.43229c0.29167,-2.29688 0.38542,-4.59896 0.29167,-6.91146c3.54688,0 7.10417,0 10.65625,0c-0.09896,2.26042 0,4.46875 0.28646,6.625c4.48438,-2.07813 8.85417,-1.88542 13.10417,0.57292c-0.13542,-1.23437 -0.13542,-2.47917 0,-3.74479c0.40104,-1.65104 1.41146,-2.75521 3.02083,-3.3125c5.29167,-1.28125 8.07813,0.78646 8.35417,6.19271c4.34896,-1.78125 8.52604,-1.48958 12.52604,0.86458c0.14583,-0.56771 0.19271,-1.14583 0.14583,-1.72917c3.75,0.06771 7.49479,-0.02604 11.23437,-0.28646c1.57813,0.25 3.16146,0.44271 4.75,0.57813c1.72396,-0.23958 3.44792,-0.43229 5.18229,-0.57813c2.41146,0.05208 4.61979,0.72396 6.625,2.01562c0.14583,-0.56771 0.19271,-1.14583 0.14583,-1.72917c4.03646,0.07292 8.06771,-0.02604 12.09375,-0.28646c4.25521,0.32292 6.94792,2.53125 8.0625,6.625zM396.95833,174.81706" fill="#040404"/><path d="M220.70312,164.16081c-3.26042,0 -6.52604,0 -9.79167,0c0,8.54167 0,17.08854 0,25.63021c-0.28646,-8.58854 -0.38021,-17.22917 -0.28646,-25.91667c3.41146,-0.09375 6.77083,0 10.07813,0.28646zM220.70312,164.16081" fill="#786954"/><path d="M159.9375,166.17643c2.84375,-0.08854 3.60937,1.10937 2.30208,3.59896c-2.66146,0.98437 -3.76563,0.07292 -3.3125,-2.73438c0.33333,-0.32812 0.66667,-0.61458 1.01042,-0.86458zM159.9375,166.17643" fill="#f3f3f3"/><path d="M276.28646,173.37435c-0.01563,0.15625 -0.10937,0.25521 -0.28646,0.29167c-0.28646,-2.39583 -0.38021,-4.79167 -0.28646,-7.20312c-1.15104,0 -2.30729,0 -3.45833,0c0,6.625 0,13.25 0,19.875c-0.28646,-6.67188 -0.38021,-13.39063 -0.28646,-20.16146c1.34375,0 2.6875,0 4.03125,0c-0.09375,2.45313 0.00521,4.85417 0.28646,7.19792zM276.28646,173.37435" fill="#d5d5d5"/><path d="M276.28646,173.37435c1.36458,-1.58854 3.08854,-2.11458 5.1875,-1.58333c2.14063,0.875 3.4375,2.45833 3.88542,4.75521c0.58854,3.13021 0.01042,6.00521 -1.72917,8.64063c-2.50521,1.96354 -4.95312,1.91667 -7.34375,-0.14583c-0.27083,-0.14062 -0.55729,-0.1875 -0.85937,-0.14583c0.02083,0.41146 -0.07292,0.79687 -0.29167,1.15104c-0.9375,0.28646 -1.90104,0.38021 -2.88021,0.29167c0,-6.625 0,-13.25 0,-19.875c1.15104,0 2.30729,0 3.45833,0c-0.09375,2.41146 0,4.80729 0.28646,7.20312c0.17708,-0.03646 0.27083,-0.13542 0.28646,-0.29167zM276.28646,173.37435" fill="#fbfbfb"/><path d="M307.96875,186.33789c0,-6.625 0,-13.25 0,-19.875c-1.15104,0 -2.30208,0 -3.45833,0c0,6.625 0,13.25 0,19.875c-0.28646,-6.67188 -0.38021,-13.39063 -0.28646,-20.16146c1.34375,0 2.6875,0 4.03125,0c0.09896,6.77083 0,13.48958 -0.28646,20.16146zM307.96875,186.33789" fill="#d4d4d4"/><path d="M307.96875,186.33789c-1.15104,0 -2.30208,0 -3.45833,0c0,-6.625 0,-13.25 0,-19.875c1.15625,0 2.30729,0 3.45833,0c0,6.625 0,13.25 0,19.875zM307.96875,186.33789" fill="#fefffe"/><path d="M329.28125,166.17643c2.84896,-0.17708 3.71354,1.02083 2.59375,3.59896c-2.56771,1.05208 -3.76562,0.23437 -3.60417,-2.44792c0.31771,-0.41667 0.65625,-0.80208 1.01042,-1.15104zM329.28125,166.17643" fill="#efefef"/><path d="M99.16667,167.32747c1.82813,-0.04687 3.65104,0 5.47396,0.14583c0.95833,0.29688 1.82292,0.72917 2.59375,1.29688c-0.34896,0.93229 -0.73438,1.84375 -1.15104,2.73437c-1.42187,-0.31771 -2.86458,-0.65625 -4.32292,-1.01042c-2.40104,0.14583 -3.89063,1.39583 -4.46354,3.74479c-1.32292,7.94792 1.79688,10.63542 9.35938,8.06771c0,1.15104 0,2.30208 0,3.45313c-2.44271,0.77083 -4.9375,1.01042 -7.48958,0.71875c-2.5625,-0.54688 -4.33854,-2.03646 -5.32813,-4.46354c-2.06771,-5.10417 -1.15625,-9.57292 2.73958,-13.39063c0.89063,-0.44271 1.75521,-0.875 2.58854,-1.29687zM99.16667,167.32747" fill="#f7f7f7"/><path d="M221.56771,167.61914c-2.40104,0 -4.79688,0 -7.19792,0c0,6.23958 0,12.47917 0,18.71875c-0.28646,-6.28646 -0.38542,-12.625 -0.28646,-19.01042c2.54687,-0.09375 5.04167,0.00521 7.48438,0.29167zM221.56771,167.61914" fill="#8c8c8c"/><path d="M221.56771,167.61914c4.29687,0.50521 6.17187,2.90625 5.61458,7.19792c-0.67708,2.79167 -2.45313,4.375 -5.32813,4.75c-1.23958,0.14583 -2.48958,0.19271 -3.73958,0.14583c0,2.20833 0,4.41667 0,6.625c-1.25,0 -2.5,0 -3.74479,0c0,-6.23958 0,-12.47917 0,-18.71875c2.40104,0 4.79687,0 7.19792,0zM221.56771,167.61914" fill="#fbfbfb"/><path d="M218.11458,170.78581c1.36458,-0.06771 2.70833,0.07813 4.03125,0.43229c0.70313,0.53646 0.99479,1.25521 0.86458,2.15625c0.19792,1.57292 -0.47396,2.48438 -2.01563,2.73958c-0.95833,0.14063 -1.91667,0.19271 -2.88021,0.14063c0,-1.82292 0,-3.64583 0,-5.46875zM218.11458,170.78581" fill="#0c0c0c"/><path d="M113.56771,171.65039c1.63542,-0.05208 3.26562,0 4.89583,0.14062c1.96875,0.43229 3.16667,1.63542 3.59896,3.60417c0.14583,3.64583 0.19271,7.29167 0.14583,10.94271c-0.97917,0.08854 -1.9375,-0.00521 -2.88021,-0.29167c-0.21354,-0.52604 -0.50521,-1.00521 -0.86458,-1.4375c-2.1875,2.13542 -4.68229,2.56771 -7.48437,1.29687c-1.61979,-1.43229 -2.14583,-3.20833 -1.58854,-5.32813c0.83854,-1.73958 2.22917,-2.75 4.17708,-3.02604c1.53646,-0.14063 3.06771,-0.19271 4.60937,-0.14063c-0.05729,-2.4375 -1.30208,-3.34896 -3.74479,-2.73958c-0.71875,0.23958 -1.4375,0.47917 -2.16146,0.72396c-0.85417,-0.66146 -1.33333,-1.52604 -1.4375,-2.59375c0.91667,-0.4375 1.83333,-0.82292 2.73438,-1.15104zM113.56771,171.65039" fill="#f8f8f8"/><path d="M146.11458,171.65039c1.9375,-0.09896 3.85937,0.04687 5.76042,0.43229c1.29167,0.52604 2.20833,1.4375 2.73438,2.73438c0.14583,3.83854 0.19271,7.67708 0.14583,11.52083c-0.96354,0 -1.92187,0 -2.88021,0c-0.00521,-0.67708 -0.24479,-1.25 -0.72396,-1.72917c-2.39583,2.25 -5.03646,2.58854 -7.91667,1.01042c-1.08854,-1.60937 -1.42188,-3.38542 -1.01042,-5.32813c0.88542,-1.67187 2.27604,-2.58333 4.17708,-2.73958c1.53125,-0.14063 3.06771,-0.19271 4.60937,-0.14063c0.14583,-1.86979 -0.71875,-2.83333 -2.59375,-2.88021c-1.19271,0.14063 -2.34375,0.42708 -3.45833,0.86458c-0.89062,-0.64063 -1.32292,-1.50521 -1.29167,-2.59375c0.82813,-0.41667 1.64063,-0.80208 2.44792,-1.15104zM146.11458,171.65039" fill="#fafafa"/><path d="M170.30729,171.65039c1.53646,-0.05208 3.07292,0 4.60417,0.14062c2.07292,0.54167 3.36979,1.83333 3.89063,3.89063c0.14063,3.55208 0.19271,7.10417 0.14063,10.65625c-0.96354,0.04687 -1.92188,0 -2.88021,-0.14583c-0.20312,-0.57292 -0.49479,-1.09896 -0.85937,-1.58333c-2.19792,2.13542 -4.69792,2.56771 -7.48958,1.29687c-1.63542,-1.53125 -2.16146,-3.40625 -1.58333,-5.61458c0.98438,-1.52604 2.375,-2.4375 4.17708,-2.73958c1.53125,-0.14063 3.06771,-0.19271 4.60417,-0.14063c0.30208,-1.33854 -0.17708,-2.25 -1.4375,-2.73958c-1.70833,-0.21354 -3.29167,0.11979 -4.75521,1.01042c-0.71354,-0.85417 -1.09896,-1.8125 -1.15104,-2.88021c0.90625,-0.47396 1.81771,-0.85937 2.73958,-1.15104zM170.30729,171.65039" fill="#f7f7f7"/><path d="M315.74479,171.65039c1.53646,-0.05208 3.07813,0 4.60937,0.14062c1.94792,0.51042 3.23958,1.70833 3.88542,3.60417c0.14583,3.64583 0.19271,7.29167 0.14583,10.94271c-0.96354,0.04687 -1.92708,0 -2.88021,-0.14583c-0.20833,-0.57292 -0.49479,-1.09896 -0.86458,-1.58333c-2.19792,2.13542 -4.69271,2.56771 -7.48958,1.29687c-1.63021,-1.53125 -2.15625,-3.40625 -1.58333,-5.61458c0.98437,-1.52604 2.375,-2.4375 4.17708,-2.73958c1.53125,-0.14063 3.06771,-0.19271 4.60937,-0.14063c0.29688,-1.33854 -0.18229,-2.25 -1.44271,-2.73958c-1.70313,-0.21354 -3.28646,0.11979 -4.75,1.01042c-0.71875,-0.85417 -1.09896,-1.8125 -1.15104,-2.88021c0.90104,-0.47396 1.81771,-0.85937 2.73437,-1.15104zM315.74479,171.65039" fill="#f7f7f7"/><path d="M339.65104,171.65039c1.63542,-0.05208 3.26562,0 4.89583,0.14062c1.83333,0.41667 3.03125,1.52083 3.59896,3.3125c0.14063,3.74479 0.19271,7.48958 0.14063,11.23437c-0.97917,0.08854 -1.9375,-0.00521 -2.88021,-0.29167c-0.21354,-0.52604 -0.5,-1.00521 -0.85938,-1.4375c-2.1875,2.13542 -4.6875,2.56771 -7.48958,1.29687c-1.61979,-1.43229 -2.14583,-3.20833 -1.58333,-5.32813c0.83333,-1.73958 2.22396,-2.75 4.17708,-3.02604c1.53125,-0.14063 3.06771,-0.19271 4.60417,-0.14063c-0.05729,-2.4375 -1.30208,-3.34896 -3.74479,-2.73958c-0.71875,0.23958 -1.4375,0.47917 -2.15625,0.72396c-0.85937,-0.66146 -1.33854,-1.52604 -1.44271,-2.59375c0.92187,-0.4375 1.83333,-0.82292 2.73958,-1.15104zM339.65104,171.65039" fill="#f8f8f8"/><path d="M367.58333,171.65039c1.63542,-0.05208 3.26563,0 4.89583,0.14062c1.83854,0.41667 3.03646,1.52083 3.60417,3.3125c0.14063,3.74479 0.19271,7.48958 0.14063,11.23437c-0.97917,0.08854 -1.9375,-0.00521 -2.88021,-0.29167c-0.21354,-0.52604 -0.50521,-1.00521 -0.86458,-1.4375c-2.18229,2.13542 -4.68229,2.56771 -7.48437,1.29687c-1.61979,-1.43229 -2.14583,-3.20833 -1.58854,-5.32813c0.83854,-1.73958 2.22917,-2.75 4.17708,-3.02604c1.53125,-0.14063 3.07292,-0.19271 4.60938,-0.14063c-0.05729,-2.4375 -1.30208,-3.34896 -3.74479,-2.73958c-0.71875,0.23958 -1.4375,0.47917 -2.16146,0.72396c-0.85417,-0.66146 -1.33333,-1.52604 -1.4375,-2.59375c0.91667,-0.4375 1.83333,-0.82292 2.73437,-1.15104zM367.58333,171.65039" fill="#f8f8f8"/><path d="M132.57812,171.65039c3.35417,-0.46354 5.60937,0.88542 6.76563,4.03125c0.77604,2.99479 0.48437,5.875 -0.86458,8.64063c-2.60937,2.79687 -5.39583,2.98958 -8.34896,0.57292c0.125,2.56771 0.17188,5.16146 0.14063,7.77604c-1.34375,0 -2.6875,0 -4.03125,0c0,-6.91146 0,-13.82292 0,-20.73437c1.0625,-0.04688 2.11979,0 3.16667,0.14583c0.23958,0.52083 0.47917,1.04688 0.72396,1.58333c0.70313,-0.85417 1.51563,-1.52604 2.44792,-2.01562zM132.57812,171.65039" fill="#f9f9f9"/><path d="M158.78646,171.93685c1.34375,0 2.6875,0 4.03125,0c0,4.80208 0,9.59896 0,14.40104c-1.34375,0 -2.6875,0 -4.03125,0c0,-4.80208 0,-9.59896 0,-14.40104zM158.78646,171.93685" fill="#fafafa"/><path d="M189.3125,171.65039c2.77604,-0.56771 4.9375,0.29687 6.47917,2.58854c0.41667,4.01042 0.5625,8.04687 0.43229,12.09896c-1.34375,0 -2.6875,0 -4.03125,0c0.04687,-3.36458 0,-6.72396 -0.14583,-10.08333c-0.96875,-1.46875 -2.26562,-1.80729 -3.88542,-1.00521c-0.36979,0.40625 -0.70833,0.83854 -1.01042,1.29688c-0.40625,3.24479 -0.54688,6.51042 -0.43229,9.79167c-1.24479,0 -2.49479,0 -3.73958,0c0,-4.80208 0,-9.59896 0,-14.40104c1.05208,0 2.10937,0 3.16667,0c-0.03646,0.61979 0.10417,1.19792 0.43229,1.72917c0.8125,-0.85937 1.72396,-1.53125 2.73437,-2.01562zM189.3125,171.65039" fill="#fbfbfb"/><path d="M234.53125,171.65039c6.14062,-0.57813 8.92708,2.20833 8.34896,8.34896c-3.07292,0 -6.14583,0 -9.21354,0c-0.04687,1.45313 0.52604,2.55729 1.72396,3.3125c2.1875,0.60937 4.29687,0.36979 6.33854,-0.71875c0.38542,1.05729 0.38542,2.10937 0,3.16667c-3.23958,1.27083 -6.40625,1.125 -9.50521,-0.43229c-1.92708,-1.65625 -2.79167,-3.77083 -2.59375,-6.33333c-0.11458,-3.66667 1.52083,-6.11458 4.90104,-7.34375zM234.53125,171.65039" fill="#f8f8f8"/><path d="M252.38542,171.65039c2.49479,-0.47917 4.60417,0.19271 6.33333,2.01562c1.59375,-1.89062 3.60937,-2.51562 6.05208,-1.875c1.58333,0.43229 2.58854,1.44271 3.02083,3.02604c0.14583,3.83854 0.19271,7.67708 0.14583,11.52083c-1.34375,0 -2.6875,0 -4.03125,0c0.04687,-3.45833 0,-6.91667 -0.14583,-10.36979c-2.07813,-1.79687 -3.61458,-1.41146 -4.60937,1.15104c-0.14063,3.07292 -0.19271,6.14583 -0.14063,9.21875c-1.34375,0 -2.6875,0 -4.03125,0c0.04688,-3.26563 0,-6.53125 -0.14583,-9.79167c-0.24479,-1.15625 -0.96354,-1.73437 -2.16146,-1.72917c-1.44792,0.25 -2.26562,1.11458 -2.44792,2.59375c-0.14063,2.97396 -0.19271,5.94792 -0.14063,8.92708c-1.34896,0 -2.69271,0 -4.03646,0c0,-4.80208 0,-9.59896 0,-14.40104c1.07292,-0.09375 2.13021,0.00521 3.17188,0.28646c0.14583,0.5 0.33854,0.97917 0.57292,1.44271c0.78646,-0.79167 1.65104,-1.46354 2.59375,-2.01562zM252.38542,171.65039" fill="#f9f9f9"/><path d="M299.61458,182.87956c0.54687,0.71875 0.73437,1.58333 0.57813,2.59375c-1.42188,0.91667 -3.00521,1.30208 -4.75,1.15104c-3.90104,0.06771 -6.40104,-1.75521 -7.48958,-5.47396c-0.83854,-6.54687 1.99479,-9.66667 8.49479,-9.35938c3.86979,1.34375 5.40625,4.08333 4.60937,8.20833c-3.07292,0 -6.14583,0 -9.21875,0c0.38021,2.88021 2.01042,4.07813 4.89583,3.59896c0.96875,-0.23958 1.92708,-0.47917 2.88021,-0.71875zM299.61458,182.87956" fill="#f8f8f8"/><path d="M324.67187,192.38477c-0.16146,-1.10417 0.03125,-2.0625 0.57813,-2.88021c1.4375,0.33333 2.44271,-0.15104 3.02083,-1.4375c0.14583,-5.38021 0.19271,-10.75521 0.14583,-16.13021c1.24479,0 2.49479,0 3.74479,0c0.13542,6.16146 -0.01042,12.30729 -0.43229,18.43229c-0.66667,1.17708 -1.67187,1.89583 -3.02604,2.16146c-1.36458,0.21875 -2.71354,0.17187 -4.03125,-0.14583zM324.67187,192.38477" fill="#fdfdfd"/><path d="M358.94271,171.65039c0.86458,0 1.72917,0 2.59375,0c0,1.24479 0,2.49479 0,3.74479c-1.18229,-0.07813 -2.33333,0.0625 -3.45313,0.42708c-0.72396,0.33854 -1.25,0.86458 -1.58854,1.58854c-0.14063,2.97396 -0.19271,5.94792 -0.14063,8.92708c-1.34896,0 -2.6875,0 -4.03125,0c0,-4.80208 0,-9.59896 0,-14.40104c1.05729,0 2.10937,0 3.16667,0c0.05208,0.78125 0.19271,1.55208 0.43229,2.30208c0.89063,-1.04167 1.90104,-1.90104 3.02083,-2.58854zM358.94271,171.65039" fill="#f9f9f9"/><path d="M386.59375,171.65039c3.08854,-0.625 5.34375,0.43229 6.76563,3.16667c0.14583,3.83854 0.19271,7.67708 0.14583,11.52083c-1.34375,0 -2.6875,0 -4.03125,0c0.04687,-3.45833 0,-6.91667 -0.14583,-10.36979c-2.01042,-1.74479 -3.64063,-1.45313 -4.89583,0.86458c-0.14583,3.16667 -0.19271,6.33333 -0.14583,9.50521c-1.34375,0 -2.68229,0 -4.03125,0c0,-4.80208 0,-9.59896 0,-14.40104c1.05729,0 2.11458,0 3.17188,0c0.05208,0.59375 0.19792,1.17187 0.42708,1.72917c0.80729,-0.85417 1.71875,-1.52604 2.73958,-2.01562zM386.59375,171.65039" fill="#f9f9f9"/><path d="M101.18229,173.95247c2.39583,0.43229 4.60417,1.34375 6.625,2.73438c-0.47917,0.67187 -0.95833,1.34375 -1.4375,2.01562c-1.66667,0.71875 -3.39583,1.00521 -5.1875,0.86458c-0.14063,-0.14063 -0.28646,-0.28646 -0.42708,-0.43229c-0.29687,-1.78646 -0.15104,-3.51563 0.42708,-5.18229zM101.18229,173.95247" fill="#f7d9ad"/><path d="M235.39062,174.5306c2.27083,-0.32292 3.52083,0.64063 3.74479,2.88021c-1.82292,0 -3.64583,0 -5.46875,0c0.14063,-1.25 0.71354,-2.20833 1.72396,-2.88021zM235.39062,174.5306" fill="#060606"/><path d="M293.56771,174.5306c2.32292,-0.33854 3.57292,0.61979 3.74479,2.88021c-1.72917,0 -3.45833,0 -5.18229,0c-0.125,-1.29167 0.35417,-2.25521 1.4375,-2.88021zM293.56771,174.5306" fill="#060606"/><path d="M131.71354,174.81706c2.23958,-0.30208 3.53646,0.65625 3.88542,2.88021c0.22917,1.58333 0.03646,3.11979 -0.57292,4.60937c-1.01042,1.18229 -2.21354,1.42188 -3.59896,0.71875c-0.52604,-0.52083 -0.85937,-1.14063 -1.01042,-1.875c-0.19271,-1.53125 -0.19271,-3.06771 0,-4.60417c0.38542,-0.625 0.81771,-1.19792 1.29687,-1.72917zM131.71354,174.81706" fill="#080808"/><path d="M277.72917,174.81706c1.82813,-0.21354 3.02604,0.55208 3.59896,2.30208c0.44271,2.1875 0.01042,4.15625 -1.29687,5.90625c-1.97396,0.80729 -3.27083,0.1875 -3.88542,-1.875c-0.19271,-1.53125 -0.19271,-3.06771 0,-4.60417c0.39063,-0.72917 0.91667,-1.30208 1.58333,-1.72917zM277.72917,174.81706" fill="#080808"/><path d="M82.75521,176.54622c3.14583,0.15625 5.30729,1.69271 6.47917,4.60417c0.72917,5.07813 -1.43229,7.95833 -6.47917,8.64062c-2.79167,-0.14583 -4.76042,-1.48958 -5.90625,-4.03125c-1.29687,-5.18229 0.67187,-8.25521 5.90625,-9.21354zM82.75521,176.54622" fill="#fffdfd"/><path d="M360.09896,184.0306c-0.19271,1.92187 -0.38542,3.84375 -0.57813,5.76042c0,-3.64583 0,-7.29687 0,-10.94271c0.33854,-0.0625 0.63021,0.03125 0.86458,0.28646c-0.52604,1.61458 -0.625,3.25 -0.28646,4.89583zM360.09896,184.0306" fill="#766753"/><path d="M115.01042,179.71289c1.05208,0 2.10937,0 3.16667,0c0.30729,3.00521 -1.03646,4.30208 -4.03125,3.88542c-0.80208,-0.63542 -1.04687,-1.44792 -0.71875,-2.44792c0.49479,-0.54687 1.02604,-1.02604 1.58333,-1.4375zM115.01042,179.71289" fill="#0d0d0d"/><path d="M147.83854,179.71289c1.05729,0 2.11458,0 3.17188,0c-0.03125,3.30208 -1.5625,4.45312 -4.60937,3.45312c-0.71354,-1.6875 -0.22917,-2.83854 1.4375,-3.45312zM147.83854,179.71289" fill="#0e0e0e"/><path d="M171.74479,179.71289c1.05729,0 2.10937,0 3.16667,0c0.29167,3.02083 -1.05208,4.31771 -4.03125,3.88542c-1.30208,-1.64583 -1.01042,-2.94271 0.86458,-3.88542zM171.74479,179.71289" fill="#0d0d0d"/><path d="M317.18229,179.71289c1.05729,0 2.11458,0 3.17187,0c0.29167,3.02083 -1.05729,4.31771 -4.03125,3.88542c-1.30208,-1.64583 -1.01563,-2.94271 0.85937,-3.88542zM317.18229,179.71289" fill="#0d0d0d"/><path d="M341.08854,179.71289c1.05729,0 2.10938,0 3.16667,0c0.30729,3.00521 -1.03646,4.30208 -4.03125,3.88542c-0.80208,-0.63542 -1.04167,-1.44792 -0.71875,-2.44792c0.5,-0.54687 1.02604,-1.02604 1.58333,-1.4375zM341.08854,179.71289" fill="#0d0d0d"/><path d="M369.02604,179.71289c1.05729,0 2.10937,0 3.16667,0c0.30729,3.00521 -1.04167,4.30208 -4.03125,3.88542c-0.80208,-0.63542 -1.04167,-1.44792 -0.71875,-2.44792c0.49479,-0.54687 1.02083,-1.02604 1.58333,-1.4375zM369.02604,179.71289" fill="#0d0d0d"/><path d="M299.61458,182.87956c0.20833,-0.26042 0.49479,-0.35417 0.86458,-0.28646c0.08854,1.02083 -0.00521,1.97917 -0.28646,2.88021c0.15625,-1.01042 -0.03125,-1.875 -0.57813,-2.59375zM299.61458,182.87956" fill="#7c7c7c"/><path d="M222.43229,182.87956c-0.45833,2.28125 -0.75,4.58333 -0.86458,6.91146c0,-2.30208 0,-4.60417 0,-6.91146c0.28646,0 0.57812,0 0.86458,0zM222.43229,182.87956" fill="#9e8b6e"/><path d="M325.25,189.50456c-0.54687,0.81771 -0.73958,1.77604 -0.57813,2.88021c-0.28125,-0.99479 -0.375,-2.05208 -0.28646,-3.16667c0.36979,-0.06771 0.66146,0.02604 0.86458,0.28646zM325.25,189.50456" fill="#6f6f6f"/></g></g></svg>