<svg version="1.1" xmlns="http://www.w3.org/2000/svg" xmlns:xlink="http://www.w3.org/1999/xlink" width="397.50849" height="370.04224" viewBox="0,0,397.50849,370.04224"><g transform="translate(-41.24576,5.02112)"><g fill-rule="evenodd" stroke="none" stroke-miterlimit="10"><path d="M75.29483,-5.02111c109.85174,0 219.70313,0 329.55487,0c8.5745,1.77261 13.91754,6.94474 16.02237,15.5164c0.37779,3.24825 0.60379,6.50893 0.67463,9.78207c4.53349,5.58873 7.12068,11.99755 7.7582,19.22684c0.11132,3.26081 0.226,6.52128 0.33731,9.78207c2.28024,1.92336 4.92477,2.99129 7.92686,3.20448c1.4572,1.1897 1.57188,2.42663 0.33731,3.71045c-2.94812,0.24455 -5.70397,1.08783 -8.26417,2.52985c-0.11132,91.52417 -0.226,183.04866 -0.33731,274.57283c-2.7491,16.91625 -12.47721,27.31899 -29.17759,31.20146c-50.0269,0.39128 -100.0629,0.55994 -150.10431,0.50597c-49.02272,-0.05734 -98.04578,-0.11132 -147.06849,-0.16866c-7.0856,-0.73535 -13.38222,-3.31916 -18.88953,-7.7582c-5.85913,0.50597 -11.36846,-0.62066 -16.52834,-3.37313c-4.88328,-3.41024 -7.75044,-8.07865 -8.60148,-13.99849c-0.11233,-13.71751 -0.22499,-27.43468 -0.33731,-41.15219c0.05093,-5.594 -1.186,-10.87868 -3.71045,-15.85371c-2.9579,-4.54631 -7.17431,-7.07616 -12.64924,-7.58954c-1.03589,-0.95223 -1.26088,-2.0765 -0.67463,-3.37313c7.1055,-1.25717 11.99654,-5.24859 14.67312,-11.97462c0.99237,-2.62024 1.667,-5.31875 2.02388,-8.09551c0.44593,-79.93814 0.67092,-159.88133 0.67463,-239.82959c1.76279,-9.23941 7.21614,-14.86131 16.35968,-16.86565z" fill="#232020" opacity="0.984"/><path d="M74.95751,-0.97335c109.62675,-0.05623 219.25349,0 328.88024,0.16866c7.431,1.24576 11.87005,5.5746 13.32386,12.98655c0.35418,7.66551 0.13155,15.31125 -0.67463,22.93729c-0.92424,5.84462 -3.56877,10.73566 -7.92686,14.67312c-2.62092,1.58334 -5.43074,2.70795 -8.43283,3.37313c-0.44862,0.89962 -0.44862,1.79889 0,2.6985c8.55763,1.36174 13.90067,6.25277 16.02237,14.67312c0.67463,3.33535 1.01194,6.70849 1.01194,10.11939c0.226,86.23982 0.226,172.4793 0,258.71912c-1.53477,7.38041 -5.97382,11.82283 -13.32386,13.32386c-109.40176,0.226 -218.80386,0.226 -328.20561,0c-7.06198,-1.55164 -11.2784,-5.88274 -12.64924,-12.98655c-0.32551,-15.75084 -0.21284,-31.49222 0.33731,-47.22383c0.66991,-5.05093 2.58112,-9.54865 5.73432,-13.49252c2.65736,-2.6108 5.86182,-3.90373 9.61343,-3.8791c1.65756,-1.06962 1.76989,-2.30621 0.33731,-3.71045c-6.93178,-1.30742 -11.59784,-5.29919 -13.99849,-11.97462c-1.09222,-2.82668 -1.76685,-5.74984 -2.02388,-8.77014c-0.22499,-79.83087 -0.22499,-159.66141 0,-239.49228c1.81643,-6.25726 5.80785,-10.30502 11.97462,-12.14327z" fill="#fdd14b"/><path d="M419.01683,40.51616c1.62585,4.20528 3.98704,7.97206 7.08357,11.29999c1.12325,0.78696 2.24988,1.57424 3.37313,2.36119c-2.51298,1.22815 -4.5942,2.97071 -6.24029,5.22835c-1.6191,2.44788 -2.96835,5.03406 -4.04776,7.7582c-1.90582,-5.66922 -5.44761,-9.94196 -10.62536,-12.81789c5.20137,-3.31849 8.68581,-7.92821 10.4567,-13.82984z" fill="#fbfbfb"/><path d="M196.39021,112.36384c28.8966,0 57.79286,0 86.68946,0c0,14.72945 0,29.45856 0,44.18801c-8.65849,-0.05633 -17.31597,0 -25.97311,0.16866c0.41995,0.26681 0.86959,0.43547 1.34926,0.50597c17.62393,5.537 28.36162,17.34296 32.21339,35.41787c2.06705,13.64296 -0.06915,26.57319 -6.40895,38.791c-7.34229,11.15629 -17.51802,18.40853 -30.52683,21.75669c-17.01609,3.78736 -33.88175,3.22505 -50.59696,-1.68656c-4.86169,-1.92538 -9.58407,-4.11792 -14.16715,-6.57761c-0.11198,-16.02339 0.00033,-31.98943 0.33731,-47.89846c6.56546,3.33907 13.08707,6.76852 19.56416,10.28805c8.42979,3.51345 17.19993,5.08735 26.31042,4.72238c7.1227,-0.58085 9.4279,-4.2353 6.91492,-10.96267c-1.89773,-1.1951 -3.97793,-1.92605 -6.24029,-2.19253c-8.28104,-0.72825 -16.32055,0.33967 -24.11788,3.20448c-7.01948,-3.62207 -13.99039,-7.33252 -20.9134,-11.13133c1.78473,-26.19574 3.63994,-52.39382 5.56567,-78.59395z" fill="#232020"/><path d="M196.39021,112.36384c28.95225,-0.33697 57.96118,-0.44964 87.02677,-0.33731c0,14.84178 0,29.68355 0,44.52532c-0.11233,0 -0.22499,0 -0.33731,0c0,-14.72945 0,-29.45856 0,-44.18801c-28.8966,0 -57.79286,0 -86.68946,0z" fill="#786531"/><path d="M227.42301,165.6593c-0.32821,0.82574 -0.44053,1.72536 -0.33731,2.6985c0.53936,0.0904 0.989,-0.02226 1.34926,-0.33731c7.36422,-1.46327 14.78511,-1.74459 22.26266,-0.84329c16.61537,3.2345 26.22879,13.18523 28.84027,29.8522c1.752,28.26886 -11.45954,43.84125 -39.63429,46.71786c-9.7841,0.74378 -19.45386,0.06915 -29.00893,-2.02388c-3.48815,-0.99406 -6.86129,-2.28698 -10.11939,-3.8791c-0.39331,-7.30586 -0.44964,-14.61443 -0.16866,-21.92535c11.49731,5.81629 23.69692,8.34613 36.59847,7.58954c12.74369,-1.72468 18.42201,-8.97691 17.03431,-21.75669c-0.76199,-5.85002 -3.8538,-9.95377 -9.27611,-12.31193c-4.72609,-1.73413 -9.61713,-2.57741 -14.67312,-2.52985c-5.87903,0.3471 -11.66968,1.24637 -17.37163,2.6985c-3.30129,-1.59448 -6.56208,-3.28104 -9.78207,-5.05969c-0.11233,-0.39364 -0.22499,-0.78696 -0.33731,-1.1806c1.45416,-19.84683 2.91607,-39.69197 4.38507,-59.53576c21.47571,0 42.95108,0 64.4268,0c0,7.08357 0,14.16715 0,21.25072c-14.16715,0 -28.3343,0 -42.50145,0c-0.46077,6.86804 -1.02307,13.72662 -1.68656,20.5761z" fill="#fefefe"/><path d="M283.07967,156.55185c0.11233,0 0.22499,0 0.33731,0c-8.3205,0.22499 -16.64067,0.44964 -24.96117,0.67463c-0.47966,-0.0705 -0.92929,-0.23915 -1.34926,-0.50597c8.65714,-0.16866 17.31462,-0.22499 25.97311,-0.16866z" fill="#8f7835"/><path d="M227.42301,165.6593c0,0.78696 0,1.57424 0,2.36119c0.33731,0 0.67463,0 1.01194,0c-0.36025,0.31505 -0.80988,0.42771 -1.34926,0.33731c-0.10322,-0.97315 0.00911,-1.87276 0.33731,-2.6985z" fill="#7b7979"/><path d="M189.30664,197.02942c-0.33697,15.90903 -0.4493,31.87507 -0.33731,47.89846c-0.44897,-16.02304 -0.44897,-32.10141 0,-48.23577c0.20475,0.04182 0.31708,0.15415 0.33731,0.33731z" fill="#bd9e3e"/><path d="M60.45305,259.43233c1.57661,3.2581 3.43182,6.40659 5.56567,9.44477c1.58942,1.42279 3.21999,2.77203 4.89104,4.04776c-4.93489,3.10665 -8.25169,7.49172 -9.95073,13.15521c-1.97159,-5.791 -5.62571,-10.11973 -10.96267,-12.98655c5.23476,-3.21796 8.72022,-7.7717 10.4567,-13.66118z" fill="#fbfbfb"/></g></g></svg>