<svg version="1.1" xmlns="http://www.w3.org/2000/svg" xmlns:xlink="http://www.w3.org/1999/xlink" width="380.33325" height="357.56519" viewBox="0,0,380.33325,357.56519"><g transform="translate(-54.67222,1.53138)"><g fill-rule="evenodd" stroke="none" stroke-miterlimit="10"><path d="M87.25014,-1.53135c105.10534,0 210.21036,0 315.31571,0c8.20402,1.69602 13.3162,6.64467 15.33009,14.84597c0.36146,3.10791 0.5777,6.22769 0.64548,9.35941c4.33761,5.34726 6.81302,11.47917 7.42299,18.39611c0.10651,3.11992 0.21623,6.23951 0.32274,9.35941c2.18171,1.84026 4.71199,2.86204 7.58436,3.06602c1.39423,1.1383 1.50397,2.32178 0.32274,3.55013c-2.82074,0.23399 -5.45751,1.04083 -7.9071,2.42054c-0.10651,87.56966 -0.21623,175.13963 -0.32274,262.70929c-2.63031,16.18535 -11.9381,26.1386 -27.9169,29.85332c-47.86538,0.37438 -95.73947,0.53575 -143.61872,0.48411c-46.90458,-0.05487 -93.80948,-0.10651 -140.71408,-0.16138c-6.77944,-0.70357 -12.80402,-3.17575 -18.07337,-7.42299c-5.60597,0.48411 -10.87726,-0.59384 -15.8142,-3.22739c-4.67228,-3.26289 -7.41556,-7.72959 -8.22984,-13.39366c-0.10747,-13.12481 -0.21526,-26.2493 -0.32274,-39.37412c0.04873,-5.3523 -1.13475,-10.40865 -3.55013,-15.16871c-2.83009,-4.34988 -6.86433,-6.77042 -12.10269,-7.26163c-0.99114,-0.9111 -1.2064,-1.98678 -0.64548,-3.22739c6.79849,-1.20285 11.47819,-5.02182 14.03914,-11.45722c0.9495,-2.50704 1.59498,-5.08894 1.93643,-7.74572c0.42667,-76.48422 0.64193,-152.9733 0.64548,-229.46721c1.68664,-8.8402 6.90435,-14.2192 15.65283,-16.13694z" fill="#232020" opacity="0.984"/><path d="M75.72906,3.98716c109.07044,-0.05594 218.14088,0 327.2113,0.16781c7.3933,1.23945 11.80981,5.54631 13.25626,12.92064c0.22485,5.36962 0.22485,10.73925 0,16.10886c-0.02013,6.76908 -1.923,12.92166 -5.70522,18.45808c-2.9835,3.42146 -6.7288,5.49078 -11.24264,6.20862c-0.44635,0.89504 -0.44635,1.78976 0,2.6848c8.51421,1.35483 13.83013,6.22105 15.94106,14.59866c0.63094,3.32414 0.96654,6.68014 1.0068,10.06805c0.22485,85.80218 0.22485,171.60404 0,257.40624c-1.52698,7.34296 -5.9435,11.76282 -13.25626,13.25626c-108.8466,0.22485 -217.69352,0.22485 -326.5401,0c-7.03051,-1.55048 -11.22552,-5.85624 -12.58504,-12.92064c-0.32386,-15.6709 -0.21176,-31.33241 0.3356,-46.98418c0.79705,-4.9706 2.69891,-9.44516 5.70522,-13.42405c2.64386,-2.59756 5.83208,-3.88391 9.56464,-3.85941c1.64915,-1.06419 1.7609,-2.2945 0.3356,-3.69162c-6.89661,-1.30079 -11.53898,-5.2723 -13.92746,-11.91384c-1.08667,-2.81233 -1.75787,-5.72067 -2.0136,-8.72563c-0.22384,-79.20191 -0.22384,-158.40383 0,-237.60576c1.50886,-6.59752 5.48038,-10.84848 11.91384,-12.75285z" fill="#da4130"/><path d="M416.12085,42.03837c1.55561,4.02358 3.81477,7.62761 6.77751,10.81174c1.07472,0.75295 2.15267,1.50622 3.22739,2.25917c-2.40441,1.17509 -4.39571,2.84236 -5.97066,5.00245c-1.54915,2.34212 -2.8401,4.81655 -3.87287,7.42299c-1.82348,-5.42427 -5.21223,-9.5124 -10.16627,-12.26407c4.97663,-3.17511 8.31053,-7.58565 10.00491,-13.23228z" fill="#fbfbfb"/><path d="M73.04964,251.49579c1.50848,3.11734 3.28355,6.12977 5.32518,9.03668c1.52075,1.36132 3.08087,2.65227 4.67971,3.87287c-4.72167,2.97243 -7.89515,7.16802 -9.52079,12.58681c-1.8864,-5.54078 -5.38263,-9.68248 -10.489,-12.42543c5.00859,-3.07892 8.34344,-7.4359 10.00491,-13.07092z" fill="#fbfbfb"/></g></g></svg>