<svg version="1.1" xmlns="http://www.w3.org/2000/svg" xmlns:xlink="http://www.w3.org/1999/xlink" width="388.26438" height="361.43686" viewBox="0,0,388.26438,361.43686"><g transform="translate(-45.86781,0.71843)"><g fill-rule="evenodd" stroke="none" stroke-miterlimit="10"><path d="M79.12507,-0.71842c107.29712,0 214.5939,0 321.89102,0c8.3751,1.73139 13.59388,6.78324 15.64977,15.15556c0.369,3.17272 0.58975,6.35757 0.65893,9.55459c4.42806,5.45878 6.95508,11.71855 7.57779,18.77972c0.10872,3.18498 0.22075,6.36962 0.32947,9.55459c2.2272,1.87864 4.81024,2.92173 7.74251,3.12996c1.4233,1.16203 1.53533,2.3702 0.32947,3.62416c-2.87956,0.23886 -5.57132,1.06253 -8.07199,2.47101c-0.10872,89.39576 -0.22075,178.79185 -0.32947,268.18761c-2.68517,16.52287 -12.18705,26.68368 -28.49905,30.47586c-48.86352,0.38218 -97.73593,0.54692 -146.61362,0.4942c-47.88269,-0.05601 -95.76571,-0.10872 -143.6484,-0.16474c-6.92082,-0.71824 -13.07102,-3.24197 -18.45026,-7.57779c-5.72288,0.4942 -11.10409,-0.60622 -16.14397,-3.29468c-4.76972,-3.33093 -7.57021,-7.89078 -8.40146,-13.67296c-0.10972,-13.39851 -0.21976,-26.79668 -0.32947,-40.19519c0.04975,-5.46392 -1.15842,-10.6257 -3.62416,-15.48504c-2.88911,-4.44058 -7.00747,-6.9116 -12.35508,-7.41305c-1.01179,-0.93009 -1.23155,-2.02821 -0.65893,-3.29468c6.94026,-1.22792 11.71756,-5.12653 14.33189,-11.69614c0.9693,-2.55931 1.62824,-5.19506 1.97682,-7.90725c0.43556,-78.07917 0.65532,-156.16327 0.65893,-234.25232c1.72181,-9.02455 7.04833,-14.5157 15.97923,-16.47344z" fill="#232020" opacity="0.984"/><path d="M78.7956,3.23521c107.07736,-0.05492 214.15473,0 321.23209,0.16474c7.25819,1.2168 11.59401,5.44497 13.01402,12.68455c0.22075,5.2715 0.22075,10.543 0,15.8145c-0.01647,6.64176 -1.88456,12.68191 -5.60097,18.12079c-2.92898,3.35893 -6.60585,5.39044 -11.03721,6.09517c-0.4382,0.87869 -0.4382,1.75706 0,2.63575c8.35863,1.33007 13.57741,6.10736 15.64977,14.33189c0.6194,3.26339 0.94886,6.55807 0.98841,9.88406c0.22075,84.2343 0.22075,168.46827 0,252.70258c-1.49909,7.20877 -5.83489,11.54789 -13.01402,13.01402c-106.85761,0.22075 -213.71554,0.22075 -320.57315,0c-6.89776,-1.51556 -11.01612,-5.74594 -12.35508,-12.68455c-0.31794,-15.38455 -0.20789,-30.75987 0.32947,-46.12563c0.65433,-4.93346 2.5211,-9.3266 5.60097,-13.17875c2.59555,-2.55009 5.72551,-3.81295 9.38987,-3.78889c1.61901,-1.04475 1.72872,-2.25257 0.32947,-3.62416c-6.77059,-1.27702 -11.32813,-5.17596 -13.67296,-11.69614c-1.06682,-2.76094 -1.72576,-5.61612 -1.97682,-8.56619c-0.21976,-77.9744 -0.21976,-155.94846 0,-233.92286c1.77419,-6.11175 5.67279,-10.06537 11.69614,-11.86088z" fill="#5679f2"/><path d="M414.85378,43.75987c1.58804,4.10748 3.89432,7.78666 6.91884,11.03721c1.09713,0.76865 2.19755,1.53763 3.29468,2.30628c-2.45454,1.19959 -4.48737,2.90163 -6.09517,5.10676c-1.58145,2.39096 -2.89933,4.91699 -3.95363,7.57779c-1.8615,-5.53738 -5.32092,-9.71077 -10.37827,-12.51981c5.08041,-3.24132 8.48382,-7.74383 10.21354,-13.50822z" fill="#fbfbfb"/><path d="M240.89426,113.93673c13.28846,0 26.57726,0 39.86573,0c-0.10972,24.32632 0.00033,48.59731 0.32947,72.8126c4.61256,0 9.22513,0 13.83769,0c0,13.83769 0,27.67538 0,41.51307c-4.61256,0 -9.22513,0 -13.83769,0c0,8.01696 0,16.03425 0,24.05122c-15.59475,0 -31.18983,0 -46.78457,0c0,-8.01696 0,-16.03425 0,-24.05122c-16.47344,0 -32.94687,0 -49.42032,0c-0.05502,-10.65338 0,-21.30609 0.16474,-31.95848c18.6878,-27.41641 37.30279,-54.87237 55.84496,-82.36721z" fill="#232020"/><path d="M240.89426,113.93673c13.34249,-0.32913 26.74067,-0.43885 40.19519,-0.32947c0,24.38069 0,48.76138 0,73.14208c-0.32913,-24.2153 -0.43918,-48.48628 -0.32947,-72.8126c-13.28846,0 -26.57726,0 -39.86573,0z" fill="#313655"/><path d="M269.55804,125.13866c0,24.38069 0,48.76138 0,73.14208c4.61256,0 9.22513,0 13.83769,0c0,6.15019 0,12.30006 0,18.45026c-4.61256,0 -9.22513,0 -13.83769,0c0,8.01696 0,16.03425 0,24.05122c-7.90725,0 -15.8145,0 -23.72176,0c0,-7.90725 0,-15.8145 0,-23.72176c-16.41776,-0.32913 -32.8912,-0.43885 -49.42032,-0.32947c0,-5.60097 0,-11.20194 0,-16.8029c16.79434,-24.81394 33.59725,-49.63415 50.40873,-74.45996c7.57449,-0.32947 15.15227,-0.43918 22.73335,-0.32947z" fill="#fefefe"/><path d="M245.83628,197.95127c-9.28179,0.10905 -18.50692,-0.00065 -27.67538,-0.32947c7.18999,-10.86292 14.38328,-21.73539 21.58021,-32.61741c2.30859,-3.73749 4.45014,-7.5814 6.42464,-11.53141c0.29916,3.73288 0.24446,7.46675 -0.16474,11.20194c-0.16474,11.09156 -0.21976,22.18379 -0.16474,33.27635z" fill="#242121"/><path d="M218.16091,197.6218c9.16846,0.32881 18.39358,0.43852 27.67538,0.32947c-9.28114,0.43786 -18.61597,0.43786 -28.00485,0c0.04085,-0.19999 0.15056,-0.3097 0.32947,-0.32947z" fill="#c8c7c7"/><path d="M269.55804,125.13866c0.32913,24.2153 0.43918,48.48628 0.32947,72.8126c4.61256,0 9.22513,0 13.83769,0c0,6.36962 0,12.73957 0,19.10919c-4.61256,0 -9.22513,0 -13.83769,0c0,8.01696 0,16.03425 0,24.05122c-8.07397,0.10905 -16.09093,-0.00065 -24.05122,-0.32947c7.90725,0 15.8145,0 23.72176,0c0,-8.01696 0,-16.03425 0,-24.05122c4.61256,0 9.22513,0 13.83769,0c0,-6.15019 0,-12.30006 0,-18.45026c-4.61256,0 -9.22513,0 -13.83769,0c0,-24.38069 0,-48.76138 0,-73.14208z" fill="#9d9c9c"/><path d="M196.41596,199.92809c0,5.60097 0,11.20194 0,16.8029c16.52912,-0.10939 33.00256,0.00033 49.42032,0.32947c-16.58316,0 -33.16663,0 -49.74979,0c-0.10872,-5.76835 0.00099,-11.47902 0.32947,-17.13238z" fill="#bab8b8"/><path d="M64.62844,257.58513c1.53994,3.18234 3.35201,6.2576 5.43624,9.22513c1.55245,1.3897 3.14511,2.70758 4.7773,3.95363c-4.82013,3.0344 -8.0598,7.31751 -9.71933,12.84929c-1.92575,-5.65632 -5.49488,-9.88439 -10.70773,-12.68455c5.11303,-3.14313 8.51743,-7.59096 10.21354,-13.34348z" fill="#fbfbfb"/></g></g></svg>