<svg version="1.1" xmlns="http://www.w3.org/2000/svg" xmlns:xlink="http://www.w3.org/1999/xlink" width="392.23218" height="365.13052" viewBox="0,0,392.23218,365.13052"><g transform="translate(-43.88391,2.56526)"><g fill-rule="evenodd" stroke="none" stroke-miterlimit="10"><path d="M77.48103,-2.56526c108.39362,0 216.78692,0 325.18054,0c8.46068,1.74908 13.7328,6.85256 15.8097,15.31044c0.37277,3.20514 0.59578,6.42253 0.66567,9.65224c4.47331,5.51456 7.02616,11.8383 7.65522,18.97163c0.10983,3.21752 0.22301,6.43471 0.33284,9.65224c2.24997,1.89783 4.85941,2.95158 7.82164,3.16194c1.43785,1.17392 1.55101,2.39443 0.33284,3.66119c-2.90899,0.2413 -5.62825,1.0734 -8.15448,2.49627c-0.10983,90.30932 -0.22301,180.61899 -0.33284,270.92831c-2.71262,16.69172 -12.31159,26.95637 -28.7903,30.78731c-49.36287,0.38609 -98.73474,0.5525 -148.11192,0.49926c-48.37202,-0.05659 -96.74437,-0.10983 -145.11639,-0.16642c-6.99155,-0.72558 -13.20459,-3.27511 -18.63881,-7.65522c-5.78136,0.49926 -11.21757,-0.61242 -16.30895,-3.32835c-4.81846,-3.36497 -7.64756,-7.97142 -8.48731,-13.81268c-0.11083,-13.53544 -0.222,-27.07053 -0.33284,-40.60597c0.05025,-5.51975 -1.17026,-10.73429 -3.66119,-15.64328c-2.91864,-4.48596 -7.07909,-6.98223 -12.48134,-7.4888c-1.02213,-0.93959 -1.24414,-2.04893 -0.66567,-3.32835c7.01118,-1.24048 11.83731,-5.17892 14.47836,-11.81567c0.9792,-2.58547 1.64487,-5.24815 1.99701,-7.98806c0.44001,-78.87709 0.66202,-157.75916 0.66567,-236.64624c1.7394,-9.11677 7.12036,-14.66404 16.14254,-16.64179z" fill="#232020" opacity="0.984"/><path d="M77.14819,1.42877c108.17163,-0.05548 216.34325,0 324.51488,0.16642c7.33237,1.22923 11.71249,5.50061 13.14701,12.81418c0.22301,5.32537 0.22301,10.65075 0,15.97612c-0.01997,6.7133 -1.90714,12.81518 -5.65821,18.30597c-2.95891,3.39326 -6.67336,5.44552 -11.14999,6.15746c-0.44267,0.88767 -0.44267,1.77502 0,2.66269c8.44404,1.34365 13.71616,6.16978 15.8097,14.47836c0.62573,3.29674 0.95857,6.6251 0.9985,9.98507c0.22301,85.09512 0.22301,170.18991 0,255.28503c-1.5144,7.28245 -5.89452,11.66589 -13.14701,13.14701c-107.94963,0.22301 -215.89959,0.22301 -323.8492,0c-6.97258,-1.5377 -11.13302,-5.80798 -12.48134,-12.81418c-0.32119,-15.54176 -0.21002,-31.07421 0.33284,-46.59701c0.79048,-4.92963 2.67667,-9.36733 5.65821,-13.31343c2.62208,-2.57615 5.78402,-3.85191 9.48582,-3.82761c1.63556,-1.05542 1.74639,-2.2756 0.33284,-3.66119c-6.83978,-1.29007 -11.44389,-5.22885 -13.81268,-11.81567c-1.07772,-2.78916 -1.7434,-5.67352 -1.99701,-8.65373c-0.222,-78.54924 -0.222,-157.09848 0,-235.64772c1.49643,-6.54315 5.43521,-10.75908 11.81567,-12.64776z" fill="#da4130"/><path d="M416.64068,42.36757c1.60427,4.14946 3.93412,7.86624 6.98956,11.14999c1.10834,0.7765 2.22001,1.55335 3.32835,2.32985c-2.47963,1.21186 -4.53322,2.93128 -6.15746,5.15895c-1.59761,2.41538 -2.92896,4.96724 -3.99403,7.65522c-1.88052,-5.59397 -5.37529,-9.81 -10.48433,-12.64776c5.13233,-3.27444 8.57052,-7.82298 10.31791,-13.64626z" fill="#fbfbfb"/><path d="M196.96907,113.26159c28.51304,0 57.02575,0 85.53879,0c0,14.53394 0,29.06755 0,43.60148c-8.54356,-0.05558 -17.08613,0 -25.62835,0.16642c0.4663,0.13647 0.90997,0.30288 1.33134,0.49926c17.39001,5.4635 27.98517,17.11275 31.78581,34.94776c2.03995,13.45755 -0.06789,26.21614 -6.32388,38.27611c-7.6276,11.5038 -18.22276,18.77093 -31.78581,21.80074c-16.25769,3.37529 -32.34465,2.70961 -48.26119,-1.99701c-4.79717,-1.89983 -9.45686,-4.06326 -13.9791,-6.4903c-0.1105,-15.8107 0.00033,-31.56481 0.33284,-47.26268c6.25665,3.1839 12.46936,6.45668 18.63881,9.81865c9.03715,4.06359 18.46739,5.61694 28.29104,4.6597c5.23451,-0.86071 7.17628,-3.91149 5.82463,-9.15298c-0.78916,-1.56133 -2.06492,-2.50426 -3.82761,-2.82911c-9.14799,-1.58463 -18.0793,-0.75254 -26.79328,2.49627c-6.92631,-3.57399 -13.8047,-7.23519 -20.63582,-10.98359c1.76104,-25.84803 3.59163,-51.69838 5.49179,-77.55073z" fill="#232020"/><path d="M196.96907,113.26159c28.56796,-0.3325 57.19184,-0.44367 85.87163,-0.33284c0,14.64478 0,29.28954 0,43.93432c-0.11083,0 -0.222,0 -0.33284,0c0,-14.53394 0,-29.06755 0,-43.60148c-28.51304,0 -57.02575,0 -85.53879,0z" fill="#6a2d26"/><path d="M227.58996,165.84964c-0.32385,0.81478 -0.43468,1.70246 -0.33284,2.66269c0.5322,0.0892 0.97588,-0.02197 1.33134,-0.33284c7.26648,-1.44384 14.58886,-1.72142 21.96716,-0.83209c16.39483,3.19156 25.88064,13.01021 28.45746,29.45596c1.72875,27.89363 -11.30743,43.25933 -39.1082,46.09775c-9.65423,0.73391 -19.19564,0.06823 -28.62388,-1.99701c-3.44186,-0.98086 -6.77021,-2.25662 -9.98507,-3.82761c-0.38809,-7.20889 -0.44367,-14.42045 -0.16642,-21.63432c11.34471,5.73908 23.38238,8.23535 36.11268,7.4888c12.57453,-1.70179 18.17749,-8.85775 16.80821,-21.4679c-0.75188,-5.77238 -3.80265,-9.82166 -9.15298,-12.14851c-4.66336,-1.71111 -9.48948,-2.5432 -14.47836,-2.49627c-5.80099,0.34249 -11.51479,1.22982 -17.14104,2.66269c-3.25746,-1.57331 -6.47498,-3.2375 -9.65224,-4.99253c-0.11083,-0.38842 -0.222,-0.7765 -0.33284,-1.16492c1.43485,-19.58339 2.87737,-39.16511 4.32687,-58.74552c21.19066,0 42.38097,0 63.57163,0c0,6.98956 0,13.9791 0,20.96866c-13.9791,0 -27.9582,0 -41.93731,0c-0.45466,6.77687 -1.00949,13.54442 -1.66418,20.30298z" fill="#fefefe"/><path d="M282.50786,156.86307c0.11083,0 0.222,0 0.33284,0c-8.21006,0.222 -16.41978,0.44367 -24.62985,0.66567c-0.42137,-0.19637 -0.86504,-0.36279 -1.33134,-0.49926c8.54223,-0.16642 17.08479,-0.222 25.62835,-0.16642z" fill="#7e3028"/><path d="M227.58996,165.84964c0,0.7765 0,1.55335 0,2.32985c0.33284,0 0.66567,0 0.9985,0c-0.35547,0.31087 -0.79914,0.42204 -1.33134,0.33284c-0.10185,-0.96023 0.00898,-1.84791 0.33284,-2.66269z" fill="#7b7979"/><path d="M189.97952,196.80337c-0.3325,15.69786 -0.44334,31.45198 -0.33284,47.26268c-0.44301,-15.81037 -0.44301,-31.67531 0,-47.59551c0.20204,0.04127 0.31287,0.15211 0.33284,0.33284z" fill="#a5372b"/><path d="M62.83625,258.37798c1.55567,3.21486 3.38627,6.32155 5.49179,9.3194c1.56832,1.4039 3.17725,2.73524 4.82612,3.99403c-4.86939,3.06541 -8.14216,7.39228 -9.81865,12.9806c-1.94542,-5.71412 -5.55104,-9.9854 -10.81717,-12.81418c5.16528,-3.17526 8.60448,-7.66853 10.31791,-13.47985z" fill="#fbfbfb"/></g></g></svg>