<svg version="1.1" xmlns="http://www.w3.org/2000/svg" xmlns:xlink="http://www.w3.org/1999/xlink" width="382.3271" height="355.90984" viewBox="0,0,382.3271,355.90984"><g transform="translate(-48.83645,-2.04508)"><g fill-rule="evenodd" stroke="none" stroke-miterlimit="10"><path d="M81.58514,2.0451c105.65635,0 211.31237,0 316.96872,0c8.24703,1.70491 13.38601,6.67951 15.41046,14.9238c0.36336,3.1242 0.58074,6.26034 0.64887,9.40849c4.36035,5.3753 6.84873,11.53934 7.4619,18.49255c0.10707,3.13627 0.21737,6.27221 0.32443,9.40849c2.19315,1.8499 4.73668,2.87705 7.62412,3.08209c1.40155,1.14427 1.51185,2.33395 0.32443,3.56873c-2.83553,0.23521 -5.48612,1.04629 -7.94855,2.43323c-0.10707,88.02874 -0.21737,176.05779 -0.32443,264.08653c-2.64411,16.27019 -12.00069,26.27564 -28.06325,30.00983c-48.1163,0.37633 -96.24137,0.53856 -144.37163,0.48664c-47.15048,-0.05516 -94.30128,-0.10707 -141.45175,-0.16221c-6.81499,-0.70726 -12.87114,-3.1924 -18.16812,-7.4619c-5.63537,0.48664 -10.93429,-0.59695 -15.8971,-3.2443c-4.69678,-3.27999 -7.45445,-7.77012 -8.27298,-13.46387c-0.10803,-13.19363 -0.2164,-26.38692 -0.32443,-39.58053c0.04899,-5.38036 -1.1407,-10.46321 -3.56873,-15.24824c-2.84493,-4.37268 -6.90032,-6.8059 -12.16615,-7.29969c-0.99633,-0.91587 -1.21272,-1.99719 -0.64887,-3.2443c6.83413,-1.20915 11.53838,-5.04814 14.11274,-11.51729c0.95447,-2.52017 1.60334,-5.11562 1.94659,-7.78634c0.4289,-76.88519 0.64529,-153.77525 0.64887,-230.67018c1.69547,-8.88655 6.94054,-14.29374 15.73488,-16.22153z" fill="#232020" opacity="0.984"/><path d="M81.26072,5.93827c105.43995,-0.05408 210.8799,0 316.31987,0.16221c7.14721,1.19819 11.41671,5.3617 12.81501,12.49058c0.21737,5.19089 0.21737,10.38178 0,15.57267c-0.01946,6.54377 -1.85899,12.49155 -5.51532,17.84368c-2.88419,3.30757 -6.50483,5.30801 -10.86843,6.00197c-0.43149,0.86526 -0.43149,1.73019 0,2.59545c8.2308,1.30973 13.36979,6.01397 15.41046,14.11274c0.60993,3.21349 0.93436,6.4578 0.97329,9.73291c0.21737,82.9462 0.21737,165.89209 0,248.83829c-1.47616,7.09854 -5.74567,11.37129 -12.81501,12.81501c-105.22356,0.21737 -210.44744,0.21737 -315.671,0c-6.79649,-1.49887 -10.85188,-5.66132 -12.16615,-12.49058c-0.31308,-15.14929 -0.20471,-30.2895 0.32443,-45.42029c0.77052,-4.80515 2.60908,-9.13077 5.51532,-12.97723c2.55586,-2.5111 5.63795,-3.75464 9.24627,-3.73096c1.59425,-1.02877 1.70228,-2.21813 0.32443,-3.56873c-6.66705,-1.2575 -11.1549,-5.09681 -13.46387,-11.51729c-1.05051,-2.71873 -1.69936,-5.53024 -1.94659,-8.43519c-0.2164,-76.56563 -0.2164,-153.13125 0,-229.69689c1.45863,-6.37791 5.29796,-10.48738 11.51729,-12.32836z" fill="#da4130"/><path d="M412.17995,45.84324c1.56376,4.04468 3.83477,7.66759 6.81305,10.86843c1.08036,0.7569 2.16396,1.51412 3.2443,2.27101c-2.417,1.18126 -4.41875,2.85726 -6.00197,5.02868c-1.55727,2.35439 -2.85499,4.84181 -3.89317,7.4619c-1.83303,-5.4527 -5.23956,-9.56227 -10.21957,-12.32836c5.00272,-3.19175 8.35409,-7.62541 10.05735,-13.30166z" fill="#fbfbfb"/><path d="M224.33462,211.62729c0.55121,0.05191 1.09203,-0.00194 1.62216,-0.16221c-0.84904,-0.26668 -1.71429,-0.4289 -2.59545,-0.48664c-15.69985,-2.79529 -26.35188,-11.66328 -31.95642,-26.60331c-2.82028,-8.75508 -3.79357,-17.73111 -2.91988,-26.92774c1.34671,-15.08213 8.10557,-27.03221 20.27692,-35.84959c10.97063,-6.62487 22.8662,-9.22032 35.68737,-7.78634c20.80476,2.79984 34.91749,13.99269 42.3382,33.57857c4.02034,12.13695 5.31806,24.57335 3.89317,37.30952c-0.48242,13.12257 -3.61838,25.55929 -9.40849,37.30952c-8.56334,15.36634 -21.48671,24.93704 -38.76946,28.71211c-15.46139,3.13627 -30.81799,2.75766 -46.06915,-1.13551c-0.32443,-14.16529 -0.43247,-28.33188 -0.32443,-42.50041c5.83456,1.35028 11.67432,2.70218 17.51925,4.05538c3.55446,0.42792 7.12319,0.59013 10.70621,0.48664z" fill="#242020"/><path d="M207.46423,240.50161c-0.10707,-6.4367 0.00098,-12.81728 0.32443,-19.14141c7.51674,1.39051 15.08667,1.66076 22.71014,0.81108c15.02535,-1.97384 23.73113,-10.46321 26.11666,-25.46781c0.51131,-3.11713 0.78155,-6.25307 0.81108,-9.40849c-0.38121,-0.07105 -0.70563,0.03698 -0.97329,0.32443c-4.45541,7.53425 -11.05205,11.69767 -19.79027,12.49058c-22.45319,1.55695 -34.83542,-8.87869 -37.14731,-31.30755c-0.91522,-9.7592 0.92301,-18.95161 5.51532,-27.57661c6.64986,-9.73681 15.89613,-15.19795 27.73882,-16.38375c25.16121,-1.34379 40.46364,10.28186 45.90693,34.87629c1.80935,13.58618 1.37688,27.10424 -1.29772,40.55382c-5.80536,25.26958 -21.6486,38.94952 -47.52909,41.04048c-5.73171,0.2164 -11.4631,0.2164 -17.19483,0c-1.81065,-0.04867 -3.54084,-0.31891 -5.19089,-0.81108z" fill="#fdfdfd"/><path d="M234.71639,144.14572c7.68577,-1.10339 13.57937,1.60009 17.68147,8.11077c3.07885,5.22917 4.16017,10.85253 3.2443,16.87039c-1.88981,6.21545 -5.94519,10.27083 -12.16615,12.16615c-11.53448,2.50947 -18.40138,-1.9787 -20.60135,-13.46387c-0.54504,-4.99655 -0.00422,-9.86302 1.62216,-14.59938c2.06241,-4.60691 5.46892,-7.63514 10.21957,-9.08406z" fill="#242020"/><path d="M236.66298,155.17637c1.85023,-0.30594 3.47238,0.12653 4.86646,1.29772c2.95524,3.4753 3.76632,7.36847 2.43323,11.6795c-2.46307,2.37159 -5.32877,3.0743 -8.59741,2.1088c-0.43993,-0.77798 -0.81854,-1.58906 -1.13551,-2.43323c-0.2164,-2.91988 -0.2164,-5.83976 0,-8.75962c0.41397,-1.59327 1.22505,-2.89101 2.43323,-3.89317z" fill="#d84130"/><path d="M223.36132,210.97843c0.88115,0.05774 1.74641,0.21997 2.59545,0.48664c-0.53012,0.16027 -1.07095,0.21412 -1.62216,0.16221c-0.32443,-0.2164 -0.64887,-0.43247 -0.97329,-0.64887z" fill="#752f28"/><path d="M207.78865,221.36021c-0.32346,6.32412 -0.43149,12.7047 -0.32443,19.14141c-0.43084,-6.43573 -0.43084,-12.92435 0,-19.46584c0.19693,0.04023 0.30496,0.14827 0.32443,0.32443z" fill="#828080"/><path d="M67.31019,256.39872c1.51639,3.13368 3.30076,6.16191 5.3531,9.08406c1.52872,1.36845 3.09702,2.66617 4.70425,3.89317c-4.74643,2.98801 -7.93655,7.2056 -9.5707,12.65279c-1.8963,-5.56982 -5.41086,-9.73325 -10.54399,-12.49058c5.03483,-3.09507 8.38718,-7.47488 10.05735,-13.13944z" fill="#fbfbfb"/></g></g></svg>