<svg version="1.1" xmlns="http://www.w3.org/2000/svg" xmlns:xlink="http://www.w3.org/1999/xlink" width="384.10031" height="357.56054" viewBox="0,0,384.10031,357.56054"><g transform="translate(-47.94984,-1.21973)"><g fill-rule="evenodd" stroke="none" stroke-miterlimit="10"><path d="M80.85042,1.21973c106.14638,0 212.29243,0 318.4388,0c8.28527,1.71282 13.44809,6.71048 15.48193,14.99303c0.36505,3.13869 0.58343,6.28938 0.65187,9.45213c4.38057,5.40023 6.8805,11.59287 7.49651,18.57831c0.10755,3.15082 0.21838,6.30131 0.32593,9.45213c2.20332,1.85849 4.75865,2.8904 7.65948,3.09639c1.40804,1.14957 1.51886,2.34477 0.32593,3.58529c-2.84867,0.2363 -5.51157,1.05114 -7.98542,2.44452c-0.10755,88.43701 -0.21838,176.87434 -0.32593,265.31135c-2.65637,16.34566 -12.05634,26.3975 -28.1934,30.14902c-48.33947,0.37809 -96.68774,0.54105 -145.04122,0.48891c-47.36916,-0.05541 -94.73864,-0.10755 -142.1078,-0.16296c-6.8466,-0.71054 -12.93083,-3.2072 -18.25238,-7.49651c-5.6615,0.48891 -10.985,-0.59972 -15.97083,-3.25936c-4.71857,-3.29521 -7.48902,-7.80615 -8.31135,-13.52632c-0.10854,-13.25481 -0.2174,-26.50929 -0.32593,-39.76411c0.04921,-5.40531 -1.14599,-10.51174 -3.58529,-15.31896c-2.85812,-4.39295 -6.93232,-6.83747 -12.22258,-7.33355c-1.00095,-0.92012 -1.21835,-2.00646 -0.65187,-3.25936c6.86583,-1.21476 11.59189,-5.07155 14.17819,-11.5707c0.95891,-2.53187 1.61078,-5.13934 1.95561,-7.82244c0.43089,-77.24178 0.64828,-154.48846 0.65187,-231.74002c1.70334,-8.92776 6.97274,-14.36003 15.80786,-16.29677z" fill="#232020" opacity="0.984"/><path d="M80.52448,5.13094c105.92898,-0.05434 211.85796,0 317.78693,0.16296c7.18036,1.20374 11.46966,5.38657 12.87445,12.54851c0.21838,5.21497 0.21838,10.42993 0,15.6449c-0.01956,6.57411 -1.86761,12.54949 -5.5409,17.92644c-2.89756,3.32291 -6.535,5.33263 -10.91883,6.02981c-0.4335,0.86927 -0.4335,1.73821 0,2.60748c8.26898,1.3158 13.4318,6.04187 15.48193,14.17819c0.61276,3.22839 0.93869,6.48775 0.9778,9.77806c0.21838,83.3309 0.21838,166.66148 0,249.99239c-1.48301,7.13146 -5.77232,11.42403 -12.87445,12.87445c-105.71158,0.21838 -211.42348,0.21838 -317.13506,0c-6.82802,-1.50582 -10.90221,-5.68758 -12.22258,-12.54851c-0.31453,-15.21955 -0.20567,-30.42997 0.32593,-45.63095c0.77409,-4.82743 2.62117,-9.17313 5.5409,-13.03741c2.56771,-2.52274 5.6641,-3.77205 9.28916,-3.74825c1.60165,-1.03354 1.71019,-2.22842 0.32593,-3.58529c-6.69797,-1.26332 -11.20664,-5.12045 -13.52632,-11.5707c-1.05537,-2.73134 -1.70724,-5.55589 -1.95561,-8.47431c-0.2174,-76.92073 -0.2174,-153.84147 0,-230.7622c1.46541,-6.4075 5.32252,-10.53603 11.5707,-12.38554z" fill="#da4130"/><path d="M412.97851,45.22099c1.57101,4.06344 3.85256,7.70315 6.84464,10.91883c1.08537,0.76041 2.17399,1.52114 3.25936,2.28154c-2.42822,1.18673 -4.43924,2.87051 -6.02981,5.05199c-1.56448,2.36531 -2.86823,4.86426 -3.91123,7.49651c-1.84154,-5.47799 -5.26386,-9.60662 -10.26696,-12.38554c5.02593,-3.20655 8.39284,-7.66079 10.104,-13.36335z" fill="#fbfbfb"/><path d="M236.32157,118.88237c11.73367,0 23.46734,0 35.20101,0c0,45.73948 0,91.47929 0,137.21878c-15.53636,0 -31.07239,0 -46.60875,0c0.05443,-25.09735 0,-50.19436 -0.16296,-75.29106c-3.53086,2.87899 -7.06204,5.7583 -10.59289,8.63729c-0.32593,0.2174 -0.65187,0.2174 -0.9778,0c-8.59817,-10.44427 -17.07249,-20.98306 -25.42295,-31.61572c16.24918,-12.93865 32.43741,-25.92196 48.56436,-38.94927z" fill="#232020"/><path d="M240.2328,130.29011c6.62724,0 13.25481,0 19.88205,0c0,38.13444 0,76.26886 0,114.4033c-8.03985,0 -16.07937,0 -24.11921,0c-0.05443,-24.87995 0,-49.75957 0.16296,-74.63919c0.11864,-3.80465 0.28161,-7.60733 0.48891,-11.40774c-0.10854,-0.86927 -0.2174,-1.73821 -0.32593,-2.60748c-6.63865,6.5174 -13.70037,12.49277 -21.1858,17.92644c-3.95588,-4.64882 -7.75856,-9.4293 -11.40774,-14.34115c12.07232,-9.89963 24.24046,-19.6777 36.50475,-29.33418z" fill="#fefefe"/><path d="M240.2328,130.29011c6.67939,-0.32496 13.4155,-0.43382 20.208,-0.32593c0.10854,38.29772 0,76.54102 -0.32593,114.72924c0,-38.13444 0,-76.26886 0,-114.4033c-6.62724,0 -13.25481,0 -19.88205,0z" fill="#b1b0b0"/><path d="M66.50927,256.75301c1.52343,3.14821 3.31606,6.19049 5.37793,9.12619c1.53581,1.37479 3.11138,2.67854 4.72606,3.91123c-4.76843,3.00187 -7.97336,7.23903 -9.61509,12.71148c-1.90509,-5.59566 -5.43595,-9.77838 -10.59289,-12.54851c5.05819,-3.10942 8.42607,-7.50955 10.104,-13.20038z" fill="#fbfbfb"/></g></g></svg>