<svg version="1.1" xmlns="http://www.w3.org/2000/svg" xmlns:xlink="http://www.w3.org/1999/xlink" width="380.3798" height="354.09708" viewBox="0,0,380.3798,354.09708"><g transform="translate(-49.8101,-2.95146)"><g fill-rule="evenodd" stroke="none" stroke-miterlimit="10"><path d="M82.39198,2.95146c105.11821,0 210.2361,0 315.35432,0c8.20502,1.69623 13.31783,6.64549 15.33197,14.8478c0.36152,3.10829 0.57777,6.22846 0.64556,9.36057c4.33814,5.34792 6.81384,11.48057 7.42389,18.39836c0.10651,3.12029 0.21626,6.24027 0.32278,9.36057c2.18199,1.84049 4.71256,2.86239 7.58529,3.06639c1.3944,1.13844 1.50415,2.32207 0.32278,3.55056c-2.82108,0.23402 -5.45818,1.04096 -7.90807,2.42084c-0.10651,87.58038 -0.21626,175.16108 -0.32278,262.74146c-2.63064,16.18733 -11.93957,26.14181 -27.92032,29.85698c-47.87124,0.37442 -95.75119,0.53582 -143.6363,0.48417c-46.91032,-0.05487 -93.82097,-0.10651 -140.73131,-0.16139c-6.78028,-0.70366 -12.80558,-3.17614 -18.07558,-7.42389c-5.60666,0.48417 -10.87859,-0.59391 -15.81613,-3.22779c-4.67286,-3.26329 -7.41648,-7.73054 -8.23084,-13.39529c-0.10748,-13.12642 -0.21529,-26.25252 -0.32278,-39.37894c0.04874,-5.35295 -1.13489,-10.40992 -3.55056,-15.17058c-2.83044,-4.3504 -6.86517,-6.77124 -12.10418,-7.26251c-0.99125,-0.9112 -1.20654,-1.98703 -0.64556,-3.22779c6.79933,-1.20299 11.47961,-5.02243 14.04085,-11.45863c0.94961,-2.50734 1.59517,-5.08956 1.93667,-7.74668c0.42671,-76.49359 0.642,-152.99203 0.64556,-229.49531c1.68684,-8.84128 6.9052,-14.22093 15.65475,-16.13891z" fill="#232020" opacity="0.984"/><path d="M82.0692,6.8248c104.90292,-0.05381 209.80584,0 314.70876,0.16139c7.09467,1.17765 11.34566,5.31997 12.74974,12.42696c0.33892,7.3352 0.12588,14.65148 -0.64556,21.94892c-0.88442,5.59277 -3.41499,10.27306 -7.58529,14.04085c-2.51121,1.5248 -5.19996,2.60063 -8.06946,3.22779c-0.42929,0.86085 -0.42929,1.72137 0,2.58223c8.18888,1.30306 13.30169,5.98334 15.33197,14.04085c0.64556,3.19163 0.96833,6.41941 0.96833,9.68335c0.21626,82.52374 0.21626,165.04715 0,247.5709c-1.42022,6.90745 -5.56147,11.15844 -12.42696,12.74974c-104.79543,0.21626 -209.59054,0.21626 -314.38598,0c-6.75769,-1.48477 -10.79241,-5.62925 -12.10418,-12.42696c-0.31148,-15.07213 -0.20367,-30.13521 0.32278,-45.18895c0.64104,-4.83328 2.4699,-9.13721 5.48723,-12.91113c2.54285,-2.4983 5.60924,-3.73551 9.19918,-3.71195c1.58614,-1.02353 1.69362,-2.20684 0.32278,-3.55056c-4.3985,-0.44963 -7.89548,-2.4402 -10.4903,-5.9714c-2.76556,-4.20709 -4.37946,-8.83348 -4.84167,-13.87947c-0.21529,-76.39095 -0.21529,-152.78158 0,-229.17253c1.72944,-5.97918 5.5492,-9.85252 11.45863,-11.62001z" fill="#2bb7a1"/><path d="M411.30297,46.52651c1.55579,4.02407 3.81524,7.62854 6.77834,10.81307c1.07485,0.75304 2.15293,1.5064 3.22779,2.25944c-2.4047,1.17524 -4.39624,2.84271 -5.9714,5.00306c-1.54934,2.3424 -2.84045,4.81715 -3.87334,7.42389c-1.82369,-5.42493 -5.21287,-9.51357 -10.16751,-12.26557c4.97724,-3.17549 8.31154,-7.58658 10.00613,-13.23391z" fill="#fbfbfb"/><path d="M229.90162,113.66438c11.1607,-0.88828 22.02768,0.45641 32.6006,4.03472c20.15266,8.72664 27.73795,23.8433 22.75586,45.35034c-1.68425,5.7377 -4.53535,10.79435 -8.55362,15.17058c10.02485,8.11562 14.49016,18.65949 13.39529,31.63226c-1.19395,16.46395 -9.10203,28.46033 -23.7242,35.98978c-8.39352,3.87366 -17.21635,6.02563 -26.46781,6.45556c-17.74377,1.19751 -34.58213,-2.08418 -50.51479,-9.84473c-0.16139,-15.17025 -0.21529,-30.34083 -0.16139,-45.51173c7.2467,3.56896 14.56278,7.06561 21.94892,10.4903c8.53781,3.43307 17.36062,4.50889 26.46781,3.22779c4.26228,-0.27823 5.93008,-2.48378 5.00306,-6.61696c-3.35302,-1.34276 -6.84968,-2.04222 -10.4903,-2.09806c-8.39158,-0.16139 -16.78382,-0.21529 -25.1767,-0.16139c0.0539,-12.26589 0,-24.53146 -0.16139,-36.79671c-7.115,-10.62586 -14.27003,-21.22364 -21.46475,-31.79366c6.78189,-5.4372 14.09798,-10.06358 21.94892,-13.87947c7.34029,-2.81107 14.87168,-4.69384 22.59447,-5.64862z" fill="#232120"/><path d="M231.19273,124.63885c5.93718,-0.13557 11.85467,0.13331 17.7528,0.80695c7.24153,1.04871 13.6971,3.84622 19.36669,8.39224c6.85968,7.04689 9.06523,15.38523 6.61696,25.01531c-2.43795,8.35318 -7.54881,14.43238 -15.33197,18.23697c-2.76686,1.11939 -5.56437,2.14163 -8.39224,3.06639c5.47529,0.98222 10.74754,2.64969 15.81613,5.00306c9.5452,6.02369 13.47244,14.68479 11.78141,25.98365c-1.56096,12.32142 -8.0701,20.87504 -19.52808,25.66087c-4.68158,1.87437 -9.52325,3.16549 -14.52502,3.87334c-12.32949,1.36309 -24.48724,0.50224 -36.47394,-2.58223c-2.53672,-0.75595 -5.01145,-1.67038 -7.42389,-2.74361c-0.32278,-6.77479 -0.43026,-13.55314 -0.32278,-20.33503c6.59436,3.07672 13.48019,5.28227 20.65781,6.61696c6.68119,1.01869 13.35205,0.9112 20.01225,-0.32278c10.02388,-2.65614 14.16609,-9.16528 12.42696,-19.52808c-1.06646,-4.29456 -3.70259,-7.14566 -7.90807,-8.55362c-4.29231,-1.41087 -8.70339,-2.16423 -13.23391,-2.25944c-4.84038,-0.16139 -9.68205,-0.21529 -14.52502,-0.16139c0,-6.24027 0,-12.48086 0,-18.72114c5.05794,0.0539 10.1149,0 15.17058,-0.16139c5.19415,-0.24886 10.03582,-1.64746 14.52502,-4.19612c3.24166,-2.98925 4.74807,-6.7012 4.5189,-11.13585c0.03486,-4.61218 -1.90181,-8.10916 -5.81001,-10.4903c-8.38739,-2.98473 -16.67214,-2.66195 -24.85392,0.96833c-3.38336,1.52932 -6.61114,3.3046 -9.68335,5.32585c-3.7381,-5.43172 -7.39646,-10.91895 -10.97446,-16.46169c6.46105,-4.84296 13.66966,-8.12466 21.62614,-9.84473c2.96504,-0.40477 5.87005,-0.88893 8.71501,-1.4525z" fill="#fdfdfd"/><path d="M231.83829,155.30278c3.02153,-0.06036 6.03434,0.04713 9.03779,0.32278c0.05326,1.08131 -0.00064,2.15712 -0.16139,3.22779c-0.62361,0.49643 -1.32306,0.87311 -2.09806,1.12973c-2.12066,0.53161 -4.27229,0.85439 -6.45556,0.96833c-4.41141,0.21529 -8.8225,0.21529 -13.23391,0c4.0599,-2.51573 8.36351,-4.39882 12.91113,-5.64862z" fill="#2bb49e"/><path d="M68.18973,256.00957c1.50867,3.11771 3.28394,6.13053 5.32585,9.03779c1.52093,1.36148 3.08124,2.65259 4.68028,3.87334c-4.72224,2.97278 -7.89612,7.1689 -9.52195,12.58835c-1.88664,-5.54146 -5.3833,-9.68367 -10.4903,-12.42696c5.0092,-3.07931 8.34446,-7.43681 10.00613,-13.07252z" fill="#fbfbfb"/></g></g></svg>