<svg version="1.1" xmlns="http://www.w3.org/2000/svg" xmlns:xlink="http://www.w3.org/1999/xlink" width="389.61395" height="362.6932" viewBox="0,0,389.61395,362.6932"><g transform="translate(-45.19302,1.3466)"><g fill-rule="evenodd" stroke="none" stroke-miterlimit="10"><path d="M78.56587,-1.34658c107.67007,0 215.33982,0 323.0099,0c8.40421,1.7374 13.64113,6.80681 15.70417,15.20824c0.37029,3.18375 0.5918,6.37966 0.66123,9.5878c4.44345,5.47775 6.97927,11.75927 7.60413,18.845c0.10911,3.19605 0.22151,6.39176 0.33061,9.5878c2.23495,1.88516 4.82697,2.93189 7.76943,3.14083c1.42825,1.16608 1.54066,2.37844 0.33061,3.63675c-2.88957,0.2397 -5.59068,1.06623 -8.10004,2.4796c-0.10911,89.70649 -0.22151,179.41332 -0.33061,269.11981c-2.6945,16.58029 -12.22941,26.77643 -28.59811,30.5818c-49.03337,0.38351 -98.07566,0.54882 -147.12324,0.49592c-48.04913,-0.05621 -96.09859,-0.10911 -144.14771,-0.1653c-6.94488,-0.72074 -13.11645,-3.25325 -18.51439,-7.60413c-5.74277,0.49592 -11.14268,-0.60833 -16.20009,-3.30614c-4.7863,-3.3425 -7.59652,-7.91821 -8.43066,-13.72048c-0.11009,-13.44508 -0.22052,-26.88983 -0.33061,-40.33491c0.04993,-5.4829 -1.16244,-10.66264 -3.63675,-15.53886c-2.89916,-4.45602 -7.03183,-6.93562 -12.39802,-7.43881c-1.01532,-0.93333 -1.23583,-2.03526 -0.66123,-3.30614c6.96438,-1.23219 11.75829,-5.14436 14.38171,-11.73679c0.97267,-2.56821 1.6339,-5.21313 1.98369,-7.93474c0.43707,-78.35057 0.65759,-156.70609 0.66123,-235.06657c1.72779,-9.05592 7.07283,-14.56616 16.03478,-16.5307z" fill="#232020" opacity="0.984"/><path d="M78.23525,2.62078c107.44956,-0.05512 214.89912,0 322.34867,0.1653c7.28343,1.22103 11.63431,5.46389 13.05925,12.72864c0.22151,5.28982 0.22151,10.57965 0,15.86947c-0.01653,6.66485 -1.89111,12.72599 -5.62044,18.18377c-2.93916,3.37061 -6.62881,5.40918 -11.07556,6.11636c-0.43972,0.88174 -0.43972,1.76316 0,2.64492c8.38768,1.33469 13.6246,6.1286 15.70417,14.38171c0.62155,3.27473 0.95217,6.58087 0.99184,9.91842c0.22151,84.5271 0.22151,169.05386 0,253.58096c-1.50429,7.23384 -5.85517,11.58802 -13.05925,13.05925c-107.22903,0.22151 -214.45841,0.22151 -321.68744,0c-6.92173,-1.52082 -11.05441,-5.7659 -12.39802,-12.72864c-0.31905,-15.43802 -0.20862,-30.86679 0.33061,-46.28597c0.6566,-4.95062 2.52986,-9.35902 5.62044,-13.22456c2.60458,-2.55895 5.74541,-3.82619 9.4225,-3.80206c1.62463,-1.04838 1.73473,-2.26041 0.33061,-3.63675c-6.79412,-1.28146 -11.3675,-5.19394 -13.72048,-11.73679c-1.07053,-2.77054 -1.73176,-5.63564 -1.98369,-8.59596c-0.22052,-78.24543 -0.22052,-156.49053 0,-234.73595c1.78036,-6.13299 5.69251,-10.10036 11.73679,-11.90211z" fill="#5679f2"/><path d="M415.46157,43.28631c1.59356,4.12176 3.90785,7.81374 6.9429,11.07556c1.10094,0.77132 2.2052,1.54297 3.30614,2.3143c-2.46307,1.20377 -4.50297,2.91172 -6.11636,5.12452c-1.58695,2.39927 -2.90941,4.93409 -3.96737,7.60413c-1.86797,-5.55662 -5.33942,-9.74451 -10.41435,-12.56334c5.09807,-3.25258 8.51331,-7.77075 10.24903,-13.55518z" fill="#fbfbfb"/><path d="M247.84025,112.38464c6.61328,-0.05521 13.22555,0 19.83685,0.1653c5.53448,0.8315 11.04482,1.76845 16.5307,2.81022c0.05521,14.43725 0,28.87418 -0.1653,43.31043c-6.06809,-1.46164 -12.18445,-2.72889 -18.34908,-3.80206c-3.9558,-0.48766 -7.92316,-0.59775 -11.90211,-0.33061c19.12834,2.70641 31.41594,13.34094 36.86346,31.90425c2.96792,12.8784 2.30669,25.55184 -1.98369,38.02061c-7.41469,17.41146 -20.58436,27.16457 -39.50837,29.25934c-18.14641,2.40059 -33.63006,-2.83403 -46.45127,-15.70417c-7.87324,-9.60797 -12.61193,-20.62866 -14.21641,-33.0614c-1.99062,-17.30599 -0.44798,-34.27773 4.62859,-50.91456c7.30822,-20.75463 21.57984,-33.92397 42.81452,-39.50837c4.01234,-0.75975 7.9797,-1.47619 11.90211,-2.14899z" fill="#232021"/><path d="M249.82394,123.62552c7.73836,-0.14448 15.45289,0.18613 23.14298,0.99184c0,6.61228 0,13.22456 0,19.83685c-11.16913,-2.60491 -22.18949,-2.10898 -33.0614,1.48776c-10.17895,4.7486 -15.96469,12.73856 -17.35723,23.96951c-0.45691,3.0714 -0.73231,6.15736 -0.82653,9.25719c0.34781,0.04926 0.67842,-0.00562 0.99184,-0.1653c4.3608,-7.25434 10.75289,-11.55232 19.17562,-12.89395c10.39087,-1.56248 19.75816,0.75181 28.10219,6.9429c6.87578,6.72799 10.56775,14.93813 11.07556,24.63074c0.79777,9.92008 -1.07582,19.28736 -5.62044,28.10219c-6.51409,9.90122 -15.71607,15.46678 -27.60627,16.696c-24.54413,2.1437 -40.1382,-8.60126 -46.78188,-32.23487c-0.63214,-3.40499 -1.18326,-6.82156 -1.65307,-10.24903c-1.14492,-13.45533 0.06711,-26.67989 3.63675,-39.67368c5.82443,-19.04899 18.44265,-30.78579 37.85531,-35.21039c3.01355,-0.5475 5.98907,-1.04342 8.92657,-1.48776z" fill="#fefefe"/><path d="M238.91367,184.4585c10.59056,-0.69891 16.70692,4.15019 18.34908,14.54701c0.55312,6.27208 -0.54915,12.22313 -3.30614,17.85316c-2.39596,3.59642 -5.75731,5.63531 -10.08373,6.11636c-6.31704,0.94622 -11.44156,-1.09235 -15.37355,-6.11636c-4.22393,-5.97981 -5.7669,-12.5921 -4.62859,-19.83685c2.6836,-7.03679 7.69802,-11.22435 15.04294,-12.56334z" fill="#242121"/><path d="M239.24429,196.02999c1.54694,-0.05488 3.08959,0.00033 4.62859,0.1653c0.97134,0.66949 1.57769,1.60612 1.81838,2.81022c0.33392,3.45558 0.11373,6.87214 -0.66123,10.24903c-0.98523,2.22304 -2.69352,3.04959 -5.12452,2.4796c-2.33182,-1.40907 -3.81958,-3.44797 -4.46329,-6.11636c-0.44798,-2.07791 -0.5584,-4.17169 -0.33061,-6.28167c1.13731,-1.41404 2.51498,-2.51597 4.13268,-3.30614z" fill="#5678f0"/><path d="M64.01886,257.85481c1.54529,3.1934 3.36367,6.27936 5.45514,9.25719c1.55786,1.39453 3.15604,2.71698 4.79391,3.96737c-4.83689,3.04495 -8.08781,7.34293 -9.75312,12.89395c-1.93244,-5.67598 -5.51399,-9.91875 -10.74496,-12.72864c5.1308,-3.15406 8.54703,-7.61735 10.24903,-13.38987z" fill="#fbfbfb"/></g></g></svg>