<svg version="1.1" xmlns="http://www.w3.org/2000/svg" xmlns:xlink="http://www.w3.org/1999/xlink" width="389.73759" height="362.80833" viewBox="0,0,389.73759,362.80833"><g transform="translate(-45.13121,1.40416)"><g fill-rule="evenodd" stroke="none" stroke-miterlimit="10"><path d="M78.51463,-1.40415c107.70424,0 215.40817,0 323.11242,0c8.40687,1.73796 13.64546,6.80897 15.70915,15.21307c0.37041,3.18476 0.59198,6.38168 0.66143,9.59085c4.44486,5.47948 6.98148,11.76301 7.60654,18.85098c0.10914,3.19706 0.22158,6.39379 0.33072,9.59085c2.23566,1.88576 4.8285,2.93282 7.7719,3.14183c1.4287,1.16644 1.54116,2.37919 0.33072,3.63791c-2.89049,0.23977 -5.59246,1.06657 -8.10261,2.4804c-0.10914,89.73496 -0.22158,179.47026 -0.33072,269.20522c-2.69536,16.58556 -12.2333,26.78493 -28.60719,30.5915c-49.04893,0.38363 -98.10679,0.549 -147.16993,0.49609c-48.06437,-0.05623 -96.12909,-0.10914 -144.19346,-0.16537c-6.94708,-0.72096 -13.1206,-3.25428 -18.52027,-7.60654c-5.74459,0.49609 -11.14623,-0.60852 -16.20523,-3.30719c-4.78782,-3.34357 -7.59894,-7.92072 -8.43333,-13.72484c-0.11013,-13.44935 -0.22059,-26.89836 -0.33072,-40.34771c0.04995,-5.48464 -1.1628,-10.66602 -3.63791,-15.54378c-2.90008,-4.45743 -7.03406,-6.93781 -12.40195,-7.44117c-1.01564,-0.93362 -1.23623,-2.0359 -0.66143,-3.30719c6.96659,-1.23258 11.76202,-5.14599 14.38628,-11.74053c0.97297,-2.56904 1.63441,-5.21478 1.98431,-7.93726c0.4372,-78.37543 0.65779,-156.75582 0.66143,-235.14117c1.72834,-9.05879 7.07508,-14.57079 16.03987,-16.53596z" fill="#232020" opacity="0.984"/><path d="M78.18391,2.56448c107.48367,-0.05513 214.96732,0 322.45098,0.16537c7.28573,1.22141 11.63801,5.46563 13.0634,12.73268c0.22158,5.2915 0.22158,10.58301 0,15.8745c-0.01654,6.66697 -1.89171,12.73003 -5.62223,18.18955c-2.9401,3.37168 -6.63092,5.4109 -11.07909,6.1183c-0.43986,0.88202 -0.43986,1.76372 0,2.64575c8.39034,1.33511 13.62893,6.13053 15.70915,14.38628c0.62175,3.27578 0.95247,6.58297 0.99216,9.92157c0.22158,84.55393 0.22158,169.10751 0,253.66144c-1.50477,7.23612 -5.85703,11.5917 -13.0634,13.0634c-107.26308,0.22158 -214.52647,0.22158 -321.78954,0c-6.92393,-1.52131 -11.05792,-5.76774 -12.40195,-12.73268c-0.31914,-15.44292 -0.20868,-30.87658 0.33072,-46.30065c0.65681,-4.95218 2.53067,-9.36198 5.62223,-13.22876c2.6054,-2.55977 5.74724,-3.82742 9.42548,-3.80327c1.62516,-1.04871 1.73529,-2.26113 0.33072,-3.63791c-6.79627,-1.28187 -11.37111,-5.1956 -13.72484,-11.74053c-1.07087,-2.77143 -1.7323,-5.63743 -1.98431,-8.5987c-0.22059,-78.27026 -0.22059,-156.5402 0,-234.81045c1.78093,-6.13494 5.69432,-10.10356 11.74053,-11.90588z" fill="#5679f2"/><path d="M415.51724,43.24291c1.59407,4.12307 3.9091,7.81621 6.94511,11.07909c1.10129,0.77156 2.20589,1.54347 3.30719,2.31503c-2.46386,1.20415 -4.50439,2.91264 -6.1183,5.12614c-1.58745,2.40003 -2.91033,4.93564 -3.96862,7.60654c-1.86856,-5.5584 -5.34111,-9.74761 -10.41764,-12.56732c5.09969,-3.25361 8.51601,-7.77322 10.25228,-13.55947z" fill="#fbfbfb"/><path d="M244.53555,252.588c-16.92256,0.1098 -33.78923,-0.00033 -50.60001,-0.33072c14.24142,-31.45931 28.57246,-62.87761 42.99347,-94.2549c0.29897,-0.23447 0.4091,-0.5652 0.33072,-0.99216c-16.97679,0 -33.95392,0 -50.93071,0c0,-14.44151 0,-28.88268 0,-43.32418c35.38693,0 70.77385,0 106.16079,0c0.05523,9.92223 0,19.8438 -0.16537,29.76471c-15.85532,36.44754 -31.78506,72.82663 -47.78889,109.13726z" fill="#232020"/><path d="M280.91463,140.80499c0,-5.18137 0,-10.36242 0,-15.54378c-27.67026,0 -55.34019,0 -83.01045,0c0,6.83498 0,13.6696 0,20.50458c-0.32973,-6.88789 -0.44019,-13.83297 -0.33072,-20.8353c27.89053,0 55.78137,0 83.6719,0c0.10914,5.34937 -0.00132,10.64088 -0.33072,15.8745z" fill="#9a9999"/><path d="M280.91463,140.80499c-14.46134,33.44263 -29.01299,66.84524 -43.6549,100.20784c-8.54546,0.10947 -17.03367,-0.00066 -25.46535,-0.33072c14.30425,-31.64087 28.74576,-63.22454 43.32418,-94.75098c-19.07124,-0.16537 -38.14247,-0.22059 -57.21438,-0.16537c0,-6.83498 0,-13.6696 0,-20.50458c27.67026,0 55.34019,0 83.01045,0c0,5.18137 0,10.36242 0,15.54378z" fill="#fefefe"/><path d="M186.32901,157.01022c16.97679,0 33.95392,0 50.93071,0c0.07838,0.42696 -0.03175,0.75768 -0.33072,0.99216c-16.8088,-0.55065 -33.67545,-0.88137 -50.60001,-0.99216z" fill="#3d4c88"/><path d="M211.79437,240.68211c8.43168,0.33006 16.91992,0.44019 25.46535,0.33072c-8.54445,0.43952 -17.14315,0.43952 -25.79608,0c0.041,-0.20074 0.15114,-0.31087 0.33072,-0.33072z" fill="#c8c7c7"/><path d="M193.93554,252.25728c16.81078,0.33038 33.67744,0.44052 50.60001,0.33072c-16.92223,0.44019 -33.89936,0.44019 -50.93071,0c0.041,-0.20074 0.15114,-0.31087 0.33072,-0.33072z" fill="#4962bd"/><path d="M63.963,257.8795c1.54579,3.19442 3.36473,6.28134 5.45686,9.26013c1.55834,1.39497 3.15704,2.71785 4.79543,3.96862c-4.83841,3.04592 -8.09037,7.34526 -9.75621,12.89804c-1.93305,-5.67778 -5.51573,-9.9219 -10.74836,-12.73268c5.13242,-3.15506 8.54974,-7.61977 10.25228,-13.39412z" fill="#fbfbfb"/></g></g></svg>