<svg version="1.1" xmlns="http://www.w3.org/2000/svg" xmlns:xlink="http://www.w3.org/1999/xlink" width="386.49726" height="359.79186" viewBox="0,0,386.49726,359.79186"><g transform="translate(-46.75137,-0.10407)"><g fill-rule="evenodd" stroke="none" stroke-miterlimit="10"><path d="M79.85726,0.10407c106.80877,0 213.61722,0 320.42599,0c8.33698,1.72351 13.53201,6.75236 15.57854,15.08659c0.36732,3.15828 0.58707,6.32863 0.65594,9.51111c4.40791,5.43393 6.92343,11.66521 7.54329,18.69425c0.10823,3.17048 0.21973,6.34063 0.32797,9.51111c2.21707,1.87009 4.78836,2.90843 7.70728,3.11571c1.41683,1.15674 1.52834,2.35941 0.32797,3.60767c-2.86645,0.23778 -5.54596,1.0577 -8.03525,2.45976c-0.10823,88.98889 -0.21973,177.97811 -0.32797,266.967c-2.67295,16.44766 -12.13159,26.56223 -28.36934,30.33716c-48.64113,0.38045 -97.2911,0.54442 -145.94633,0.49196c-47.66476,-0.05576 -95.32985,-0.10823 -142.99461,-0.16399c-6.88932,-0.71497 -13.01153,-3.22722 -18.36628,-7.54329c-5.69682,0.49196 -11.05355,-0.60347 -16.0705,-3.27969c-4.74801,-3.31577 -7.53575,-7.85487 -8.36322,-13.61072c-0.10922,-13.33753 -0.21875,-26.67473 -0.32797,-40.01226c0.04953,-5.43905 -1.15314,-10.57734 -3.60767,-15.41455c-2.87597,-4.42037 -6.97558,-6.88014 -12.29885,-7.37931c-1.00719,-0.92585 -1.22595,-2.01898 -0.65594,-3.27969c6.90868,-1.22235 11.66423,-5.1032 14.26666,-11.64291c0.96489,-2.54766 1.62082,-5.17142 1.96782,-7.87126c0.43358,-77.7238 0.65233,-155.45252 0.65594,-233.18616c1.71397,-8.98348 7.01624,-14.44964 15.90651,-16.39847z" fill="#232020" opacity="0.984"/><path d="M79.52929,4.0397c106.59002,-0.05467 213.18004,0 319.77006,0.16399c7.20877,1.19659 11.52812,5.40552 12.95479,12.62682c0.34437,7.45317 0.1279,14.88712 -0.65594,22.30191c-0.89864,5.68272 -3.46992,10.43827 -7.70728,14.26666c-2.5516,1.54933 -5.28358,2.64245 -8.19923,3.27969c-0.4362,0.8747 -0.4362,1.74906 0,2.62375c8.32059,1.32401 13.51562,6.07956 15.57854,14.26666c0.65594,3.24296 0.9839,6.52265 0.9839,9.83908c0.21973,83.85092 0.21973,167.70152 0,251.55245c-1.44306,7.01854 -5.65091,11.3379 -12.62682,12.95479c-106.4808,0.21973 -212.96129,0.21973 -319.44209,0c-6.86636,-1.50866 -10.96598,-5.71978 -12.29885,-12.62682c-0.31649,-15.31453 -0.20695,-30.61987 0.32797,-45.9157c0.65135,-4.91101 2.50962,-9.28415 5.57547,-13.11877c2.58374,-2.53848 5.69946,-3.79559 9.34712,-3.77165c1.61164,-1.03999 1.72085,-2.24232 0.32797,-3.60767c-4.46924,-0.45687 -8.02245,-2.47945 -10.659,-6.06743c-2.81004,-4.27475 -4.44989,-8.97554 -4.91954,-14.10268c-0.21875,-77.6195 -0.21875,-155.23869 0,-232.85819c1.75726,-6.07534 5.63844,-10.01097 11.64291,-11.8069z" fill="#2ab7a1"/><path d="M414.05796,44.37992c1.58082,4.08879 3.8766,7.75122 6.88736,10.98697c1.09214,0.76515 2.18755,1.53063 3.27969,2.29579c-2.44337,1.19414 -4.46695,2.88842 -6.06743,5.08353c-1.57425,2.38008 -2.88613,4.89461 -3.93564,7.54329c-1.85303,-5.51218 -5.29671,-9.66656 -10.33103,-12.46283c5.05729,-3.22657 8.44521,-7.70859 10.16705,-13.44675z" fill="#fbfbfb"/><path d="M234.33079,112.59754c9.88893,-0.46539 19.50925,0.90126 28.8613,4.09961c19.59419,8.52162 27.52023,23.33468 23.77777,44.43984c-1.82089,7.19728 -5.37377,13.37393 -10.659,18.53026c14.40507,12.54974 18.61423,27.90986 12.62682,46.07969c-4.64962,10.8807 -12.46611,18.58799 -23.4498,23.12183c-16.85893,6.09105 -33.80413,6.30947 -50.83524,0.65594c-19.10585,-7.9713 -27.90626,-22.34717 -26.40152,-43.12796c1.40863,-10.80069 6.16418,-19.76507 14.26666,-26.89348c-10.72918,-12.55433 -13.40771,-26.65702 -8.03525,-42.30803c4.61355,-9.42354 11.77443,-16.14691 21.48198,-20.17011c5.98281,-2.20658 12.10469,-3.68244 18.36628,-4.42758z" fill="#232121"/><path d="M233.67486,124.07646c10.33235,-1.02655 20.17142,0.66775 29.51723,5.08353c12.58057,7.82535 16.46144,18.81232 11.64291,32.96091c-2.80151,6.19173 -7.11989,11.0565 -12.95479,14.59464c-1.8586,1.03868 -3.71687,2.07702 -5.57547,3.11571c6.95229,3.55814 13.01972,8.25925 18.2023,14.10268c5.87261,7.83027 7.40325,16.46668 4.59157,25.90958c-3.41449,8.98996 -9.59114,15.27616 -18.53026,18.85823c-3.57946,1.4962 -7.29634,2.4801 -11.15096,2.95172c-8.94307,1.01408 -17.79823,0.57657 -26.56551,-1.31188c-19.61256,-6.29177 -26.88266,-19.46531 -21.80995,-39.5203c3.08947,-7.57215 8.17299,-13.42116 15.25057,-17.54636c1.63985,-0.92914 3.27969,-1.8586 4.91954,-2.78774c-3.87298,-2.51814 -7.42588,-5.46987 -10.659,-8.85517c-7.34749,-8.7512 -9.31531,-18.59028 -5.90344,-29.51723c3.81067,-7.63578 9.7689,-12.82852 17.87433,-15.57854c3.67129,-1.24726 7.38817,-2.06719 11.15096,-2.45976z" fill="#fefefe"/><path d="M236.29861,141.78681c6.13368,-0.88912 11.32642,0.86026 15.57854,5.24751c1.71528,2.93795 2.26201,6.1081 1.63985,9.51111c-1.07114,3.94186 -3.31216,7.05757 -6.72337,9.34712c-2.1905,1.42371 -4.48629,2.68115 -6.88736,3.77165c-4.92774,-2.14492 -9.02736,-5.31508 -12.29885,-9.51111c-3.84446,-9.42715 -0.94717,-15.54935 8.69119,-18.36628z" fill="#232020"/><path d="M237.93845,152.93776c1.20758,-0.05412 2.40992,0.00033 3.60767,0.16399c0.46244,0.12069 0.79041,0.39389 0.9839,0.81992c-1.69659,3.44892 -3.44565,3.44892 -5.24751,0c0.14496,-0.40636 0.36371,-0.73432 0.65594,-0.9839z" fill="#2bad98"/><path d="M238.26642,190.65423c6.88572,2.59325 12.62518,6.74764 17.21839,12.46283c2.86186,5.1829 2.75264,10.32086 -0.32797,15.41455c-2.64409,3.04454 -5.97855,4.84837 -10.00307,5.4115c-5.27637,0.99441 -10.41467,0.55722 -15.41455,-1.31188c-5.88443,-3.07635 -8.45374,-7.94145 -7.70728,-14.59464c0.91372,-4.94315 3.3735,-8.93355 7.37931,-11.97087c2.75395,-2.14164 5.70568,-3.94547 8.85517,-5.4115z" fill="#242121"/><path d="M238.26642,203.44503c2.84842,1.14625 5.30818,2.89564 7.37931,5.24751c1.43454,2.18985 0.83337,3.55617 -1.80383,4.09961c-2.73297,0.21875 -5.46627,0.21875 -8.19923,0c-0.7868,-0.23974 -1.49718,-0.62248 -2.1318,-1.14789c-0.25156,-1.34271 -0.14234,-2.65458 0.32797,-3.93564c1.2253,-1.7179 2.70116,-3.139 4.42758,-4.2636z" fill="#2bb59f"/><path d="M65.42661,257.23199c1.53293,3.16786 3.33676,6.22913 5.4115,9.18314c1.5454,1.38337 3.13079,2.69526 4.75555,3.93564c-4.79819,3.0206 -8.02311,7.28419 -9.6751,12.7908c-1.91698,-5.63058 -5.46987,-9.83941 -10.659,-12.62682c5.08976,-3.12882 8.47866,-7.55642 10.16705,-13.28276z" fill="#fbfbfb"/></g></g></svg>