<svg version="1.1" xmlns="http://www.w3.org/2000/svg" xmlns:xlink="http://www.w3.org/1999/xlink" width="386.72626" height="360.00503" viewBox="0,0,386.72626,360.00503"><g transform="translate(-46.63687,0.00252)"><g fill-rule="evenodd" stroke="none" stroke-miterlimit="10"><path d="M79.76238,-0.0025c106.87206,0 213.74378,0 320.61584,0c8.34192,1.72453 13.54003,6.75637 15.58778,15.09552c0.36755,3.16015 0.58741,6.33237 0.65633,9.51674c4.41052,5.43715 6.92754,11.67213 7.54776,18.70533c0.1083,3.17235 0.21987,6.34439 0.32816,9.51674c2.21839,1.87119 4.79119,2.91015 7.71184,3.11755c1.41767,1.15743 1.52924,2.3608 0.32816,3.6098c-2.86815,0.23792 -5.54925,1.05833 -8.04001,2.46123c-0.1083,89.04161 -0.21987,178.08356 -0.32816,267.12518c-2.67454,16.45741 -12.13877,26.57797 -28.38615,30.35513c-48.66994,0.38067 -97.34875,0.54475 -146.03281,0.49225c-47.693,-0.05578 -95.38634,-0.1083 -143.07934,-0.16408c-6.8934,-0.71539 -13.01924,-3.22913 -18.37717,-7.54776c-5.7002,0.49225 -11.06009,-0.60382 -16.08001,-3.28164c-4.75082,-3.31774 -7.54021,-7.85951 -8.36817,-13.6188c-0.10928,-13.34543 -0.21888,-26.69054 -0.32816,-40.03596c0.04956,-5.44226 -1.15383,-10.58361 -3.6098,-15.42368c-2.87767,-4.42299 -6.97971,-6.88422 -12.30613,-7.38368c-1.00779,-0.92641 -1.22667,-2.02017 -0.65633,-3.28164c6.91276,-1.22306 11.67114,-5.10623 14.27511,-11.6498c0.96546,-2.54917 1.62179,-5.17449 1.96898,-7.87592c0.43383,-77.76985 0.65272,-155.54463 0.65633,-233.32433c1.71498,-8.98879 7.02041,-14.4582 15.91594,-16.40819z" fill="#232020" opacity="0.984"/><path d="M79.43422,3.93546c106.65317,-0.05471 213.30635,0 319.95952,0.16408c7.22944,1.21197 11.54808,5.4234 12.96246,12.63429c0.21987,5.25062 0.21987,10.50123 0,15.75186c-0.01641,6.61545 -1.87709,12.63167 -5.57878,18.049c-2.91738,3.34563 -6.57968,5.36908 -10.99348,6.07102c-0.43646,0.87522 -0.43646,1.7501 0,2.62531c8.32551,1.3248 13.52363,6.08317 15.58778,14.27511c0.61694,3.25046 0.94512,6.5321 0.98449,9.84491c0.21987,83.9006 0.21987,167.80088 0,251.70149c-1.49315,7.18022 -5.81177,11.50213 -12.96246,12.96246c-106.43429,0.21987 -212.8689,0.21987 -319.30319,0c-6.87043,-1.50956 -10.97247,-5.72317 -12.30613,-12.63429c-0.31668,-15.3236 -0.20707,-30.63801 0.32816,-45.9429c0.65173,-4.91393 2.51111,-9.28965 5.57878,-13.12654c2.58527,-2.53999 5.70283,-3.79784 9.35266,-3.77388c1.6126,-1.04061 1.72187,-2.24366 0.32816,-3.6098c-6.74376,-1.27196 -11.28325,-5.15545 -13.6188,-11.6498c-1.0626,-2.75002 -1.71893,-5.59388 -1.96898,-8.53225c-0.21888,-77.6655 -0.21888,-155.33067 0,-232.99617c1.76716,-6.08753 5.65032,-10.0255 11.6498,-11.81389z" fill="#5679f2"/><path d="M414.1611,44.29958c1.58175,4.09121 3.8789,7.75582 6.89143,10.99348c1.09279,0.76561 2.18885,1.53153 3.28164,2.29714c-2.44482,1.19485 -4.46959,2.89014 -6.07102,5.08653c-1.57519,2.38148 -2.88784,4.89752 -3.93796,7.54776c-1.85412,-5.51545 -5.29985,-9.6723 -10.33715,-12.47021c5.06029,-3.22847 8.45021,-7.71315 10.17307,-13.4547z" fill="#fbfbfb"/><path d="M65.32319,257.27777c1.53384,3.16973 3.33874,6.23281 5.4147,9.18858c1.54631,1.3842 3.13265,2.69685 4.75837,3.93796c-4.80104,3.02238 -8.02786,7.28851 -9.68082,12.79838c-1.91811,-5.63391 -5.47311,-9.84524 -10.66531,-12.63429c5.09277,-3.13068 8.48368,-7.56089 10.17307,-13.29062z" fill="#fbfbfb"/></g></g></svg>